<?xml version="1.0" encoding="utf-8"?>
<!-- Generator: Adobe Illustrator 23.0.4, SVG Export Plug-In . SVG Version: 6.00 Build 0)  -->
<svg version="1.1" id="Layer_1" xmlns="http://www.w3.org/2000/svg" xmlns:xlink="http://www.w3.org/1999/xlink" x="0px" y="0px"
	 viewBox="0 0 288 288" style="enable-background:new 0 0 288 288;" xml:space="preserve">
<style type="text/css">
	.st0{fill:#8A6B5E;}
	.st1{fill:#BCA9A0;}
	.st2{fill:#E0A57A;}
	.st3{fill:#6B7378;}
	.st4{fill:#42515A;}
	.st5{fill:#F2DBC1;}
	.st6{fill:#F6F0EE;}
</style>
<path class="st0" d="M169,234.7l15-5.5l-3-12.5l-23.4-19.4l-23.9,8l-7,51.3l1.5,2.5c0,0,5,2.5,7.5,1.5c0,0,5.5,1.5,7,0
	c0,0,3.5,0.5,9.5-1.5c6-2,11.5-4.5,11.5-4.5v-13.5l6.5-0.5v-2.5l5.5-1.5C175.5,236.7,170.5,234.2,169,234.7z"/>
<polygon class="st1" points="124.7,76.2 128.6,76.2 127.2,78.2 133.6,78.2 127.2,82.2 131.1,83.7 128.1,85.7 136.6,87.7 127.2,93.2 
	132.1,97.6 128.1,99.6 132.6,100.6 128.6,102.6 139.1,108.1 136,108.4 133.6,108.6 132.1,111.1 148.1,112.6 137.6,116.1 
	141.6,117.6 137.6,118.1 144.6,120.1 140.6,122.6 145.1,124.1 133.1,125.6 143.1,129 129.6,132 133.6,133 130.1,134.5 136.6,136.5 
	125.7,140 93.8,113.1 110.7,76.2 "/>
<path class="st1" d="M158.1,139.5c0,0-23.4-13.5-16.9-38.4c6.5-24.9,16-29.9,16-29.9s25.9-22.4,40.9-26.4l-2,5l9-7l-1.5,6
	c0,0,12-10,13.5-8l-13,16.5l4-0.5l-3,6l15-4.5l-9.5,7.5h3.5l-2.5,3c0,0,36.9,23.9,43.4,55.3l10.5,1.5l-4,3l20.4,3.5l-9,4.5l15,4.5
	l-19.4,5.5l4,3l-8.5,1l1.5,2l-3,0.5l6,4.5l-26.4,0.5l3,5l-4.5,0.5l3.5,4.5l-27.4-15c0,0-8,24.4-15.5,27.4
	C193.5,183.4,158.1,139.5,158.1,139.5z"/>
<polygon class="st1" points="73.3,243.2 80.8,235.7 93.3,232.7 87.3,228.2 92.8,224.8 87.8,224.8 95.7,219.3 95.2,200.3 75.3,189.9 
	67.3,215.3 "/>
<path class="st2" d="M108.7,115.6l11.5,17.9l27.9,8c0,0,19.9-10.5,31.9-1.5s14,13.5,14,13.5s11.5,16,11,34.9s17.4,31.9,17.4,31.9
	l-13,31.9c0,0,4.5,11.5-2,15c-6.5,3.5-15,7-17.4,5.5c0,0-11,1.5-12.5-0.5c0,0-9-0.5-9-4c0-3.5,1.5-8,1.5-8s1.5-3,7-4
	c5.5-1,9-16.9,9-16.9l-8.5-17.9c0,0-16.9-6.5-20.4-17.4c-3.5-11-5.5-18.9-5.5-18.9l-26.9,30.4c0,0,8.5,42.9,2.5,63.3
	c0,0-12.5,10-17.4,6.5c0,0-11.5,1-14-1c0,0-12-0.5-11-6.5c1-6,7-8,7-8s9-13,1.5-48.9l-8-30.9l-12.5,17.9l2,41.9c0,0,2,20.9-4.5,22.4
	c-6.5,1.5-16,4-16,4l-3.5-2c0,0-10.5,3.5-11.5,1c0,0-9-1.5-6-8c3-6.5,6.5-7.5,6.5-7.5s9.5-12.5,6-36.4c-3.5-23.9-8-30.4-8-30.4
	l-2-12l3-21.4l47.4-45.9L108.7,115.6z"/>
<path class="st3" d="M106.2,123.1l10,15c0,0,24.4,9.5,39.4,18.4l-5.5-6.5l3,1l-3-3l3-1l-8-6l-22.4-6.5c0,0-12-9.5-12.5-16.9
	c-0.5-7.5-6-3-6-3S102.2,120.1,106.2,123.1z"/>
<path class="st3" d="M172.5,164.4c0,0,8-14,4-25.4c0,0,12.5,3.5,14.5,11c0,0-3.5,12.5-5.5,13v-3l-3.5,2l-0.5-2.5l-4,6.5l0.5-4.5
	L172.5,164.4z"/>
<path class="st3" d="M194,153.5c0,0,8.5,11,7.5,18.4c0,0-10,22.4-24.9,26.9l2.5-3.5c0,0-15.5,9-16,7.5s6-5.5,6-5.5l-3-1.5l7.5-4.5
	l-5.5,1.5C168,192.9,196.4,166.4,194,153.5z"/>
<path class="st3" d="M179.4,207.3c0,0,25.4-17.4,25.4-25.4c0,0,0.5,16,2.5,17.9c0,0-10.5,13.5-14,12l0.5-2.5l-6.5,2.5l3.5-4l-7,1.5
	l2.5-3L179.4,207.3z"/>
<path class="st4" d="M152.6,183.4c-1.5,1.2-3,2.3-4.5,3.5l-0.5-2.5l-4,9.5l-3-0.5l-3.5,5l-2-1.5c0,0-5.5,11.5-7.5,3.5l-4,3.5l1,11.5
	c10.8-3.3,21.6-6.6,32.4-10c-0.9-2.5-1.8-5.4-2.5-8.5C153.4,191.9,152.8,187.3,152.6,183.4z"/>
<path class="st3" d="M119.2,146.5l24.4,12.5l-2-5c0,0,12.5,11,12.5,14c0,0-31.4,24.9-31.4,30.9l0.5,8l-11-16l3,1l-20.4-23.9l9-4
	l19.4,24.9l-1.5-11l16-13l-25.9-11L119.2,146.5z"/>
<path class="st3" d="M92.3,216.3l11.5,12l14-20.4l-1,7.5l2-2l1-1l3.5-5.5l2,12l-8,7.5l6.5-2l-15,27.4l-1.5-3.5l0.5,7l-3-4v5l-9-19.4
	C95.7,236.7,94.8,224.3,92.3,216.3z"/>
<polygon class="st3" points="126.2,234.2 123.7,246.2 126.2,246.2 123.7,251.2 128.6,246.7 "/>
<path class="st3" d="M40.9,197.8l7.5-15l-3.5,0.5l8.5-13l-4.5-4c0,0-13,15.5-12.5,18.4C36.4,184.9,39.4,195.3,40.9,197.8z"/>
<polygon class="st3" points="45.9,216.8 50.9,225.8 71.3,198.3 72.8,207.8 73.8,232.2 68.3,239.7 70.3,233.7 66.3,236.7 67.8,221.8 
	53.4,249.2 51.9,243.7 49.9,246.7 46.9,237.7 "/>
<path class="st5" d="M42.4,127.1c0,0,0.5,4.5-0.5,6l-11.5,7l4.5,1.5L24,152l8.5-1.5l-8,12l11-4.5l-2,2.5l3,0.5l-4.5,3.5l10.5,1
	l-2,3.5l8.5-2.5l-4,13l6-2.5l-3,14l2.5-3.5v3l2-2l1,10.5l3.5-5.5l7,11.5l-0.5-5l11.5,12l0.5-3.5l3,2.5l11,9l-3.5-15l4.5,5l-5-19.9
	l5,4.5v-5h2.5l-6-13l2.5,2v-5l2,1l-1-4l14.5,3l-3.5-4l4.5,2l-2-3.5l8.5,5.5l-5-9l4,1l-3.5-4l6,0.5l-6-5.5h16.5l-7.5-5l3.5-0.5l-3-3
	h5.5l-12.5-7.5l4-1l-10-3.5l-3-4l5,0.5l-8-7l-1.5-3.5l10.5,5.5l-3-3.5l4,1.5l-3-7l9.5,5l-4.5-6l8,2.5l-3.5-3.5h5l-4-5c0,0,11,3,13,1
	l-5-3.5l3.5,0.5l-6-4l17.9,2.5l-10.5-5.5l4-2l-6.5-4.5l7-1l-15.5-6.5l4-1.5l-11.5-5.5l12.5-22.9l4-2.5l-2-1.5l12.5-8l-21.4,3l9-8
	l-16.9,3.5l3.5-5l-11.5,5.5l1-6.5l-7,3.5l6-14.5l-8.5,5.5l9.5-16.5c0,0-16.5,7-16.5,10l4-8.5c0,0-18.9,13.5-19.4,23.4l-2-10l-2,3.5
	l-2,1l3.5-14c0,0-10,10-10.5,12.5l-2-4.5l-3.5,14l-2-4l-1.5,3l-3-9.5l-3,18.9l-3-3.5l-0.5,3.5l-7.5-7l2.5,10l-0.5,3.5l-5.5-3l4,9.5
	L27,85.7l-7.5,5.5l7,0.5l-1.6,0.8l-1.4,0.7l-9,6l5.5,0.5l-3.5,2h5l-11.5,9l18.9-2l-2.5,5l5.5-1.5l-5,11l3-2l0.5,2l4-4.5l-0.5,7.5
	l7-4.5l-1.5,8.5L42.4,127.1z"/>
<path class="st3" d="M68.8,95.6c0,0,7.5,1.5,4.5,5c-3,3.5-6.5,3-6.5,3s-8.5-2-6-6C63.3,93.7,68.8,95.6,68.8,95.6z"/>
<path class="st2" d="M72.8,94.2c0,0,12.5-22.9,18.9-21.9l3.5,2c0,0,6.5-12,13-14c6.5-2,14.5-1.5,14.5-1.5l13.5,2.5
	c0,0-15.5,23.9-22.9,23.4c-7.5-0.5-16-2.5-16-2.5s-7.5,14.5-17.9,15L72.8,94.2z"/>
<path class="st2" d="M61.4,94.2c0,0-4.5-16-18.4-20.4l-2.5,2c0,0-3-9.5-7.5-11c-4.5-1.5-22.4-2.5-22.4-2.5l-8.5,2
	c0,0,11.5,21.9,16.9,22.4s22.4-2.5,22.4-2.5s2.5,7.5,5.5,8.5c3,1,8,5,8,5L61.4,94.2z"/>
<polygon class="st6" points="55.4,111.1 57.4,114.1 58.4,112.1 "/>
<polygon class="st6" points="77.3,112.1 79.3,113.6 81.8,111.6 "/>
</svg>
