<?xml version="1.0" encoding="utf-8"?>
<!-- Generator: Adobe Illustrator 23.0.4, SVG Export Plug-In . SVG Version: 6.00 Build 0)  -->
<svg version="1.1" id="Layer_1" xmlns="http://www.w3.org/2000/svg" xmlns:xlink="http://www.w3.org/1999/xlink" x="0px" y="0px"
	 viewBox="0 0 288 288" style="enable-background:new 0 0 288 288;" xml:space="preserve">
<style type="text/css">
	.st0{fill:#F6F9FD;}
	.st1{fill:#CDD0D8;}
	.st2{fill:#6F6F76;}
	.st3{fill:#396284;}
	.st4{fill:#4D94B5;}
	.st5{fill:#ACA5A2;}
	.st6{fill:#6085AB;}
	.st7{fill:#84BADC;}
	.st8{fill:#D2E5EA;}
	.st9{fill:#4686A3;}
	.st10{fill:#EECDDA;}
	.st11{fill:#B0AAA7;}
</style>
<path class="st0" d="M62.9,254c0,0,2.7,3.1,3.2,3c0.6-0.1,0.7-4.1,0.7-4.1L62.9,254z"/>
<path class="st0" d="M70.8,256.2c0,0,1.8,4.1,3.2,4.1c1.4,0,1.1-3.4,1.1-3.4L70.8,256.2z"/>
<path class="st1" d="M95,232.7c0,0,2.1,2,2.1,3.4c0,1.4-2.2-0.1-2.2-0.1L95,232.7z"/>
<path class="st1" d="M97.7,267.6c0,0,1.8,3,2.2,2.1c0.4-0.8,0.8-4.4,0.8-4.4L97.7,267.6z"/>
<path class="st1" d="M103.3,269.7c0,0,2.4,4.4,2.8,3.5s0.5-3.2,0.5-3.2L103.3,269.7z"/>
<path class="st1" d="M118,273.4c0,0,1.3,3.1,1.5,2.7s1.4-3.7,1.1-4.2S118,273.4,118,273.4z"/>
<path class="st1" d="M127.2,249c0,0,2.8,0.6,3.3,0s0-3,0-3l-2.8,1.3L127.2,249z"/>
<path class="st2" d="M83.7,229.9c0,0-11.6,4.9-13.9,3.8c0,0-4.9,7.1-6.7,7.1c-1.9,0,0,6.7,0,6.7l18.4-12.4L83.7,229.9z"/>
<path class="st2" d="M89,231l4.5,0.4c0,0,3.4,4.1,0.4,4.9s-6,0.8-6,0.8L89,231z"/>
<path class="st2" d="M117.9,204.4l4.1,12c0,0,2.6,3.4-4.5,15c-7.1,11.6-22.5,33-22.5,33s1.9,5.6,4.1,2.2c2.2-3.4,2.2-4.5,2.2-4.5
	l6.4-6c0,0-6.4,11.2-4.9,12.7c1.5,1.5,3.7,1.1,3.7,1.1l2.6-7.9l5.6-6c0,0,2.2,0.8,1.9,3.8s-0.4,7.9-0.4,7.9s1.1,6.8,3,5.2
	c1.9-1.5,1.9-1.5,1.9-1.5L122,252l5.2-3l0.4-7.1l-3.7-9.7l6-15l-4.9-13.9C125,203.2,118.2,199.5,117.9,204.4z"/>
<path class="st3" d="M227.4,172.1c0,0,3.4,25.1-29.2,46.5c0,0-37.5,19.5-76.9,13.1c0,0-40.9,3.4-39,34.1c0,0-3.8,16.9,19.1,19.5
	c0,0-14.2-7.5-3.8-23.2c10.5-15.7,42.4-17.2,42.4-17.2l56.6,4.9c3.2-0.5,32.3-5,49.9-22.5c8.7-8.7,14.7-20,14.7-20
	c2.4-4.5,4-8.5,5.1-11.5c0.5-1.7,1.2-4.2,1.7-7.3c1.1-6.6,1.8-10.6-0.1-14.4c-0.6-1.2-2.7-5-9.2-7.2c-2.8-0.5-6.2-0.9-10-0.8
	C239,166.3,231.6,169.7,227.4,172.1z"/>
<path class="st4" d="M131.7,191.2c0,0,11.6,9.7,38.6-19.5c27-29.2,45.4-24.7,45.4-24.7s24.7-3,40.5,11.2c0,0,12.4,7.1,12.4,16.9
	c0,0-10.1-17.6-41.2-3c-5.6,3.5-14,8.7-24.4,14.6c-19.6,11.2-29.5,16.8-39.4,18.7c-7.5,1.5-20.8,2.6-38.6-4.1
	C127.2,198,129.5,194.6,131.7,191.2z"/>
<path class="st5" d="M92.7,204.7l0.8,5.6l-9.7,19.5l-7.5,6.8c0,0-8.6,6-10.5,6c-1.9,0-2.6,4.9-2.6,4.9s-4.1,6,0.4,6.4
	s3.7-4.1,3.7-4.1l0.4-3l9.7-4.1c0,0-3,5.6-4.9,6c-1.9,0.4-2.6,6.4-2.6,6.4s4.9,3.8,5.2,1.9s0.4-3,0.4-3L89.7,237l-0.8-6
	c0,0,7.1-13.9,10.1-16.5c3-2.6-0.8-14.2-0.8-14.2L92.7,204.7z"/>
<path class="st6" d="M75.1,180.4c0,0,3.4,14.6,15.4,19.5l-1.9,2.6l2.2,1.1l-1.5,2.2l5.6-1.1l2.2-1.9l2.6,2.6l1.1-1.9l2.2,0.8
	l-2.6-3.8l4.1-4.1c0,0-12-7.9-12-9.7S75.1,180.4,75.1,180.4z"/>
<path class="st6" d="M84.6,124.6c-3.6-5-7.3-10.1-11.1-15.2c-3.6-4.8-7.2-9.5-10.7-14.1l7.1-50.6c0,0-25.5-39-37.5-40.1
	c0,0-6,4.5,0.4,13.1c6.4,8.6,13.9,20.6,13.9,20.6L30.5,22.9c0,0-5.6,7.1-0.4,13.1c5.2,6,18,19.9,18,19.9L24.5,43.1
	c0,0-6.8,6.8,3.8,13.9c10.5,7.1,14.2,9.8,14.2,9.8s-20.2-10.5-20.2-7.9s1.9,8.2,1.9,8.2s18,13.1,22.1,13.9l-20.6-4.1
	c0,0-1.9,9.7,5.6,10.9c7.5,1.1,10.9,2.2,10.9,2.2l-17.2,5.6l0.8,4.1l18.7-1.5l-15.7,12l1.5,4.1l13.5-3.4l-4.1,3l0.8,1.9l6-2.2
	l-6.4,8.2l2.2,2.2l10.1-5.6L47,129.7l3,6l7.1-9.4l-4.9,10.5l3,4.5l8.6-11.6l-4.1,9.8l3.4,3l4.1-9.8l0.4,10.5l3.4,1.5
	C75.5,138,80,131.3,84.6,124.6z"/>
<path class="st7" d="M83.5,117.8l0.6-7.6l-0.8-10.7c0,0-0.3-4.2,0.8-5.3c1.1-1.1,17.2-3.1,17.2-3.1l11.8,0.6c0,0,1.7,10.1-0.3,18.6
	c-2,8.4,3.4,14.9,3.4,14.9s19.1-18,28.4-19.4l1.1-1.1c0,0,12.9-60.5,19.4-65.5c0,0,44.2-31.2,67.2-30.1c0,0,2.2,5.1-3.4,8.4
	c-5.6,3.4-28.4,16.6-28.4,16.6L230,23.6c0,0,3.7,9.6-12.1,15.5s-19.4,8.2-19.4,8.2l28.1-4.8c0,0,0,9-12.4,12.9
	c-12.4,3.9-17.2,6.7-17.2,6.7l26.4-3.9c0,0,2.2,8.7-6.7,11.5c-9,2.8-20,7.9-20,7.9l21.7-3.4c0,0-1.7,12.1-14.3,14.1
	c0,0,2.8,6.5-7,9.8s-22.5,8.4-22.5,8.4s22.2,10.4,21.7,12.4l-4.5,5.3l-11.8-2.2c0,0,11,5.9,9,7.6s-5.3,3.7-5.3,3.7l-18.8-7.6
	c0,0,10.7,9.8,9.8,11.8c-0.8,2-2.8,3.7-2.8,3.7l-9-7.3c0,0,8.4,10.4,6.5,12.4c-2,2-3.7,3.7-3.7,3.7l-14.1-13.2c0,0,7.6,9.6,6.5,10.4
	c-1.1,0.8-1.1,0.8-1.1,0.8l-3.9-2.8l3.9,7.6l-6.7,0.8l-8.4-11.2l1.7,14.9l-6.2,0.3c0,0-4.2-12.1-3.4-13.8l-2,15.5l-3.4,0.6
	c0,0,9.1,21.4,3.3,31.5l-5.8,10.7l1.4,1.4l-2.3-0.1l-1.3,2.9l-3.1-2.5l-3.9,2.2l0.3-2.8l-3.7,1.1l2.5-3.4l-3.4-2.8
	c0,0-9.6,1.7-19.7-11.2l4.5-63.3l-13.5-0.8L83.5,117.8z"/>
<path class="st8" d="M84,116.7l2.5,2.8l0.6-3.9l5.6,5.6l-0.6-3.7l3.7,3.7l-0.3-5.1c0,0,15.7,12.1,14.1,27
	c-1.7,14.9-8.4,26.2-8.4,26.2s-11.5,18-8.4,24.5l-2.2-0.8c0,0-25.6-13.8-23.6-35.2c2-21.4,14.6-29,16-34S84,116.7,84,116.7z"/>
<path class="st9" d="M86.3,97.6l-5.1-9c0,0-0.6-2.5,1.7-7.9c2.2-5.3,5.9-9.3,5.9-9.3l0.3,6.2c0,0,25.6-20,30.4-18.6L106,82.1
	c0,0,26.7-8.4,29.5-5.9l-21.4,14.6L86.3,97.6z"/>
<polygon class="st10" points="83.3,105.2 84.7,108.8 90.6,104.9 "/>
<path class="st11" d="M93,104.3c0,0-3.9-7.3-6.7-6.7s-7.6,5.3-7.6,5.3l-0.6,2h11.5c0,0-4.2,4.2-5.9,3.9c0,0,3.4,3.4,4.2,3.1
	C88,111.9,94.1,106.9,93,104.3z"/>
</svg>
