<?xml version="1.0" encoding="utf-8"?>
<!-- Generator: Adobe Illustrator 23.0.4, SVG Export Plug-In . SVG Version: 6.00 Build 0)  -->
<svg version="1.1" id="Layer_1" xmlns="http://www.w3.org/2000/svg" xmlns:xlink="http://www.w3.org/1999/xlink" x="0px" y="0px"
	 viewBox="0 0 288 288" style="enable-background:new 0 0 288 288;" xml:space="preserve">
<style type="text/css">
	.st0{fill:#B6D29B;}
	.st1{fill:#AC9F8D;}
	.st2{fill:#EEE67F;}
	.st3{fill:#E5C4C4;}
	.st4{fill:#1F2020;}
</style>
<path class="st0" d="M139.8,144.7c0,0-10.4-54-70.2-28.2c0,0-27.4,11.6-31.6,39c0,0,13.9-5.8,28.6,8.5
	c14.7,14.3,32.4,11.6,32.4,11.6s20.4-2.3,33.2-17.7S139.8,144.7,139.8,144.7z"/>
<path class="st1" d="M166,84.5c0,0,5,10-8.1,32c0,0-50.5,63.7-31.6,101.1c0,0-33.2-17-64,17.7c0,0-29.3,16.2-27,27.4
	c0,0,10-16.6,22-20.1c0,0-16.2,28.2-5,32.4c0,0-3.1-9.3-0.8-10c0,0,3.1,6.6,5,4.2c0,0-11.6-5,3.9-26.6c0,0-2.3,30.9,15,32
	c0,0-11.2-6.2-8.5-10.8c0,0,8.5,4.6,11.2,0.4c0,0-18.1,4.2-15-21.6c0,0,1.5-15.4,33.6-22.4c32-6.9,40.1,14.7,40.1,14.7
	s25.8,29.7,64,12c0,0,24.7-8.1,34,1.2l5.8,5.4c0,0-1.5-6.9-3.9-7.3c0,0,9.3,2.3,8.9,4.6c0,0,2.7-10.4-34.3-9.6
	c0,0,24.7-19.7,33.6-17.4c0,0-8.9-6.9-35.1,13.5c0,0,13.9-24.3,18.9-24.3c0,0-10.8-1.5-22.8,26.6c0,0-35.1,26.2-60.2-6.9
	s13.1-100.3,13.1-100.3s18.9-39.7,11.6-52.1C163,67.9,166,84.5,166,84.5z"/>
<path class="st0" d="M145.6,151.3c0,0,24.7-32.8,57.5-32.4s50.9,22.8,50.9,22.8l6.6,10c0,0-20.1,3.5-35.5,20.4s-38.6,15.4-38.6,15.4
	S149.8,190.2,145.6,151.3z"/>
<path class="st2" d="M132.9,13.5c0,0-31.6,2.7-37.8,39.4c0,0-3.9,31.6-12.7,30.1l32,37.4c0,0,13.5-21.2,39.7-28.6s27-39.7,27-39.7
	S180.3,7,132.9,13.5z"/>
<path class="st3" d="M92.4,85.3c-8.2-3.9-15.9-4-20-0.1c-1.7,1.6-2.4,3.5-2.7,4.8c-3.1,13.5,6.9,25.1,6.9,25.1s3.1,4.3,8.5,8.5
	c4.7,3.6,14.6,11,22.7,7.3c3.6-1.6,6.5-5.3,7.3-9.3c1.8-9.1-7.7-20.1-7.7-20.1l0,0c-1.7-2.7-4-5.7-6.9-8.9
	C97.6,89.6,94.8,87.2,92.4,85.3z"/>
<path class="st4" d="M78.8,95.7c0,0,10.8,23.5,24.7,23.1C103.5,118.9,98.9,98.8,78.8,95.7z"/>
</svg>
