<?xml version="1.0" encoding="utf-8"?>
<!-- Generator: Adobe Illustrator 23.0.4, SVG Export Plug-In . SVG Version: 6.00 Build 0)  -->
<svg version="1.1" id="Layer_1" xmlns="http://www.w3.org/2000/svg" xmlns:xlink="http://www.w3.org/1999/xlink" x="0px" y="0px"
	 viewBox="0 0 288 288" style="enable-background:new 0 0 288 288;" xml:space="preserve">
<style type="text/css">
	.st0{fill:#CCD4E5;}
	.st1{fill:#9AA3B2;}
	.st2{fill:#9AC093;}
	.st3{fill:#69968F;}
	.st4{fill:#9AC8B1;}
	.st5{fill:#6F9881;}
	.st6{fill:#756974;}
	.st7{fill:#B393A6;}
	.st8{fill:#FFFFFF;}
</style>
<path class="st0" d="M72.5,266.2c0,0,2.3-8.1,4.6-7.8s4.6,6.5,4.6,6.5s-4.6,5.5-7.5,4.5C71.5,268.4,72.5,266.2,72.5,266.2z"/>
<path class="st1" d="M55.4,253.7c0,0-3.9,9.7-3.2,10.5s11.1-2.9,11.1-2.9S53.6,254.3,55.4,253.7z"/>
<path class="st0" d="M60.1,261.7c0,0-3.3,3.9-2.8,6.7c0.5,2.8,11.6-2.1,11.6-2.1S66.6,253.7,60.1,261.7z"/>
<path class="st0" d="M136.4,264.8c0,0-3.6,3.9-2.8,6.4c0.8,2.6,7.5-1.8,7.5-1.8S138.4,264,136.4,264.8z"/>
<path class="st0" d="M144.6,270.5c0,0,1.8,5.2,3.9,5.9c2.1,0.8,7.5-3.9,7.5-3.9s-0.5-7.2-4.6-6.2
	C147.2,267.4,144.1,267.1,144.6,270.5z"/>
<path class="st0" d="M164.2,267.9c0,0-5.2,1.5-5.2,4.1c0,2.6,4.4,4.1,4.4,4.1s8-3.6,5.4-5.7C166.3,268.4,164.2,267.9,164.2,267.9z"
	/>
<path class="st0" d="M212.1,262.7c0,0-3.6,3.3,0.5,5.2s7.2-2.1,7.2-2.1s-2.1-7.5-3.9-6.7C214.2,259.9,212.1,262.7,212.1,262.7z"/>
<path class="st0" d="M227.1,262.2c0,0-4.1,1.8-3.6,5.2c0.5,3.3,1,2.6,1,2.6s10,2.1,8.8-1C232,265.8,230.7,261.2,227.1,262.2z"/>
<path class="st0" d="M241,263.3c0,0-6.2,2.3-5.2,5.7c1,3.3,3.9,2.8,3.9,2.8s7.7-3.1,6.4-4.4C244.8,266.1,242.8,262.5,241,263.3z"/>
<path class="st1" d="M127.9,252.2c0,0-1.5,3.3-0.3,4.6c1.3,1.3,5.2-2.3,5.2-2.3L127.9,252.2z"/>
<path class="st2" d="M106.5,78.3c0,0,4.6-38.1,63.4-35.5s52.5-19.1,52.5-19.1s10.8,5.7,8.2,12.4c0,0,10.3-10.3,15.5-8.8l-2.6,12.9
	c0,0,11.8-4.6,12.9-1c0,0-18,21.6,14.4,64.9s-17,81.9-17,81.9L106.5,78.3z"/>
<path class="st3" d="M119.4,240.1c0,0,2.1,12.4,16.5,15.5c14.4,3.1,3.1-14.4,3.1-14.4L119.4,240.1z"/>
<polygon class="st3" points="189.5,248.1 205.9,248.8 203.9,229.3 "/>
<path class="st4" d="M71.5,78.3c0,0,47.4-1.5,61.3,4.1c0,0,26.8-8.8,32.5-7.2c5.7,1.5,13.4,42.8,13.4,42.8s29.4,30.4,38.1,33
	c8.8,2.6,36.1,27.8,37.1,37.6c0,0,28.3,37.6-2.1,77.8l-5.7,1c0,0-3.6-4.1-5.2-4.1c-1.5,0-5.2,5.7-5.2,5.7h-2.6c0,0-3.1-7.7-6.2-6.7
	c-3.1,1-3.6,5.2-3.6,5.2l-3.6-1.5c0,0-2.6-6.2-5.2-4.6c-2.6,1.5-2.6,1.5-2.6,1.5s-10.3-11.3-9.3-13.9c1-2.6-1-13.9-1-13.9
	s-15.5,34.5-33,35.5l-4.6-2.6c0,0-5.7,2.6-5.2,4.1c0.5,1.5-3.1,0.5-3.1,0.5s-1.5-6.7-4.6-6.2c-3.1,0.5-6.7,4.1-6.7,4.1l-3.6-1
	c0,0-2.6-4.6-4.6-4.6c-2.1,0,2.6-23.7,2.6-23.7s-20.6,0.5-31.4-5.2c0,0-14.9,29.4-25.8,29.9c0,0-2.1-5.7-4.6-5.2s-4.6,6.2-4.6,6.2
	l-3.6-0.5c0,0-2.1-8.2-6.2-6.7s-2.6,2.1-2.6,2.1s-21.6-19.1-18.5-60.3c0,0-31.4-18-32.5-27.8c-1-9.8,11.3-67,22.7-68.5
	c0,0,3.1-29.9,12.9-33.5S71.5,78.3,71.5,78.3z"/>
<path class="st5" d="M45.2,234.9c0,0,18-23.5,20.1-14.9c0.5,2.1,7.7,12.9,4.6,16c-3.1,3.1-7.2,11.3-7.2,11.3s-10.8,0-13.4-1.5
	C46.7,244.2,45.2,234.9,45.2,234.9z"/>
<path class="st5" d="M51.4,119.5l0.5,9.8c0,0,6.2,1,6.2-3.6c0-4.6,0-8.8,0-8.8S50.9,116.9,51.4,119.5z"/>
<path class="st5" d="M64.3,105.1c0,0,10.3,16,14.9,14.4c4.6-1.5,31.4-20.1,30.4-26.8C108.6,86,64.3,105.1,64.3,105.1z"/>
<path class="st5" d="M84.9,131.4c0,0-17,6.2-16.5,13.4c0.5,7.2,14.4,9.8,14.4,9.8L84.9,131.4z"/>
<path class="st5" d="M139,241.1c0,0,10.3-19.6,22.2-15.5c0,0,2.1,19.6-5.7,27.3s-14.9,4.1-14.9,4.1L139,241.1z"/>
<path class="st5" d="M174.5,213.8c0,0-10.8-0.5-10.3,6.2c0.5,6.7,9.3,7.2,9.3,7.2S177.6,217.9,174.5,213.8z"/>
<path class="st5" d="M238.4,204.5c-2.2-0.7-26.8,10.3-23.2,18s16,16,16,16s8.8-0.5,8.2-4.6S241.5,205.6,238.4,204.5z"/>
<path class="st5" d="M204.4,142.2c0,0-9.3,1.5-10.3,4.1c-1,2.6,13.4,31.4,13.4,31.4s23.2,6.2,23.7,0.5c0.5-5.7-2.1-17.5-2.1-17.5
	L204.4,142.2z"/>
<polygon class="st6" points="33.4,188 49,199.1 50.3,192 "/>
<path class="st7" d="M49,199.1c0,0-2.6-9.1,1.3-7.2c0,0,33.3,12.4,88.9-3.3C139.2,188.7,100.7,235.1,49,199.1z"/>
<path class="st8" d="M33.4,188c0,0-0.9,3.9,0.6,4.6c0.2,0.1,0.5,0.2,1.4-0.1c2-0.6,3.3-2,4.1-3.1C37.4,189,35.4,188.5,33.4,188z"/>
<path class="st8" d="M130.4,191.2c0,0,3.2,5,5.3,4.3c0.3-0.1,0.5-0.2,0.7-0.5c1.7-1.8,1.9-4.6,1.9-5.9
	C135.6,189.7,133,190.5,130.4,191.2z"/>
</svg>
