<?xml version="1.0" encoding="utf-8"?>
<!-- Generator: Adobe Illustrator 23.0.4, SVG Export Plug-In . SVG Version: 6.00 Build 0)  -->
<svg version="1.1" id="Layer_1" xmlns="http://www.w3.org/2000/svg" xmlns:xlink="http://www.w3.org/1999/xlink" x="0px" y="0px"
	 viewBox="0 0 288 288" style="enable-background:new 0 0 288 288;" xml:space="preserve">
<style type="text/css">
	.st0{fill:#181818;}
	.st1{fill:#F9E2A0;}
	.st2{fill:#97C37E;}
	.st3{fill:#E78262;}
</style>
<path class="st0" d="M106.5,142.4c0,0,6.8-7.7,13.2-22.2l16.8,14.1l-6.8,18.2L106.5,142.4z"/>
<path class="st1" d="M63.8,151.1c0,0-9.1,8.2-6.8,17.7c0,0-10.9,9.5-1.8,22.7c9.1,13.2,15,6.4,15,6.4s1.4,4.1,3.6,4.5
	c0,0-7.3,7.3-2.3,19.5c0,0-8.2,8.2,5.9,18.6c14.1,10.4,17.3-0.5,17.3-0.5l2.7,1.8c0,0,13.6,20.9,31.3,25c0,0,13.2,11.8,48.1,12.7
	c0,0,70.8,1.4,74-37.2c0,0-54.5,50.4-99-4.5c0-1-0.1-2-0.1-2.9c-0.1,0.6-0.2,1-0.3,1c-0.3,0-0.3-3.9,0-11.5
	c2.2-5.4,1.6-8.4,0.6-10.2c-1.3-2.5-3.5-2.9-5-5.7c-1.5-2.8-1.2-5.9-0.7-8c0.6-1.7,2.8-9.2-0.8-17.3c-4.1-9.2-12.6-12.3-14.1-12.8
	l-1.8-17.7c0,0-18.6-13.2-23.2-10C106.5,142.4,92,158.8,63.8,151.1z"/>
<path class="st1" d="M247.7,226.9c0,0-1.4-8.6,4.1-8.2c0,0-15-56.7,14.5-64.5s-2.7,64-9.1,65.4c0,0,2.3,10.9-4.5,10.4
	C245.9,229.6,247.7,226.9,247.7,226.9z"/>
<path class="st2" d="M34.3,51.6c0,0-18.6,36.3,1.4,57.7c0,0-7.3,34.5,34,43.1c41.3,8.6,49.9-32.2,49.9-32.2s6.4,11.3,16.8,14.1
	c0,0-11.8,17.7-5,35.9c0,0,11.8,1.8,13.2,18.6c0,0-1.8,10.4-6.4,11.8c0,0,13.2,7.7,7.3,23.2c0,0,5,6.8,1.8,12.7c0,0,0.5,2.3,4.5,1.4
	c0,0,19.1,32.2,55.4,26.3c36.3-5.9,43.6-21.8,43.6-21.8s3.2-8.2,1.8-12.3c-1.4-4.1-9.1-1.8-9.1-1.8s-19.5,14.5-40.9,3.2
	c-21.3-11.3-23.6-22.2-23.6-22.2s3.6-11.3,0.5-15.9c0,0,30-13.2,28.1-55.8C205.9,94.8,190.5,93,190.5,93c1.2-6.9,1.8-17.2-1.3-28.9
	c-7.9-29.2-33.3-42.9-38.6-45.6c-8.2-3.8-24.2-9.8-44.7-8.6C74.1,11.7,53.3,29.5,47,35.3C47,35.3,32.9,45.7,34.3,51.6z"/>
<path class="st3" d="M20.2,20.3c2.1,0.3,4.4,0.8,6.8,1.6c9.4,3,16,8.5,20,12.5c4,4.2,12.1,11.6,21.3,10.4c3.4-0.4,7.2-0.2,14.1-8.2
	c5-5.8,12.7-12.7,23.6-16.8c5.7-2.2,18.7-7,27.2-0.9c1,0.7,3.9,2.8,4.7,6.4c1.7,7.6-7.9,14.9-7.9,14.9S85.6,51.6,78.3,57.1
	c-6,4.5-5.1,14.6-5.4,14.5c-0.2,0,0.2-2,0.5-3.6c0.4,3.6-1.7,6.9-4.6,7.9c-3.6,1.1-8.1-1.4-9-6c-0.1-2-0.6-4.8-2.3-7.7
	C52.9,54,43.4,52.7,42,52.6C23,52.9,9,45.9,7.1,36.8C6.7,34.9,6.6,32,8.4,28C8.4,28,13.9,20.3,20.2,20.3z"/>
<ellipse transform="matrix(0.3473 -0.9377 0.9377 0.3473 -32.3249 276.7888)" class="st1" cx="182.7" cy="161.6" rx="20.5" ry="14.8"/>
<ellipse transform="matrix(0.3473 -0.9377 0.9377 0.3473 -90.8045 293.3954)" class="st1" cx="165.4" cy="211.9" rx="9.6" ry="8.1"/>
<ellipse transform="matrix(0.611 -0.7916 0.7916 0.611 -114.8491 240.0673)" class="st1" cx="186.9" cy="236.9" rx="8.1" ry="9.6"/>
<ellipse transform="matrix(0.9982 -5.929402e-02 5.929402e-02 0.9982 -14.2576 13.4982)" class="st1" cx="220.3" cy="247" rx="7.7" ry="5.8"/>
<ellipse transform="matrix(0.9982 -5.929402e-02 5.929402e-02 0.9982 -13.6702 14.8713)" class="st1" cx="243.7" cy="237.8" rx="5.9" ry="4"/>
<ellipse transform="matrix(0.3473 -0.9377 0.9377 0.3473 -31.8512 276.7013)" class="st2" cx="182.9" cy="161.2" rx="15.4" ry="11"/>
<ellipse transform="matrix(0.3473 -0.9377 0.9377 0.3473 -91.327 293.5018)" class="st2" cx="165.2" cy="212.4" rx="6.9" ry="5.8"/>
<ellipse transform="matrix(0.611 -0.7916 0.7916 0.611 -114.7017 240.256)" class="st2" cx="187.1" cy="236.8" rx="6" ry="7.1"/>
<ellipse transform="matrix(0.9982 -5.929402e-02 5.929402e-02 0.9982 -14.2865 13.5081)" class="st2" cx="220.5" cy="247.5" rx="5.4" ry="4"/>
<ellipse transform="matrix(0.9982 -5.929402e-02 5.929402e-02 0.9982 -13.6709 14.8903)" class="st2" cx="244.1" cy="237.8" rx="4.2" ry="2.9"/>
</svg>
