<?xml version="1.0" encoding="utf-8"?>
<!-- Generator: Adobe Illustrator 23.0.4, SVG Export Plug-In . SVG Version: 6.00 Build 0)  -->
<svg version="1.1" id="Layer_1" xmlns="http://www.w3.org/2000/svg" xmlns:xlink="http://www.w3.org/1999/xlink" x="0px" y="0px"
	 viewBox="0 0 288 288" style="enable-background:new 0 0 288 288;" xml:space="preserve">
<style type="text/css">
	.st0{fill:#9E5D55;}
	.st1{fill:#A39088;}
	.st2{fill:#D78374;}
	.st3{fill:#E2CABD;}
	.st4{fill:#FFFFFF;}
	.st5{fill:#F7DB8C;}
	.st6{fill:#CF5749;}
</style>
<path class="st0" d="M169.9,199.9c11.2,10.6,27.3,13.6,40.6,7.6c16.4-7.3,20.2-24.6,20.6-26.4l6.6-1c0,0-9.1,63.2-65.8,47.5
	C171.3,218.4,170.6,209.1,169.9,199.9z"/>
<path class="st1" d="M237.7,180.1c0,0-10.1,66.8-64.2,60.2l-1.5-12.6C171.9,227.7,223.5,236.3,237.7,180.1z"/>
<path class="st2" d="M98.1,101.2l-12.6,3c0,0-9.1,3.5-15.2-7.6c0,0-14.2,5.1-16.7-16.7c0,0,2-5.1,9.1-10.1l3-4.6l-6.1-14.2
	c0,0-0.5-9.6,5.1-12.1c5.6-2.5,8.6-9.6,8.6-9.6s10.6-6.6,20.7-7.1c10.1-0.5,37.4-19.7,37.4-19.7s6.1-3,8.1,2.5
	c2,5.6-1.5,7.6-1.5,7.6s-13.7,13.2-12.1,15.7c1.5,2.5,12.6,24.3,12.6,24.3l3.5,14.2c0,0-14.2,23.8-13.7,30.9
	c0.5,7.1,4.6,19.7,4.6,19.7l9.1,1.5c0,0,4,0,5.6,5.1c0,0,21.7,11.1,27.3,12.1s8.6,9.1,8.6,9.1l17.2,44.5l-10.6,4.6l-8.6-1.5
	l-2.5-1.5l-6.6,4.6l-5.1-7.1c0,0-5.1-1.5-2.5-10.1c2.5-8.6-0.5-29.8-0.5-29.8s-9.6-9.6-18.7-10.1c0,0,16.7,36.4,14.2,47l7.1,7.1l3,4
	c0,0,8.1,22.8,3.5,43.5l5.6,24.3c0,0-0.5,7.6-4.6,9.1c-4,1.5-21.7,0.5-21.7,0.5l-15.7-4l-3-6.1l0.5-2.5l5.1-6.1
	c0,0,0.5-6.6-8.6-13.2s-6.1-29.3-6.1-29.3l3-13.2L107.2,129l-19.7,7.6c0,0-9.1-0.5-20.7,5.6c0,0-13.2,17.2-14.2,26.3l-9.6,5.6
	l-14.2,5.6l-12.6,6.1l-3.5-3c0,0,7.1-15.2,7.1-19.2s33.4-31.9,33.4-31.9l26.8-7.1c0,0,3.5-7.6,6.6-7.6c3,0,9.1-2.5,9.1-2.5
	S98.1,108.3,98.1,101.2z"/>
<path class="st2" d="M73.8,186.2c0,0-9.1,13.2-11.6,14.7s-16.7,21.7-16.7,21.7s0.5,11.6,4.6,19.2S46.5,256,46.5,256l0.5,8.1
	l12.1,3.5c0,0,15.7-1.5,18.2-5.1S87,258,87,258s4.6-1,1-14.2c0,0,2.5-10.1,18.7-13.7s1.5-12.6,1.5-12.6L73.8,186.2z"/>
<path class="st3" d="M87.5,136.6c0,0,6.6-16.7,18.2-13.7c11.6,3,15.2,27.8,15.2,27.8l7.6,47c0,0-7.1,25.3-2,35.4
	c0,0-20.7,4-38.4-16.7s-14.7-41-14.7-41S79.4,140.7,87.5,136.6z"/>
<path class="st4" d="M20.2,180.1c0,0-8.1,0.5-2.5,9.1l8.6,3.5l2,3.5l0.5-3l3,0.5l-2-4l2.5-11.1c0,0-5.1-9.6-8.6-8.1
	S20.2,180.1,20.2,180.1z"/>
<path class="st4" d="M36.4,168c0,0-1,14.2,0.5,13.7c0,0,11.6-9.1,10.1-12.1C47,169.5,41.9,163.4,36.4,168z"/>
<path class="st4" d="M51,262.6l2-2.5c0,0,7.1,2,6.1,7.6l-16.7,8.1c0,0,0.5-8.1,3.5-7.6l-10.1,3.5l3-7.6l-7.1,2.5
	c0,0,2-9.1,14.7-10.6l-1,3.5l3-1C48.5,258.5,51.6,260,51,262.6z"/>
<path class="st4" d="M175.5,188.2c0,0-8.6-6.1-9.6-3c0,0,1,19.7,6.6,20.2C172.4,205.4,170.4,192.8,175.5,188.2z"/>
<path class="st4" d="M180,188.7c0,0,11.1-4,11.6-2c0.5,2,1.5,5.6,1.5,5.6s4.6-6.6,6.1-5.1c1.5,1.5,3,8.1,3,8.1l-7.1,7.1l-5.1,1
	c0,0-8.6,7.1-10.1,6.1C180,209.5,184.1,197.8,180,188.7z"/>
<path class="st4" d="M137,263.6c0,0-10.1,6.1-8.1,14.7c0,0,11.1-7.1,13.7-5.6L137,263.6z"/>
<path class="st4" d="M152.2,266.6c0,0-6.6,1-5.6,7.6c1,6.6,2.5,11.1,2.5,11.1l10.6-11.6C159.8,273.7,153.7,264.1,152.2,266.6z"/>
<path class="st4" d="M169.9,265.6c0,0-7.6,4-4,8.6s5.1,8.1,5.1,8.1l3.5-8.6C174.5,273.7,172.9,264.6,169.9,265.6z"/>
<path class="st5" d="M214.9,166.5c0,0,5.1,6.1,3,9.1c-2,3,12.1,10.1,19.7,4.6s9.6-9.6,9.6-9.6l9.1-13.7l-3.5-11.1l-7.1-9.6
	l-10.6-17.7l-14.2-4l-9.6-2.5l7.6,26.3l-12.1,1c0,0,4,1,2,9.6C206.8,157.4,214.9,166.5,214.9,166.5z"/>
<path class="st6" d="M237.7,180.1c0,0,6.6-6.6,5.1-9.6s-2.5-0.5-2.5-0.5l-0.5-12.6l-3,8.1c0,0,0.5-11.1-2.5-14.2h-3
	c0,0,0-10.6-3.5-13.7c0,0,7.6,6.1,8.1,8.6c0,0-5.6-19.7-8.1-21.2l-1.5,4.6c0,0-3-8.6-4.6-8.6l1,9.6l-8.1-11.6c0,0,9.6,26.3,9.1,29.3
	l-3.5-5.1l2,14.2l-4.6-15.2l-1.5,4.6c0,0-6.1-9.6-7.6-8.6c-1.5,1-1.5,1-1.5,1s-3-11.1-4.6-14.2c0,0,7.1,4,7.6,7.1v-5.6l6.1,5.1
	c0,0-17.7-44.5-19.2-45c0,0,18.7,17.7,19.7,21.2l-3.5-8.6c0,0,13.2,9.6,15.2,14.7l-2-7.6l15.7,21.7l-3.5-0.5l4,14.2l-5.6-7.6
	l2.5,18.2l2.5-5.6l3.5,23.3l2.5-7.1C247.8,162.9,249.3,179.6,237.7,180.1z"/>
<path class="st6" d="M208.9,148.8c0,0,8.6,7.6,10.1,14.2l-4.6-3.5l0.5,7.1c0,0-4.6-6.6-7.6-7.6S208.9,148.8,208.9,148.8z"/>
<polygon class="st6" points="245.8,134.1 245.8,126.5 252.9,145.7 252.3,150.8 250.3,148.8 248.8,157.4 245.8,144.2 248.3,144.2 "/>
</svg>
