<?xml version="1.0" encoding="utf-8"?>
<!-- Generator: Adobe Illustrator 23.0.4, SVG Export Plug-In . SVG Version: 6.00 Build 0)  -->
<svg version="1.1" id="Layer_1" xmlns="http://www.w3.org/2000/svg" xmlns:xlink="http://www.w3.org/1999/xlink" x="0px" y="0px"
	 viewBox="0 0 288 288" style="enable-background:new 0 0 288 288;" xml:space="preserve">
<style type="text/css">
	.st0{fill:#D08B61;}
	.st1{fill:#A36F53;}
	.st2{fill:#5D94A1;}
	.st3{fill:#D3D3D3;}
	.st4{fill:#FFFFFF;}
	.st5{fill:#F2E2B3;}
	.st6{fill:#E4A06B;}
</style>
<path class="st0" d="M39.7,226.3c0,0,8.3,18.5,37.1,12.7l71.7-8.8c0,0,41.5,12.2,57.1,5.9c0,0,31.7-11.7,33.7-13.2
	s16.6-23.4,16.6-23.4S228,228.2,211,224.8c-17.1-3.4-69.3-10.2-69.3-10.2l-77.6,5.9L39.7,226.3z"/>
<path class="st1" d="M79.3,223.3c0,0-32.5,12.5-39.3,2.5c-1.2-1.8-1.2-3.8-1.2-5.4c0.1-15,19.9-25.5,22.4-26.8
	c3.7-1.8,8.9-3.7,15.2-3.8c8.9-0.2,15.7,3.2,17.5,4.3c10.2,6.3,118.5,23.4,118.5,23.4s22,4.4,39.5-18.1h3.9c0,0-11.7,21-44.4,27.3
	c-32.7,6.3-54.6-3.4-54.6-3.4H79.3z"/>
<path class="st2" d="M181.2,163.3c0,0-1-22,20-22s21,22,24.4,19c3.4-2.9,14.1-26.3,18.5-25.4s25.4,18.1,25.4,18.1l6.3,23.9l5.9-23.9
	l-8.8-38.1l-16.6-12.2l-9.3-12.7L231,80.9l-6.3,3.9L205.1,117l-27.3,13.7l-3.4,20.5L181.2,163.3z"/>
<path class="st2" d="M12.9,152.6c0,0,7.3-34.1,31.7-33.2c24.4,1,25.4,32.7,28.8,31.2s9.8-21.5,29.8-12.2c20,9.3,15.6,22.4,15.6,22.4
	l13.7-12.7l-2.9-16.1c0,0-27.3-24.9-35.6-21l-12.2-39L69,71.6L28,93.1L9,127.2c0,0-0.5,22.4,1,23.9S12.9,152.6,12.9,152.6z"/>
<path class="st0" d="M137.8,133.6l-2.9-5.4c0,0,0-3.9-7.8-2c0,0-24.4-18.5-31.7-18.1L85.6,78l0.5-6.8l8.8-8.8c0,0-1-5.4-5.9-4.9
	l-7.8,8.3l-24.9,4.4c0,0-1.5-0.5-4.4,2.9C49,76.5,40.2,83.8,40.2,83.8s-10.7,5.9-13.2,6.3s-4.9,8.8-4.9,8.8s-9.8,22-13.2,23.9
	c-3.4,2-2,20-2,20s2.4,18.1,6.3,18.1l1.5-2c0,0-8.8-17.1-2.4-32.7c0,0,17.1-27.3,18.1-31.7c0,0,32.2-22.9,46.8-19
	c0,0,5.4,1,13.2,36.6c0,0,6.3,4.9,9.3,3.4c0,0,21,4.4,27.8,20.5l10.7,1L137.8,133.6z"/>
<path class="st0" d="M154,76.5c0,0,6.8,2,2,6.8L154,76.5z"/>
<path class="st0" d="M169,135l3.4-7.8c0,0,2.9-1.5,9.3,0l23.4-10.2c0,0,20-32.2,19-37.1c-1-4.9-5.4-11.7-5.4-11.7s0.5-3.9,3.9-2.9
	c3.4,1,7.3,10.7,7.3,10.7s2.9,2,5.9,4.9c2.9,2.9,11.7,6.3,11.7,6.3s3.9,4.9,4.9,8.8c1,3.9,14.1,13.2,14.1,13.2l5.9,2.4
	c0,0,14.6,44.9,9.8,58.1c-4.9,13.2-7.3,14.1-7.3,14.1l-0.5-2.9c0,0,5.9-26.3,3.9-39s-7.3-24.4-7.3-24.4s-22.4-18.1-27.8-26.3
	c-5.4-8.3-13.2-6.3-13.2-6.3s-13.2,9.8-21.5,37.1c0,0-23.9,5.4-25.9,9.8c-2,4.4-2.9,8.3-2.9,8.3L169,135z"/>
<path class="st3" d="M216.8,240.4c0,0,6.3,3.9,5.9,6.8c-0.5,2.9-6.8-1.5-6.8-1.5L216.8,240.4z"/>
<polygon class="st4" points="76.3,166.3 79.3,168.7 79.7,164.3 "/>
<polygon class="st4" points="86.6,174.6 90,174.6 89,171.1 "/>
<polygon class="st4" points="96.8,172.6 95.4,175.5 98.8,174.6 "/>
<polygon class="st4" points="200.2,172.1 204.1,176 205.1,171.6 "/>
<polygon class="st4" points="212,175.5 210.5,178.5 214.9,176.5 "/>
<polygon class="st4" points="224.1,169.7 223.7,173.6 228,169.7 "/>
<path class="st5" d="M120.7,189.2c0,0,6.8-41,36.6-37.6s30.7,40.5,30.7,40.5c0,3.7-0.6,12.3-6.3,20.5c-4.3,6.2-9.5,9.3-12.7,11.2
	c-1.8,1.1-9.8,5.6-23.4,6.8c-18.3,1.6-33.7-3.8-42.4-7.8L120.7,189.2z"/>
<path class="st6" d="M134.9,83.3c0,0,10.2,32.2,2.9,50.2c0,0-1,2-6.3,0.5c-5.4-1.5-6.8,2.9-6.8,2.9s-8.3,3.9-19,2.4
	c0,0-13.7,7.3-14.6,13.7c0,0-11.7,2.4-12.2,5.4c0,0-7.3,5.4-2.4,7.8c0,0,2.4,0,3.4-2c1-2,3.9-2.4,3.9-2.4s1.5,3.9-1.5,6.3
	c0,0,0.5,9.3,4.4,6.3c3.9-2.9,2.4-3.4,2.4-3.4s0-3.9,3.4-4.4c3.4-0.5,3.9,2.4,3.9,2.4s1.5,8.8,4.9,3.9c3.4-4.9,0.5-4.4,0.5-4.4
	l2-6.8l-4.4-5.4l7.3-9.3c0,0,15.1-1,16.1,1.5s1.5,4.4,1.5,4.4S110,172.6,109,178.9c0,0-17.1,8.3-22.9,23.9
	c-5.9,15.6-8.3,30.2-8.3,30.2l-3.9,10.2c0,0-1,8.3,9.8,8.8c0,0,9.3,0.5,12.2-1c0,0,7.3-3.4,8.3-6.3c1-2.9,0.5-15.6,0.5-15.6
	s16.1-14.1,16.6-19.5c0.5-5.4-0.5-18.5-0.5-18.5s5.4-36.6,28.8-39s31.2,17.1,31.2,17.1s7.3,13.7,5.9,21.5c0.4,3.3,0.4,8.3-1.3,13.8
	c-3.9,12.3-13.9,18.2-16.7,19.8c5.4,1.8,10.7,3.6,16.1,5.4c0,0,3.9,6.8,2.9,10.7s10.2,5.9,10.2,5.9l11.7,1.5l6.3-2l1-5.4l-4.4-5.9
	l2-15.6c0,0,0-7.8-5.9-10.7c-5.9-2.9-9.8-13.2-9.8-13.2l-7.3-3.4l-2.9-7.3c0,0-7.3-27.3-11.2-29.8l3.4-4.4c0,0,10.7-2,12.2-2.4
	c0,0,10.7,8.3,10.7,12.2c0,3.9-2.9,3.9-2.9,3.9l-2,6.3c0,0,4.9,5.4,6.3,1.5c1.5-3.9,4.4-3.4,4.4-3.4s2.9,3.4,2.4,7.3
	c0,0,6.3,4.4,6.8-2l-1.5-5.4c0,0,6.8-1,6.8,1.5c0,2.4,3.9,0,3.9,0s1.5-3.9-0.5-5.4c-2-1.5-4.9-2.4-4.9-2.4l-2.4-3.9c0,0-1-0.5-4.4-1
	c-3.4-0.5-18.1-17.1-18.1-17.1s-14.1,3.4-18.1,0c-3.9-3.4-10.7-4.9-10.7-4.9l-12.2-51.7c0,0-4.4-10.7-1.5-12.2
	c2.9-1.5,12.2,4.4,12.2,4.4s5.9,1.5,5.9-2.4c0-3.9-4.9-3.4-4.9-3.4l-12.2-8.3c0,0-9.3-6.8-10.2-9.8c-1-2.9-11.2,0.5-14.1-0.5
	s-8.8-5.4-8.8-5.4s-4.4-2-9.8,2.4c0,0-4.4-0.5-7.3,0c-2.9,0.5-1,8.3-1,8.3l2.4,2.4c0.1,1.8,0.8,10.7,8.3,17.6
	C123.7,83.8,133.2,83.4,134.9,83.3z"/>
<path class="st4" d="M119.7,55.5c0,0-1,6.8,1.5,5.9c2.4-1,2.9-4.4,2.9-4.4L119.7,55.5z"/>
<polygon class="st4" points="107.6,58.9 108,63.8 105.1,56.5 "/>
<path class="st4" d="M80.7,251.1c0,0,0-6.8-2.9-5.9c-2.9,1-4.4,10.2-4.4,10.2L80.7,251.1z"/>
<path class="st4" d="M90,250.7c0,0-0.5-6.3-2.4-5.4c-2,1-5.4,7.3-3.4,13.7L90,250.7z"/>
<path class="st4" d="M92.4,251.6c0,0,1.5-6.8,3.4-5.4c2,1.5,3.9,4.4,3.9,4.4l-1,6.3L92.4,251.6z"/>
<path class="st4" d="M197.3,247.2c0,0,2.4-5.4,4.4-4.4c2,1,5.4,6.3,4.9,8.8C206.1,254.1,199.3,244.3,197.3,247.2z"/>
<path class="st4" d="M209.5,247.7c0,0-2-6.8,1-5.9s8.3,9.8,8.3,9.8L209.5,247.7z"/>
</svg>
