<?xml version="1.0" encoding="utf-8"?>
<!-- Generator: Adobe Illustrator 23.0.4, SVG Export Plug-In . SVG Version: 6.00 Build 0)  -->
<svg version="1.1" id="Layer_1" xmlns="http://www.w3.org/2000/svg" xmlns:xlink="http://www.w3.org/1999/xlink" x="0px" y="0px"
	 viewBox="0 0 288 288" style="enable-background:new 0 0 288 288;" xml:space="preserve">
<style type="text/css">
	.st0{fill:#C3AFAA;}
	.st1{fill:#B6909A;}
	.st2{fill:#F0D9D3;}
	.st3{fill:#605750;}
	.st4{fill:#CEADBA;}
	.st5{fill:#F4F4F5;}
</style>
<path class="st0" d="M120.4,252.7c0,0,45.1,44.6,94.4,7.8s22.8-89.7,22.8-89.7l-38.9,0.5L120.4,252.7z"/>
<path class="st1" d="M196.7,119.4c0,0,66.9-33.2,69-25.9c2.1,7.3-35.8,37.3-35.8,37.3h15c0,0,29.6-3.6,27.5,2.1
	c-2.1,5.7-37.9,24.4-37.9,24.4s20.7,5.7,19.2,10.9c-1.6,5.2-52.4,6.2-52.4,6.2L196.7,119.4z"/>
<path class="st1" d="M75.3,99.1c0,0-48.8-45.1-58.6-34.7c0,0,5.7,24.4,28.5,43c0,0-42.5-17.6-42-7.8s42.5,34.7,42.5,34.7l-2.6,4.1
	c0,0-32.7-2.1-29,4.1s42,15.6,42,15.6L75.3,99.1z"/>
<path class="st2" d="M111.6,61.8c0,0,9.3-20.2,31.6-14s31.6,20.7,31.6,20.7l51.9-9.9h19.2l0.5,10.4l-17.6,21.3
	c0,0-31.1,22.8-30.6,24.9c0.5,2.1,5.2,18.2,5.2,18.2l14-2.6c0,0,3.1-11.4,5.7-8.8s6.2,5.2,6.2,5.2s15.6-3.1,15.6-0.5
	s-5.7,9.9-5.7,9.9s4.7,7.8,0.5,11.4c-4.1,3.6-4.1,3.6-4.1,3.6s-21.8,17.6-28,19.2c0,0,5.7,61.2-31.6,111c0,0-5.7,3.6-14,2.1
	c-8.3-1.6-16.6-5.2-16.6-5.2s-6.7-23.3-5.2-25.9c0,0-23.9,1-27.5-3.1l-8.8,29.6c0,0-10.9,13-30.1,0c0,0-32.2-57.6-22.8-95.4
	l3.6-23.3c0,0-24.4-44.6-21.8-48.8c0,0-7.3-11.4,6.7-14.5c0,0-1.6-13,1-11.9c2.6,1,9.3,10.4,9.3,10.4L62.3,94c0,0,0,7.8-2.1,9.9
	l8.3,9.3l6.7-14L46.8,51.9l-0.5-17.6l14.5-1l17.1,7.3C77.9,40.5,109,63.9,111.6,61.8z"/>
<path class="st3" d="M226.7,58.7c0,0,38.9-11.4,40.5-4.7s-38.4,36.3-38.4,36.3S261.5,55.1,226.7,58.7z"/>
<path class="st3" d="M53,61.8c-18.1-26.3-23.5-38.9-20.2-42c12-11.4,45.1,20.7,45.1,20.7l0,0c-1.9-0.8-4.5-1.8-7.8-2.6
	c-5.7-1.4-14.3-3.4-18.5,0.2C47.2,41.9,47.4,51.9,53,61.8z"/>
<path class="st4" d="M118.3,127.1c0,0,21.8,5.7,25.9,3.1C144.3,130.3,134.9,142.7,118.3,127.1z"/>
<path class="st5" d="M76.3,279.6c0,0,6.2-7.8,11.4-3.1c0,0,9.9-2.6,12.4,4.1C100.2,280.7,91.4,289.5,76.3,279.6z"/>
<path class="st5" d="M165,282.7c0,0-5.2-9.3-13.5-4.1c0,0-4.1-3.1-9.3,2.1C142.2,280.7,145.3,288.4,165,282.7z"/>
</svg>
