<?xml version="1.0" encoding="utf-8"?>
<!-- Generator: Adobe Illustrator 23.0.4, SVG Export Plug-In . SVG Version: 6.00 Build 0)  -->
<svg version="1.1" xmlns="http://www.w3.org/2000/svg" xmlns:xlink="http://www.w3.org/1999/xlink" x="0px" y="0px"
	 viewBox="0 0 288 288" style="enable-background:new 0 0 288 288;" xml:space="preserve">
<style type="text/css">
	.st0{display:none;}
	.st1{display:inline;}
	.st2{fill:#FFFFFF;}
	.st3{fill:#437A7D;}
	.st4{fill:#B0A297;}
	.st5{fill:#BD9371;}
	.st6{fill:#E3D7BA;}
	.st7{fill:#CFCBCA;}
	.st8{fill:#54A799;}
	.st9{fill:#F8ECCB;}
	.st10{fill:#EAB577;}
	.st11{fill:#FFFCE3;}
</style>
<g id="Layer_1" class="st0">
	<g id="b7zmek.tif" class="st1">
		
			<image style="overflow:visible;" width="335" height="431" id="Layer_0_1_" xlink:href="72466ECADB4A525C.png"  transform="matrix(0.6582 0 0 0.6582 36.8889 3.5556)">
		</image>
	</g>
</g>
<g id="Layer_2">
	<path class="st2" d="M183.7,173.8l4.9,2.7l-2.2-10.2C186.3,166.2,184.6,172,183.7,173.8z"/>
	<path class="st3" d="M86.9,84c0,0-12.6,15.1-9.3,25.2c0,0,18.2,4.4,23.3-4.9c5.1-9.2,3.3-16.5,3.3-16.5L86.9,84z"/>
	<path class="st4" d="M172.6,239.6c0,0,59-23.1,68-47.1s-59.9,30.2-59.9,30.2L172.6,239.6z"/>
	<path class="st5" d="M87.7,86.2l3.1-5.8h-4.9c0,0-12.4,18.7-11.6,28.9h4.4C78.8,109.3,72.6,105.8,87.7,86.2z"/>
	<path class="st5" d="M177.9,185.8c0,0,23.1,9.3,48-10.7s28.4-28,28.4-28s3.6,1.3,2.2,6.7c0,0-7.6,61.8-73.3,72L177.9,185.8z"/>
	<path class="st5" d="M70.3,165.8c0,0-22.2,25.3-10.7,45.8s20.9,20,20.9,20l-5.8,4.9c0,0-22.2,4.4-21.8,9.3c0.4,4.9,16.9,12,16.9,12
		s12.9,2.7,24-8.9c11.1-11.6,16.4-16.9,16.4-16.9L70.3,165.8z"/>
	<path class="st5" d="M101,103.1c0,0-15.6,11.6-36.4-5.3c0,0-19.6-11.6-21.3,3.6S57,124.9,57,124.9s18.2,11.6,36,0
		S101,103.1,101,103.1z"/>
	<path class="st6" d="M85.4,44.9c0,0-3.1-9.8-8.4-7.6c-5.3,2.2-11.1,4.4-11.1,4.4s-15.6,5.3-18.2-2.7c-2.7-8-1.3-12.4-1.3-12.4
		s5.3-12,7.1-9.3c1.8,2.7-0.9,4.9-0.9,4.9s-8.4,11.6-1.3,15.6s16.4-0.9,16.4-0.9s8-4.4,13.3-1.3c5.3,3.1,7.6,6.7,7.6,6.7L85.4,44.9z
		"/>
	<path class="st7" d="M42.8,103.6l-5.3-5.8c0,0,8.4-1.3,8.4,0.9S42.8,103.6,42.8,103.6z"/>
	<path class="st7" d="M49,97.8c0,0-3.6-9.8,0-8.4c3.6,1.3,6.2,5.3,6.2,5.3S49.9,98.7,49,97.8z"/>
	<path class="st7" d="M57.9,95.1c0,0,5.8-6.7,6.2-3.1c0.4,3.6,0,8,0,8S57.4,97.8,57.9,95.1z"/>
	<path class="st7" d="M54.3,244c0,0-8,3.6-8,5.8l4,1.3l-3.1,2.2c0,0,8,5.3,10.7,3.6l-2.7,1.8c0,0,12.4,0,14.7-0.9c0,0,0-9.8-5.3-5.8
		c0,0-4.9-8.4-7.6-4.9C57,247.1,54.3,243.1,54.3,244z"/>
	<path class="st8" d="M160.6,116.9c0,0,20.4-9.3,29.3,6.2c0,0,16-17.3,24-13.8c8,3.6,13.3,13.3,13.3,13.3s-0.4-49.8-40.4-64.4
		c0,0-3.6,27.1-33.3,46.7L160.6,116.9z"/>
	<path class="st9" d="M103.2,92.4c0,0-2.7,20-16.4,36.4S69,169.8,69,169.8s-0.4,49.8,39.6,63.1c40,13.3,48.9,8.4,48.9,8.4l-3.1-7.6
		l-20.9-25.3l3.1-19.1l-7.1-84.9l-4-23.6C125.4,80.9,116.1,91.6,103.2,92.4z"/>
	<path class="st10" d="M84.6,53.8c0,0-0.4-18.2,13.8-23.1c0,0,4.4-11.1,6.2-9.8c1.8,1.3,6.7,8,6.7,8s11.6-1.8,19.6,12
		s5.3,20,7.1,24.9c1.8,4.9,11.1,35.1,13.8,36c0,0,24.9-10.2,30.7-42.7c0,0-1.8-9.3,2.7-7.6c4.4,1.8,13.3,6.7,13.3,6.7
		s44,34.2,27.6,75.6c0,0-2.7,0.4,1.3-11.1c0,0-0.9-48.9-40.4-64.4c0,0,0.9,27.1-33.3,46.7c0,0,34.7,41.3,32.9,61.3
		c0,0,0,7.1-10.2,11.6c0,0,11.6,26.2,11.1,36.4c-0.4,10.2-12.9,20-10.7,25.3c2.2,5.3,8.4,15.6,8.4,15.6s16,23.1-4.9,23.1
		s-24.4-4-24.4-4s-7.1-6.7-4.4-12.9c2.7-6.2,7.1-16.9,6.2-20c-0.9-3.1-4.9-9.3-4.9-9.3s-29.3-9.8-18.7-40.9c0,0-14.7-23.6-10.2-48
		c4.4-24.4,2.7-60,1.8-62.2c0,0-25.8,26.2-39.6-0.4c0,0-1.8-3.6,2.2-12.9C88.1,67.6,85.4,60.4,84.6,53.8z"/>
	<path class="st11" d="M112.1,38.7c0,0,3.6-14.7,20-15.1s16.4,5.3,25.3-0.9S165,7.1,165,7.1s1.8-6.2,4-0.4s-2.7,14.7-2.7,14.7
		s-9.3,9.8-22.2,7.1s-14.2-1.3-14.2-1.3s-8.4-1.3-14.2,11.6C115.7,38.7,112.6,41.3,112.1,38.7z"/>
	<path class="st2" d="M165,172l-0.4,8c0,0,6.2-0.9,5.8-3.1C170.3,176.9,165.9,170.7,165,172z"/>
	<path class="st2" d="M172.6,175.6l7.1,7.1l0.9-10.2C180.6,172.4,171.7,173.3,172.6,175.6z"/>
	<path class="st2" d="M155.2,272.4c0,0,6.2-6.7,10.2,0c1,1.7,1.5,3.2,1.7,4.5c0.6,4.1-1.7,6.6-1.7,6.6S153.4,276,155.2,272.4z"/>
	<path class="st2" d="M177,270.2c0,0-12-0.4-8.4,8.9c0,0,8.4,8.9,10.2,7.1C178.8,286.2,181.9,276.9,177,270.2z"/>
	<path class="st2" d="M186.3,269.3c0,0-7.1,2.7-2.7,8.9s5.3,4.9,5.3,4.9S194.8,270.2,186.3,269.3z"/>
</g>
</svg>
