<?xml version="1.0" encoding="utf-8"?>
<!-- Generator: Adobe Illustrator 23.0.4, SVG Export Plug-In . SVG Version: 6.00 Build 0)  -->
<svg version="1.1" id="Layer_1" xmlns="http://www.w3.org/2000/svg" xmlns:xlink="http://www.w3.org/1999/xlink" x="0px" y="0px"
	 viewBox="0 0 288 288" style="enable-background:new 0 0 288 288;" xml:space="preserve">
<style type="text/css">
	.st0{fill:#BBB7B5;}
	.st1{fill:#A7C0DF;}
	.st2{fill:#EEECEA;}
</style>
<path class="st0" d="M231.2,47.4c0,0-7.6-34.9-3.1-36c4.5-1.1,20.5,36,20.5,36l7.6,2.2l-1.7,18.6L231.2,47.4z"/>
<path class="st1" d="M258.2,80.5c0,0-2.8-28.7-27-33.2s-39.4,9-39.4,9s-15.2,7.9-11.2,31.5c3.9,23.6-1.1,23.1-1.1,23.1
	s55.7,68.6,47.2,100.1s-39.9,25.9-39.9,25.9s-38.2-2.8-65.2-19.7s-64.1-18-64.1-18s-44.4,0-52.9,12.4c0,0,39.4-0.6,51.2,5.1
	l110.2,45.6l77.1-6.8l14.6-51.2l-25.9-49.5l16.3-24.2c0,0-3.9-14.6-1.1-16.3C249.7,112.6,258.2,80.5,258.2,80.5z"/>
<path class="st2" d="M248,130.6c0,0-5.6-9.6-15.7-2.8c-10.1,6.8-10.7,17.4-10.7,17.4s9.6,35.4,16.3,50.1c6.7,14.6-2.2,39.4-2.2,39.4
	c0,0-6.7,13.4-22.7,20.8c-13.8,6.4-26.5,4.6-38.1,2.8c-19.4-2.9-35-10.9-46.1-18.6c-7-5.6-19.2-14.1-36.6-19.1
	c-15.1-4.4-28.1-4.5-36.6-3.9c9,4.2,22.7,10.6,39.4,18.6c24.9,11.9,27.3,13.3,39.9,19.1c31.1,14.3,46.9,21.4,62.4,23.1
	c10.7,1.1,25,1,42.2-3.9c5.5-1.9,21.8-8.2,32.6-25.3c9.2-14.4,9.5-28.8,9.6-34.3c0.1-8.6-1.4-15.6-2.8-20.2c-1.5-3.6-3-7.2-4.7-10.9
	c-5.1-11.1-10.6-21.2-16.1-30.2L248,130.6z"/>
<path class="st2" d="M192.4,87.9c0,0-28.1-53.4-59.6-50.1c0,0,21.4,37.7,20.2,39.9c0,0-10.1,0.6-6.7,5.1
	c3.4,4.5,16.9,13.5,16.9,15.2c0,1.7,6.7,24.7,6.7,24.7l20.8-20.2l1.7-12.4V87.9z"/>
<path class="st2" d="M267.2,87.3c0,0-15.7-18.6-34.3-1.7s-15.2,22.5-15.2,22.5s6.2,24.7,36,9.6C253.7,117.7,275.6,105.9,267.2,87.3z
	"/>
<path class="st2" d="M229.5,55.8c0,0-6.7,5.6,0.6,9s5.1-7.3,5.1-7.3S232.3,55.2,229.5,55.8z"/>
</svg>
