<?xml version="1.0" encoding="utf-8"?>
<!-- Generator: Adobe Illustrator 23.0.4, SVG Export Plug-In . SVG Version: 6.00 Build 0)  -->
<svg version="1.1" id="Layer_1" xmlns="http://www.w3.org/2000/svg" xmlns:xlink="http://www.w3.org/1999/xlink" x="0px" y="0px"
	 viewBox="0 0 288 288" style="enable-background:new 0 0 288 288;" xml:space="preserve">
<style type="text/css">
	.st0{fill:#C3A35A;}
	.st1{fill:#56524E;}
	.st2{fill:#EED08A;}
	.st3{fill:#9E8976;}
	.st4{fill:#75706E;}
	.st5{fill:#84676E;}
	.st6{fill:#D0B1B8;}
</style>
<path class="st0" d="M232.9,254.3c0,0,11.6,10.2,0,10.7c-11.6,0.5-16.4-5.3-16.4-5.3S218.3,251.7,232.9,254.3z"/>
<path class="st1" d="M213.2,165c0,0,34.2,28.4,12.3,79.7l7.3,9.6c0,0-14.3-3.2-16.4,5.3c0,0-17.1-10.7-28.4-11.2
	c0,0,0.5-11.2-19.8-16.6C168.3,231.9,218.6,220.6,213.2,165z"/>
<path class="st0" d="M172.6,95.5c0,0,14.4,3.7,30.5-8s30.5-10.7,30.5-10.7s12.8-9.1,16.6-2.7l-5.9,10.7c0,0,1.6,3.7,6.4,5.9
	c4.8,2.1,2.7,6.4,2.7,6.4s-11.2,4.8-14.4,0c0,0-10.7,26.2-36.9,36.9C202,134,178.5,103.5,172.6,95.5z"/>
<path class="st2" d="M96.6,269.3c0,0-2.1-8.6-19.3-7.5s-15.5,8.6-15.5,8.6s6.4,8,18.2,5.9C91.8,274.1,96.6,269.3,96.6,269.3z"/>
<path class="st3" d="M84.3,43l4.3,14.4c0,0,7,6.4,10.7,2.1c3.7-4.3,4.3-10.2,4.3-10.2S89.7,39.8,84.3,43z"/>
<path class="st2" d="M85.9,38.8c0,0,18.7-0.5,20.3,4.3c0,0,44.4-34.8,67.4-18.2s19.8,33.7,19.8,33.7s-1.6,16-5.9,16
	c0,0-6.4,2.1-11.8-1.1c0,0-7.5,3.7-11.2-6.4S148,61.2,148,61.2s-9.6,5.9-18.2,8c0,0,21.9,27.8,32.6,24.6s7.5-13.9,7.5-13.9
	s6.4,8,2.7,15.5c0,0,37.4,45.5,38,56.7l-3.2,14.4L67.2,177.8c0,0,8.6-43.3,4.3-52.4c0,0-27.3-54.6-15-84c0,0,2.1-24.6,8-26.2
	c0,0,3.2,2.1,2.1,5.9c0,0,10.7-12.8,13.9-9.1s-2.1,13.4-2.1,13.4l0.5,3.7c0,0,10.2-6.4,11.8-3.7S85.9,35,85.9,35s-2.1,12.8,5.3,26.7
	l2.1-1.6l5.9-0.5l4.3-10.2c0,0-12.3-8.6-15.5-6.4L79.5,42L85.9,38.8z"/>
<path class="st4" d="M69.3,166.6c0,0,10.7,9.6,17.1-1.6c6.4-11.2,18.2-6.4,18.2-6.4s15,17.7,22.5,8.6c7.5-9.1,12.3-10.2,12.3-10.2
	s13.4-1.1,19.8,9.1c6.4,10.2,16-5.9,16-5.9s8.6-7,17.7-1.1c0,0,8.6,13.9,14.4,1.1c0,0-0.5-6.4,3.2-8c0,0,13.4,31-10.2,59.4
	s-63.1,23.5-63.1,23.5l-14.4-2.1c0,0-11.2,15.5-24.1,23c0,0,7,11.2-2.1,13.4c0,0-3.2-8-19.3-7.5c-16,0.5-15.5,8.6-15.5,8.6
	s5.3-11.8-1.1-23.5S57,212.6,57,212.6L69.3,166.6z"/>
<path class="st5" d="M169.9,72.5l-3.7,3.2l3.7,4.3c0,0,2.7,11.2-7.5,13.9c-10.2,2.7-32.6-24.6-32.6-24.6s17.1-5.9,18.2-8
	c0.8-0.3,7.7-2.9,14.4,1.1C168.1,65.7,169.6,71.4,169.9,72.5z"/>
<path class="st6" d="M133,73.5c0,0,8.6-1.6,14.4,1.1c0,0,11.2-2.7,17.7,5.3s2.1,12.8-2.7,13.9C162.4,93.9,151.7,101.3,133,73.5z"/>
</svg>
