<?xml version="1.0" encoding="utf-8"?>
<!-- Generator: Adobe Illustrator 23.0.4, SVG Export Plug-In . SVG Version: 6.00 Build 0)  -->
<svg version="1.1" id="Layer_1" xmlns="http://www.w3.org/2000/svg" xmlns:xlink="http://www.w3.org/1999/xlink" x="0px" y="0px"
	 viewBox="0 0 288 288" style="enable-background:new 0 0 288 288;" xml:space="preserve">
<style type="text/css">
	.st0{fill:#7C6A5F;}
	.st1{fill:#B086A1;}
	.st2{fill:#B39C8B;}
	.st3{fill:#DDB9CF;}
	.st4{fill:#94969D;}
	.st5{fill:#BFC2C3;}
</style>
<path class="st0" d="M116,82.9c0,0-9.6-64.7,45.5-64.2c55.1,0.5,54.7,52.8,54.7,52.8l-3.2,61.9l-66.5,47.4L116,82.9z"/>
<path class="st1" d="M150.2,67.9c-2.3-4.3-1.6-6.7-1.2-7.6c2.4-5.5,13.7-5.1,18.9-4.2c3,0.5,8.1,1.8,13.7,5.9c1.5,2,3.1,5,2.3,7.7
	c-1.7,5.5-12,6.7-18.2,5.9C158,74.7,152.7,70.3,150.2,67.9z"/>
<path class="st2" d="M46.3,219.5c-2.8-9.2-6.5-24-7.3-42.4c-0.6-15.3-3.3-76.7,31.9-95.2c5.4-2.8,16.5-7.2,34.6-4.1
	c13.6,3,21.5,8.9,26,13.2c16.8,16.2,17.3,41.5,16.9,79.3c-0.1,9.8-0.6,23-2.3,38.7l6.4,15.5L111,242.3L46.3,219.5z"/>
<path class="st2" d="M228.5,218.2c0,0,42.4-72.4-1.4-97.9c-11.3-6.6-27.6-13.2-42.8-8.2c-14.7,4.8-22.7,17.2-31.4,30.5
	c-7.3,11.3-11.4,21.7-13.7,29.2c-0.6,2.3-1.2,4.6-1.8,6.8l9.6,41C147,219.5,224.4,231.4,228.5,218.2z"/>
<ellipse transform="matrix(0.3328 -0.943 0.943 0.3328 -28.0145 286.5104)" class="st3" cx="188.5" cy="163.1" rx="9.6" ry="18"/>
<ellipse transform="matrix(0.9898 -0.1427 0.1427 0.9898 -17.8587 16.3998)" class="st3" cx="105.4" cy="132.7" rx="19.2" ry="10.7"/>
<path class="st4" d="M45,209.1L34,211.8c0,0-4.6,5.9-3.6,9.6l-9.1-0.5l-10.9,13.2l1.4,3.6l-5,10c0,0,3.6,7.3,20,3.2
	c0,0,11.8,6.8,21.9,4.1l7.3,2.7c0,0,11.8-1.4,15,3.2l7.3,0.9l11.4-0.9c0,0,19.1,4.6,26-1.4l15.9,3.2c0,0,15.9,10.9,26.4,6.4
	c0,0,6.4-0.9,6.4-4.1s20-2.3,20-2.3l8.2,4.1c0,0,18.2,2.3,21.4-4.6h5.9c0,0,5.9-2.3,5.5-5.9c0,0,8.2-2.7,13.2-0.9
	c5,1.8,26.9,2.3,26.9,2.3s3.2-3.2,1.4-8.7c-1.8-5.5-5-9.1-5-9.1s-9.6-5.5-10.9-4.6l-0.9-3.6h-1.8l-3.6-17.8c0,0-7.7-8.2-12.3-6.8
	l-3.6,10.9c0,0-7.7-7.3-18.7,3.6c0,0-6.8,2.3-10.9-7.3l-16.9-5.9c0,0-10.9,1.4-13.7,5.9c0,0-6.4-5-8.2,0c0,0-5.5-11.4-14.1-5.5
	l0.9,10.5c0,0-1.4,5.5-10.9,0c-9.6-5.5-1.8-0.9-1.8-0.9l-8.7-0.5l-4.6-2.7l-11.8-0.9c0,0-4.1,9.6-6.8,8.2c-2.7-1.4-8.2-2.7-8.2-2.7
	l-7.3,5.5c0,0-13.7-6.8-17.3-10.9c-3.6-4.1-16.9,0.5-16.9,0.5l-6.4,4.6L45,209.1z"/>
<path class="st5" d="M15.4,251.4c0,0,11.4-12.8,12.8-9.1c1.4,3.6-1.4,8.7-1.4,8.7S18.5,251.4,15.4,251.4z"/>
<path class="st5" d="M46.3,219.5c0,0-16.4,9.6-4.1,15.9c12.3,6.4,23.2-2.3,23.2-2.3l7.3-15C72.7,218.2,69.1,204.5,46.3,219.5z"/>
<path class="st5" d="M69.1,236.8l-6.4,1.8l-2.7,6.8c0,0,5.5,10.5,9.1,2.3C72.7,239.6,69.1,236.8,69.1,236.8z"/>
<path class="st5" d="M232.2,207.2c0,0,10.5,18.2,14.1,17.8c3.6-0.5-1.8-10.9-1.8-10.9S237.6,204.5,232.2,207.2z"/>
<path class="st5" d="M228.5,218.2c0,0,6.8,2.3,8.2,10c1.4,7.7-7.3,5-7.3,5l-11.8-6.8l-0.9-9.1C216.7,217.3,222.6,212.7,228.5,218.2z
	"/>
<path class="st5" d="M233.5,253.7c0,0,3.2-8.7,9.6-7.3c6.4,1.4,20.5,9.6,20.5,9.6S247.2,258.3,233.5,253.7z"/>
<path class="st5" d="M184.3,241.9c0,0,3.2-3.6,0-8.2s-6.4-4.6-6.4-4.6S170.7,233.7,184.3,241.9z"/>
<path class="st5" d="M94.2,220c0,0-9.1,7.7-2.3,12.8c0,0,10.9-5.9,10.5-10S94.2,220,94.2,220z"/>
<path class="st5" d="M109.2,214.5c0,0-13.2,11.8-5.5,20.5s19.1-7.7,19.1-7.7l-1.8-11.8L109.2,214.5z"/>
<path class="st5" d="M131.5,262.8l4.1-14.1l10-2.3c0,0,10.5,6.4,6.4,13.7c-4.1,7.3-10,8.7-10,8.7L131.5,262.8z"/>
<path class="st5" d="M195.3,266l-4.6-19.1l0.9-5.5l5.5-0.9c0,0,5.5,4.1,5,6.4c0,0,13.7,8.7,11.8,15.5
	C212.1,269.2,195.3,266,195.3,266z"/>
</svg>
