<?xml version="1.0" encoding="utf-8"?>
<!-- Generator: Adobe Illustrator 23.0.4, SVG Export Plug-In . SVG Version: 6.00 Build 0)  -->
<svg version="1.1" id="Layer_1" xmlns="http://www.w3.org/2000/svg" xmlns:xlink="http://www.w3.org/1999/xlink" x="0px" y="0px"
	 viewBox="0 0 288 288" style="enable-background:new 0 0 288 288;" xml:space="preserve">
<style type="text/css">
	.st0{fill:#F5E6C3;}
	.st1{fill:#C2935E;}
	.st2{fill:#6B504C;}
</style>
<path class="st0" d="M225,118.1c0,0,45.8-15.7,42.5-30.1s19,51.7,3.3,64.8C255.1,165.9,196.8,165.2,225,118.1z"/>
<path class="st1" d="M169.3,158c0,0-2.6-36.6,55.6-39.9c0.3,1,0.7,2.1,1,3.1c2.9-0.6,5.9-1.2,8.8-1.8l-3.9,12.4
	c0,0,5.9-0.8,11.5-2.5c6.2-1.9,8.1-8.6,9.5-7.9c1.3,0.6,0.2,5.5,0,6.5c-1.4,6.4-2.8,15.7-3.3,28.8c0,0,15.1-3.3,11.1-11.1
	c0,0,9.2,4.6,3.9,7.9c-5.2,3.3,7.2-0.7,7.2-0.7s-13.1,41.2-39.9,47.8c-26.8,6.5-36.6,3.3-36.6,3.3s0.7,26.2-3.9,35.3
	c0,0-6.5,30.1-18.3,30.8c-11.8,0.7-20.9-4.6-20.9-4.6s17-15.7,13.7-21.6c-3.3-5.9-9.2-15.7-9.2-15.7l-4.6,2l-15.1,4.6
	c0,0-17.7,42.5-21.6,43.2s-17,5.9-22.9-5.2c0,0-16.4,3.3-23.6-4.6c0,0,8.5-10.5,1.3-25.5c-7.2-15.1-6.5-23.6-6.5-23.6
	s7.2,9.2,15.1,3.3c0,0,17.7,14.4,11.1,17.7c-6.5,3.3,10.5-7.9,10.5-7.9c1.6,0,5.3-0.2,8.3-2.9c0.6-0.5,1.1-1.1,1.5-1.7
	c1.4,1.4,2.7,2.8,4.1,4.1c2.4-0.5,6.1-1.7,9.9-4.3c4.9-3.3,7.6-7.3,8.9-9.7c0,0,38-9.8,32.7-25.5l8.5,1.3c0,0,3.9-17.7-1.3-19
	c-5.2-1.3,4.6-3.9,4.6-3.9L169.3,158z"/>
<path class="st1" d="M146.6,97.8c0,0,22.6-21.6,34.8-22.6c0,0,69.7-7.4,68.2-10.3c-1.5-2.9-21.6,43.2-53,48.1
	c-31.4,4.9-40.7,3.4-40.7,3.4c0.5,9.1,0,22.6-6.1,37.1c-3.5,8.5-6.7,16.2-14.5,21.3c-10.8,7-23.3,4.3-37.9,1
	c-15.6-3.5-37.5-8.9-44.5-24.8c-3-6.7-2.8-14.6-0.2-23.8c6.9-24.5,4.4-25,4.4-25s-27-19.6-27.5-32.9l0.5-65.8
	c0,0,36.8,45.2,33.4,51.5L67.1,87l10.8-4.9l-1-10.3l9.3,6.4l2-9.8l9.8,6.9l8.3,2l2.5-11.3l12.3,12.3l5.9-3.4
	C127,74.7,149.1,90.4,146.6,97.8z"/>
<path class="st2" d="M122.2,262.7l9.8,2c0,0,18.3-11.8,19-20.9c0.7-9.2,0-13.7,0-13.7l-15.1,4.6L122.2,262.7z"/>
<path class="st0" d="M50.2,142.3c0,0-17.7,7.9-18.3,13.1s-6.5,3.3-6.5,3.3l7.9,0.7c0,0-11.8,18.3-5.9,24.9
	c5.9,6.5,14.4,19.6,22.3,20.9c1.2,2.8,3.1,6.5,6.5,10c8,8.4,18.2,9.9,21.7,10.3c2.3,7.5,7.1,12.9,12.5,13.5c1,0.1,2.3,0.1,3.8-0.4
	c1.7-2.2,3.5-4.4,5.2-6.5c0,0,12.4,1.3,9.8-4.6c0,0,2,2,2.6,5.9c0.7,3.9,22.9-13.1,20.3-15.7c0,0,40.6-11.8,32.7-25.5l8.5,1.3
	c0,0,5.9-17-1.3-19l4.6-3.9c0,0-10.1-26.2-25.7-20c0,0-14.6,38.6-52,24C98.8,174.5,59.4,172.4,50.2,142.3z"/>
</svg>
