<?xml version="1.0" encoding="utf-8"?>
<!-- Generator: Adobe Illustrator 23.0.4, SVG Export Plug-In . SVG Version: 6.00 Build 0)  -->
<svg version="1.1" id="Layer_1" xmlns="http://www.w3.org/2000/svg" xmlns:xlink="http://www.w3.org/1999/xlink" x="0px" y="0px"
	 viewBox="0 0 288 288" style="enable-background:new 0 0 288 288;" xml:space="preserve">
<style type="text/css">
	.st0{fill:#F8E0AC;}
	.st1{fill:#8C7E69;}
	.st2{fill:#594554;}
	.st3{fill:#9C7178;}
	.st4{fill:#C1A9C4;}
	.st5{fill:#ECCCD2;}
</style>
<circle class="st0" cx="252.8" cy="61.1" r="10.7"/>
<ellipse class="st0" cx="241.9" cy="47.2" rx="10.5" ry="9.8"/>
<ellipse transform="matrix(0.866 -0.5 0.5 0.866 14.8794 120.033)" class="st0" cx="231.4" cy="32.3" rx="7" ry="11.2"/>
<ellipse class="st1" cx="265" cy="99.8" rx="14.9" ry="16.8"/>
<ellipse class="st1" cx="259.6" cy="80.7" rx="12.3" ry="14.4"/>
<path class="st1" d="M239.8,207.8c12.6-32.4,25.2-64.9,37.7-97.3c1.5,4,3.3,9.9,4.2,17.2c4.1,32.6-13.7,58-16.3,61.5
	c0,0-1.4,1.9-26.5,27.5l0,0L239.8,207.8z"/>
<path class="st2" d="M211.7,192c3.1-1.7,6.2-3.5,9.3-5.2c4.8-4.3,9.8-9.6,14.6-15.9c15.6-20.4,21.3-41.6,23.6-55.3
	c4.2-7.1,11.9-9.4,16.6-6.8c4,2.3,4.8,7.6,4.9,8.4c0,0,2.3,57.2-39.6,92.9C231.3,204.1,221.5,198.1,211.7,192z"/>
<path class="st1" d="M248.2,228.8c0,0-46.6,49.4-140.7,41.5c-8.8,0.7-19.5,0.5-31.4-1.6c-31.1-5.5-52.7-21.5-63.6-31
	c-0.1,0.8-0.3,2.5,0,4.7c3.1,21.6,51.6,33.8,83.4,36.8c10.2,1,17.7,0.8,32.6,0.5c17.2-0.4,43.9-1.9,74.5-10.2
	c13.6-3.7,22.8-7.3,31.2-15.4c6.4-6.1,10-12.7,12.1-17.2C246.9,234.1,247.6,231.4,248.2,228.8z"/>
<path class="st0" d="M37.7,192.5c12.3,7.2,28.3,14.3,47.6,18.3c66.8,13.6,121.8-22.1,136.4-32.3c-2,7.2-6,17-14.3,25.6
	c-25.5,26.7-67.2,17-70,16.3C137.3,220.4,40,236.7,37.7,192.5z"/>
<path class="st0" d="M76.7,125.7c2.9-7.1,5.8-14.1,8.7-21.2l8.1-1.5c4.8,4,13.3,9.9,25.4,12.3c26.4,5.4,47.3-10.3,50.7-13
	c-0.5,4.9-1.5,11.1-3.9,18c-3.3,9.3-7.8,16.4-11.3,21.1c-18.7,20.8-46,24.9-62.2,13.6C79.3,146,77.2,129.8,76.7,125.7z"/>
<path class="st2" d="M153.2,142.6c0,0,49.8-18.6,64.7,14.9c0,0-15.8-19.1-43.8-0.9c0,0-42.4,17.7-48,12.1
	C126.2,168.7,148.1,147.8,153.2,142.6z"/>
<path class="st3" d="M39.5,73.7c0,0,9.3,3.3,2.8,22.8c0,0-7.9,14.9,18.2,15.4c0,0,31.7,4.7,32.1-20.5
	C92.6,91.4,102.9,36.4,39.5,73.7z"/>
<path class="st4" d="M130.4,47.2c0,0-7.5-53.6-71.3-36.8c0,0-32.6,10.7-31.2,25.2c0,0-39.6,22.8-10.2,36.3c0,0,7.5,6.1,21.9,1.9
	c0,0,54.5-33.5,53.1,17.7c0,0-7.5,22.8-32.1,20.5c-24.7-2.3-18.2-15.4-18.2-15.4S30.7,117,58.2,118.9c27.5,1.9,35.4-12.1,35.4-12.1
	s27.5,32.1,74.5,2.8c0,0,10.2-27.9-14.4-46.6S130.4,47.2,130.4,47.2z"/>
<path class="st4" d="M76.3,125.9c0,0-64.7,40.1-34.5,70.3s107.6,16.3,107.6,16.3s69.9-13.5,72.2-34c2.3-20.5-9.8-27-9.8-27
	s-15.4-12.6-37.7,5.1c0,0-42.4,14.4-48,12.1c0,0,26.5-21.4,27-26.1C153.2,142.6,95.4,179,76.3,125.9z"/>
<path class="st4" d="M217,191.5c0,0,35.7,21.2,31.6,40.9c-1,4.9-4.1,8.2-6.9,10.8c-12.8,11.7-27.1,17.1-48.7,22.8
	c-5.6,1.5-10.3,2.4-12,2.8c0,0-7.7,1.5-15.7,2.4C29,285.9,10.5,238.3,10.5,238.3c-2-5.2-2.8-11.8-1.2-20.2c0,0,9.8-25.6,28.4-25.6
	c5,4,12.1,9.2,21.4,14c33.2,17.2,64.9,15,78.2,14C176.1,217.3,204,200.6,217,191.5z"/>
<path class="st5" d="M91.8,84.4c-15.1-6.3-30.2-4.2-37.4,4.6c-1.5,1.9-3.9,5.6-4.6,11.8c0.5,1.7,1.5,4.3,3.8,6.3
	c3.8,3.2,8.8,2.7,14,2.1c4.1-0.5,10.9-1.9,18.5-6.3c1.3-1.3,4.4-4.6,5.6-9.8C92.7,89.4,92.2,86.2,91.8,84.4z"/>
</svg>
