<?xml version="1.0" encoding="utf-8"?>
<!-- Generator: Adobe Illustrator 23.0.4, SVG Export Plug-In . SVG Version: 6.00 Build 0)  -->
<svg version="1.1" id="Layer_1" xmlns="http://www.w3.org/2000/svg" xmlns:xlink="http://www.w3.org/1999/xlink" x="0px" y="0px"
	 viewBox="0 0 288 288" style="enable-background:new 0 0 288 288;" xml:space="preserve">
<style type="text/css">
	.st0{fill:#AEB1B4;}
	.st1{fill:#7F6E5C;}
	.st2{fill:#0B2339;}
	.st3{fill:#F5D38C;}
	.st4{fill:#546878;}
	.st5{fill:#D0ABAD;}
	.st6{fill:#FFFFFF;}
</style>
<polygon class="st0" points="72.6,231.2 77.5,238.1 71.6,239.6 "/>
<polygon class="st0" points="149.3,243 141.9,247.9 148.8,251.4 "/>
<path class="st1" d="M134,220.9c0,0,28.5,12.8,52.1-5.9s28-25.6,28-25.6s13.3-9.3,15.2-0.5c2,8.9-20.2,26.1-20.2,26.1
	s-42.8,38.8-91.5,7.4C117.8,222.3,122.7,214.5,134,220.9z"/>
<path class="st2" d="M133.5,231.2c0,0,7.9-2,5.4-7.9l-13.3-7.9l-7.9,6.9C117.8,222.3,131.1,232.2,133.5,231.2z"/>
<path class="st2" d="M142.4,233.2c0,0,6.4-3,3.9-7.9l7.4-0.5c0,0,5.9,4.9,0.5,9.8L142.4,233.2z"/>
<path class="st2" d="M176.3,220.9c0,0,5.4,2.5,1.5,9.8c0,0,8.9,0,10.8-3.9c0,0,4.4-8.9-3-9.3C185.7,217.4,182.7,218.4,176.3,220.9z"
	/>
<path class="st2" d="M192,209.6c0,0,10.8,3.4,7.4,11.8l9.8-6.4c0,0,3-11.3-9.8-11.3L192,209.6z"/>
<path class="st2" d="M205.8,198.7c0,0,12.8-3.9,11.3,10.3l9.3-10.8c0,0-0.5-13.3-12.3-8.9L205.8,198.7z"/>
<path class="st1" d="M96.2,126c0,0-1.5-3.4-5.9-6.9c-4.4-3.4-22.1-34.9-22.1-34.9l-2,3.9l-2-6.4l-4.9,9.3c0,0-3-11.3-1.5-13.8
	l-7.9,2.5l10.3-24.6c0,0,17.7-28,39.3-40.8c0,0,6.4-5.9,12.8-4.9c6.4,1,11.3,0,11.3,0S136,5,141.4,27.1l-3.4,5.4c0,0,1,8.4-6.9,8.9
	c-7.9,0.5-13.3-0.5-13.3-0.5S93.7,52.7,89.3,66l-3.9,5.4c0,0-5.4,1,5.4,16.7s16.2,30.5,16.2,30.5L96.2,126z"/>
<polygon class="st2" points="92.2,120.6 93.7,111.7 105,120.1 96.2,126 "/>
<path class="st2" d="M86.3,113.2l3.9-10.8L86.8,96c0,0-5.9,0.5-4.4,12.3L86.3,113.2z"/>
<path class="st2" d="M76.5,99.4c0,0,3.4-11.8,13.8-9.3l-3.4-7.9c0,0-14.8-0.5-13.8,9.3L76.5,99.4z"/>
<path class="st2" d="M60.3,55.2c0,0,6.9,14.8,14.3,14.3l-2-3.9l5.9,2.5L75,64.5l3.9,1c0,0-11.3-11.3-9.3-23.1L60.3,55.2z"/>
<path class="st2" d="M78,44.8c0,0,0.5,10.3,18.2,10.3L89.3,66c0,0-12.8-4.9-13.3-11.3l4.4,0.5L74,49.8l4.4,2L78,44.8z"/>
<path class="st2" d="M80.9,31.1c0,0-4.9,18.7,17.2,22.6l6.4-5.4c0,0-18.2-3-15.7-26.6L80.9,31.1z"/>
<path class="st1" d="M95.2,83.7l-5.9-6.9c0,0-8.9,1.5-9.8-4.9c-1-6.4,3.9-7.9,3.9-7.9s9.8-2.5,10.3,4.9s-3,5.4-3,5.4l9.8,6.9
	L95.2,83.7z"/>
<path class="st3" d="M96.2,126c0,0-35.9,27-24.6,71.8L53.4,212c0,0-5.9,13.8-5.9,15.7c0,0-20.7,12.8-23.1,11.3s-2,8.4-2,8.4l5.9,7.9
	l10.3,1.5c0,0,8.4,2.5,15.2-3.9s17.7-13.3,17.7-13.3s5.9-4.9-2-12.3c0,0,7.4-13.8,15.7-14.3c0,0,28.5,19.2,57,4.4
	c0,0,11.3,4.9,11.8,10.3c0.5,5.4-0.5,11.8-0.5,11.8s-11.3,7.4-5.4,15.7c5.9,8.4,7.4,7.9,7.4,7.9s5.4,2,12.8,1.5l5.9,2.5l23.6-3.4
	l1-6.9c0,0,0-4.9-7.4-7.4c-7.4-2.5-18.7-7.4-18.7-7.4v-18.7c0,0,0-3.9-4.9-7.4c-4.9-3.4-14.3-12.8-14.3-12.8s14.8-44.3,0.5-67.9
	c0,0,22.1-11.3,31.5-12.8c0,0,31.5,7.9,32.5,11.3c0,0,2.5,12.8,13.8,13.8c11.3,1,11.8-3.9,11.8-3.9s11.8,8.9,13.8,7.9c2-1,2-1,2-1
	s11.3,4.4,13.8,2c0,0,4.4,2.5,5.9-3.4c1.5-5.9,1.5-15.7,1.5-15.7s-2.5-19.2-17.7-24.6c-15.2-5.4-61.5-9.8-61.5-9.8l-3.4-6.4
	l-3.9,4.9l-14.3-3.9c0,0,2.5,8.4,5.4,8.4l-8.4,1l4.9,4.4c0,0-20.2,2-21.1,3.9l-6.4-1.5c0,0,20.2-10.3,6.4-23.1s-15.7-6.9-15.7-6.9
	l5.9-3.9c0,0,12.8,3,11.8-6.9S151.2,64,151.2,64s-5.4,4.4-3,8.4l-5.4,3c0,0-16.7-7.9-22.6-5.4c0,0,18.2-30.5,14.3-41.3
	c0,0-20.2,11.8-22.6,41.8l-2,1.5c0,0-3.4-36.4-7.4-37.9c0,0-6.4,25.6-1,41.3c0,0-9.8,7.4-9.3,9.8c0,0-8.9,3.9-8.4,9.3
	c0.5,5.4,3.9,12.8,3.9,12.8s2,13.3,9.8,13.3h5.4l-2,3L96.2,126z"/>
<path class="st4" d="M50.9,217.9c0,0,9.8,7.9,20.2,4.9l-2,6.9c0,0-13.8,11.3-21.6-2L50.9,217.9z"/>
<path class="st4" d="M154.2,234.6c0,0,16.2,2.5,17.7-0.5l1,7.9c0,0,0.5,8.1-14.2,1.5c-0.6-0.3-1.3-0.6-2-1l-3-3l3.9-0.5L154.2,234.6
	z"/>
<path class="st4" d="M151.7,222.8c0,0,7.9-8.9,16.2-6.9l-12.3-10.8c0,0-13.8,5.9-10.3,13.3L151.7,222.8z"/>
<path class="st4" d="M62.7,205.6c0,0,11.3,12.8,13.3,12.3c0,0,5.9-6.4,9.3-4.9c0,0-14.8-11.3-13.8-15.2L62.7,205.6z"/>
<path class="st4" d="M159.1,163.3c0,0-24.1,20.7-33.4,21.6h5.9l-20.7,12.3c0,0,6.9,0.5,8.9-1l-3,3.9c0,0,38.4-9.8,41.8-19.2
	C158.6,181,162.5,166.3,159.1,163.3z"/>
<path class="st4" d="M95.2,83.7l4.9,14.3c0,0,18.2-18.7,22.6-18.2l-1,3l6.4-3.4c0,0-28.5,30.5-28,33.4
	C100.1,112.7,90.3,99.4,95.2,83.7z"/>
<path class="st4" d="M241.7,104.3c-1.5,0-16.7,2.5-18.2,11.3l-1.5-3.9l-2.5,3.9l-1-3.9l-4.4,10.3c0,0-3.9-16.2,11.3-20.7
	L241.7,104.3z"/>
<path class="st4" d="M212.2,129.9c0,0-7.9-13.3,2.5-24.6l-4.9,1.5l0.5-3.4l-4.4,6.4v-4.9c0,0-11.8,7.4-4.9,21.6L212.2,129.9z"/>
<path class="st4" d="M201.4,98.9c0,0-12.8,4.9-11.3,16.7l4.4-6.4l0.5,4.9c0,0,6.9-13.8,13.8-13.8L201.4,98.9z"/>
<path class="st4" d="M181.7,107.3c0,0-6.9,3.4-4.4,13.8l-2.5-3l0.5,6.9c0,0-6.4-10.8-3.9-15.2L181.7,107.3z"/>
<path class="st4" d="M164,129.4c0,0-3.9-12.3,1.5-17.7l1,4.4l2.5-3c0,0-2,9.3,3.9,12.8L164,129.4z"/>
<path class="st4" d="M154.2,135.3c0,0-15.2-5.4,0-23.6l2-2l4.4,1.5c0,0-7.9,15.2,1.5,18.7L154.2,135.3z"/>
<path class="st4" d="M101.1,133.8c0,0-25.1,14.3-26.6,20.7c-1.5,6.4-4.4,13.8-4.4,13.8s27-8.9,35.9-5.9c0,0-21.1,20.1-27.6,30.5
	c-1.3,2.1-2.1,3.8-1.9,4.9l3.4-3l-2,8.9c0,0,45.2-38.8,63.9-40.8l-3.9-1l8.9-2l-30.5-5.4c0,0,26.1-30.5,27.5-37.4
	c0,0-11.3,6.9-12.3,11.8C130.6,133.8,114.9,147.6,101.1,133.8z"/>
<path class="st5" d="M105,120.1c0,0,15.7-3.9,18.2-6.9l6.9,3c0,0-0.5,15.7-6.9,17.7c-6.4,2-11.3,0-11.3,0c-0.6,0.1-1.5,0.2-2.5,0
	c-2-0.3-3.4-1.4-3.9-2c-0.5-1-1.1-2.3-1.4-4.1C103.5,124.3,104.5,121.4,105,120.1z"/>
<polygon class="st6" points="123.2,113.2 134,121.1 131.6,108.8 "/>
<path class="st6" d="M26.8,241c0,0-12.8,4.4-14.8,3.9s-4.9,8.4-4.9,8.4s13.3-3.9,16.2-1l-2,8.9c0,0,7.4-5.4,16.7-2.5
	c0,0,6.4-7.9,1.5-13.3l-13.3,4.4C26.3,249.9,27.8,244.5,26.8,241z"/>
<path class="st6" d="M176.8,255.8c0,0,6.4,6.4,10.3,5.4c3.9-1,0.5,15.2,0.5,15.2s-5.4-7.4-10.8-8.4c-5.4-1-5.9-3.4-5.9-3.4
	S172.9,257.3,176.8,255.8z"/>
<path class="st6" d="M192.5,263.6c0,0-0.5-10.3,2.5-10.3c3,0,13.3,6.4,13.3,6.4l1.5,9.3C209.8,269.1,202.9,262.7,192.5,263.6z"/>
</svg>
