<?xml version="1.0" encoding="utf-8"?>
<!-- Generator: Adobe Illustrator 23.0.4, SVG Export Plug-In . SVG Version: 6.00 Build 0)  -->
<svg version="1.1" id="Layer_1" xmlns="http://www.w3.org/2000/svg" xmlns:xlink="http://www.w3.org/1999/xlink" x="0px" y="0px"
	 viewBox="0 0 288 288" style="enable-background:new 0 0 288 288;" xml:space="preserve">
<style type="text/css">
	.st0{fill:#565050;}
	.st1{fill:#F8E5A5;}
	.st2{fill:#E7D0D1;}
	.st3{fill:#F4DADC;}
	.st4{fill:#F6E6E7;}
	.st5{fill:#AF90A0;}
	.st6{fill:#8E7C82;}
</style>
<polygon class="st0" points="60,66.9 62.9,62.9 71.9,66.9 75.8,61.8 81.4,62.9 84.8,54.5 97.2,57.3 104.5,66.3 98.9,77.5 
	101.1,88.2 92.7,96.1 65.7,83.2 60.6,71.4 "/>
<path class="st1" d="M65.7,83.2c0,0,11.2-21.4,36-9.6l-2.8,3.9l2.2,10.7l-8.4,7.9L65.7,83.2z"/>
<path class="st2" d="M168.6,79.8c0,0,4.5-25.9,21.4-31.5c0,0,14.6-17.4,36.6-2.2S249,98.9,249,98.9l-47.2,47.2l-22.5-7.3L168.6,79.8
	z"/>
<path class="st2" d="M60,66.9l0.6,4.5l5.6,1.7l-0.6,10.1L78.6,82c0,0,6.2,6.7,10.7,6.7l3.4,7.3c0,0,6.2-8.4,8.4-7.9l-2.2-10.7
	l5.6-11.2l-7.3-9c0,0,25.9,11.2,26.4,25.3s-30.4,54.6-30.4,54.6L55,117.5C55,117.5,34.2,95.5,60,66.9z"/>
<path class="st3" d="M198.4,141.1c0,0-2.8-46.7,40.5-44.4s45,47.8,45,47.8s2.8,35.4-25.3,48.4c-28.1,12.9-48.4-19.1-48.4-19.1
	L198.4,141.1z"/>
<path class="st3" d="M93.2,137.2c0,0,3.4-65.8,48.9-64.7c45.6,1.1,52.3,50.1,52.3,50.1l1.1,25.3l-53.4,35.4
	C142.2,183.3,98.3,183.3,93.2,137.2z"/>
<path class="st4" d="M69,118c0,0-47.2-18-61.9,45c0,0-6.7,59.1,40.5,60.2s52.9-30.4,52.9-30.4S118.5,142.2,69,118z"/>
<path class="st4" d="M206.3,140.5c0,0-57.9-8.4-70.3,52.9c-12.4,61.3,50.6,64.7,50.6,64.7c4.5-0.4,25.2-2.8,38.8-20.2
	c10.7-13.7,10.7-28.6,10.7-40.5c0-8.9,0-34.1-18-49.5C213.7,144,209.3,141.8,206.3,140.5z"/>
<path class="st5" d="M163.5,224.9l22.5,6.7C186,231.7,175.9,216.5,163.5,224.9z"/>
<path class="st6" d="M208.5,96.1l22.5,0.6C231,96.7,224.3,82,208.5,96.1z"/>
</svg>
