<?xml version="1.0" encoding="utf-8"?>
<!-- Generator: Adobe Illustrator 23.0.4, SVG Export Plug-In . SVG Version: 6.00 Build 0)  -->
<svg version="1.1" id="Layer_1" xmlns="http://www.w3.org/2000/svg" xmlns:xlink="http://www.w3.org/1999/xlink" x="0px" y="0px"
	 viewBox="0 0 288 288" style="enable-background:new 0 0 288 288;" xml:space="preserve">
<style type="text/css">
	.st0{fill:#A89175;}
	.st1{fill:#F7E4A2;}
	.st2{fill:#AA5750;}
	.st3{fill:#EC7E54;}
</style>
<path class="st0" d="M77.8,123.2c0,0,14.2-3.4,17.7,0.5c3.4,3.9-3.9,21.6-3.9,21.6l-30.5,17.2L77.8,123.2z"/>
<path class="st1" d="M147.1,138.9l1-10.8l10.3-20.6c0,0,19.7,2.5,19.2-20.6L177,75.1c0,0,19.7,14.2,12.8,23.6
	c0,0,15.2-18.2,47.7-0.5c0,0,28.5,5.4,19.7-44.7c0,0,37.8,24.6,19.2,55L264,124.2c0,0-5.4,34.9,1,35.9c6.4,1,8.4-1.5,8.4-1.5
	s-13.3,36.4-34.4,38.3c-21.1,2-38.8-1.5-38.8-1.5L147.1,138.9z"/>
<path class="st2" d="M155.9,195.9c0,0,1,26.5-4.9,30.3c-5.9,3.8-18.7-10.7-18.7-10.7l1.5-10.7L155.9,195.9z"/>
<path class="st2" d="M37,127c0,0,11.8-38.2,15.7-39.2s7.9-6.1,10.8-8.7c2.9-2.5,22.6-19.8,22.6-19.8s1.5,49.4-11.8,61.1
	S37,127,37,127z"/>
<path class="st3" d="M74.9,147.3c0,0,21.6-31.9,30-32.9c8.4-1,56.5-18.7,56.5-18.7s-5.8,13.6-12.8,27.6c-9,17.8-14,26.5-20.6,29.8
	c-11.5,5.9-25.5,2-28.5,9.3c-0.5,1.2-0.5,2.3-0.5,2.9c-0.4,3.7-2.2,17.6-13.8,27.2c-6.8,5.6-15.2,7.2-19.6,8.2
	c-1.7,0.4-7.7,1.7-14.2,1.4c-16.8-0.8-29.2-11.9-33.5-16.1c1-8.8,2-17.7,2.9-26.5c0,0,14.7,15.2,32.4,6.4
	C70.9,157.1,74.9,147.3,74.9,147.3z"/>
<path class="st3" d="M42.4,223.4c0,0-15.7,21.1-33.9,22.6c0,0-8.4,11.3,3.9,13.8c12.3,2.5,19.2-1.5,19.2-1.5s33.4-17.2,31.4-22.6
	C61.1,230.3,42.4,223.4,42.4,223.4z"/>
<path class="st3" d="M114.6,232.8l19.2-19.7l19.2,16.2c0,0,3.4,5.9-2.5,14.7c-5.9,8.8-22.6,31.4-25.5,31.4
	c-2.9,0-26.5,3.9-20.1-12.3l19.7-16.7c0,0,4.9-7.9-0.5-8.4C118.6,237.7,114.6,232.8,114.6,232.8z"/>
<path class="st3" d="M139.2,141.4c0,0,44.7-2,58.5,23.6s23.6,45.2,30.9,46.2c7.4,1-3.9,22.1-3.9,22.1s-10.8,21.6-16.7,22.1
	c-5.9,0.5-19.7,2.9-19.2-10.8c0,0,10.8-11.3,14.7-22.1c0,0,4.4-4.9-5.4-4.9c0,0-34.4,4.9-41.3-17.2c0,0-19.2,14.2-23.1,12.8
	c-3.9-1.5-2-62.9-2-62.9L139.2,141.4z"/>
<path class="st1" d="M20.8,160.8c0,0-4.9-33.5,25.5-36.1s18.2-21.1,18.2-21.1s24.1,13.4,10.3,42.3S31.6,174.7,20.8,160.8z"/>
<path class="st1" d="M33.6,197.4c0,0-15.2,40.3,50.1,42.2s64.4-69.8,64.4-69.8s-1-17.7-2.9-18.2c-2-0.5-7.9,3.9-7.9,3.9l1-12.3
	c-4,3-9.4,6.3-16,9.1c-10.4,4.4-19.7,5.7-26.2,6.1c0.1,3.8,0.2,18.9-10.8,30.5C73,202.1,52.3,205.6,33.6,197.4z"/>
</svg>
