<?xml version="1.0" encoding="utf-8"?>
<!-- Generator: Adobe Illustrator 23.0.4, SVG Export Plug-In . SVG Version: 6.00 Build 0)  -->
<svg version="1.1" id="Layer_1" xmlns="http://www.w3.org/2000/svg" xmlns:xlink="http://www.w3.org/1999/xlink" x="0px" y="0px"
	 viewBox="0 0 288 288" style="enable-background:new 0 0 288 288;" xml:space="preserve">
<style type="text/css">
	.st0{fill:#847088;}
	.st1{fill:#130E0F;}
	.st2{fill:#BCA6B0;}
	.st3{fill:#F1EDED;}
</style>
<path class="st0" d="M6.9,80c0,0,11.5-3.3,9.9,5.5s-4.9,9.3-4.9,9.3s-7.7-1.6-6.6-4.9C6.3,86.6,6.9,80,6.9,80z"/>
<path class="st0" d="M120.9,2.2c0,0-15.3,8.8-11,15.9c4.4,7.1,4.9,1.6,4.9,1.6l0.5,2.7c0,0,7.7-3.3,9.3-6.6c1.6-3.3,1.6-9.3,1.6-9.3
	S124.2,2.2,120.9,2.2z"/>
<path class="st0" d="M218.5,268c0,0,0.5,5.5,3.3,3.8c2.7-1.6,0.5-4.4,0.5-4.4S219.6,267.5,218.5,268z"/>
<path class="st0" d="M233.3,247.2c0,0-5.5,6-1.1,12.1s12.1-1.1,12.1-1.1S246.4,245.6,233.3,247.2z"/>
<path class="st0" d="M273.3,112.4l-8.2,6.6l1.6,8.8c0,0,7.1,3.3,8.2,7.7c0,0,8.8,1.6,9.9-3.3c1.1-4.9,1.1-7.7,1.1-7.7s-3.3-6-8.8-6
	l2.2-7.7c0,0,12.1-5.5,2.7-9.3c0,0-2.2-6-9.3-1.1C272.7,100.3,267.8,103,273.3,112.4z"/>
<path class="st0" d="M24.4,176.5c0,0-1.1,7.7-8.2,8.2c0,0,1.1,6.8,1.1,14.3c0,1.6-1.1,10.4,9.3,8.8S37,226.9,37,226.9
	s-1.6,9.9,6,12.1s8.8,0.5,8.8,0.5s-1.1-8.2,6.6-4.4c7.7,3.8,13.2,8.8,13.2,8.8s2.7,4.9,1.6,9.3c-1.1,4.4-1.1,8.8-1.1,8.8
	s2.2,4.4,12.6,7.1c0,0,5.1,12.1,9.3,12.1c0.5,0,15.3-5.5,21.4-2.7c6,2.7,7.1-8.2,7.1-8.2l-7.7-2.2c0,0,0-8.8,7.7-7.7
	s9.3,5.5,9.3,5.5s-2.2,5.5-0.5,6c1.6,0.5,8.2,3.3,8.2,3.3s6.6-5.5,10.4-2.2c3.8,3.3,15.3-11,15.3-11s-3.8-10.4,4.4-8.8
	c8.2,1.6,13.7,6,13.7,6s-1.6,13.2,12.6,12.1c0,0,6.6,0,7.7-7.7c0,0,11.5-13.2,19.2-12.1c7.7,1.1-1.1-6-1.1-6s4.4-16.4,2.2-19.7
	c0,0,9.9-8.8,12.6-6.6l0.5,2.7h9.3c0,0,10.4-6.6,9.3-17.5l9.9-8.2l7.1,1.1l13.2-17c0,0-9.9-15.3-8.2-18.6c1.6-3.3,3.3-6.6,3.3-6.6
	s-11-11.5-14.8-11c0,0-2.2,1.6-8.8,0.5c-6.6-1.1-8.2,4.4-8.2,4.4l2.7,4.4c0,0-4.4,11.5-14.8,4.9c-10.4-6.6,1.1-26.3,1.1-26.3
	s10.4-0.5,9.9-7.7c-0.5-7.1,3.3-15.3,3.3-15.3s0.5-6.6-7.7-11c-8.2-4.4-6-8.2-6-8.2s-6-5.5-13.7,0c-7.7,5.5-12.6,5.5-12.6,5.5
	s-9.9-1.1-10.4-6s-4.4-6.6-4.4-6.6s2.2-17,16.4-13.2c0,0,3.3,7.1,11,6c7.7-1.1,11-12.6,11-12.6s-5.5-13.7,0.5-18.1
	c0,0,0.5-4.4-8.8-9.9s-12.6,0.5-12.6,0.5l-3.8,1.1l-2.2,4.4c0,0,1.6,11.5-5.5,10.4c-7.1-1.1-8.8-6-8.8-6s-12.1-4.9-12.6-9.3
	l-2.7-0.5c0,0-3.8-5.5-4.4-3.8s-13.2,17-27.4,15.3c0,0,0.5,14.3-10.4,10.4c0,0-9.9-0.5-13.2,1.1c-3.3,1.6-6-6.6-6-6.6l1.1-4.4
	c0,0,9.9-0.5,9.9-11.5S117.6,29,117.6,29l-9.3,8.8l-12.6-2.2l-4.4,0.5L88,31.2c0,0-14.8,8.8-16.4,6.6s-2.7,12.1-2.7,12.1
	s-5.5,6-8.2,1.6s-2.2,1.1-2.2,1.1l-3.3,3.8c0,0,9.9,14.8,2.7,18.6c0,0-10.3-2.1-16.4,7.1c-1.1,1.6-0.5,15.9-10.4,17.5
	c0,0-12.6-7.1-17.5,8.2s-7.1,13.7-7.1,13.7s8.8,4.9,9.9,17.5l11,7.1c0,0-12.6,14.3-9.3,18.6S24.4,176.5,24.4,176.5z"/>
<path class="st1" d="M55.1,214.9c0,0,21.9,52.1,89.4,30.1s63-81.1,63-81.1s3.8-92.1-89.9-93.7S29.3,187.5,29.3,187.5
	S45.8,210.5,55.1,214.9z"/>
<path class="st2" d="M61.7,217.1c0,0,7.7,26.9,42.2,24.1c34.5-2.7,36.7-25.2,36.7-25.2S105.5,236.8,61.7,217.1z"/>
<path class="st3" d="M43.6,205.5c0,0-1.6,20.3,1.1,19.7s10.4-10.4,10.4-10.4L43.6,205.5z"/>
<path class="st3" d="M119.2,223.6c0,0,8.8,17,11,14.8c2.2-2.2,2.7-18.6,2.7-18.6L119.2,223.6z"/>
</svg>
