<?xml version="1.0" encoding="utf-8"?>
<!-- Generator: Adobe Illustrator 23.0.4, SVG Export Plug-In . SVG Version: 6.00 Build 0)  -->
<svg version="1.1" id="Layer_1" xmlns="http://www.w3.org/2000/svg" xmlns:xlink="http://www.w3.org/1999/xlink" x="0px" y="0px"
	 viewBox="0 0 288 288" style="enable-background:new 0 0 288 288;" xml:space="preserve">
<style type="text/css">
	.st0{fill:#497993;}
	.st1{fill:#765976;}
	.st2{fill:#9E73A8;}
	.st3{fill:#8AB4CA;}
	.st4{fill:#3B3C3C;}
	.st5{fill:#FFFFFF;}
</style>
<path class="st0" d="M67.6,223.9c0,0-8.9,1-8.9,3.7c0,0-5.2-25.6-16.7-22.5c0,0-5.7,2.6,5.7,15.7c0,0,4.2,12,4.2,26.6
	c0,0,2.6,7.8,5.2,5.7c2.6-2.1,3.1-17.8,3.1-17.8s7.3-5.7,11.5-4.7C76,231.7,67.6,223.9,67.6,223.9z"/>
<path class="st1" d="M14.3,38.5c0,0,51.2,59-8.4,117c0,0,27.7-5.2,40.7,38.7c0,0,20.9-15.7,27.7,6.8l20.9-26.1L80.7,167
	c0,0-9.9-12-11.5-18.3c-1.6-6.3-0.5-17.2-0.5-17.2L87,98.6C87,98.6,39.4,39,14.3,38.5z"/>
<path class="st0" d="M83.8,165.9c0,0-21.9-14.6-13.1-34.5c8.9-19.8,20.9-30.3,20.9-30.3S52.5,45.3,12.8,33.3l1.6,5.2
	c0,0,43.4,22.5,70,61.6c0,0-21.9,24.5-19.3,41.8c2.6,17.2,15.7,30.8,15.7,30.8L83.8,165.9z"/>
<path class="st2" d="M136,204.6c0,0,28.2-17.8,53.8,9.4l3.7,1.6c0,0-2.1-53.8,51.2-60.1l2.1-3.1c0,0-40.2-61.6,24-99.8l-3.1-1.6
	c0,0-42.3,9.9-56.9,20.4c-14.6,10.4-44.9,37.6-44.9,37.6l5.2,29.3c0,0-7.8,31.9-29.3,32.4l-6.8,3.1L136,204.6z"/>
<path class="st3" d="M100.5,130.4c0,0-3.7-9.9-5.7-8.4c-2.1,1.6-6.8,9.4-6.8,9.4s-16.7,6.8-8.4,20.9c0,0,6.3,34.5-8.4,55.9
	c0,0-8.9,11.5,0.5,22.5c9.4,11,20.9,13.1,20.9,13.1s21.9,0,30.3-9.9c0,0,5.7,4.2,5.7,6.8c0,0-9.9,24.5-3.7,25.1c0,0,2.6,4.7,7.3-9.9
	c4.7-14.6,18.3-30.3,18.3-30.3s9.9-11-0.5-11.5c-10.4-0.5-17.2,17.8-17.2,17.8l-4.2-3.1c2-3.7,4-7.6,5.9-11.8
	c2.3-5,4.3-9.8,6.1-14.4c-1.6,0.7-3.1,1.4-4.7,2.1c0,0,5.2-25.6,3.7-27.7c0,0,53.3-14.6,28.7-65.3c0,0,40.2-53.3,107.1-60.1l1-3.1
	c0,0-79.9,10.4-114.9,61.1c0,0,24.5,39.7-17.8,58c0,0-7.8-41.8-18.8-44.4c0,0-8.4,4.2-9.4,7.8C115.7,130.9,102.1,127.8,100.5,130.4z
	"/>
<path class="st4" d="M82.2,145.6c0,0,20.4,5.2,32.4,1s12.5,21.4,12.5,21.4s3.1,44.4-21.4,60.6s-34.5-8.9-34.5-8.9l2.6-8.4
	C73.9,211.4,91.7,173.8,82.2,145.6z"/>
<path class="st5" d="M118.3,147.7c0,0-8.4-2.6-1.6,13.1C116.7,160.7,124.6,152.9,118.3,147.7z"/>
<path class="st5" d="M82.2,145.6c0,0-5.2,6.8-2.6,11.5c0,0,8.9-5.2,7.8-8.9C86.4,144.5,82.2,145.6,82.2,145.6z"/>
<path class="st5" d="M77,222.9c0,0,2.1-5.7-5.7-14.6C71.3,208.2,66.6,220.8,77,222.9z"/>
<path class="st5" d="M105.8,228.6c0,0-8.4,1-5.7-14.6C100,214,118.3,222.9,105.8,228.6z"/>
</svg>
