<?xml version="1.0" encoding="utf-8"?>
<!-- Generator: Adobe Illustrator 23.0.4, SVG Export Plug-In . SVG Version: 6.00 Build 0)  -->
<svg version="1.1" id="Layer_1" xmlns="http://www.w3.org/2000/svg" xmlns:xlink="http://www.w3.org/1999/xlink" x="0px" y="0px"
	 viewBox="0 0 288 288" style="enable-background:new 0 0 288 288;" xml:space="preserve">
<style type="text/css">
	.st0{fill:#BABDCB;}
	.st1{fill:#5F839E;}
	.st2{fill:#D2C8AD;}
	.st3{fill:#9DBCD5;}
	.st4{fill:#FAEFD4;}
	.st5{fill:#FFFFFF;}
	.st6{fill:#94777C;}
	.st7{fill:#CFAEB9;}
	.st8{fill:#D59282;}
</style>
<path class="st0" d="M15,129.7c0,0,0.5,8.7,4.4,9.2l1-9.2C20.3,129.7,17.9,127.8,15,129.7z"/>
<path class="st1" d="M213.4,152.3c0,0,42.1-21.3,61.5-58.1c0,0,3.3-5.1,5-4.4c1.3,0.5,1.2,4.1,0.8,7.8c-0.6,5.9-2.5,16.7-8.7,35.3
	c-2.7,6-6.9,14.1-13.6,22.7c-6,7.8-11.5,12.9-15.5,16.5c-6.6,6-16.5,13.9-30,21.3c0,0-0.5-17.4-4.4-21.3c-3.9-3.9-13.1-16-13.1-16
	L213.4,152.3z"/>
<path class="st1" d="M92,82.1c0,0-25.7,4.8-30,2.4c0,0-37.8,26.1-45.5,25.7c0,0-1.5,2.4-2.9,7.7s-7.7,10.2-7.7,10.2v3.9l4.4,2.4
	l4.8-3.9l16-11.6l-2.4,15.5c0,0,6.8-6.3,5.8,2.4l3.4-1.9c0,0,3.9-15,11.1-15.5l1-5.8L63.4,103c0,0,7.3-1,14,1
	c6.8,1.9,19.4-0.5,19.4-0.5l9.2,2.4l-0.5-13.6L92,82.1z"/>
<path class="st1" d="M112.8,155.7l-2.9,8.2c0,0-21.3,19.8-22.7,24.2c-1.5,4.4-2.9,5.8-2.9,5.8s-1.9,9.2-0.5,12.1s7.3,7.3,7.3,7.3
	s-7.7,9.7-10.2,10.2s-9.2,0.5-9.2,0.5s-7.3,6.3-10.6,8.7s-1.5,3.9-1.5,3.9h3.4v4.8l4.4,2.9c0,0,2.9,1,3.9-1s6.3,3.9,6.3,3.9l6.8,3.9
	h1.9c0,0,12.6-10.2,22.7-11.6c0,0,7.7-5.8,15.5-17.4c0,0,4.8-5.3,10.6-5.3s3.4-6.8,3.4-6.8s-7.3-2.9-10.2-1.5
	c-2.9,1.5-10.2-5.3-10.2-5.3s7.3-8.2,15-8.2S112.8,155.7,112.8,155.7z"/>
<path class="st2" d="M13.1,128.6c0,0,11.1-12.6,16.9-11.6s2.9,7.3,2.9,7.3l-4.4,10.2C28.5,134.4,16,126.7,13.1,128.6z"/>
<path class="st2" d="M62.9,236.6c0,0,4.4-10.2,16.5-7.7l-4.4,3.9L62.9,236.6z"/>
<path class="st2" d="M71.1,243.3c0,0,6.3-10.2,21.8-9.7c0,0-9.2,9.7-12.1,8.7s-3.4,4.8-3.4,4.8L71.1,243.3z"/>
<path class="st0" d="M61,232.7c0,0-4.8,7.7-3.9,10.6l2.4-1.5c0,0-2.9,5.3-2.4,7.7s10.2-5.3,10.2-5.3s-1.5-10.2-4.4-7.7
	C62.9,236.6,62.9,231.7,61,232.7z"/>
<path class="st0" d="M6.8,130.1c0,0-3.4,10.2-2.4,12.1s6.8-10.2,6.8-10.2S8.2,129.1,6.8,130.1z"/>
<path class="st0" d="M28.5,134.4c0,0-0.5,10.6,1.9,11.1s3.9-8.7,3.9-8.7S36.3,128.6,28.5,134.4z"/>
<path class="st0" d="M138.4,209.9c0,0,4.4,1.9,4.8,6.8H135C135,216.7,137.9,217.2,138.4,209.9z"/>
<path class="st0" d="M79.4,242.4c0,0-8.7,12.1-5.3,16.5l8.7-7.7C82.8,251.1,87.6,243.3,79.4,242.4z"/>
<path class="st3" d="M89.5,86.5c0,0-5.3-17.4-1.5-25.2c0,0-1.5-36.8,1.9-36.3c3.4,0.5,12.6,16.9,12.6,16.9s13.1-33.4,15-32.4
	s4.8,30.5,4.8,30.5l3.4-1.5c0,0,33.9-33.4,34.8-31S152,48.8,152,48.8s33.4-9.2,33.4-7.3s-11.6,15-11.6,15L155.8,72l-4.4,9.2
	c0,0,1.9,8.7,13.1,12.1s10.2,6.3,10.2,6.3s21.3,1,28.1-2.4c6.8-3.4,14.5,3.4,14.5,3.4s2.9,11.6,0,14.5s-11.1,18.9-11.1,18.9
	s3.4,10.2,6.8,11.6s4.4,11.6,4.4,11.6l-8.7,1.5l-2.9-1.9c0,0-19.4-26-17.4-16c0.5,2.4-0.5,19.4-0.5,19.4l-3.4,5.8l-7.3-3.9l-2.4-3.4
	l-0.5-10.6l1.5-6.3c0,0-8.2-6.3-18.4,1.9l-3.4,6.8H151l-4.4-5.3l2.9-6.8l7.3-1.9c0,0,1.5-6.8,8.7-7.7c7.3-1,12.6-2.4,12.6-2.4
	l7.3-6.3h-7.7c0,0,10.2,26.1,22.7,37.3c12.6,11.1,12.1,26.1,12.1,26.1s11.1,30.5,9.7,34.4c0,0,9.2,8.7,8.2,17.9
	c0,0,8.2,12.6,12.1,15s1.5,10.2,1.5,10.2l-8.7,2.4l-3.4-0.5l-1-2.9c0,0-5.3-24.7-15.5-14.5c0,0,8.2,24.2,2.4,26.6
	c-5.8,2.4-10.6,0.5-10.6,0.5l-1.9-1.9l-1.9-23.7c0,0-3.9-5.3-7.3,1.9s-3.9,13.6-3.9,13.6s-2.9,2.9-5.3,2.9s-6.8-1.5-6.8-1.5
	s-3.9-1.9-1-4.4c2.9-2.4,7.3-14,7.3-14l-2.4-11.6l5.8-12.6c0,0-4.4-11.6-9.2-13.1s-7.3-6.8-7.3-6.8s-29,7.7-52.3-16.9
	s5.3-84.7,5.3-84.7L89.5,86.5z"/>
<path class="st4" d="M154.9,148c0,0,17.4,5.3,19.8,10.6l-0.5-10.6l1.5-6.3C175.7,141.7,163.6,131,154.9,148z"/>
<path class="st4" d="M187.8,160.1l17.9-3.4c-0.1-3-0.8-10.3-6.3-15.5c-1.3-1.2-5.5-5.1-9.2-3.9c-1.6,0.5-2.5,1.8-2.9,2.4
	C183,146,187.1,158.1,187.8,160.1z"/>
<path class="st4" d="M192.1,262.2c0,0,11.6,1,12.6,4.8c0,0,3.4-23.7-4.8-23.2C191.7,244.3,192.1,262.2,192.1,262.2z"/>
<path class="st4" d="M219.3,266.1c0,0,10.6-6.3,14-5.3c0,0-6.3-21.8-15-17.9S219.3,266.1,219.3,266.1z"/>
<path class="st4" d="M105,78.3c0,0,12.6,6.3,21.8,4.8c9.2-1.5,4.4,7.7,4.4,7.7s-2.9,20.8-1.9,22.7c-0.8,3.9-2.3,6.8-3.4,8.7
	c-1.7,2.8-5.5,9.2-12.1,10.2c-0.9,0.1-3.8,0.5-6.8-1c-3.4-1.7-4.8-4.6-5.3-5.8c-1.7-3.6-1.2-6.9-1-8.2c0.8-5.5,1.6-11,2.4-16.5
	c0,0-24.7,10.2-26.6,17.4c0,0-8.7-0.5-7.7-12.6c0,0,2.4-4.8,8.2-8.2c5.8-3.4,12.6-11.1,12.6-11.1S99.7,73,105,78.3z"/>
<path class="st5" d="M146.6,145.1c0,0-5.8,10.6-2.4,13.1l6.8-7.7C151,150.4,153.9,141.2,146.6,145.1z"/>
<path class="st5" d="M177.1,162c0,0,1-8.7,4.4-4.8s2.9,8.7,2.9,8.7l-1.5,8.2C183,174.1,174.2,165.9,177.1,162z"/>
<path class="st5" d="M208.6,158.6c0,0,2.9-10.2,6.8-1.5s-5.3,13.1-5.3,13.1L208.6,158.6z"/>
<path class="st5" d="M180,263.7c0,0-1.9-7.3,3.9-5.3s2.9,6.8,2.9,6.8l-1.9,8.2L180,263.7z"/>
<path class="st5" d="M207.2,272.4c0,0,1.5-11.1,5.3-7.3s5.3,6.8,5.3,6.8l-3.9,10.6L207.2,272.4z"/>
<path class="st5" d="M235.2,263.2c0,0,1.9-8.7,4.8-6.3c2.9,2.4,3.9,5.8,3.9,5.8s0,10.2-2.4,10.6
	C239.1,273.8,235.2,263.2,235.2,263.2z"/>
<path class="st6" d="M116.7,123.8c0,0,8.2-3.9,8.7-24.2S116.7,123.8,116.7,123.8z"/>
<path class="st7" d="M105.5,99.1c0,0,0.5,14.5-0.5,19.4s1.5,7.7,1.5,7.7s5.3,6.8,11.1-2.4c0,0,4.8-17.4,7.7-18.4l1-5.8
	c0,0-1.5-9.7,1-10.2L105.5,99.1z"/>
<circle class="st8" cx="102.8" cy="66.5" r="4.1"/>
</svg>
