<?xml version="1.0" encoding="utf-8"?>
<!-- Generator: Adobe Illustrator 23.0.4, SVG Export Plug-In . SVG Version: 6.00 Build 0)  -->
<svg version="1.1" id="Layer_1" xmlns="http://www.w3.org/2000/svg" xmlns:xlink="http://www.w3.org/1999/xlink" x="0px" y="0px"
	 viewBox="0 0 288 288" style="enable-background:new 0 0 288 288;" xml:space="preserve">
<style type="text/css">
	.st0{fill:#AEA8BA;}
	.st1{fill:#AB5C4D;}
	.st2{fill:#F1EEF3;}
	.st3{fill:#E18161;}
	.st4{fill:#CCC1B5;}
	.st5{fill:#F3CFCF;}
	.st6{fill:#AF949D;}
</style>
<path class="st0" d="M156.1,108.6c0,0,4.1-2.7,10.5,1.4c0,0,15.6-4.8,17.3,8.2c0,0-2.4,2.7-3.7,2.7s-20.7-4.1-20.7-4.1L156.1,108.6z
	"/>
<path class="st0" d="M240.4,167.7c0,0,37.4,22.5,44.6,42.5c0,0-12.6-3.4-16.3,4.1c-3.7,7.5-15.3,0-15.3,0s-3.7-5.8-16.7,0
	s-12.9-10.9-12.9-10.9l2.4-5.8l-2.7-6.5L240.4,167.7z"/>
<path class="st0" d="M239.2,147.7c0,0,4.1,9.5,0.7,14.3l-2.7-11.6L239.2,147.7z"/>
<path class="st0" d="M131.2,166c0,0-13.3-9.9-21.8,4.1L88,181.3c0,0-11.2,2.4-20.7-9.9c-9.5-12.2-30.6,1.4-30.6,1.4
	s-18.7,1.4-22.5-5.1l-6.1,1.4c0,0-5.8-5.4,11.9-16.3c0,0-0.7-9.9,6.8-12.9s8.8-9.5,8.8-9.5s-2-10.9,7.8-13.6s11.2-7.5,11.2-7.5
	s12.2-6.1,17.7,1c5.4,7.1,10.2,6.1,10.2,6.1s0-8.5,3.4-10.5c0,0-2.7-13.6,5.1-16c7.8-2.4,10.5-2.7,10.5-2.7s6.8-3.1,6.8-9.9
	s9.2-8.2,9.2-8.2s13.9,1.7,15.3,10.2s11.2,8.2,11.2,8.2s7.5-0.3,4.1,15c0,0,4.4,6.1,7.8,6.1c0,0,4.8,4.1,3.4,8.2
	c0,0-1.7,8.5-11.2,9.5c-9.5,1-7.5,13.3-7.5,13.3s-2.7,10.2-1,14.3c0,0-2.7,6.8-2.4,8.5c0.3,1.7-0.3-1.7-0.3-1.7
	S135.3,164.3,131.2,166z"/>
<path class="st1" d="M237.2,150.4c0,0-6.5-9.9-8.2-10.5c0,0,8.2,0.7,10.2,7.8L237.2,150.4z"/>
<path class="st1" d="M240.4,167.7l10.2,6.5c0,0-10.9,9.9-15.6,6.1L240.4,167.7z"/>
<path class="st1" d="M148.3,126.2c0,0-5.4-6.5-8.8-5.8l4.8-4.4c0,0-5.1,1.4-3.7-1.4c1.4-2.7,3.1-3.4,3.1-3.4s-12.9,9.5-10.2,1
	s0.3-10.2,0.3-10.2s-14.3,0.7-11.2,5.1c3.1,4.4,4.4,1.7,4.4,1.7s-17,8.2-14.6,12.9c2.4,4.8,5.1,3.1,5.1,3.1s-5.1,4.8-2.4,8.2
	c0,0-2,5.4,2,7.8c4.1,2.4-2.4,8.5-2.4,8.5s-12.9-6.5-16.7,0.3c0,0-6.5-0.7-4.4-2.4c2-1.7-3.1-4.8-3.1-4.8s-10.5-1-6.8,5.4
	c3.7,6.5-9.9,1-9.9,1s0-5.8-6.1-4.4s0,5.8,0,5.8s4.4,4.1,0,5.4c-4.4,1.4,7.1,4.4,7.1,4.4s6.1-5.1,6.8-0.7S87,162,87,162
	s6.1,0.3,6.1,4.1s7.5,1.7,7.5,1.7l8.8,2.4c0,0,7.5-11.9,21.8-4.1c0,0,8.5-4.8,8.5-12.2L148.3,126.2z"/>
<path class="st2" d="M197.2,124.5c0,0-1-11.9-13.3-6.5c0,0-6.5,2.7-10.9-2.7c-4.4-5.4-7.5-3.1-7.5-3.1s-5.4-1.7-10.2,9.9
	c0,0-4.4,4.1-9.9,4.8c-5.4,0.7-4.8,12.6-4.8,12.6s-3.1,10.2-1,14.3c0,0-3.7,6.5-2.4,8.5c0,0-23.5,9.2-27.9,7.8
	c-4.4-1.4-30.3,15.3-30.3,15.3s-16,12.6-12.6,16c0,0,1-1,5.1,0c4.1,1,7.5,4.4,7.5,4.4s3.7,16,12.9,17.3c9.2,1.4,13.3-2,13.3-2
	s6.8-8.2,16-6.8c9.2,1.4,11.6,4.1,11.6,4.1s2.4,5.1,3.1-9.5c0.7-14.6,4.1-21.1,4.1-21.1c1.7,2.8,14.1,22.1,38.4,25.5
	c19.1,2.7,33.4-6.1,37.1-8.5c2.6-2,5.2-4.1,7.8-6.1c2.3-2.9,4.5-5.9,6.8-8.8c1.7-2.2,3.4-4.3,5.1-6.5c1.3-2.3,2.7-5.3,3.7-8.8
	c1.5-5.1,2-9.6,2-12.9c-0.5-3.6-1.7-8.4-4.3-13.4c-6.8-12.9-18.7-18.2-22.9-19.9L197.2,124.5z"/>
<path class="st3" d="M127.8,166c0,0-9.5,4.4,1,7.8c10.5,3.4,13.9,3.1,13.9,3.1s-3.7-9.2,0-8.2c3.7,1,3.1,4.4,3.1,4.4l3.1,1
	l12.9-13.9c0,0-3.7-3.7-16.3-0.3S127.8,166,127.8,166z"/>
<path class="st3" d="M146.2,142.6c0,0,3.7,0.7,8.2-1.4c4.4-2,3.1,2.7,6.5-0.3c3.4-3.1,5.4-4.8,8.5-3.7c3.1,1,3.4-4.8,6.1-5.1
	c2.7-0.3,6.8-3.4,4.8-4.8c-2-1.4,0.7-4.1,0.7-4.1S157.8,123.2,146.2,142.6z"/>
<path class="st3" d="M185,123c0,0,5.4,6.1,10.9,6.8c0,0,4.4,7.5,10.9,7.5s9.5,4.1,9.5,4.1s3.7,0.3,7.8-2c4.1-2.4-0.7-4.1-0.7-4.1
	l0.3-1.7C223.8,133.5,200,119.2,185,123z"/>
<path class="st4" d="M197.2,127.3c0,0,16.3-39.8,18-39.8s1.7,4.4,1.7,4.4s-1.7,37.4-3.4,39.8C211.9,134.1,197.2,127.3,197.2,127.3z"
	/>
<path class="st5" d="M212.2,176.9l10.5-9.2c0,0,6.1,0.3,9.2-0.3c3.1-0.7,5.1,1,5.1,1s-1,3.4-2.7,6.1c-1.7,2.7,0.7,5.8,0.7,5.8
	s-3.4,8.5-10.9,5.8C224.1,186.1,211.9,187.5,212.2,176.9z"/>
<path class="st6" d="M219,177.3c0,0,7.8-4.1,9.5-2c1.7,2-2,4.1-2,4.1S219.7,181,219,177.3z"/>
</svg>
