<?xml version="1.0" encoding="utf-8"?>
<!-- Generator: Adobe Illustrator 23.0.4, SVG Export Plug-In . SVG Version: 6.00 Build 0)  -->
<svg version="1.1" id="Layer_1" xmlns="http://www.w3.org/2000/svg" xmlns:xlink="http://www.w3.org/1999/xlink" x="0px" y="0px"
	 viewBox="0 0 288 288" style="enable-background:new 0 0 288 288;" xml:space="preserve">
<style type="text/css">
	.st0{fill:#A3AAB8;}
	.st1{fill:#726977;}
	.st2{fill:#55514F;}
	.st3{fill:#757572;}
	.st4{fill:#A2A49E;}
	.st5{fill:#ADA2A2;}
	.st6{fill:#B3919D;}
	.st7{fill:#E3C4D1;}
	.st8{fill:#FDFEFF;}
</style>
<path class="st0" d="M66.3,217.4c0,0-10.3,3.7-10.3,5.9l8.1-0.3c0,0-12.1,10-11.2,12.5l10-2.2c0,0-5,5.6-2.8,5.9s16.5-6.9,16.5-6.9
	s-8.4,8.1-5.6,9.7c2.8,1.6,13.1-5.6,13.1-5.6S86.5,216.8,66.3,217.4z"/>
<polygon class="st0" points="123,219.9 129.2,223.4 119.2,225.9 "/>
<path class="st1" d="M88.1,187.6c0,0-11.8,10.9-11.8,15.6s-0.6,8.7-0.6,8.7s-5.3,5.6-9.3,5.6v4.7l-2.2,0.9l3.1,5.9
	c0,0,4.4-5.9,6.9-1.2c2.5,4.7,2.5,4.7,2.5,4.7l3.7-2.8c0,0,3.7,1.9,3.7,6.9c0,0,20.2-8.4,31.1-8.4s7.8-9.7,7.8-9.7l8.7-7.5L94.9,186
	L88.1,187.6z"/>
<path class="st1" d="M61.6,101.6c0,0-1.9-4-11.5-4.4S37,94.1,37,94.1l-3.1-5c0,0-3.4-2.2-5.3-0.9c-1.9,1.2-5.9,6.9-5.9,6.9l-0.6,4
	l0.3,1.6l2.2,0.6l4,4.4c0,0,2.2,5-2.8,5.9s-10,3.1-10,3.1s-3.4,1.6-1.6,5s2.8,7.8,2.8,7.8s1.2,1.9,5.9-0.3s5.6-2.8,5.6-2.8
	s4.7,0.3,6.9,2.5s5.9,1.6,5.9,1.6h7.5c0,0,6.9,19,9.7,18.7S71,117.2,71,117.2L61.6,101.6z"/>
<path class="st0" d="M41.1,105.6c0,0,1.6-13.7,5.6-14.9c0,0,5,11.2,4.4,13.4C51,104.1,46,111.9,41.1,105.6z"/>
<path class="st0" d="M23,96.6c0,0-10.9-10.3-8.7-10.9c2.2-0.6,16.5,4,16.5,4s4,4.7,0,6.5S23,96.6,23,96.6z"/>
<path class="st0" d="M15.5,117.8c0,0-9,5.6-9,11.8c0,0,14,0,14.6-4.4C21.7,120.9,15.5,117.8,15.5,117.8z"/>
<path class="st2" d="M61.3,124.9c0,0-4-4.7-2.5-10.6c1.6-5.9,6.2-25.9,6.2-25.9l2.5-2.8l8.7-4.7l-1.6-9l0.9-4.4L123,27.5
	c0,0,6.9,0.3,13.1,4l75.1,5.9l5,0.3c0,0,8.4,5,8.4,6.9c0,0,10-1.6,13.7,3.4c3.7,5,23.7,33.9,23.7,33.9l6.2,3.1l4.7,57.6l-3.7,5.6
	l-25.9,23L198,197.5l-44.2,17.8c0,0-2.2,0.6-2.2-5.6l-12.5,4l-4-1.2l6.5-21.2l-16.2-34.9L61.3,124.9z"/>
<path class="st3" d="M94.9,186c0,0,4.7,15.9,17.4,19c12.8,3.1,25.5,8.4,25.5,8.4s16.8-5.6,17.1-22.4s-2.5-22.7-2.5-22.7
	s-21.5-10-27.4-9.7C119.2,158.9,94.9,186,94.9,186z"/>
<path class="st3" d="M153.8,215.3c0,0-1.2-3.7,4.4-7.5c5.6-3.7,9.7-9.7,9.7-9.7l25.5-5.6l8.4,4.4l3.4,16.5l-2.2,3.4
	c0,0-23.7,5.3-26.2,4.4C174.4,220.3,153.8,215.3,153.8,215.3z"/>
<path class="st3" d="M165,162l-4.4,1.9l-2.8,5.6l3.4,13.4c0,0,8.7,9.7,13.7,8.4c5-1.2,11.2-4.4,11.2-4.4l4.7-7.5l0.9-18.7
	c0,0-5.3-5.3-8.1-5.3C180.9,155.5,165,162,165,162z"/>
<path class="st3" d="M202.4,141.8l-7.5,12.5v23l6.2,6.5l34.3-14.6l1.2-3.7c0,0,7.2-1.2,10.6-17.4l0.3-10.3c0,0-5.9-6.9-13.7-6.5
	C226.1,131.5,202.4,141.8,202.4,141.8z"/>
<path class="st3" d="M243.2,171.4c0,0,8.7-38.3,19.6-37.1c0,0,9.3,10,6.9,22.4c-2.5,12.5-13.1,27.4-13.1,27.4l-5.6,2.8L243.2,171.4z
	"/>
<path class="st3" d="M268.1,85.1c0,0-9,21.5-8.1,27.4c0.9,5.9,12.8,30.2,12.8,30.2s7.5-7.2,4.7-29.9
	C274.6,90.1,271.8,85.1,268.1,85.1z"/>
<path class="st3" d="M215.5,83.2c0,0,6.9-3.4,16.8,4.7c10,8.1,21.5,18.1,22.4,20.2c0.9,2.2,7.2,15.6,4.4,18.4
	c-2.8,2.8-15.3,5-15.3,5s-8.7-7.8-9.7-8.4c-0.9-0.6-21.8-34.6-21.8-34.6L215.5,83.2z"/>
<path class="st4" d="M201.8,74.2c0,0-8.7-8.4-19.9-2.2l-9,0.6L151.3,82c0,0-12.8,32.7-10.9,37.1c1.9,4.4,23.4,31.1,23.4,31.1
	s27.7-2.2,34.9-14C205.8,124.3,201.8,74.2,201.8,74.2z"/>
<path class="st4" d="M66,120.9c0,0-7.8,0-7.2-6.5c0.6-6.5,6.2-25.9,6.2-25.9s10.6-6.9,12.5-4c1.9,2.8,2.5,4.4,2.5,4.4l7.2-15.9
	c0,0,13.1-14.6,19.9-13.4c6.9,1.2,13.1,5,13.1,5s14.9,10.9,14.3,14.6c-0.6,3.7-9.7,28-9.7,28l-9.3,4.7L66,120.9z"/>
<path class="st4" d="M75.6,67.6c0,0,18.7-31.5,47.3-40.2c0,0,3.4-0.6-0.6,7.2c-4,7.8-18.7,22.7-18.7,22.7l-25.9,14
	C77.8,71.4,73.4,70.4,75.6,67.6z"/>
<path class="st4" d="M123.9,51.4c0,0,14.3-34.9,43.9-33.6c29.6,1.2,41.1,14,41.1,14l2.2,5.6l-4,16.5c0,0-42,16.5-56.7,12.8
	C135.7,63,123.9,51.4,123.9,51.4z"/>
<path class="st3" d="M222.3,52.4c0.8-0.5,15.9-4.4,15.9-4.4s11.5,5.3,14,11.2l5.3,4.7l5.9,28.3l-5.9,7.8l-9-0.6l-22.4-19.6
	C226.1,79.8,217,55.5,222.3,52.4z"/>
<path class="st5" d="M196.8,133c0-1.2,1.6-18.7-0.6-22.1c0,0-6.5-6.5-15.3-4.7l-4.4-2.5l-3.1-6.2c0,0-0.3-2.8,2.8-3.4
	c3.1-0.6,3.1-0.6,3.1-0.6l4-7.2l-10-6.5c0,0,0-10.3,11.5-10.3c0,0,5.3,2.8,8.7,10c0,0,4.7,3.7,5.9,1.6c0,0-3.4-6.5,0.3-6.2
	c3.7,0.3,8.4-2.2,8.4-2.2s4.7,1.9,5,3.4c0.3,1.6,0.6,6.2,0.6,6.2s5.6,9.3,5,12.5c0,0,9.3,3.4,15.3,19.3c5.9,15.9,4.4,21.8,4.4,21.8
	S227,151.7,213,148.9S196.8,133,196.8,133z"/>
<path class="st5" d="M207.7,170.7c0,0,28-7.8,35.5,0.6c7.5,8.4,11.2,18.7,11.2,18.7s11.2,33,11.5,41.1c0,0,5,10.3,3.7,14.9
	c-1.2,4.7-4.7,9-4.7,9s-13.1,0-14,2.8c-0.9,2.8-10.6,0-10.6,0s-3.4-4.4-14,0.9s-8.4-4-8.4-4l-7.2-0.9l-1.6-9c0,0,7.5-6.5,5.6-17.8
	s-13.1-16.5-13.1-16.5s-5.3-4.4-3.7-13.1S204.6,172.3,207.7,170.7z"/>
<path class="st6" d="M79.7,159.8c0,0,1.9,2.2,1.9,4c0,1.9-5.9,11.5-5.9,11.5s-3.7,2.5,2.2,4.4c5.9,1.9,18.1-3.7,18.1-3.7l-7.5-20.2
	C88.4,155.8,79.4,153.9,79.7,159.8z"/>
<path class="st7" d="M88.4,155.8c0,0-10.6,5.3-6.5,24.6l12.5,1.9l20.9-15.9l2.8-21.5C118,144.9,88.7,152.4,88.4,155.8z"/>
<path class="st5" d="M71,117.2c0,0-11.5,6.9-12.1,17.1c-0.6,10.3-3.1,16.2-3.1,16.2s-5,10.3,0,13.4c5,3.1,17.4,0.3,17.4,0.3
	s16.8-13.4,40.8-14.9c0,0-5,25.9-17.1,29.3c-12.1,3.4-19,1.2-19,1.2l-2.2-4.4c0,0-4,3.4,0.9,7.8c5,4.4,9,3.7,9,3.7
	s11.8,0.3,17.1-3.4c5.3-3.7,14.9-14.9,14.9-14.9s9.7-9.7,13.4-10s9.3-15.6,9.3-15.6s-3.1-20.9-18.4-30.8S71,117.2,71,117.2z"/>
<path class="st8" d="M74.7,178.8c0,0-3.4-6.5-1.6-6.9c1.9-0.3,5.9,2.8,5.9,2.8s0.3,4-1.2,5L74.7,178.8z"/>
<path class="st8" d="M94.6,178.8c0,0-0.3-9,1.6-8.1c1.9,0.9,4.7,4.7,4.7,4.7S96.8,178.8,94.6,178.8z"/>
<path class="st8" d="M199.9,76.4c0,0-3.4-15.6-1.6-14.9s12.1,14.9,12.1,14.9S206.4,81.7,199.9,76.4z"/>
<path class="st8" d="M175,77.9c0,0-11.5-14.3-9-14.3s18.7,7.8,18.7,7.8S184.3,79.5,175,77.9z"/>
<path class="st8" d="M178.4,95.7c0,0-15.6,6.5-14.9,9c0.6,2.5,17.4,0,17.4,0S182.8,97.5,178.4,95.7z"/>
<path class="st8" d="M209.2,244.9c0,0-12.5,14.3-8.4,16.5c0,0,10.3-8.1,13.1-7.5C213.9,253.9,216.1,246.1,209.2,244.9z"/>
<path class="st8" d="M228.5,257.6c0,0-3.4-8.7-6.5-8.7s-4,5.9-4,5.9s-3.4,17.8-1.6,16.8C218.3,270.7,228.5,257.6,228.5,257.6z"/>
<path class="st8" d="M240.4,257.9c0,0,5.9,16.8,7.8,14s4.4-15.6,4.4-15.6s-2.8-11.5-8.1-9.7C239.1,248.6,240.4,257.9,240.4,257.9z"
	/>
<path class="st8" d="M261.9,253c0,0,0.3-10.6,4-9.3c3.7,1.2,11.5,18.7,11.5,18.7L261.9,253z"/>
</svg>
