<?xml version="1.0" encoding="utf-8"?>
<!-- Generator: Adobe Illustrator 23.0.4, SVG Export Plug-In . SVG Version: 6.00 Build 0)  -->
<svg version="1.1" id="Layer_1" xmlns="http://www.w3.org/2000/svg" xmlns:xlink="http://www.w3.org/1999/xlink" x="0px" y="0px"
	 viewBox="0 0 288 288" style="enable-background:new 0 0 288 288;" xml:space="preserve">
<style type="text/css">
	.st0{fill:#7F8280;}
	.st1{fill:#B7B5AB;}
	.st2{fill:#BC8C9C;}
</style>
<path class="st0" d="M106.2,207.5l0.3,6.1l5.8,2.6l3.2,1.9l8.3,1.9l1.3-2.2l10.9-1.3l0.3-3.8C136.3,212.7,108.1,205.9,106.2,207.5z"
	/>
<path class="st0" d="M169.6,206.9l1.6,5.4c0,0,8,0,8.6-1.3v-3.2l2.2,2.9c0,0,8.3-0.3,8.6-2.6l-1-4.2l3.8,1.9l5.8-3.5
	c0,0-3.2-16-6.4-17.9C189.7,182.6,169.6,206.9,169.6,206.9z"/>
<path class="st1" d="M87.6,196.6c0,0,1,5.4,6.4,7c5.4,1.6,12.2,3.8,12.2,3.8l11.2,5.8l6.7-1.3l6.7,2.9l5.4-2.2c0,0,5.4,1.9,9.3,1
	s5.4-2.9,5.4-2.9s7.7,2.2,13.8-1c6.1-3.2,11.5-6.4,11.5-6.4s5.1-1.9,4.5-6.7l8-7l4.8-2.6c0,0,12.5-15.7,7-20.5c0,0,1.6-8.6,0.6-9.9
	l4.8-6.7l-0.6-9.9c0,0,5.8-1,11.8,10.9l6.1,1.9l1,3.5l7.7,4.5c0,0-8.3,7.7-8.3,10.2c0,0-6.4,4.8-4.2,7.7c2.2,2.9,6.4,4.8,6.4,4.8
	l12.5-7.7c0,0,6.4,0,6.7,1.6l8.6-8c0,0,7.7-3.2,13.1-1.6c0,0,6.1-7.7,3.5-12.2c0,0,4.5-1.9,11.2-1l2.2-1.9l1.6-3.5l-5.1-7.4
	c0,0-10.2-0.6-12.8-1.3l-5.8,4.5l-3.2-4.2c0,0,3.8-11.5-9.6-11.2c0,0-3.5-3.8-7.4-5.1s-7-3.8-7-3.8s-3.2-5.8-4.8-7.7
	c-1.6-1.9-12.5-4.2-12.5-4.2l-6.1,3.8l-9.3-1l-1.6-2.2l-7-4.2l-2.2,0.3c0,0-2.6-6.4-3.8-7s-6.7,0.3-6.7,0.3S170.2,86.5,168,86.5
	s-9.9,3.2-9.9,3.2s-14.4-3.2-20.8-1.9l-2.2,0.3l-7.7-4.2c0,0-17.6,0-18.9,3.2s-4.5,8.6-4.5,8.6L99.2,99h-6.1l-10.9,12.8
	c0,0-0.6,6.4,0.6,8l-2.2,4.5c0,0-8.6,3.5-11.2,2.9c-2.6-0.6-9.6,6.4-9.6,6.4l-1.3,6.7l-4.8,3.5c0,0-5.1-1-10.2,1.6s-6.4,6.1-6.4,6.1
	l-2.2,8c0,0-7.4,3.5-8.6,10.9c-1.3,7.4-3.5,10.9-3.5,10.9s-5.4,2.2-7.4,1c0,0-6.1,4.8-6.1,8.3c0,3.5,1.9,6.4,1.9,6.4l6.1,1
	c0,0-5.4,8.3-8.6,8.6c0,0-1.3,10.2-3.5,9.6c0,0,4.8,5.8,7,4.5s11.2-9.6,11.2-9.6l6.1,1c0,0,4.8-6.7,19.5-4.8l0.3-2.2
	c0,0,12.8,4.2,15.4,1.3c2.6-2.9,2.9-10.6,2.9-10.6s-1-2.6-4.8-2.6s-8.3-2.2-8.3-2.2s0.6-7.4-1.9-8.6l1.3-1.9l2.9-0.6l8-8.6
	c0,0,0-6.1-2.2-6.4l8-9.3l3.2-0.3l-1.3,7c0,0,2.2,9.3,1.9,10.2l3.5,1.3l1.6,4.5c0,0-3.2,7-2.2,9.6c1,2.6,3.5,6.7,3.5,6.7L87.6,196.6
	z"/>
<path class="st2" d="M115.8,166.6c0,0,14.7-5.8,32.6-3.5c0,0-7.7,7-16,7S115.8,166.6,115.8,166.6z"/>
<path class="st0" d="M195.8,147.4c0,0-5.1-1-5.1,3.5c0,4.5,2.2,9.3,2.2,9.3s5.8-2.6,5.1-6.7C197.4,149.3,195.8,147.4,195.8,147.4z"
	/>
<path class="st0" d="M158.1,89.7l9.9-3.2c0,0,9,5.8,12.5,12.5c0,0,5.1-2.9,6.7-0.3s3.8,7,3.8,7l-6.1,0.6
	C184.9,106.4,166.4,90.4,158.1,89.7z"/>
<path class="st0" d="M74.5,138.1l-2.6-3.2l3.5-6.1l7-2.9c0,0,1,1.9-1.9,6.7c-2.9,4.8-0.3,4.2-0.3,4.2L74.5,138.1z"/>
<path class="st0" d="M10.8,220.3c0,0,4.2-9.3,3.5-10.2c-0.6-1,10.2-10.2,10.2-10.2l-1.9-2.9l-5.4,1l-6.1-1c0,0,9-8.3,8.3-9.3
	c0,0,15.7-3.2,15.7-8.3l4.2,1.3v5.8l9.3,5.4c0,0,9.3,5.8,12.5,4.5l-1,10.6c0,0-9.9-0.6-10.9-1.9l-0.3,2.2c0,0-12.2-1-19.5,4.8
	l-6.1-1c0,0-10.2,9.6-11.2,9.6S10.8,220.3,10.8,220.3z"/>
<path class="st0" d="M228.8,181.9l-4.2-5.1c0,0,14.7-18.9,14.4-23.7c0,0,9-11.5,9-16l10.2-0.6l-2.9,10.6l6.4-1.9l-1,4.8l8-4.5l9.6,1
	l5.4,6.4l-2.2,1.9l-11.2,1c0,0,1.9,7.4-3.5,12.2c0,0-12.5-2.2-21.8,9.6c0,0-7-2.2-6.7-1.6L228.8,181.9z"/>
<path class="st0" d="M72.3,162.1l9.6,7.7c0,0,4.5,17,12.5,21.4c8,4.5,25.3,4.2,25.3,4.2l1.9-4.8l4.5-0.6l0.3-4.2l13.8,1.9l1.3,1.6
	l4.5-3.2l3.2,4.8c0,0,24.3-3.8,33-14.4l10.9-16.3l6.7-20.8l5.8,0.6l0.6,9.9l-4.8,6.7c0,0,1.6,6.1-0.6,9.9c0,0,7.4,6.1-7,20.5
	l-12.8,9.6c0,0,2.9,2.9-4.5,6.7l-11.5,6.4c0,0-4.8,4.5-13.8,1c0,0-1.6,2.6-5.4,2.9s-9.3-1-9.3-1l-5.4,2.2l-6.7-2.9l-6.7,1.3
	l-11.2-5.8L94,203.7c0,0-6.7-1.3-6.4-7l-7-2.2l-3.5-6.7c0,0-1.6-3.8,2.2-9.6l-1.6-4.5l-3.5-1.3L72.3,162.1z"/>
</svg>
