<?xml version="1.0" encoding="utf-8"?>
<!-- Generator: Adobe Illustrator 23.0.4, SVG Export Plug-In . SVG Version: 6.00 Build 0)  -->
<svg version="1.1" id="Layer_1" xmlns="http://www.w3.org/2000/svg" xmlns:xlink="http://www.w3.org/1999/xlink" x="0px" y="0px"
	 viewBox="0 0 288 288" style="enable-background:new 0 0 288 288;" xml:space="preserve">
<style type="text/css">
	.st0{fill:#B5A2C4;}
	.st1{fill:#534B5F;}
	.st2{fill:#3A3839;}
	.st3{fill:#ABB4C6;}
</style>
<path class="st0" d="M102.5,107.6c0,0,4.4,12.6-16.9,20.8c0,0-1-0.5-4.6,1.4c-8.1,4.3-17.4,13.8-20.6,16.1c-0.5,0.4-1.2,0.8-1.6,0.5
	c-0.4-0.2-0.5-0.8-0.5-1.1c0,0-2.2,1.6-17.5,0c-15.3-1.6-25.2,5.5-25.2,5.5S5.2,161.2,15,166.7c0,0,0.5,1.1-4.9,4.9
	c-5.5,3.8-7.7,12.6-7.7,12.6s3.3,13.1,10.4,8.2c7.1-4.9,12-3.8,12-3.8s12.6,2.2,20.2,1.6c0,0,6,3.3,8.7,1.6c0,0,8.7,7.1,13.1-2.2
	c4.4-9.3,7.7-12,7.7-12s11.5-7.7,8.7,1.1l-6.6,9.8c0,0-2.2,10.9,3.3,13.7c0,0-4.9,9.3-8.7,10.4c-3.8,1.1-4.9,9.3-4.9,9.3
	s2.2,12,13.7,12c0,0,9.8-1.6,18,2.7c8.2,4.4,18,6,18,6s16.9-2.2,20.8-5.5c3.8-3.3,24.6-2.2,24.6-2.2s20.2,9.3,26.2,8.7
	c6-0.5,16.9-6,16.9-6s8.2-8.2,20.2-3.8c12,4.4,19.1,2.2,19.1,2.2s9.3-6.6,13.7-10.4c4.4-3.8,14.8-1.1,14.8-1.1s17.5-4.4,7.7-19.1
	c0,0-7.1-3.8-7.1-8.7c0-4.9-9.8-7.1-9.8-7.1s-15.9-0.5-14.8-10.9s-3.3-15.9-3.3-15.9l-13.1-5.5c0,0-20.2-5.5-15.9-19.7
	c0,0,7.1-8.2-14.2-23c0,0-20.8-26.2-20.8-33.9c0-7.7-19.1-21.3-19.1-21.3s-16.4-12-42.6-6.6c-26.2,5.5-35,24.1-35,24.1
	S67.5,104.9,102.5,107.6z"/>
<path class="st1" d="M165.9,62.8c0,0-0.5,12.6-23,12.6l-12,1.1l7.1,2.2L114,83c0,0-4.9,4.9-12,2.2c0,0,9.8,5.5,28.4-1.6l27.3-5.5
	l-2.2,2.2c0,0,16.9-2.7,15.3-12L165.9,62.8z"/>
<path class="st1" d="M96.5,105.4c6.5-1.3,11.7-2.4,15.3-3.3c5.6-1.3,13.7-3.3,13.7-3.3l0,0c0,0,12.6,0,21.9-4.4
	c9.3-4.4,19.7-6,19.7-6l-3.3,3.8c0,0,11.5-0.5,13.1-3.8l-2.7-2.2l7.1-5.5l2.2,6.6c0,0-12,11.5-20.2,9.3l3.3,2.7
	c0,0-16.9,4.4-22.4,1.1l-2.2-1.1c-4.5,1.8-9.8,3.5-15.9,4.8C114.2,106.6,104,106.3,96.5,105.4z"/>
<path class="st1" d="M202,114.7c0,0-3.3,12.6-10.4,12.6l1.6-3.3c0,0-14.2,8.2-18,15.9c0,0-10.4,1.6-20.2-0.5c0,0-8.7,0.5-8.2,4.9
	c0,0,13.1-3.8,15.9-0.5l-4.9,1.6c0,0,15.9,0.5,20.2-1.6c4.4-2.2,12-10.9,12-10.9s16.9-8.2,16.4-13.7L202,114.7z"/>
<path class="st1" d="M140.8,155.7c0,0,9.8-2.7,14.2,1.1s13.1,0,13.1,0s17.5-8.2,25.2-1.6c7.7,6.6,11.5,9.3,11.5,9.3l4.4,10.4
	c0,0,1.1,7.7-1.1,10.9l-1.6-7.1c0,0-6-6-5.5-11.5c0.5-5.5-5.5-7.1-5.5-7.1l2.7,6c0,0-5.5-6.6-8.7-6.6c-3.3,0-8.7-2.2-8.7-2.2
	s-11.5-1.1-13.1,2.2c-1.6,3.3-9.3,1.6-9.3,1.6s-8.2-4.9-16.4-2.7l-6,0.5L140.8,155.7z"/>
<path class="st1" d="M208,162.8c0,0,14.8,2.7,13.7-10.4l6,3.8c0,0,1.1,9.8-12,10.9l3.8,2.2l-9.3,3.3l-0.5-3.3l2.2-2.7L208,162.8z"/>
<path class="st1" d="M164.9,164.5c0,0,8.7-1.6,12-3.3c3.3-1.6,9.8,4.4,9.8,4.4l6,1.1c0,0,6.6,7.1,7.7,14.2c1.1,7.1,1.1,18,1.1,18
	l-8.2,11.5c0,0,6-6,5.5-18.6c-0.5-12.6-8.7-21.3-8.7-21.3s-10.9-8.2-26.8-2.7L164.9,164.5z"/>
<path class="st1" d="M162.7,171.6c0,0,3.3,0.5,6,4.9c2.7,4.4,8.7,5.5,8.7,5.5s8.7,1.1,8.7,12.6s-6.6,15.9-6.6,15.9s-8.2,6-10.9,3.8
	c0,0,11.5-3.3,12.6-9.3c1.1-6-0.5-13.7-0.5-13.7s-1.6-7.1-10.4-10.4C161.6,177.6,162.7,171.6,162.7,171.6z"/>
<path class="st1" d="M244.1,165.6c0,2.1-0.4,4.9-2.4,7.1c-1.8,2-2.9,2.7-6.9,3.3c-10.9,1.6-9.8,8.2-9.8,8.2s3.3-6,4.9-3.3
	c0,0-4.4,9.3-8.2,7.7c-3.8-1.6-8.2,0.5-8.2,0.5s-6,0-6-2.2l-1.1,4.4c0,0,4.4,0,7.7,2.2c3.3,2.2,9.8-0.5,9.8-0.5l7.7-7.7
	c0,0,12-13.7,14.2-11.5l2.2-1.6C246.7,170,245.4,167.8,244.1,165.6z"/>
<path class="st1" d="M234.8,207.7c0,0,8.2,1.1,16.4-3.3c8.2-4.4,9.3,0.5,9.3,0.5s5.5,1.6,7.7-5.5c2.2-7.1,4.9-2.7,4.9-2.7
	s-0.5,4.9,2.7,6.6c0,0-3.8,4.4-13.1,3.8c-9.3-0.5-15.3,2.7-15.3,2.7S233.2,212.1,234.8,207.7z"/>
<path class="st1" d="M76.3,206c0,0,14.2,13.7,17.5,12l-1.1-2.7c0,0,14.8,5.5,23.5,3.3s32.8-3.8,32.8-3.8l-4.4,2.2
	c0,0,27.3,2.7,31.2,0l6.6-1.6c0,0,21.3-8.2,30.1-6c8.7,2.2,19.1,3.8,19.1,3.8l-5.5,1.6c0,0,15.3,2.2,15.9-1.1c0,0-5.5,7.1-20.8,1.1
	s-33.4,7.1-33.4,7.1s-12,4.9-29.5,0.5c-17.5-4.4-30.1,3.8-30.1,3.8s-6,6.6-30.6-5.5c-24.6-12-26.2-8.2-26.2-8.2L76.3,206z"/>
<path class="st1" d="M83.4,178.7c0,0,8.7,0,10.4,3.8h-4.9c0,0,10.9,7.7,19.7,7.7s13.1-0.5,13.1-0.5s2.2-0.5,6-2.7s10.9-2.7,10.9-2.7
	l-3.3-2.2c0,0-20.2,2.2-26.2,3.3c-6,1.1-12-6.6-12-6.6s-6-4.4-12-3.3L83.4,178.7z"/>
<path class="st1" d="M45.1,190.2l14.8-1.1c0,0,12-8.2,5.5-19.7c0,0-10.9-2.7-10.9-4.9c0,0-8.7-15.9-16.9-19.1h3.3
	c0,0,12,7.1,14.2,15.9c0,0,4.9,4.4,9.8,4.4s6,9.8,6,9.8l-3.3,10.9c0,0-1.6,12-13.7,5.5C53.9,191.8,45.1,192.4,45.1,190.2z"/>
<path class="st1" d="M18.9,189.1c0,0,2.2-4.9-2.2-7.7l4.4,2.7l-4.9-6.6c0,0,6,2.7,5.5,10.4L18.9,189.1z"/>
<path class="st1" d="M19.4,149.2c0,0,15.3,0.5,7.7,15.3C27.1,164.5,41.3,148.6,19.4,149.2z"/>
<path class="st1" d="M79.6,131.7c0,0,14.2,0.5,14.2,4.4c0,0-1.6-4.9-6.6-6.6L79.6,131.7z"/>
<path class="st1" d="M65.9,141c0,0,16.4-1.1,16.9,10.9c0,0,2.7,4.4,2.2,10.4c0,0,2.7-1.1-0.5-17.5c0,0-7.1-9.3-14.2-6L65.9,141z"/>
<path class="st1" d="M57.7,149.2c0,0,7.7,8.7,11.5,7.7c0,0,2.7,1.6,2.2,4.9c0,0,1.1-2.7,0.5-4.9c0,0,7.1,12,6,16.4
	c0,0,7.7-2.7-1.6-19.7c0,0-13.1-9.8-15.9-7.7S57.7,149.2,57.7,149.2z"/>
<path class="st2" d="M144.1,98.6c0,0-39.9,8.7-42.6,6.6c0,0,5.5,18.6-6,34.4c0,0-5.5,16.4,16.9,16.4s30.6-33.4,30.6-33.4
	S146.8,102.9,144.1,98.6z"/>
<path class="st3" d="M143,122.6c0,0-8.7-1.6-14.2,0.5c0,0-14.8-3.8-20.8,7.1c-6,10.9-8.2,14.8-8.2,14.8S96,156,112.4,156
	S137,139,137,139S143.5,125.4,143,122.6z"/>
</svg>
