<?xml version="1.0" encoding="utf-8"?>
<!-- Generator: Adobe Illustrator 23.0.4, SVG Export Plug-In . SVG Version: 6.00 Build 0)  -->
<svg version="1.1" id="Layer_1" xmlns="http://www.w3.org/2000/svg" xmlns:xlink="http://www.w3.org/1999/xlink" x="0px" y="0px"
	 viewBox="0 0 288 288" style="enable-background:new 0 0 288 288;" xml:space="preserve">
<style type="text/css">
	.st0{fill:#C1AFA0;}
	.st1{fill:#B48967;}
	.st2{fill:#918275;}
	.st3{fill:#E2B494;}
	.st4{fill:#B09E8D;}
	.st5{fill:#696F74;}
	.st6{fill:#EEDABE;}
	.st7{fill:#F3F0ED;}
</style>
<path class="st0" d="M124.4,211.2l6.9-4.4c0,0,6.1,56.1,6.9,59.3c0.8,3.2-18.2,4-18.2,4l-14.1-6.5l17-52.9L124.4,211.2z"/>
<path class="st1" d="M130.5,63.8c0,0-3.6-7.3-12.1,0.8S107.9,86,107.9,86s0.8,10.9,5.2,10.1S130.5,63.8,130.5,63.8z"/>
<path class="st2" d="M127.3,66.6c0,0-5.7-2-10.9,6.1s-4.8,14.1-4.8,14.1s0.4,5.2,4,5.2c3.6,0,6.5-8.9,6.5-8.9L127.3,66.6z"/>
<path class="st0" d="M125.2,155c0,0-14.9-23.4-49.7-14.9c0,0-21,6.9-21,9.7l6.5,0.8c0,0-16.6,8.1-15.3,10.1l9.7-0.8
	c0,0-15.7,18.2-14.1,19l14.1-2.8l-2.8,3.2l7.7-2l-16.6,28.7l13.3-7.7v6.9l6-4.1l0.5-0.3v3.6l3.2-2.4c0,0,7.7,19.4,11.7,19
	s46.8-54.1,46.8-54.1V155z"/>
<path class="st1" d="M176.9,241.8l6.5-4.8v29.5C183.4,266.5,174.5,247.5,176.9,241.8z"/>
<path class="st3" d="M122,165.5c0,0-21.4,23.4-31.5,31.1s-13.7,33.5-13.7,33.5s0.8,30.7,10.1,33.9c0,0-8.5,12.5,8.9,10.5
	c0,0,23,2,24.2-4.4c1.2-6.5-8.5-8.1-8.5-8.1s23.8-14.5,12.9-50.9l6.9-4.4c0,0-0.8,40.4,10.1,70.7c0,0,2.4,4,8.5,2.4
	c0,0,1.6-10.1,7.3-8.1c0,0,4.4,4.4,4.4,7.3c0,0,12.5-1.6,18.2,0.8c0,0,0-7.7,4.4-8.5c0,0,1.2-1.2-4.8-18.6c0,0-7.3-56.1-14.9-61
	l-0.4,9.7l-3.2-8.1l-1.2,2.4l-0.4-4.4l-6.5,12.5l-5.7-21.4l-4.4,6.9l0.8-7.7l-6.1,3.2l0.8-7.7l-11.3,7.3l8.9-21L122,165.5z"/>
<path class="st3" d="M117.2,88.4c0,0-0.4-26.2,31.9-32.3c0,0,29.5-0.4,36.7,8.5c0,0,8.5-8.5,15.3-6.1c6.9,2.4,18.2,14.9,18.2,14.9
	s14.1,18.6,6.9,21.4c0,0-7.3,7.7-16.6,8.9c0,0,5.2,32.3,10.1,41.2c4.8,8.9,5.7,49.7,5.7,49.7s-7.3,66.2-3.2,70.7
	c0,0-9.3,10.1-5.7,10.9l-14.9,0.4c0,0-2.4-12.1-7.7-7.7c-5.2,4.4-2.4,7.3-2.4,7.3h-2.8l-9.7-12.5l2.8-2.4l1.6-29.5L117.2,88.4z"/>
<path class="st4" d="M184.6,76.3c0,0,9.3,2.4,8.1,19.8c0,0,27.9,7.3,29.5-6.5s-18.6-25-18.6-25S191.9,59.8,184.6,76.3z"/>
<polygon class="st5" points="201.1,218.4 212.5,234.2 222.1,224.1 221.3,239.4 210.8,251.9 193.1,231.3 "/>
<polygon class="st5" points="135.7,218.4 165.6,235.8 175.3,222.1 177.7,240.2 168,255.6 133.3,230.1 137,228.9 132.5,222.5 
	137.4,224.5 "/>
<path class="st5" d="M118.4,169.6c0,0-2.8,19.4,0.4,23.4l1.2-1.6l0.8,2.8l1.2-3.2c0,0-0.4,9.7,1.6,9.7c0,0,6.5-39.2,8.9-39.6
	C134.9,160.7,124,161.9,118.4,169.6z"/>
<path class="st5" d="M114.3,173.6l0.4,20.2l-2.8-4l-0.8,4.4c0,0-7.7-8.5-6.5-12.1C105.9,178.5,114.3,173.6,114.3,173.6z"/>
<path class="st5" d="M85.3,203.9c0,0,11.7-5.7,13.7-2.8l-3.2,2l6.1,1.2l-2.4,1.4l-1.2,0.7l4,1.2c0,0-23,10.5-23.8,13.3
	C78.4,220.8,82.5,204.7,85.3,203.9z"/>
<path class="st5" d="M76.8,230.1c0,0,16.6-13.7,20.6-12.5l-2,3.6l5.2-2.4l-2,4h2l-2.8,2.8l8.1-2.4c0,0-28.3,19.8-25.4,30.3
	C80.4,253.5,76,238.6,76.8,230.1z"/>
<path class="st6" d="M139.8,63.8c0,0-8.5-9.7-4.8-17.8s24.6-36.7,45.6-37.5l-4.4,7.3c0,0,20.2-7.3,21.4-5.7l-10.9,10.5l4.4,0.8
	l-6.9,2c0,0,35.1-0.4,36.3,3.2l-15.7,6.1l6.1,2.8l-6.5,3.2c0,0,18.2,14.1,18.2,17l-17.8-0.8l4.4,3.6l-4.8,0.8l-3.2-0.8
	c0,0-6.1-2.4-15.3,6.1c-9.3,8.5,0,0,0,0s-22.6-12.1-38.8-6.9s0,0,0,0S142.6,63.4,139.8,63.8z"/>
<path class="st6" d="M141,92.1c0,0,28.7,4.4,35.9,2.8c7.3-1.6,14.1,14.9,14.1,14.9s1.6,11.3-2.8,15.3c0,0,24.2-6.1,26.6-4l-9.7,7.7
	l8.9-0.4l-4.8,3.6l24.2,5.2l-23,12.1l13.7,5.2l-8.5,3.6c0,0,17,17.8,17.4,20.2l-14.9-1.6c0,0,12.1,11.7,11.7,13.7l-8.1-2
	c0,0,9.3,13.3,8.5,17l-14.1-5.7l2,11.7l-6.5-7.3l-6.1,27l-3.2-9.3l-1.6,8.5l-3.2-3.2l-2.8,13.7l-3.2-12.1c0,0-7.3,11.3-14.5,12.9
	c-7.3,1.6,0,0,0,0s-6.5-42-12.5-50.1c-6.1-8.1,0,0,0,0l-0.4,9.7l-3.2-8.1l-1.2,2.4l-0.4-4.4l-6.5,12.5l-5.7-21.4l-4.4,6.9l0.8-7.7
	l-6.1,3.2l0.8-7.7l-11.3,7.3l8.9-21l-20.6,3.2l14.9-14.9h-6.9l6.5-4.8l-8.1-0.8l6.5-4.4l-2.8-4.8l7.3-1.2c0,0-17.8-11.3-17.4-20.2
	c0,0-13.3-4.8-6.5-19.8c6.9-14.9,24.2-6.5,24.2-6.5L141,92.1z"/>
<path class="st5" d="M123.6,87.2c0,0,11.7,1.6,6.5,8.1c-5.2,6.5-10.9,4-10.9,4s-8.5-4.8-4-8.5C119.6,87.2,123.6,87.2,123.6,87.2z"/>
<path class="st7" d="M157.1,271.7c0,0-6.1-2-7.3,8.1c0,0,8.5,5.7,11.7,3.6C161.6,283.4,164.4,279.8,157.1,271.7z"/>
<path class="st7" d="M184.2,271.3c0,0-8.1,1.2-4.4,8.5c0,0,6.9,3.2,10.1,2C189.8,281.8,191.1,277.8,184.2,271.3z"/>
<path class="st7" d="M196.7,267.7c0,0-6.1,0.4-5.7,7.3c0,0,2.4,5.7,8.5,4.8C199.5,279.8,205.2,275.8,196.7,267.7z"/>
<path class="st7" d="M222.1,265.3c0,0-8.5,7.3-5.7,10.9c2.8,3.6,12.1,2,12.1,2L222.1,265.3z"/>
</svg>
