<?xml version="1.0" encoding="utf-8"?>
<!-- Generator: Adobe Illustrator 23.0.4, SVG Export Plug-In . SVG Version: 6.00 Build 0)  -->
<svg version="1.1" id="Layer_1" xmlns="http://www.w3.org/2000/svg" xmlns:xlink="http://www.w3.org/1999/xlink" x="0px" y="0px"
	 viewBox="0 0 288 288" style="enable-background:new 0 0 288 288;" xml:space="preserve">
<style type="text/css">
	.st0{fill:#ADB1BC;}
	.st1{fill:#AFB2BD;}
	.st2{fill:#4883A2;}
	.st3{fill:#B0A093;}
	.st4{fill:#4B89AA;}
	.st5{fill:#F5E9D5;}
	.st6{fill:#3A576F;}
	.st7{fill:#DFDFE0;}
	.st8{fill:#57A5C8;}
	.st9{fill:#56838D;}
	.st10{fill:#6397A4;}
	.st11{fill:#63413E;}
	.st12{fill:#40312F;}
	.st13{fill:#C9A9BC;}
	.st14{fill:#EEE0CD;}
</style>
<path class="st0" d="M150.2,64.1l5.3-7.8c0,0,1.8,5.3,0.7,11.6c-1.1,6.3,22.2-15.5,22.2-15.5s2.8,2.5,1.4,4.9
	c-1.4,2.5-16.2,17.6-14.5,20.1c1.8,2.5,7,0.4,7,0.4s1.8,4.2,0,5.3c-1.8,1.1-17.3,11.6-17.3,11.6l-8.5-19L150.2,64.1z"/>
<path class="st1" d="M234.4,167c0,0,8.5-13,17.6-12.7l1.4,2.1c0,0-11.3,7.4-10.9,10.2c0,0,6.7,0,6.7,2.1c0,2.1-7.4,5.3-5.6,8.8
	c1.8,3.5,1.8,3.5,1.8,3.5h-9.9l-3.9-7.4L234.4,167z"/>
<path class="st1" d="M186.1,253l6.3-2.8l-0.7,3.9l8.5-2.5l-0.7,4.2l5.3-1.4l17.6-28.9l-2.1-6.3l-8.5,4.2
	C211.9,223.4,184,245.6,186.1,253z"/>
<path class="st1" d="M209.6,258.3l5.3-0.4v10.6l5.3-3.5l-1.1,6l6.3,0.4c0,0,11.3-28.9,4.6-45.8C230.1,225.5,208.2,253.7,209.6,258.3
	z"/>
<path class="st2" d="M141.7,222.5c0,0,14.8-13.6,8.1-40l2.1-5.6l3.5-1.1c0,0,2.8-12,12.7-18c0,0,6-20.1,21.9-21.5c0,0,8.1-6,13-6
	c4.9,0,16.9,6.3,16.9,6.3s5.6,7,5.6,10.9c0,0,11.6,6.7,8.1,22.6c0,0,2.5,9.9,0.7,14.5c0,0,4.2,7,1.1,15.5c0,0,0.7,11.6-4.6,18
	c0,0,5.6,43.4-9.2,63.8l-0.4-3.5c0,0,12-32.8,7-50.4c0,0-21.1,36.7-24.3,33.5l1.1-3.2l-4.9,3.9c0,0,19-35.9,18-39.8
	c0,0-28.9,17.3-32.1,30.7c0,0-4.6,4.2-3.5,0.7c0,0,16.9-27.1,36.3-37l7-9.2l-3.5-30.3l-8.5-8.1l-7-2.1l-7.4,5.6
	c0,0-6.3,11.6-9.5,13.7c-3.2,2.1-9.5,18.3-9.5,18.3l-12,12.3C168.5,217.1,141.7,233.6,141.7,222.5z"/>
<path class="st3" d="M125.2,228.1c0,0,35.4,12.2,49.2-15.3c0,0,16.4-14.3,19.6-29.1c0,0,10-6.3,11.6-14.8h5.3c0,0,2.6,7.9,6.9,7.4
	c0,0-1.1,6.9,3.2,10c0,0-2.6,10,1.1,16.4c0,0-5.3,10.6,1.6,14.3c6.9,3.7,7.4-4.8,7.4-4.8l-0.5-8.5c0,0,3.7-11.1-0.5-13.7
	c0,0,0-14.3-3.2-14.8s0.5-11.1-8.5-9.5c0,0-3.7-7.4-9-3.7c0,0-2.6-10.6-13.7,18c0,0-7.4,1.1-10,10c-2.6,9-8.5,16.9-8.5,16.9
	s-0.5-2.1-14.3,6.3s-20.1,7.4-20.1,7.4S131,230.2,125.2,228.1z"/>
<path class="st1" d="M198,136.6c0,0,0.4-30.7,4.6-33.1h2.1c0,0-0.4,14.8,2.8,14.8c0,0,19.7-27.8,24-27.1l2.8,0.7
	c0,0-9.2,13.7-6,14.8l7.4-2.8v2.8c0,0-12.7,17.6-11.3,20.8l6.7-3.9l0.7,3.2l-9.9,12.3C222,139.1,210.7,127.4,198,136.6z"/>
<path class="st3" d="M153.6,197.3c0,0,12-6.3,12.7-2.5c0,0-0.4,15.2-14.8,16.6C151.5,211.4,154.6,201.2,153.6,197.3z"/>
<path class="st3" d="M170.5,182.2c0,0,12-10.2,13.4-6.7c1.4,3.5-7.8,19-7.8,19S172.3,182.9,170.5,182.2z"/>
<path class="st3" d="M185.7,162.4c0,0,10.9-12.7,12.7-8.8c0,0-1.4,19.4-6.7,18.3C191.6,172,188.1,162.8,185.7,162.4z"/>
<path class="st3" d="M205.4,145.2c0,0,14.1-1.8,14.8,3.5c0,0-7.8,8.5-10.2,7.8C210,156.5,208.6,147.3,205.4,145.2z"/>
<path class="st3" d="M225.5,154c0,0,5.3,2.1,3.2,9.5c0,0-6,1.8-6.7-1.1C222,162.4,226.5,156.5,225.5,154z"/>
<path class="st3" d="M229.7,175.5c0,0,3.2,4.9,3.5,3.2c0.4-1.8,1.4-8.5,1.4-8.5L229.7,175.5z"/>
<path class="st3" d="M232.2,188.9c0,0,1.8,7,2.5,5.6c0.7-1.4,0-8.5,0-8.5L232.2,188.9z"/>
<path class="st3" d="M232.2,204c0,0,1.8,6.7,2.5,4.9c0.7-1.8-0.4-6.3-0.4-6.3L232.2,204z"/>
<path class="st4" d="M136.1,226.6l-3.5-35.2l2.1-99.7l-5.3,11.6l-9.2,0.7l-11.6-11.6c0,0,3.2-22.9-11.3-31.4
	c0,0,15.9-16.9,21.5-17.6c5.6-0.7,10.6,3.5,10.6,3.5s11.6,3.5,15.2,11.6s13,10.2,13,10.2S160,74.3,153,80c0,0,4.2,9.2,2.1,14.8
	c0,0,8.1,20.8,3.2,26.4c0,0,3.2,24-3.5,33.1c0,0-1.1,25.4-3.9,29.6C150.9,183.9,162.2,216.7,136.1,226.6z"/>
<path class="st5" d="M112,118c0,0,2.1,7.4,4.2,7.4c0,0-6.7,25.7-3.5,28.5c0,0-13,22.9-6.3,27.8c0,0-15.2,22.2,3.2,38.1
	s27.5,6.7,27.5,6.7s9.2-12.7-1.8-34.5c0,0,11.6-18.7,5.6-32.1c0,0,10.2-16.2,3.9-29.6c0,0,3.9-19.7-1.8-23.6c0,0,1.8-14.1-7.4-15.2
	c0,0-7.8,10.6-14.1,10.6S112,118,112,118z"/>
<path class="st5" d="M147.4,103.6c0,0,6,10.6,8.1,9.2s3.9-13-0.4-18L147.4,103.6z"/>
<path class="st5" d="M152.2,127.6c0,0,0.4,12.3,2.5,12.3c2.1,0,4.2-4.9,4.2-4.9s1.4-13.7,0.4-13.7S156.8,126.1,152.2,127.6z"/>
<path class="st5" d="M147.6,160c0,0,1.8,12.3,3.9,10.9c2.1-1.4,3.5-10.6,3.5-10.6l0.7-7.4C155.7,152.9,150.1,161.4,147.6,160z"/>
<path class="st5" d="M142.7,189.9c0,0,4.2,11.3,5.6,9.9c1.4-1.4,1.8-8.8,1.8-8.8l-0.4-6.7L142.7,189.9z"/>
<path class="st0" d="M107.8,60.9c0,0,1.4-16.9-1.4-22.6s1.1-5.3,1.1-5.3l5.3,5.6c0,0,7-8.5,13-34.9c0,0,3.5-1.4,3.2,3.9
	s-2.8,27.5-2.8,27.5s8.5-9.2,8.5-12s2.1,0.7,2.1,0.7s-7,19.4-4.6,23.3c0,0-15.5-2.5-22.9,14.5L107.8,60.9z"/>
<path class="st0" d="M41.5,93.7L29.9,75c0,0,4.6,17.3-2.8,20.4c0,0-2.1,6.3,1.4,7.8c0,0,8.5,0.4,8.5,6s-3.2,6.3-3.2,6.3l4.6,5.6
	l8.8-3.9l-3.5-12.7L41.5,93.7z"/>
<path class="st6" d="M29.9,75l-1.4-4.6c0,0,9.5,15.2,14.8,17.6s3.9,8.1,3.9,8.1l-4.9,0.7l-0.7-3.2L29.9,75z"/>
<path class="st6" d="M44.9,117c0,0-8.8,2.8-2.1,18.3s7.8,28.2,7.8,28.2s0.4,16.6-7.8,16.6s-5.6-8.8-2.1-9.5c0,0-6-2.8-5.6,6
	c0,0,5.6,14.5,14.8,1.1S47,137.1,47,137.1s-8.5-15.2-1.4-18L44.9,117z"/>
<path class="st6" d="M75.3,138.5c0,0,8.8-16.9,18-19.4s17.6-27.8,17.6-27.8s0.4-20.4-7.4-25.4c-7.8-4.9-22.9,25.4-22.9,25.4
	S70.8,133.5,75.3,138.5z"/>
<path class="st7" d="M128.9,83.5c0,0-14.5,16.9-4.2,24.3l1.8,1.8l-2.1,6c0,0-14.1-0.7-12.7,7s2.1,6,2.1,6l-4.9,5.6
	c0,0-12.7-15.5-21.9-16.2l4.2-13l5.6-6L128.9,83.5z"/>
<path class="st8" d="M66.5,152.6l7.4-6c0,0,2.5-24.3,9.5-26.8c7-2.5,10.9-4.9,10.9-4.9l1.4-5.6l-3.2-1.8c0,0,3.2-7.4,7.4-8.1
	c4.2-0.7,31.4-18,31.4-18s2.8-2.8,0.4-2.1c-2.5,0.7-32.4,17.3-35.6,17.3c-3.2,0-9.9,10.6-9.9,10.6s-5.3-2.8,0-6.7s14.8-7.4,14.8-7.4
	s3.9-4.2,1.8-5.6c-2.1-1.4-3.9-0.7-3.9-0.7s7.4-7,13-6c5.6,1.1,3.5-7.8,3.5-7.8s-19.7-0.4-20.1-1.8s6-7.8,6-7.8s-16.9-11.6-37.4-4.6
	S42.9,83.1,42.9,83.1l-1.4,10.6c0,0-6.7-5.6-5.6,3.9c1.1,9.5,19,8.1,19,8.1s6-3.2,7,5.3c1.1,8.5,6,23.6,6,23.6l1.1,8.1l-2.1,8.5
	L66.5,152.6z"/>
<path class="st9" d="M46.3,90.4c0,0-16.6-35.2-14.8-35.9c1.8-0.7,18.7,25.4,20.1,24.7C51.6,79.2,44.6,86.2,46.3,90.4z"/>
<path class="st10" d="M45.4,89.5c0,0,0.7-5.3,5.3-11.3c4.6-6,20.4-48.3,20.4-48.3s2.8,0,2.8,1.8c0,1.8-11.6,44.4-10.2,45.1
	c0,0,32.8-14.1,37.7-13.4c4.9,0.7,2.1,2.5,2.1,2.5l-49.3,30c0,0-4.2-1.8-7,0.4L45.4,89.5z"/>
<path class="st8" d="M78.9,126.1c0,0,21.1,1.4,16.9,27.5s-5.6,30.3-5.6,30.3s0,14.1,7.8,12.7c7.8-1.4,7.8-7,7.8-7s-1.8-5.6-3.9-5.6
	c0,0,3.2,13.7-4.6,9.5c-7.8-4.2-2.5-18.3-2.5-18.3s11.3-32.8-0.4-44.1c-11.6-11.3-15.2-7.8-15.2-7.8L78.9,126.1z"/>
<path class="st11" d="M39.6,106.4c9.5,17.2,9.5,25.9,7.4,30.7c-0.3,0.7-1,2.2-2,4.6c-2.6,6.5-3.7,12.1-4.2,15.9
	c1.7-0.5,5.4-1.3,9.8-0.4c3.3,0.7,5.7,2.2,7,3.2c0,0,3.2-1.8,4.6-6.3c1.4-4.6,6.7-13.4,6.7-13.4l-5.6-19c0-0.6-0.4-9.4-8.1-14.1
	C47.8,103,40.3,106.1,39.6,106.4z"/>
<path class="st12" d="M60.2,114.2c0,0-6,0.7-2.5,10.6l4.6-3.2L60.2,114.2z"/>
<path class="st7" d="M56.3,159.9c0,0-2.1-6.3-0.7-6.3s2.8,3.5,2.8,3.5l-1.8,4.2"/>
<path class="st7" d="M54.2,107.5c0,0-0.4,6.7,1.1,7.8l2.1-5.3C57.4,109.9,59.5,105.7,54.2,107.5z"/>
<path class="st13" d="M63.2,121.6c0,0-17.3,3.2-14.5,31c0,0,2.1,7.8,13.7,0l6.3-12L63.2,121.6z"/>
<path class="st14" d="M38.7,106.4c0,0-9.9-4.2-2.8-8.8c0,0,1.4,6,16.6,4.9s9.2,14.1,15.5,23.6c6.3,9.5,2.1,18,2.1,18l-7,17.6
	c0,0-1.8,5.3-9.2,1.8c-7.4-3.5-9.5-2.1-9.5-2.1s-7-2.5-5.6-6.3c1.4-3.9,8.1-16.2,8.1-16.2s-7,15.2-4.2,16.9c0,0,11.6,0.7,14.1,4.6
	c0,0,11.6-17.3,11.3-19.7c0,0-6.7-30.3-11.6-33.1C56.3,107.5,47.5,109.2,38.7,106.4z"/>
<polygon class="st7" points="38.7,106.4 35.5,112.4 34.8,103.9 "/>
<path class="st7" d="M43.3,152.9l-3.5-4.9l1.4,7C41.2,155,42.9,155,43.3,152.9z"/>
</svg>
