<?xml version="1.0" encoding="utf-8"?>
<!-- Generator: Adobe Illustrator 23.0.4, SVG Export Plug-In . SVG Version: 6.00 Build 0)  -->
<svg version="1.1" id="Layer_1" xmlns="http://www.w3.org/2000/svg" xmlns:xlink="http://www.w3.org/1999/xlink" x="0px" y="0px"
	 viewBox="0 0 288 288" style="enable-background:new 0 0 288 288;" xml:space="preserve">
<style type="text/css">
	.st0{fill:#575160;}
	.st1{fill:#7C758E;}
	.st2{fill:#8A849A;}
	.st3{fill:#B98EA4;}
</style>
<polygon class="st0" points="102.2,89.3 83,86.8 90.2,114.2 81.1,113.3 87.8,128.6 "/>
<path class="st0" d="M25.3,161.8c0,0,8.2-0.5,9.1,4.3l1-7.7l4.8-8.2C40.2,150.3,25.3,155.1,25.3,161.8z"/>
<path class="st1" d="M69.5,131.5c0,0-13-1.4-22.1-3.8c-9.1-2.4-13.9-2.4-13.9-2.4S14.3,144,13.3,142.6s-0.5,9.1-0.5,9.1
	s-13,7.2-8.6,13s13.9,14.9,13.9,14.9l-0.5-9.1l3.8,3.8l3.8-12.5c0,0,6.2-8.6,14.9-11.5l-4.8,8.2l-1,7.7c0,0,10.1,16.3,13.5,14.4
	c0,0,2.4-8.6,3.4-12c1-3.4,14.9-12,14.9-12l8.2-1c0,0,5.3-6.7,4.3-12C77.7,138.3,74.8,131,69.5,131.5z"/>
<path class="st1" d="M87.8,128.6l-2.4,3.8l3.8,5.3c0,0-1,6.7,1.4,6.2c2.4-0.5,2.9-1.9,2.9-1.9l3.8,4.3c0,0,2.4,11,3.8,10.1
	c1.4-1,3.4-5.8,3.4-5.8l3.8,1.4c0,0-11.5,9.1,3.8,26.9s57.2,25.5,57.2,25.5l31.7,13.9c0,0,37.5,15.9,40.4,14.9
	c0,0-18.7-22.1-17.3-26.4l5.8,2.4c0,0-13.5-29.3-9.1-31.2l32.7-20.7c0,0-23.5-1.9-23.5-3.4s52.8-31.7,52.8-31.7l-57.6-6.2
	c0,0,62-43.7,59.6-50c0,0-62.5,4.3-81.7,7.2c0,0-20.2-1.4-29.3-6.2s-25.5-0.5-25.5-0.5l-27.4-47.6l-18.7,70.1L87.8,128.6z"/>
<path class="st2" d="M175.7,190.1c0,0-17.3,7.7-23.5,6.2c-6.2-1.4-8.6,4.3-8.6,4.3s-7.7,8.6-11.5,9.1c-3.8,0.5-13.5,22.6-4.3,33.6
	l9.6-16.3l11-6.7c0,0,3.8,0,3.8,2.4s-5.8,10.6-5.8,10.6s-2.4,23.1,7.2,28.3c0,0,0-0.5,2.9-4.8c2.9-4.3,8.6-24,19.2-27.9
	c0,0,5.3,0,5.3,3.8c0,3.8-1.9,17.8-1.9,17.8s1,14.9,5.8,16.3c0,0,19.2-30.7,19.7-39.4c0,0,1.4-2.4-1.4-5.8
	c-2.9-3.4-8.6-23.1-8.6-23.1S186.3,185.3,175.7,190.1z"/>
<path class="st3" d="M108.5,152.2l10.6,3.4c0,0,3.4,11.5,6.2,9.6c2.9-1.9,4.3-9.1,4.3-9.1h21.1c0,0,5.3,11,7.2,9.6
	c1.9-1.4,3.4-10.1,3.4-10.1s16.8-4.8,18.3-5.8c0,0-3.8,33.6-36,36.5c0,0-3.4-12-5.8-9.6s-3.8,9.1-3.8,9.1s-2.4-11.5-4.8-11.5
	s-4.8,6.7-4.8,6.7l-5.8-11.5l-2.9,6.2l-1.4-8.6l-2.9,1.9l-1-6.2l-2.4,2.4C108,165.2,106.1,153.1,108.5,152.2z"/>
</svg>
