<?xml version="1.0" encoding="utf-8"?>
<!-- Generator: Adobe Illustrator 23.0.4, SVG Export Plug-In . SVG Version: 6.00 Build 0)  -->
<svg version="1.1" id="Layer_1" xmlns="http://www.w3.org/2000/svg" xmlns:xlink="http://www.w3.org/1999/xlink" x="0px" y="0px"
	 viewBox="0 0 288 288" style="enable-background:new 0 0 288 288;" xml:space="preserve">
<style type="text/css">
	.st0{fill:#837A7A;}
	.st1{fill:#25211E;}
	.st2{fill:#C5B8AB;}
	.st3{fill:#8D8B9F;}
	.st4{fill:#4E505C;}
	.st5{fill:#8D8C9F;}
	.st6{fill:#B76C64;}
</style>
<path class="st0" d="M143,164.1l-4.5,25.9c0,0,10.7,16.9,18,20.2l27,47.8c0,0,10.7-7.9,3.4-20.8c0,0-4.5-20.8-12.9-28.7l-15.2-29.8
	v-12.4L143,164.1z"/>
<path class="st0" d="M208.2,120.2l5.6,19.7c3.9-1.5,7.9-3,11.8-4.5c-2.8-3.4-5.6-6.7-8.4-10.1L208.2,120.2z"/>
<path class="st1" d="M146.9,72.4c0,0-11.8-16.3-18-15.2c-6.2,1.1-7.3,5.1-7.3,5.1l1.1,5.6l8.4,16.9c0,0,10.7,19.7,16.3,20.2
	C153.1,105.6,146.9,72.4,146.9,72.4z"/>
<path class="st2" d="M160.4,171.4c-2.8,7.3-5.6,14.6-8.4,21.9c0,0-0.6,10.1,4.5,16.9c5.1,6.8,2.2,36,2.2,36l18.6,11.8
	c0,0,6.7-25.3,1.7-43.3c-5.1-18-5.1-18-5.1-18c3.4-7.1,6.7-14.2,10.1-21.4C176.2,174.1,168.3,172.7,160.4,171.4z"/>
<path class="st2" d="M213.9,139.9c0,0,3.9,14.6,14.1,7.9c0,0,6.7-9.6,1.1-28.1l-11.8,5.6C217.2,125.3,220.6,136,213.9,139.9z"/>
<path class="st2" d="M99.7,57.8c0,0,16.3,3.9,19.7,6.7l10.1,1.1c0,0,15.7,7.3,17.4,6.7c1.7-0.6,1.7-0.6,1.7-0.6s8.4,19.7,5.6,31.5
	l-3.9,4.5c0,0-11.2-13.5-11.8-19.1c-0.6-5.6-7.3-3.9-7.3-3.9s-16.3-3.9-19.7-8.4c0,0-10.1,1.7-23.6-7.3L99.7,57.8z"/>
<path class="st2" d="M122.8,65.7l-1.1-3.4l7.3-5.1c0,0,5.6-1.1,18,15.2c0,0,5.6,38.8,11.8,36.6s12.9-15.7,12.9-15.7
	c0.6,0.9,3.1,4.3,7.9,5.6c5.1,1.4,9.2-0.6,10.1-1.1l5.1,9c0,0-5.1,20.2,13.5,13.5l44.4-20.8c0,0-3.4-22.5-34.3-24.7l12.9-16.3
	l-1.1-8.4l-14.6,5.6l12.4-20.2c0,0-3.9-11.2-7.3-11.8l-18,18l7.3-31.5c0,0-11.2-7.3-12.9-5.1l-14.1,29.2l-0.6-21.4l-11.8,3.9
	l-1.7,19.7l-3.9-9.6c0,0-7.3,5.6-7.3,7.9l-2.2,24.7c0,0-19.1-8.4-22.5-7.3c-3.4,1.1-11.8,7.3-11.8,7.3
	C121.6,61.6,122.2,63.6,122.8,65.7z"/>
<path class="st0" d="M127.8,84.2c0,0,11.8,23.1,19.1,25.9l0.6-5.1c0,0-6.8-3.9-16.3-20.2L127.8,84.2z"/>
<path class="st3" d="M171.7,93.2c0,0-10.7,16.9-12.9,15.7s-4.5-5.6-4.5-5.6l-6.7,1.7l-0.6,5.1c0,0,2.8,11.8,7.9,17.4
	c0,0-27,7.3-26.4,10.1c0,0,2.2,7.9,4.5,9l-5.1,5.6c0,0,6.2,13.5,10.7,13.5l3.4-3.9c0,0,7.3,7.3,9,6.7l-1.7,3.4l7.3,2.2l-1.1,3.4
	c0,0,27.6,2.2,26.4,3.9l-2.2,2.8l15.7-1.7l-1.1-6.2c0,0,16.9-6.7,15.7-10.1l-6.2-8.4l7.3-9.6c0,0-12.9-10.1-16.9-10.1l-1.1-2.8
	c0,0,14.1-7.3,15.2-15.2c0,0-15.7,7.9-13.5-13.5l-5.1-9C189.7,97.7,183.5,100,171.7,93.2z"/>
<path class="st4" d="M157.6,126.4l-1.1,3.4c0,0,16.9,15.7,30.9,5.6C187.4,135.4,182.9,127,157.6,126.4z"/>
<path class="st5" d="M171.1,249.6c0,0-7.9-8.4-15.7-1.1c0,0-3.4,12.4-14.6,12.4c0,0-7.3,7.9-0.6,16.9c6.7,9,21.4,5.1,21.4,5.1
	s19.7-1.1,21.9-24.7l-4.5-8.4l-1.7,8.4L171.1,249.6z"/>
<path class="st6" d="M80.6,68.5c0,0,9.6,3.4,15.7-7.3c0,0,11.8-5.6,6.2-24.7c-5.6-19.1-33.7-16.9-33.7-16.9S33.9,30.8,44,53.3
	c0,0,3.4,11.2,17.4,12.9C61.4,66.2,69.3,71.9,80.6,68.5z"/>
<path class="st6" d="M197.6,88.2c0,0-11.8,6.2-2.8,18.6c0,0,11.8,16.3,22.5,18.6c0,0,23.6,0,18-27C235.2,98.3,222.3,58.4,197.6,88.2
	z"/>
</svg>
