<?xml version="1.0" encoding="utf-8"?>
<!-- Generator: Adobe Illustrator 23.0.4, SVG Export Plug-In . SVG Version: 6.00 Build 0)  -->
<svg version="1.1" id="Layer_1" xmlns="http://www.w3.org/2000/svg" xmlns:xlink="http://www.w3.org/1999/xlink" x="0px" y="0px"
	 viewBox="0 0 288 288" style="enable-background:new 0 0 288 288;" xml:space="preserve">
<style type="text/css">
	.st0{fill:#95898B;}
	.st1{fill:#6E6773;}
	.st2{fill:#94908B;}
	.st3{fill:#AAA69D;}
	.st4{fill:#D7C893;}
	.st5{fill:#E6E4E7;}
	.st6{fill:#BCA9A4;}
	.st7{fill:#E0D9C3;}
	.st8{fill:#F6F5F8;}
	.st9{fill:#EADCB4;}
</style>
<path class="st0" d="M132.6,98c0,0,2.8,5.1,5.1,5.1s8.4-0.6,8.4-0.6c1.3,0.6,4.8,2.3,6.8,6.2c2.4,4.9,1.3,11.1-2.8,15.7
	c0,0-22.5,7.9-41.6,30.9c3.8-8.4,7.5-16.9,11.2-25.3c1.9-5.3,3.9-10.7,6.2-16.3C128,108.3,130.3,103,132.6,98z"/>
<path class="st0" d="M231,84.5c0,0,10.7-25.9,14.6-25.3c3.9,0.6,14.1,1.7,14.1,1.7l14.1,9.6c0,0,9.6,8.4,2.8,16.3
	c-6.7,7.9-15.2,17.4-15.2,17.4s-17.4,17.4-27.6,4.5S231,84.5,231,84.5z"/>
<path class="st1" d="M133.1,61.4c0,0,8.4,10.1,15.2,10.7c6.8,0.6,8.4,8.4,8.4,8.4l7.3,5.1c0,0-1.1,11.2-9,11.2c0,0-5.6,0-8.4-3.4
	c-2.8-3.4-14.6-0.6-14.6-0.6L133.1,61.4z"/>
<path class="st1" d="M201.7,108.7l12.4,6.2l1.1,5.6c0,0-2.2,3.9-5.1,1.7c-2.8-2.2-5.1-4.5-5.1-4.5s-5.6-1.7-5.6,1.7s1.7,7.9,1.7,7.9
	s-3.9,7.3-6.7,2.8c-2.8-4.5-2.8-4.5-2.8-4.5l-2.8,0.6c0,0-5.1-1.7-3.4-6.2l-6.2-6.7L201.7,108.7z"/>
<path class="st2" d="M163.5,87.9c0,0,16.9,13.5,24.2,14.6c7.3,1.1-18,3.9-18,3.9s-10.7-10.1-14.6-9.6
	C155.1,96.9,160.7,96.3,163.5,87.9z"/>
<path class="st3" d="M148.3,103.6c0,0,8.4-4.5,10.1-1.1c0,0,9.6-3.9,10.7-1.7c0,0,12.4-5.1,12.9-2.2c0,0,9.6-6.2,11.8-2.8
	c0,0,11.2-5.6,14.1-2.8c0,0,9-6.7,11.8-2.8c0,0,7.3-6.7,11.2-5.6c0,0,13.5-5.1,16.3,9c2.8,14.1-8.4,16.3-8.4,16.3s-4.5,0-5.1-1.1
	c0,0-6.2,1.1-10.1-1.1c0,0-1.7,6.2-11.8,2.2c0,0-6.7,5.6-14.6,2.8c0,0-5.1,3.9-11.8,0.6c0,0-6.2,6.2-11.8,3.9c0,0-2.2,3.9-10.7,2.2
	c0,0-2.2,5.1-11.2,2.8C151.7,122.2,156.2,108.1,148.3,103.6z"/>
<path class="st4" d="M264.2,100.8c0,0-6.2-4.5-14.1,11.2C250.1,112.1,262.5,112.1,264.2,100.8z"/>
<path class="st5" d="M245.6,59.2c0,0,7.9-15.2,10.1-12.9S254.6,62,254.6,62S245.6,62,245.6,59.2z"/>
<path class="st5" d="M256.9,63.1c0,0,12.9-15.2,15.2-13.5c2.2,1.7-4.5,19.1-4.5,19.1S255.2,63.7,256.9,63.1z"/>
<path class="st5" d="M269.8,69.9c0,0,11.8-11.8,12.9-9c1.1,2.8-4.5,16.9-4.5,16.9S269.2,73.8,269.8,69.9z"/>
<path class="st6" d="M129.2,50.7c0,0,8.4,0,3.9,10.7l3.4,5.1c0,0,0.6,3.4-1.1,4.5c0,0,0.6,20.2-2.8,27c0,0-8.4,32.6-6.7,34.3
	c0,0-15.2,15.2-17.4,23.1c0,0-6.2,7.3-5.6,12.9l-2.8,2.2c0,0-12.9-5.6-23.6,0.6c0,0-3.9-1.1-2.8-5.6c1.1-4.5-2.8-18-2.8-18
	l-21.9-43.3H38.6c0,0-2.2,5.1-8.4,3.4c-6.2-1.7-11.2,1.1-11.2,1.1S3.2,108.1,3.7,95.7l7.9-7.9c0,0,9-6.7,16.9-3.4l7.9-2.2
	c0,0,6.7-10.7,10.1-10.1c0,0-2.8-48.9,33.7-48.9s43.9,15.7,43.9,15.7S129.7,46.2,129.2,50.7z"/>
<path class="st6" d="M88.1,238.6c0,0-5.1,8.4-4.5,15.7s18.6,5.6,18.6,5.6l16.9-0.6c0,0,16.9-2.2,0.6-18.6c0,0-7.9-6.7-12.4-11.8
	C102.7,224,88.1,238.6,88.1,238.6z"/>
<path class="st7" d="M33.6,92.4c0,0,14.6,2.8,20.2,1.1c0,0-5.6,6.2-1.1,11.8H31.3C31.3,105.3,24,96.9,33.6,92.4z"/>
<path class="st7" d="M76.3,171.1c0,0,0,9-1.7,11.2c-1.7,2.2,2.2,3.4,2.2,3.4s-2.2,9-0.6,11.8c0,0-1.7,11.2,3.9,14.6
	c0,0-3.9,9,2.2,12.4c0,0-1.7,6.7,4.5,10.1c0,0-2.2,4.5,5.1,6.7c7.3,2.2,15.7-2.8,15.7-2.8s10.1-7.3-0.6-9.6c0,0,4.5-10.1-3.4-12.9
	c0,0,5.1-4.5-2.8-9.6c0,0,5.1-1.1-1.7-11.2c0,0,4.5-3.9-1.1-12.4c0,0,6.2-5.1,1.7-12.4C99.9,170.6,85.9,163.8,76.3,171.1z"/>
<path class="st8" d="M118.5,257.2c0,0-5.6-11.2-11.2,0c0,0-6.2-11.2-14.1,1.1c0,0-6.2-15.7-12.9,4.5c0,0,9.6,0,11.8-1.7l2.2,3.9
	l11.8-3.2l0.6-0.2C106.7,261.7,115.7,263.4,118.5,257.2z"/>
<path class="st9" d="M120.2,241.4c0,0-1.1,9.6,6.7,11.8C126.9,253.2,132.6,245.4,120.2,241.4z"/>
</svg>
