<?xml version="1.0" encoding="utf-8"?>
<!-- Generator: Adobe Illustrator 23.0.4, SVG Export Plug-In . SVG Version: 6.00 Build 0)  -->
<svg version="1.1" id="Layer_1" xmlns="http://www.w3.org/2000/svg" xmlns:xlink="http://www.w3.org/1999/xlink" x="0px" y="0px"
	 viewBox="0 0 288 288" style="enable-background:new 0 0 288 288;" xml:space="preserve">
<style type="text/css">
	.st0{fill:#BDB29B;}
	.st1{fill:#7FBFD7;}
	.st2{fill:#F3E8C0;}
	.st3{fill:#94D3E8;}
	.st4{fill:#0E0E0E;}
</style>
<path class="st0" d="M196,151.6c0,0,30.2-42.3,71.1-37.3c40.8,5,2.5,46.4,2.5,46.4c-4.1,3.9-11.1,9.4-21.2,12.1
	c-10.2,2.7-18,1.1-28.7-1c-9.5-1.9-16-3.3-20.2-9.1C196.7,158.8,196.1,154.5,196,151.6z"/>
<path class="st1" d="M208.1,37.8c0,0,8.6,10.1,7.6,21.7c0,0-19.7,2.5-21.2-2.5C193,51.9,208.1,37.8,208.1,37.8z"/>
<path class="st1" d="M214.7,77.6c0,0-5.5,16.1-8.1,16.6c0,0-13.6-8.1-8.1-11.1S214.7,77.6,214.7,77.6z"/>
<path class="st2" d="M152.7,125.9c-14.5,6.1-12.2,18.2-28.7,38.3c-11,13.3-21.7,19.8-22.7,34.3c-0.1,1.7-0.1,3.1,0,4
	c3.6,0.3,6.1,1.4,7.9,2.5c7.7,4.7,11.3,15.6,11.3,15.6c4.5,12.1,0,0,0,0c8-3.3,22.7-10.7,34.8-26.2c4.3-5.6,11.4-14.7,14.1-28.2
	c0,0,1.7-8.6-3-42.8l0,0C163.1,123.4,158.1,123.7,152.7,125.9z"/>
<path class="st3" d="M92.7,60.4c0,0-35.3-2.5-40.8-6s-11.6,0-11.6,0S20.2,74,52.4,105.3c0,0,6,2,19.7,1.5s29.7-0.5,29.7-0.5
	s26.7,23.7,50.9,19.7l13.6-2.5c0,0,7.6,76.6-45.9,97.3c0,0-11.6-40.3-59.5-17.6c0,0-36.8,27.2,1,65S162.8,258,162.8,258
	s40.8-24.2,36.8-95.2c0,0-15.6-46.9-4-51.9l27.2,7.1c0,0,23.2-2-4-16.6c0,0-24.2-13.6-21.2-16.1c3-2.5,17.1-7.6,17.1-7.6l34.8-8.1
	c0,0,16.6-12.1-15.1-10.1c0,0-37.3,1.5-39.8-2.5s13.6-19.1,13.6-19.1l15.6-19.1c0,0,3-17.6-23.2,5l-3,1.5c0,0-23.2-28.2-65.5-13.6
	S92.7,60.4,92.7,60.4z"/>
<path class="st4" d="M43.3,61.4c0,0,14.6,22.2,10.6,39.3C53.9,100.7,36.8,82.1,43.3,61.4z"/>
</svg>
