<?xml version="1.0" encoding="utf-8"?>
<!-- Generator: Adobe Illustrator 23.0.4, SVG Export Plug-In . SVG Version: 6.00 Build 0)  -->
<svg version="1.1" id="Layer_1" xmlns="http://www.w3.org/2000/svg" xmlns:xlink="http://www.w3.org/1999/xlink" x="0px" y="0px"
	 viewBox="0 0 288 288" style="enable-background:new 0 0 288 288;" xml:space="preserve">
<style type="text/css">
	.st0{fill:#F3F5F6;}
	.st1{fill:#BEAA7C;}
	.st2{fill:#F2D580;}
</style>
<path class="st0" d="M45.1,131.1c0,0-12.9,12.1-16.8,11.6c-3.9-0.4,11.2,6,18.9,3.9c0,0-3,13.8-8.6,14.6c-5.6,0.9,7.3,5.2,7.3,5.2
	s-4.3,30.6-11.6,31.9c0,0,14.2-0.9,27.1-24.1c0,0,12.9,36.2,20.7,37.9c1.3-25.1,3.3-31.3,5.2-31.4c0.6,0,1,0.5,1.9,1.5
	c3.4,3.3,7.2,5,10.1,5.9v-10.8c0,0,13.4,18.5,27.6,19.8c0,0-10.8-35.7-8.2-36.2l39.5,20.8c-0.7-6.7-1.4-13.3-2.1-20
	c6.1-0.3,12.2-0.5,18.3-0.8c-2.8-1.9-5.8-4.1-8.9-6.9c-3.2-2.8-5.9-5.6-8.1-8.1c12.2-4.5,24.5-9,36.7-13.4c0.9-2.7,1.7-5.5,2.6-8.2
	c-5.4-0.7-10.8-1.4-16.2-2l-14.4-3.1c0,0,32.3-22,24.5-25.4c0,0-50.8,18.9-72.3,3.4l9.9-6.9l-19.8-3.4L45.1,131.1z"/>
<path class="st1" d="M60.6,71.7c0,0,29.3-64.2,93.9-65c0,0-10.3,23.7-17.7,26.3l6.9,0.9c0,0,0,6.5-8.2,9.5C127.4,46.3,89,76,89,76
	L60.6,71.7z"/>
<path class="st1" d="M164.8,196.1c0,0,7.3,22.4,12.5,25.8c5.2,3.4-20.7,25.8-20.7,25.8s-7.8-0.9-9.5,2.6c-1.7,3.4,1.3,10.8,5.2,11.6
	c3.9,0.9,16.8-0.4,16.8-0.4s34-31,32.3-33.6s-29.7-36.2-29.7-36.2L164.8,196.1z"/>
<path class="st1" d="M180.5,122.2L193,108c0,0-1.4,10,2.1,10.3c0,0,20.7-14,18.3-19.5c1,2.4,3.2,9.1,1.4,17.4
	c-1.8,8.2-6.6,13.3-8.5,15.1l-15.1,0.9l1.9-7.4L180.5,122.2z"/>
<path class="st2" d="M60.6,71.7c0,0,24.1-20.7,29.3-21.1c0,0-3,22,0.9,21.5c0,0,30.1-43.1,115.4-37c0,0-29.7,32.3-37,34
	c0,0,10.3,5.2,12.9,1.3c0,0-31,25.4-70.2,19.4c0,0,7.3,19.8,13.8,19.8c0,0-7.3,3.9-15.9,1.7c0,0,6.5,14.6,12.1,12.9
	c0,0-18.5,1.7-23.7-0.4c0,0-7.8,9-2.6,13.8c0,0-18.1,0.9-22.8-1.7c0,0-0.4,9,4.7,10.3c0,0-10.3,1.3-12.9-5.2l-1.7,3.9
	c0,0-9.5-10.8-6.5-12.1c0,0-21.5-0.4-31.9-18.1c0,0-15.1-6.9-8.2-18.1c0,0,4.3-5.6,10.8-5.6c0,0,9-20.2,18.9-19.4
	C46,71.7,54.2,68.7,60.6,71.7z"/>
<path class="st2" d="M61.5,174.2c0,0,3.9,43.5,9,52.5c0,0,4.7,24.1-1.3,33.2c-6,9-7.8,16.4-7.8,16.4s4.3,6,10.8,4.3
	c0,0-1.3,4.7,10.3,3.9c11.6-0.9,15.9-10.8,15.9-10.8s10.3-69.3,19.8-69.3c0,0,9.5,4.3,54.3-10.8c0,0,18.9,36.6,38.8,37.9
	c0,0,15.5,9,14.2,13.8c-1.3,4.7-8.2,22.4-22.4,24.1c-14.2,1.7,3,12.5,3,12.5h15.1c0,0,31-28.9,25.8-41.3c0,0-15.5-17.2-15.1-22.4
	c0.4-5.2-1.3-22.8-1.3-22.8l22.8,6.9c0,0,1.7-9.9-3.4-13.4h5.6c0,0-10.8-15.5-16.8-16.4l30.6,0.4c0,0-9-12.9-29.3-14.2
	c0,0,44.8-18.1,44.4-22.4l-48.7,2.2l34.5-31.4l-11.2,1.7l1.3-6c-24.3,14.9-43.4,24-50.4,25.8c-4,1.1-7.8,1.7-7.8,1.7
	c-4.9,0.9-9,1.2-12.1,1.3c-14.4,1.7-28.7,3.4-43.1,5.2c0,0-1.7,15.5,5.6,16.8l-12.1,0.9c0,0,13.2,22.9,17.5,27.3
	c0.4,0.4,0.8,0.7,1,0.7c0.1,0,0.1,0,0.1,0c0.1-0.2-9-5.8-42.7-26c1,6.5,2.4,13.5,4.3,21c1.8,7.2,3.9,13.8,6,19.7
	c-3.8-1.6-8.4-4.1-13.3-7.8c-6.6-5.1-11-10.6-13.7-14.6c-1.8,9-1.5,12.3-0.6,13.4c0,0.1,0.2,0.2,0.2,0.3
	c-0.3,0.4-14.7-9.6-13.5-13.6c0,0-7.3,33.6-3.9,37.5c0,0-22.4-27.1-16.8-46.1L61.5,174.2z"/>
<path class="st1" d="M-30.7,128.5"/>
</svg>
