<?xml version="1.0" encoding="utf-8"?>
<!-- Generator: Adobe Illustrator 23.0.4, SVG Export Plug-In . SVG Version: 6.00 Build 0)  -->
<svg version="1.1" id="Layer_1" xmlns="http://www.w3.org/2000/svg" xmlns:xlink="http://www.w3.org/1999/xlink" x="0px" y="0px"
	 viewBox="0 0 288 288" style="enable-background:new 0 0 288 288;" xml:space="preserve">
<style type="text/css">
	.st0{fill:#99908B;}
	.st1{fill:#D37270;}
	.st2{fill:#9A928D;}
	.st3{fill:#8D80A3;}
	.st4{fill:#F2DC8E;}
	.st5{fill:#C5C6CC;}
	.st6{fill:#F5EAC6;}
	.st7{fill:#ECBDC0;}
	.st8{fill:#A4838D;}
</style>
<path class="st0" d="M188.9,43c0,0,68.4,78.1,19.4,141.9l1.5-6.1l-8.2,10.7l-5.6-10.2L188.9,43z"/>
<path class="st1" d="M95.8,168.1c0,0-4.6,15.8-36.8,29.6c0,0-10.2,7.7,10.2,4.1c0,0-10.2,14.3-22,14.8s-23,12.3-23,12.3
	s-8.7,11.7,4.1,10.7c0,0,16.8-4.6,35.2,5.6s34.7,9.7,34.7,9.7s25.5-1,33.7-6.1s13.3-3.1,13.3-3.1s8.2-1,20.4,9.2
	c12.3,10.2,28.1-0.5,28.1-0.5s13.3-9.7,23.5-5.1s15.8-1,15.8-1s6.1-5.1,9.7-5.1s4.6-4.1,4.6-4.1s-3.6-5.6-14.3-9.2
	s-19.9-11.7-19.9-11.7l-1.5-4.1c0,0,18.9,5.6,16.3,1c0,0-26.5-28.1-29.1-40.8c-2.6-12.8-15.3-20.4-15.3-20.4l-15.3,3.1
	c0,0-14.8,0-26.5-5.6c-11.7-5.6-16.8,8.2-29.1,2S95.8,168.1,95.8,168.1z"/>
<path class="st2" d="M140.8,56.3c0,0-8.2-13.3-9.7-10.2c0,0-15.8,11.2-15.3,21.4L140.8,56.3z"/>
<path class="st2" d="M176,70.1c0,0-12.3-30.1-20.9-27.1c-8.7,3.1-14.3,13.3-14.3,13.3L176,70.1z"/>
<path class="st3" d="M105,120.1c0,0-8.2-61.8,35.7-63.8s47,45.4,47,45.4l-7.1,29.6L105,120.1z"/>
<path class="st4" d="M105,120.1c0,0,2-11.7,12.8-10.2c10.7,1.5,13.8,15.8,20.9,10.2s14.8-9.2,14.8-9.2s12.3-7.7,27.6,11.2
	s0,30.6,0,30.6s-7.7,10.7-33.7,1.5c0,0-7.1-8.2-21.4-1.5s-23.5-5.1-23.5-5.1L105,120.1z"/>
<path class="st1" d="M159.1,116.5c0,0-20.9,5.6-15.8,23c5.1,17.4,33.2,10.7,33.2,10.7l3.1-20.9C179.5,129.3,176,118.6,159.1,116.5z"
	/>
<path class="st1" d="M105,120.1c0,0,9.2-9.2,21.4,3.6s-5.6,24.5-5.6,24.5s-17.4,5.1-18.9-4.6C100.4,133.9,105,120.1,105,120.1z"/>
<path class="st5" d="M213.8,147.2c0,0,9.7-5.6,20.4-0.5l6.6-2l11.2,11.2c0,0-17.9,11.2-17.9,16.3s-13.8,6.6-13.8,6.6
	s-13.8,0-14.8-15.3C204.6,148.2,213.8,147.2,213.8,147.2z"/>
<path class="st5" d="M52.4,148.7l3.6,0.5c0,0,8.7-6.6,20.9,0.5l8.2-1.5l4.1,12.8c0,0-6.6,3.6-7.1,7.1s-9.7,7.1-9.7,7.1
	s-9.2,3.1-19.4-6.1c-10.2-9.2-17.9-11.7-17.9-11.7L52.4,148.7z"/>
<path class="st3" d="M24.9,164.5c0,0,27.1,1.5,28.1-17.9c0,0,14.3-5.1,12.3-12.8c-2-7.7-8.2-2-8.2-2l-8.2,7.1c0,0-10.2-3.6-10.2-7.7
	s-3.1-10.2-3.1-10.2s-7.7-7.7-8.2,2s3.6,12.3,3.6,12.3s-3.1,4.1-5.1,1c-2-3.1-10.7-8.2-10.7-8.2s-9.7-2-5.1,6.6l12.3,9.2
	c0,0,0,5.1-6.1,4.1c-6.1-1-10.2-2-10.2-2s-7.7,5.6,0,8.2c7.7,2.6,12.8,1,12.8,1s3.6,2.6,1,4.1c-2.6,1.5-11.2,3.1-11.2,3.1
	s-2.6,8.7,5.1,7.1C21.3,168.1,24.9,164.5,24.9,164.5z"/>
<path class="st3" d="M238.8,148.7c0,0-4.1-6.1-2-11.7c0,0-11.7-11.2-9.2-14.8c2.6-3.6,7.1-2.6,7.1-2.6s6.1,2.6,7.1,10.2
	c0,0,8.2-1.5,8.2-3.6c0,0,9.2-23.5,14.8-17.9s-7.7,20.4-7.7,20.4l3.1,1.5c0,0,13.8-18.4,18.4-12.8c4.6,5.6-12.3,17.9-12.3,17.9
	l3.1,4.6c0,0,18.4-4.6,16.8,5.1c0,0-2,3.1-7.7,3.1c-5.6,0-8.7-0.5-8.7-0.5l-2,3.1c0,0,11.7,13.3,5.1,14.8
	c-6.6,1.5-11.7-9.2-11.7-9.2S246.9,160.4,238.8,148.7z"/>
<path class="st6" d="M147.9,36.7l-13.8-7.1c0,0-53.1,27.1-54.6,73c-1.5,45.9-7.1,42.4,14.3,66.9v-3.1c0,0,3.1,8.2,8.2,8.2l-3.6-10.7
	c0,0,10.7,14.3,13.3,13.3l-5.6-10.2c0,0,16.8,13.3,18.9,11.2c-12.5-20.8-17-39.2-18.9-50.8c-1.3-7.9-2.6-16.3-1-27.3
	c2.3-16.7,9.9-28.9,14.2-36.2c2.9-4.9,6.3-9.1,11.8-15.9c0,0,4.1,2.6,9.7,10.2c0,0,9.7-12.8,14.3-13.3c0,0,17.9,3.1,27.6,60.7
	c0,0-2,50.5-36.2,72.5c0,0,5.6,4.6,19.4-5.6l-4.6,6.6c0,0,19.9-5.6,26.5-17.4l-10.2,22.5c0,0,13.8-3.6,14.3-8.7l-3.6,10.7
	c0,0,9.7-7.1,10.7-10.2c1-3.1,1.5,4.1,1.5,4.1s25.5-39.8,11.2-88.8c-14.3-49-32.7-56.7-32.7-56.7S164.7,23.9,147.9,36.7z"/>
<path class="st7" d="M134.6,80.3h5.6c0,0,9.2,6.1,7.7,17.4c-1.5,11.2-8.7,12.3-8.7,12.3s-9.7,0-10.7-12.8
	C127.5,84.4,134.6,80.3,134.6,80.3z"/>
<path class="st8" d="M134.6,93.6c0,0-1-8.7,3.6-5.6c4.6,3.1,2,9.7,2,9.7S136.2,104.8,134.6,93.6z"/>
</svg>
