<?xml version="1.0" encoding="utf-8"?>
<!-- Generator: Adobe Illustrator 23.0.4, SVG Export Plug-In . SVG Version: 6.00 Build 0)  -->
<svg version="1.1" id="Layer_1" xmlns="http://www.w3.org/2000/svg" xmlns:xlink="http://www.w3.org/1999/xlink" x="0px" y="0px"
	 viewBox="0 0 288 288" style="enable-background:new 0 0 288 288;" xml:space="preserve">
<style type="text/css">
	.st0{fill:#594443;}
	.st1{fill:#9B97A4;}
	.st2{fill:#010101;}
	.st3{fill:#8E6F54;}
	.st4{fill:#C3BFBB;}
</style>
<path class="st0" d="M181.6,79.7c0,0,11.2,12.2,9.7,13.8c-1.5,1.5-19.4-5.6-19.4-5.6L181.6,79.7z"/>
<path class="st0" d="M201.7,120.1c0,0,16.8,18.4,16.3,20.9s-16.8-2.5-16.8-2.5s10.2,7.6,9.7,11.2s-6.6,0.5-6.6,0.5s8.7,8.7,8.2,10.7
	c-0.5,2-10.2-1-10.2-1s47.4,44.4,46.4,67.3c0,0-50-47.9-57.1-49c-7.1-1-21.9-9.7-21.9-9.7l-7.1-6.6l12.2-27c0,0-4.1-25.5-0.5-28
	C177.7,104.3,201.7,120.1,201.7,120.1z"/>
<path class="st0" d="M88.2,109.2c0,0-4.1,4.1-3.6,6.6c0.5,2.5,4.1,5.6,4.1,5.6s5.6,1.5,7.6-5.1C98.4,109.8,88.2,109.2,88.2,109.2z"
	/>
<path class="st0" d="M132.6,136.3c0,0-36.2,12.2-37.2,33.1c0,0-6.1,5.6-1.5,11.7c0,0-1,3.6,5.6,10.2s9.2,13.8,9.2,13.8
	s2.5,8.7,1,12.2s0,2,0,2s-18.9,5.6-21.9,5.1c-3.1-0.5-4.6,3.1-4.6,3.1l2.5,9.7l10.2,1c0,0,13.3-5.1,18.4-5.1c5.1,0,9.2-2.5,9.2-2.5
	l2-3.6c0,0-3.6-9.7-2-10.7c0,0,6.1-0.5,1-7.6c0,0-17.3-17.8-13.8-27.5c0,0,29.6-12.2,31.6-14.8c0,0,11.7,1,12.2-3.1
	c0.5-4.1-2.5-12.7-2.5-12.7l-8.7-10.2L132.6,136.3z"/>
<path class="st0" d="M130.1,111.8l3.6,3.1c0,0,4.1-3.6,5.1-5.1C139.8,108.2,130.1,111.8,130.1,111.8z"/>
<path class="st1" d="M84.7,115.9l-31.6-13.3c0,0-1-6.6-5.1-5.6s-5.1,3.1-7.6,2.5c-2.5-0.5-3.6,4.6-3.6,4.6s-9.2,21.9-11.7,24.5
	c-2.5,2.5-4.6,31.6-4.6,31.6s0.5,26.5,14.3,37.7c13.8,11.2,21.4,15.8,21.4,15.8s-26.5-46.9-15.3-64.3s14.3-22.4,14.3-22.4
	s-5.1-18.4-4.6-17.8c0.5,0.5,0.5,0.5,0.5,0.5s20.9,6.6,25,10.7c4.1,4.1,9.2,3.1,9.2,3.1s2.5,1,3.6-2S88.8,113.8,84.7,115.9z"/>
<path class="st1" d="M85.7,226c0,0-12.7-1.5-15.3,2s-4.6,9.2-4.6,9.2s9.7-6.1,17.8-3.1c0,0-8.2,2.5-6.6,14.8
	c0,0,15.3-10.2,18.9-10.7c0,0,0-6.6-4.1-7.6l-5.6,3.6L85.7,226z"/>
<path class="st2" d="M160.7,98.5l3.6-3.1c0,0-1,10.2,4.1,11.2s5.1,3.6,5.1,3.6l3.1,25.5l-5.1,4.1l-4.1-13.8l5.6-8.7l-13.8-5.1
	L160.7,98.5z"/>
<path class="st1" d="M113.7,112.9c0,0,3.1,13.8,15.3,14.3c0,0,5.6,13.3,14.8,14.8c0,0,11.7,13.8,10.7,20.4c-1,6.6,0.5,6.6,0.5,6.6
	s10.7-0.5,12.7-9.2l3.6-20.9c0,0-2-11.2-4.1-13.8c0,0,6.6-5.6,5.6-8.7c0,0-6.1-1-9.7-6.6s-2.5-12.2-2.5-12.2l-21.9,11.2l-5.1,5.1
	l-3.6-3.1L113.7,112.9z"/>
<path class="st2" d="M143.8,142.9c0,0-10.7,13.3-4.1,17.3s14.8,3.1,14.8,3.1S151,143.9,143.8,142.9z"/>
<path class="st3" d="M171.9,90.4c0,0,5.1-0.5,7.6,5.1c2.5,5.6,8.2,10.2,8.2,10.2s12.7,3.6,13.8,7.1c1,3.6,2,8.2,2,8.2
	s-7.6,6.6-15.8,0c0,0-7.1-9.7-14.3-10.7s-9.2-7.1-9.2-7.1v-7.6c0,0-15.8,20.4-58.1,16.8c0,0-10.7,10.2-19.9-3.1
	c0,0-22.4-24.5-15.3-47.9s33.7-49,33.7-49s-3.1,19.4-0.5,20.9c0,0,20.9,9.7,44.4,8.2c0,0,8.7-2.5,13.3,1.5c4.6,4.1,7.6,4.6,7.6,4.6
	s5.6-5.1,16.3-5.1c10.7,0,25-4.6,25-4.6s-1.5,2-2,6.1S171.9,90.4,171.9,90.4z"/>
<path class="st3" d="M176.5,135.8c0,0,3.1-7.1,14.8,4.1c11.7,11.2,5.1,50,5.1,50l3.1,8.2c0,0,5.6,6.6,9.7,8.2
	c4.1,1.5,11.7,11.7,11.7,11.7s5.6,12.2,1,25c0,0,0.5,4.6,3.6,8.7c3.1,4.1,3.6,14.8,3.6,14.8s-23.5,6.1-24.5,1.5
	c-1-4.6-3.1-7.6-3.1-7.6s0.5-5.6,5.1-8.7c4.6-3.1,3.6-8.2,3.6-8.2l-2-1.5c0,0,2-13.8-6.6-24c-8.7-10.2-18.4-18.4-18.4-18.4l-1.5-4.1
	c0,0-12.2-5.6-11.2-11.2s0-19.9,0-19.9s-6.6-12.7-4.6-17.3C167.8,142.4,176.5,135.8,176.5,135.8z"/>
<path class="st4" d="M206,256.1c0,0-15.8,9.7-14.8,16.3c1,6.6,1,6.6,1,6.6s10.2-11.2,16.8-11.2C209.1,267.8,210.1,261.2,206,256.1z"
	/>
<path class="st4" d="M223.9,257.1c1.5,2,14.8,9.7,7.6,24c0,0-8.2-10.7-11.2-13.3C217.3,265.3,223.9,257.1,223.9,257.1z"/>
<path class="st4" d="M201.5,112.8c0,0,25-8.2,27-21.9s10.7-8.2,10.7-8.2s3.1,8.2,5.1,13.8c2,5.6,12.2,29.6,12.2,29.6
	s9.7,26-11.2,64.3s-34.7,38.2-34.7,38.2s30.1-39.3,26-67.3c-4.1-28-8.7-40.3-8.7-40.3s3.1-12.7,0.5-15.3c0,0-4.1,5.1-3.6,8.7
	c0,0-4.1,2.5-7.1,3.1c-3.1,0.5-14.3,3.6-14.3,3.6S194.8,122.5,201.5,112.8z"/>
</svg>
