<?xml version="1.0" encoding="utf-8"?>
<!-- Generator: Adobe Illustrator 23.0.4, SVG Export Plug-In . SVG Version: 6.00 Build 0)  -->
<svg version="1.1" id="Layer_1" xmlns="http://www.w3.org/2000/svg" xmlns:xlink="http://www.w3.org/1999/xlink" x="0px" y="0px"
	 viewBox="0 0 288 288" style="enable-background:new 0 0 288 288;" xml:space="preserve">
<style type="text/css">
	.st0{fill:#E8E6D9;}
	.st1{fill:#907C57;}
	.st2{fill:#756660;}
	.st3{fill:#F3DC86;}
	.st4{fill:#A0958C;}
	.st5{fill:#D4D5CE;}
</style>
<path class="st0" d="M225.2,261.5l-3.9,3.9c0,0,7.8,2.9,8.7,1S225.2,261.5,225.2,261.5z"/>
<path class="st0" d="M176.8,243.5c0,0-2.9,7.3-1,6.8s4.8-3.9,4.8-3.9L176.8,243.5z"/>
<path class="st1" d="M167.6,210.1c0,0-8.7,49.9-67.9,28.1c0,0-25.7-13.6-26.7-17.4c0,0-4.8,31-30.5,25.7s-28.1-23.7-28.1-23.7
	s2.9-18.9,5.3-14.5s6.3,10.7,6.3,10.7l11.1,4.8c0,0-21.3-51.9,3.9-75.6S75,125.8,75,125.8s14.1-2.9,18.4,4.4
	C97.8,137.4,167.6,210.1,167.6,210.1z"/>
<path class="st1" d="M190.8,137.4c0,0,10.2,4.4,14.5,0.5c0,0,4.4-9.7,6.8-11.1c2.4-1.5,1.9-9.7,1.9-9.7s-2.9-5.3-3.4-7.3
	s-10.2-8.2-10.2-8.2l1.5-8.7l4.8-2.9c0,0,5.8,3.4,5.3,6.3c0,0,5.8,1,6.8-2.9c0,0-2.9-1.9-0.5-6.8s3.4-9.2,3.4-9.2s6.8-6.3,10.2-0.5
	s0.5,11.6,0.5,11.6s2.9,8.7,10.7,7.3c0,0,10.2-7.8,10.2,1.5s-7.3,12.6-7.3,12.6s-5.8,14.1-14.5,13.1c0,0-10.2,9.7-10.7,21.3
	c0,0-4.4,4.8-7.8,3.9c0,0-2.4,2.4-10.2,0.5s-17.9,1-17.9,1L190.8,137.4z"/>
<path class="st1" d="M139.9,72.5l1-9.7c0,0-0.5-6.3,4.4-1.5s12.1,16,12.1,16L139.9,72.5z"/>
<path class="st2" d="M101.2,151.5c0,0-41.7,12.1-33.4,59.6c0,0,7.3,13.6,10.2,14.1c0,0-13.1-21.3,2.9-41.7s27.6-19.9,27.6-19.9
	L101.2,151.5z"/>
<path class="st2" d="M144.3,120.9c1.5,2.4,32,32,32,32s8.7-6.8,8.7-3.4l-5.3-34.9l-26.2-0.5L144.3,120.9z"/>
<path class="st3" d="M137.5,70.5c0,0,23.3-1.9,34.4,23.7c0,0,17.9,18.9,16.5,21.3s-3.9,3.9-3.9,3.9s13.1,21.8,1.5,44.1l-0.5-2.9
	c0,0-7.8,15-8.7,12.6s-1-2.4-1-2.4s9.7-16,3.4-49.9l-3.9-2.9l-17.4-0.5c0,0-30.5,20.4-48.5,65.9c0,0,1-24.2,6.8-33.4l-7.8,13.6
	c0,0,5.3-35.9,29.1-45.1l-40.7-12.1c0,0-3.9-24.2-6.3-28.1s1-3.4,1-3.4s-11.1-13.6-3.9-35.4c0,0-11.6-7.8-7.3-19.9l-0.5-7.3
	c0,0,9.2-11.1,12.1-4.4l1.9,4.8c0,0,4.4,2.9,8.7-2.4s4.4-5.3,4.4-5.3s6.8-1.5,7.8,0s12.1,14.5,12.1,14.5l-2.4,10.2l7.8,3.4
	c0,0,5.8,2.4,2.9,5.8s-6.3,5.8-6.3,5.8S109.9,34.2,107,38c0,0-9.7,21.8-5.3,32.5l-1,4.4c0,0,2.4,18.4,3.9,20.4s7.3,0,7.3,0l2.9-5.3
	L95.8,54l3.9-5.8C99.7,48.2,123,58.4,137.5,70.5z"/>
<path class="st3" d="M130.2,182.5c0,0-13.1,6.3-15.5,5.3s-5.3,9.7-5.3,9.7s-4.8-1.5-5.8,5.3c0,0-12.1,9.2-13.6,9.2
	c0,0-11.1,4.8-6.8,19.4S81.3,246,81.3,246s-3.9,4.8-3.9,8.2L67.2,260l-2.4,7.8c0,0-5.8,10.2,1.5,10.2s10.7-1.9,10.7-1.9l1.9-7.8
	c0,0,10.7-10.2,25.2-1.5c0,0,1,10.7,5.8,10.7s6.3-1.5,6.3-1.5l2.9-8.7l-3.4-5.3c0,0-3.4-6.8-6.8-6.8s-3.4-1.9-3.4-1.9l1-4.8
	l-2.9-3.9l-3.9-2.4l2.9-10.2c0,0,10.7-8.2,11.1-9.7s1-2.9,1-2.9s9.2-10.7,11.1-9.2c0,0,7.3,6.3,14.5,6.3c0,0-1.5,8.7,2.9,8.2
	s12.6-8.7,12.6-8.7s8.7-2.4,11.6-5.8l14.1,1c0,0-7.8,13.1-1,16.5s8.7,6.8,8.7,6.8s-0.5,3.9-8.2,3.4c0,0-8.2,5.8-0.5,8.7
	c0,0,5.8,0.5,7.8,0s16,3.9,16,3.9l14.5,2.9c0,0,6.8,3.4,6.3,8.2c0,0,2.9,7.3,10.2,2.4l1.5-8.7c0,0,10.2,4.4,12.6,2.4s1-5.3,1-5.3
	s0-2.9-1.5-3.4s-13.1-3.9-17-10.2l-4.4-0.5c0,0-13.1,2.9-19.4-1.5s-6.3-14.1-6.3-14.1s0.5-8.7,6.3-16.5c0,0-0.5-9.2-4.8-8.7
	s-4.4,1.9-4.4,1.9s-22.3-9.2-24.2-13.6H170c0,0-2.4-5.8-6.8-11.1s-1.9-6.3-1.9-6.3s-17,1-28.1,15L130.2,182.5z"/>
<path class="st4" d="M96.8,106.4c0,0,8.7,3.4,10.7-4.8l-2.9-6.3l-1.5-6.3c0,0,8.7,0.5,10.7,5.3c0,0,17,11.6,18.9,16.5
	c0,0,18.4-2.4,18.4,0c0,0-33,13.1-42.6,52.8l7.8-13.6c0,0-5.8,14.1-5.8,16c0,0-9.2-7.3-8.2-17c0,0-19.4-8.2-17.9-23.7
	s4.4-22.8,4.4-22.8l-1.5-5.8c0,0,5.8-6.8,7.3-4.4C94.4,92.3,98.3,103.5,96.8,106.4z"/>
<path class="st4" d="M165.1,175.2c2.1-0.1,2.3-2.3,7.3-7.8c3.1-3.4,4.9-4.6,5.6-7.7c0.1-0.4,0.3-1.6,0.1-3.6
	c-0.2-2.6-1.3-6-4.7-10.5c-15-19.9-21.8-22.3-21.8-22.3s-28.1,22.3-35.4,46l11.6,7.8c0.8,0.4,1.7,1.1,2.7,2.1
	c1.5,1.6,2.3,3.2,2.6,4.2c15.1-13.4,22.3-14.6,26.2-12.6C161.7,172.1,162.6,175.3,165.1,175.2z"/>
<path class="st0" d="M109.9,277.5c0,0-0.5-10.7,3.9-6.8s-4.8,13.6-4.8,13.6L109.9,277.5z"/>
<path class="st0" d="M67.2,285.7c0,0-5.3-17.4,1.5-15S67.2,285.7,67.2,285.7z"/>
<path class="st0" d="M132.7,37.6c0,0,9.2,6.3,7.3,9.7s-10.7-4.8-10.7-4.8S128.8,35.6,132.7,37.6z"/>
<path class="st5" d="M220.9,87.5c0,0-3.4,5.8-1.5,9.7s6.3-6.8,6.3-6.8S222.8,86.5,220.9,87.5z"/>
<path class="st5" d="M205.4,93.8c0,0,0-6.8-2.9-8.2s0.5,10.7,0.5,10.7L205.4,93.8z"/>
<path class="st5" d="M244.1,104c0,0-5.8,1-5.8,7.3C238.3,111.2,246.1,112.2,244.1,104z"/>
<path class="st0" d="M250.4,252.3c0,0,4.8,6.8,3.9,9.7s-8.7-5.3-8.7-5.3S248.5,250.8,250.4,252.3z"/>
<path class="st5" d="M84.7,25.4h-7.3c0,0-14.1-0.5-9.7,7.8s18.4-1,18.4-1L84.7,25.4z"/>
<polygon class="st5" points="98.3,24.5 113.8,23.5 112.3,29.3 98.3,29.3 "/>
<path class="st5" d="M125.9,23.5c0,0,8.2,1.9,13.6-1s13.1-3.9,13.1-3.9s19.4-1,22.8,7.8s1.9,7.3,1.9,7.3s-4.4,9.2-19.9,7.3
	s-19.9-10.7-19.9-10.7l-13.1-0.5L125.9,23.5z"/>
</svg>
