<?xml version="1.0" encoding="utf-8"?>
<!-- Generator: Adobe Illustrator 23.0.4, SVG Export Plug-In . SVG Version: 6.00 Build 0)  -->
<svg version="1.1" id="Layer_1" xmlns="http://www.w3.org/2000/svg" xmlns:xlink="http://www.w3.org/1999/xlink" x="0px" y="0px"
	 viewBox="0 0 288 288" style="enable-background:new 0 0 288 288;" xml:space="preserve">
<style type="text/css">
	.st0{fill:#EDD688;}
	.st1{fill:#A08550;}
	.st2{fill:#836942;}
</style>
<path class="st0" d="M192.5,23.1c0,0-37.5-31.4-77.4-10.8s-46,57.3-46,57.3s-1.4,9.4,2.8,13.6l18.3,20.6l-8.4,19.2l4.2,6.6
	l-8.9,23.9c0,0,6.6,15,8.4,13.6c0,0,0,30.5,3.3,37.1c0,0,4.7,16.4,9.9,17.4c0,0,11.7,57.3,29.6,60.1s0-1.9,0-1.9l-11.7-85.4
	l-0.5-86.8l20.2-80.7L192.5,23.1z"/>
<path class="st1" d="M102.4,103.8c0,0-1.4,24.9,8.4,34.3c0,0-6.1,74.6,5.2,82.1c0,0-1.4,61,16,61.5c17.4,0.5,32.4-30.5,32.4-30.5
	s34.3-22.5,42.2-100l7-6.1l-3.3-8l8-11.7c0,0-11.7-28.2-17.4-31c0,0,17.8-22.1,15.5-27.7C216.5,66.8,182.2,111.4,102.4,103.8z"/>
<path class="st2" d="M123.5,125.4l30.5,11.3c0,0,59.6-2.8,61.5-15l2.8,3.8l-8,11.7l-55.4,3.8L123.5,125.4z"/>
<path class="st1" d="M88.8,204.3c0,0,9.4,15,11.7,12.2l0.5,10.3C101,226.8,91.6,221.6,88.8,204.3z"/>
<path class="st1" d="M81.8,123.1c0,0,6.1,11.3,17.4,3.3l3.8,4.2l-12.7,5.2C90.2,135.8,79.9,126.4,81.8,123.1z"/>
<path class="st1" d="M71.9,83.2c0,0,20.2,18.3,23,15c0,0-4.2-65.7,30-77.4s60.1-1.9,60.1-1.9s24.4,8.9,31.4,47.9
	c0,0-33.8,49.7-114,37.1l-3.8-1.9l-8.4,1.9C90.2,103.8,72.4,86.5,71.9,83.2z"/>
</svg>
