<?xml version="1.0" encoding="utf-8"?>
<!-- Generator: Adobe Illustrator 23.0.4, SVG Export Plug-In . SVG Version: 6.00 Build 0)  -->
<svg version="1.1" id="Layer_1" xmlns="http://www.w3.org/2000/svg" xmlns:xlink="http://www.w3.org/1999/xlink" x="0px" y="0px"
	 viewBox="0 0 288 288" style="enable-background:new 0 0 288 288;" xml:space="preserve">
<style type="text/css">
	.st0{fill:#7A6B74;}
	.st1{fill:#D0BC99;}
	.st2{fill:#9D8A83;}
	.st3{fill:#B2AFB9;}
	.st4{fill:#F5F4F3;}
	.st5{fill:#F4E8D0;}
	.st6{fill:#AB8590;}
	.st7{fill:#E1C7D1;}
	.st8{fill:#616160;}
	.st9{fill:#BEBDD9;}
	.st10{fill:#E1D5B5;}
	.st11{fill:#C095A0;}
	.st12{fill:#C2AF8E;}
	.st13{fill:#656464;}
</style>
<path class="st0" d="M68.6,217.5l-9.1,6.5l-1.5,9.1L47,240.7c0,0-9.6-1.5-11.6,6.5l-13.1,6c0,0-6.5,16.6,55.4,15.6
	s91.6-36.7,91.6-36.7L68.6,217.5z"/>
<path class="st0" d="M204,38.9c0,0,13.6,10.1,12.6,14.1s-8.6,9.6-8.6,9.6l13.1,14.1l1,3.5l-11.6,1.5c0,0-5-38.2-8.6-41.8
	C198.4,36.4,204,38.9,204,38.9z"/>
<polygon class="st0" points="215,127.5 216.1,147.1 221.1,135.5 216.1,124.9 "/>
<path class="st0" d="M217.6,158.7l5.5,6c0,0,3,13.6,1,19.1l-4.5,9.6C219.6,193.4,216.6,161.7,217.6,158.7z"/>
<path class="st1" d="M135,17.6c0,0-8.1-2-9.1,0c-1,2,0,6.5,0,6.5L135,17.6z"/>
<path class="st2" d="M33.9,169.7l2.5-1.5v-3.5l18.1-11.6c0,0,8.1,0.5,11.1,4.5c0,0,16.1-4,21.1,0c0,0,7,63.9,16.6,72.5
	c0,0-17.1-18.6-48.3-13.1c0,0-17.1,11.6-30.7-5s-10.1-24.2-10.1-24.2L33.9,169.7z"/>
<path class="st0" d="M37.4,172.7c0,0,33.7,4.5,13.1,38.8c0,0-12.6,25.2-36.2-23.7C14.3,187.8,21.8,166.7,37.4,172.7z"/>
<path class="st0" d="M96.6,99.2c0.2,1.4,0.7,6.7-2.7,11.8c-4.2,6.3-11.1,7.3-12.2,7.4l-18.6-9.6c0,0,3.5,9.1,7.5,10.1
	c0,0,5.5,0.5,7.5,0.5l6,1.5l27.2-1.5c1-2.1,2.7-4.9,5.3-7.7c3.5-3.8,7.3-5.9,9.7-7.1c-3.2-2.3-6.4-4.5-9.5-6.8
	c2.2,0.8,4.7,0,5.9-1.9c1.1-1.7,1-4-0.3-5.6l-3.5-4l-8.1,3l-2.5-2C104.4,91.2,100.5,95.2,96.6,99.2z"/>
<path class="st3" d="M225.2,263.3c0,0,7,5.5,6,8.6c-1,3-13.1,5.5-13.1,5.5S225.7,266.9,225.2,263.3z"/>
<path class="st2" d="M125.5,26.3c0,0-15.6,7-8.1,15.1c0,0,2.5,7.5,12.1,4c9.6-3.5,9.6-3.5,9.6-3.5s11.1-2,32.2,9.1c0,0,6.5,3,8.1,3
	c0,0-6,26.7-50.3,21.6l1.5-3c0,0-4.5,1-4.5,3c0,2,2,4.5,2,4.5s-15.1,0-16.6,2l4.5-9.6l-6.5-24.2c0,0-10.6-4.5-19.6,2.5
	c0,0-12.6,0.5-16.6,14.6c0,0-15.1,33.2-13.1,38.8c2,5.5,2,5.5,2,5.5l16.1,9.6c3.3-0.2,7-1,10.7-2.8c15.8-7.5,19.1-26.8,19.5-29.5
	l2.5,2l8.1-3l3.5,4l-5.5,7.5l7,6.5c0,0-11.1,10.1-12.6,15.1c-1.5,5-3.5,6-3.5,6s29.2-28.7,55.9-20.1c0,0,36.2,5.5,33.2,73.5l4.5,6
	c0,0-7,34.7-37.7,46.8l-3,12.6c0,0-2.5,10.6,10.6,18.6l2.5,1l9.6,11.6c0,0,12.6,6,20.1,5.5c7.5-0.5,13.6-3,13.6-3l9.1-9.1v-5.5
	c0,0,3-7.5,3-9.6c0,0,7.5-7.5,7.5-18.1c0-10.6-2.5-15.6-2.5-15.6l-5-4c0,0-5.5-17.1-9.6-22.6l-4.5-65.9c0,0,18.6,1.5,29.2,9.6
	c0,0,1.5,5.5,10.1,5s9.1-2,9.1-2l3-5.5c0,0,11.6-4,7.5-31.2c-4-27.2-2-31.2-2-31.2s1.5-8.6-7-11.1l-7-2.5c0,0-12.1-8.6-16.6-7.5
	l-15.1,17.1l-4,12.1l-11.6,1.5c0,0-2.5-32.7-8.6-41.8l-28.2-20.1L125.5,26.3z"/>
<path class="st3" d="M14.3,194.2c0,0-9.1-7.5-7.5-10.6c1.5-3,11.6-1.5,11.6-1.5s-3.5-26.2,0-26.2S39.4,173,39.4,173
	s-11.6,14.1-18.1,9.6C21.3,182.6,18.8,193.7,14.3,194.2z"/>
<path class="st3" d="M41.4,175.7c0.7-2,2.7-6.2,7.2-9.1c1.6-1,3.1-1.6,4.4-2c0.7,1.5,1.5,3.4,2,5.7c1.1,5.2,0.2,9.5-0.5,12
	C54.5,182.2,41.4,178.7,41.4,175.7z"/>
<path class="st4" d="M175.3,266.3c0,0-6.5,9.6-6,11.6c0.5,2,14.1-2.5,14.1-2.5S180.3,267.9,175.3,266.3z"/>
<path class="st4" d="M187.4,277.8c0,0,10.1-10.6,20.1-7c10.1,3.5,11.6,7.5,11.6,7.5s-5.5,8.1-11.6,7.5
	C201.5,285.4,187.4,277.8,187.4,277.8z"/>
<path class="st4" d="M80.7,64c0,0,5-13.6,10.1-8.6c5,5,7,11.1,7,11.1s1.5,7.5-1.5,9.1C96.3,75.6,79.2,66.1,80.7,64z"/>
<path class="st4" d="M101.3,55.5c0,0,3-10.6,8.1-7c5,3.5,7.5,6.5,7.5,6.5s3.5,5,1,8.1c0,0,7.5,8.1-0.5,12.6l-9.1,0.5l1.5-5l-2-0.5
	C107.9,70.6,98.3,61,101.3,55.5z"/>
<path class="st4" d="M265.4,67.1c0,0,0-11.6-10.1-7.5c-10.1,4-4.5,20.6-4.5,20.6S266.9,71.6,265.4,67.1z"/>
<path class="st4" d="M248.8,60c-0.1-1.6-2.5-10.6-10.1-8.6c-7.5,2-9.1,16.1-9.1,16.1s-7.5-2-8.1,1.5s0.5,11.1,0.5,11.1
	s8.6,6.5,10.6,2.5c2-4-0.5-5.5-0.5-5.5l2.5,1.5C234.7,78.6,249.3,66.1,248.8,60z"/>
<path class="st5" d="M175.3,33.3c0,0,2-17.1,18.1-18.1s28.7,0,28.7,0s2,4-2.5,10.1s-21.6,16.6-21.6,16.6l-6,2
	C191.9,43.9,182.8,31.8,175.3,33.3z"/>
<path class="st1" d="M178.3,32.3c0,0,20.6-20.1,40.8-14.1c0,0-11.6,20.1-25.2,23.1C193.9,41.4,190.4,30.3,178.3,32.3z"/>
<path class="st6" d="M129.5,45.4c1.2,2.7,2.6,6.6,3,11.5c0.8,8.7-1.8,15.5-3.4,18.8c14.9-3.9,29.8-7.8,44.6-11.7
	c0,0,5.5-5.5,5.5-10.1c0,0-27.2-14.1-40.3-12.1L129.5,45.4z"/>
<path class="st7" d="M129,75.6c0,0,9.1-16.6,24.2-15.6c15.1,1,20.6,4,20.6,4S169.3,78.6,129,75.6z"/>
<path class="st4" d="M166.7,48.1c0,0-0.5,8.6,2.5,8.1c3-0.5,2-6,2-6L166.7,48.1z"/>
<path class="st4" d="M130.8,44.8c0.6,7,1.4,8.5,2,8.6c0.7,0.1,1.8-1.4,3.7-9.8C134.6,43.9,132.7,44.3,130.8,44.8z"/>
<path class="st8" d="M184.9,17.2c0,0-28.2-22.1-63.4,11.1c0,0,17.6-5.5,21.1,3.5c0,0,22.6-9.6,34.2-6L184.9,17.2z"/>
<path class="st5" d="M93.3,153.1c0,0,11.6-48.8,59.9-50.3c48.3-1.5,43.8,76,43.8,76l4.5,6c0,0-8.2,34.8-31.6,44.8
	c-1.9,0.8-4,1.5-6.1,2l5.5,0.5l-8.6,12.1c0,0-33.2,19.1-57.4-14.1c0,0-8.6-11.7-8.6-16.6c0-2.5-21.1-19.1-8.1-55.9
	C86.7,157.6,90.2,152.1,93.3,153.1z"/>
<path class="st9" d="M126.5,124.9c0,0-4.5,13.1,5,19.6l-0.5,2.5c0,0-22.1-1-24.7,3.5l1,2.5l17.1,1l31.2,6.5c0,0,9.6-2-2-11.6l-3-2
	c0,0,6.5-5.5,4.5-16.6C153.1,119.4,126,119.9,126.5,124.9z"/>
<path class="st10" d="M124.5,154.1c0,0,7.5-10.1,11.1-7.5c3.5,2.5,6.5,11.1,6.5,11.1L124.5,154.1z"/>
<path class="st9" d="M153.7,149.1c0,0-15.6,1-15.6,8.1l17.6,3.5L153.7,149.1z"/>
<path class="st11" d="M131.5,132.5c0,0-0.5,9.6,1.5,7.5C135,138,133.5,132.5,131.5,132.5z"/>
<path class="st12" d="M151.1,126.4c0,0,8.6-1.5,9.6,2c1,3.5-6.5,10.6-6.5,10.6S155.2,128,151.1,126.4z"/>
<path class="st13" d="M152.8,126.2c-1.2-1.6-3.4-4-6.6-5.7c-1.2-0.7-9.4-5-15.5-0.9c-2.2,1.5-3.5,3.7-4.2,5.4
	c1.1-0.3,2.5-0.6,4.2-0.6c3.2,0,5.6,0.9,7,1.6c2.8-0.7,4.9-0.6,6.5-0.3c2.1,0.4,4.1,1.2,7.1,0.8
	C151.9,126.4,152.4,126.3,152.8,126.2z"/>
<path class="st4" d="M106.3,150.6c0,0-3,4-1,4.5l2.9-2.7L106.3,150.6z"/>
<path class="st4" d="M111.9,151.5c0,0-3.2,0.6-1.5,3.7l3.4-2.1C113.7,153,113,151.2,111.9,151.5z"/>
<path class="st4" d="M141.1,153.9c0,0-3.1,2.3-1.8,4.9l2.9-1.7C142.1,157.1,142.5,153.6,141.1,153.9z"/>
<path class="st4" d="M148.4,156.1c0,0-3.6,1.2-2.9,4.2l4.1-1.3C149.6,158.9,149.9,156,148.4,156.1z"/>
</svg>
