<?xml version="1.0" encoding="utf-8"?>
<!-- Generator: Adobe Illustrator 23.0.4, SVG Export Plug-In . SVG Version: 6.00 Build 0)  -->
<svg version="1.1" id="Layer_1" xmlns="http://www.w3.org/2000/svg" xmlns:xlink="http://www.w3.org/1999/xlink" x="0px" y="0px"
	 viewBox="0 0 288 288" style="enable-background:new 0 0 288 288;" xml:space="preserve">
<style type="text/css">
	.st0{fill:#94909C;}
	.st1{fill:#A9A0A1;}
	.st2{fill:#845A59;}
	.st3{fill:#E8AE91;}
	.st4{fill:#F5EFED;}
	.st5{fill:#111213;}
	.st6{fill:#E7B89F;}
	.st7{fill:#58514F;}
</style>
<path class="st0" d="M185.2,210.5c0,0,1.4,1.4,4.7,0.9c3.3-0.5,19.6-3.7,19.6-3.7l12.6-3.3c0,0,1.9,2.8,4.7,2.8
	c2.8,0,13.5,17.7,13.5,17.7s3.3,2.3,4.7,1.9c1.4-0.5,5.1,0,9.3-1.9s7,0.9,7,0.9l-6.5-6.1l-5.6,0.9c0,0-1.9-3.7-5.1-6.1
	c-3.3-2.3-19.1-17.7-19.1-17.7l-22.4,7.5l-14,2.8L185.2,210.5z"/>
<path class="st0" d="M87.6,188.1l-7.5-6.1l-0.9-1.9c0,0-14,13.5-14,18.2c0,0-8.4,12.1-10.3,12.1c-1.9,0-2.8,4.7-2.8,4.7
	s-4.2-0.9-4.2,3.3c0,0,4.7,1.9,6.1,0.9c0,0,7.5,1.4,9.8-2.8s8.4-14.9,8.4-14.9l6.5-12.6l3.7,3.7L87.6,188.1z"/>
<path class="st1" d="M91.4,201.2c0,0-16.3-2.8-18.2-5.6c-1.9-2.8-10.3-6.5-10.3-6.5l-5.6,2.8l-4.2,0.9c0,0-25.7,24.3-31.3,24.7
	c-5.6,0.5-3.7,4.2-3.7,4.2s-8.9-3.7-10.3,4.7c0,0,5.1-0.9,7,1.9c1.9,2.8,6.5,1.9,6.5,1.9l4.2-2.3c0,0,3.7-0.9,5.1-4.2
	s27.5-21.9,27.5-21.9h14l21.5,10.3c0,0,4.7,2.8,7.5,0.9C104,211,91.4,201.2,91.4,201.2z"/>
<path class="st1" d="M193.6,197l43.9-7l23.3,21c0,0,7.9,4.2,7,8.4c0,0,5.6,0,8.4-0.9s7,8.9,7,8.9s-4.7-3.7-9.3-0.5
	c-4.7,3.3-10.3,0-10.3,0s-5.1-1.9-8.9-4.7c-3.7-2.8-23.3-26.6-26.1-28c-2.8-1.4-26.1,10.3-26.1,10.3s-13.1,5.1-14,2.8
	C187.5,204.9,193.6,197,193.6,197z"/>
<path class="st2" d="M178.2,151.7c0,0,14.9-9.3,15.4-14.9c0.5-5.6,5.1,5.6,5.1,5.6l-4.2,5.1c0,0-10.3,11.7-10.3,13.5
	S178.2,151.7,178.2,151.7z"/>
<path class="st1" d="M250.5,161.1c0,0,7,7.9,3.3,14s-14.9,1.9-14.9,1.9L250.5,161.1z"/>
<path class="st3" d="M47,186.3H41c0,0-14.9-8.4-15.4-12.1c0,0,0.5-27.1-3.7-33.6c-4.2-6.5,23.3-28.9,23.3-28.9s17.3-0.9,24.7,5.1
	l-6.1,1.9c0,0-8.9,10.7-2.3,24.3c0,0,8.4,6.5,7.5,16.3s-11.7,21.9-11.7,21.9L47,186.3z"/>
<path class="st3" d="M95.1,168.1c0,0,11.2-6.1,9.3-9.8c-1.9-3.7-6.5-9.3-6.5-9.3s-7.9-7.5-1.9-7c0,0,14.9,10.7,17.3,8.4
	c2.3-2.3-1.4-6.5-1.4-6.5s-11.2-21.5-6.5-20.1c4.7,1.4,16.8,17.3,16.8,17.3s7,7,4.2-5.6c-2.8-12.6-4.2-16.8-4.2-16.8
	s0.5-6.1,4.2-1.4c3.7,4.7,10.7,23.3,10.7,23.3s6.5,1.9,8.4-4.2s7.9-21,7.9-21s7.5-4.2,6.1,2.3c-1.4,6.5-4.7,21.5-4.7,21.5
	s0,9.3,5.1,2.8c5.1-6.5,12.1-15.4,12.1-15.4l4.7,9.3c0,0-5.1,7-4.7,9.3c0.5,2.3,0,8.4,0,8.4l-1.4,16.3l0.5,12.6l-20.1,5.1l-38.7,2.3
	l-19.1-8.4l-1.4-11.7L95.1,168.1z"/>
<path class="st4" d="M87.6,188.1c0,0-4.2-21.9,6.1-29.4c0,0,0.9,0,1.4,4.7c0,0,3.7,19.1,7.9,19.1c0,0,2.8-5.6,4.2-2.8
	c1.4,2.8,2.3,4.2,2.3,4.2s6.1-7.9,7.5-5.1s0.5,6.5,3.3,7c2.8,0.5,16.8,0.9,20.5-1.4c3.7-2.3,3.7-8.4,3.7-8.4s7.5,3.3,7.9,6.1
	l2.8-6.5c0,0,5.1,2.8,5.6,5.6c0,0,14.9-8.9,10.3-33.1c0,0,2.3-4.7,10.3,6.1s8.4,16.3,8.4,16.3l1.9,1.9l1.9,24.7
	c0,0-5.6,25.7-40.6,19.6c0,0-24.3,2.3-28,0c0,0-18.2,4.7-28.5-7.5s-11.7-11.7-11.7-11.7s-17.7,8.4-21,6.1c0,0-6.1-1.4-7-5.1
	c-0.9-3.7-6.5-9.3-6.5-9.3s-7.9-5.6-1.9-9.3s8.9-2.3,8.9-2.3l0.5,7.5c0,0,2.8,9.8,6.5,10.3c3.7,0.5,16.3-4.2,16.3-4.2
	S85.8,185.3,87.6,188.1z"/>
<path class="st5" d="M44.7,133.1c0,0,4.2-6.5,13.5,7c0,0-5.1-14,3.3-21.9C61.5,118.1,46.6,120.9,44.7,133.1z"/>
<path class="st6" d="M185.6,64c0,0-21.9,30.8-19.1,39.2s3.7,12.1,3.7,12.1l0.9,17.7c0,0,12.6,15.9,18.7,15.4l3.7-11.7
	c0,0,3.7,3.7,2.8,7.9s-2.3,9.3-2.3,9.3s-0.5,10.3,1.9,14.5c2.3,4.2,2.3,5.6,2.3,5.6l-4.7-3.7c0,0-5.1,7.5-6.1,13.1
	c-0.9,5.6,7.9,14.9,7.9,14.9s11.2,10.3,16.3,9.3c5.1-0.9,22.9-15.4,22.9-15.4s13.1-16.3,15.9-31.3s2.8-26.6,2.8-26.6
	s0.5-5.6-12.1-14c0,0-4.7-21.9-9.3-27.1c-4.7-5.1-15.4-11.2-21-21c-5.6-9.8-10.7-10.7-10.7-10.7S193.6,58.9,185.6,64z"/>
<path class="st7" d="M196.4,134.9c0,0,11.7-14,19.1-8.4c7.5,5.6,10.3,13.1,10.3,13.1s-3.7,20.5,0.5,24.7c0,0-14.5,27.5-28,9.8
	c0,0,4.2-3.7,2.8-6.5c-1.4-2.8-2.3-6.1-2.3-6.1s-0.9-8.4,0.5-14.9C200.6,140.1,196.4,134.9,196.4,134.9z"/>
</svg>
