<?xml version="1.0" encoding="utf-8"?>
<!-- Generator: Adobe Illustrator 23.0.4, SVG Export Plug-In . SVG Version: 6.00 Build 0)  -->
<svg version="1.1" id="Layer_1" xmlns="http://www.w3.org/2000/svg" xmlns:xlink="http://www.w3.org/1999/xlink" x="0px" y="0px"
	 viewBox="0 0 288 288" style="enable-background:new 0 0 288 288;" xml:space="preserve">
<style type="text/css">
	.st0{fill:#D7CFAB;}
	.st1{fill:#77768D;}
	.st2{fill:#ACAECF;}
	.st3{fill:#BB8D9C;}
	.st4{fill:#E9E4E0;}
</style>
<path class="st0" d="M13.6,46.3c0,0,6.2-19.7,18.6-17.4c0,0,16.3-2.8,19.1,9c0,0,10.1,3.9,10.1,7.3c0,0,16.3,9,2.8,25.9
	c0,0,7.9,7.9,2.2,17.4l8.4,11.8l-14.6-9.6l2.8,4.5l-12.4-9c0,0-6.2,10.7-15.2,3.4c0,0-8.4,10.7-21.9,3.4S5.1,71.6,5.1,71.6
	S1.2,53.1,13.6,46.3z"/>
<path class="st0" d="M218.9,99.2l-3.9,3.9l5.1,1.1l-14.1,7.9l19.7-6.7c0,0,5.1,14.1,14.6,12.9c9.6-1.1,13.5-7.3,13.5-7.3
	s15.7,3.4,20.2-4.5s1.7-16.3,1.7-16.3s11.8-9.6,3.9-20.2c-7.9-10.7-12.9-6.7-12.9-6.7s-5.1-11.8-16.3-7.3c0,0-15.2-11.2-22.5,1.1
	c0,0-11.2,6.2-10.1,16.9C217.7,73.9,204.8,87.9,218.9,99.2z"/>
<path class="st1" d="M126.1,232.1c0,0,13.5,13.5,23.6-1.7L126.1,232.1z"/>
<path class="st1" d="M194.7,95.8c0,0,25.9,2.2,16.3,28.7L194.7,95.8z"/>
<path class="st2" d="M83.3,90.2c0,0-18,0-18,20.8c0,0-11.2,26.4-10.1,34.9c0,0-17.4,15.2,3.9,29.8c0,0,7.9,30.4,21.4,36
	c0,0-3.4,16.9,19.7,14.1c0,0,41.1,18.6,77.6-6.2c0,0,16.9,5.1,18.6-13.5c0,0,7.3-9,7.9-12.9c0,0,24.2-2.8,11.2-25.9
	c0,0,5.1-48.4-23.1-73.1s-46.1-21.9-46.1-21.9s-14.6-27-30.9,3.9C115.4,76.1,91.2,78.9,83.3,90.2z"/>
<path class="st3" d="M101.3,124.5c0,0,80.4-3.4,86.1,0C187.4,124.5,151.4,167.8,101.3,124.5z"/>
<path class="st4" d="M101.3,124.5c0,0,4.5,9,6.2,8.4c1.7-0.6,4.5-9,4.5-9L101.3,124.5z"/>
<path class="st4" d="M178.9,122.4c0,0,0,8.4,5.1,8.4s3.4-7.3,3.4-7.3L178.9,122.4z"/>
<path class="st4" d="M137.9,157.1c-0.5,0.3-6.1,3.9-6.3,10.3c-0.2,5.6,3.7,10.9,9.7,12.8c0,0,2.2,5.6,6.8,2.8c0,0,5.1,5.6,8.4,0
	c0.8,0.3,4.5,1.3,8.3-0.7c2.3-1.2,3.5-2.9,4.1-3.8c0.7-0.5,6.1-4.8,5.6-10.7c-0.4-5.6-5.7-8.7-9-10.7c-6-3.6-12-3.5-14.6-3.4
	C144.9,153.9,140.3,155.9,137.9,157.1z"/>
<path class="st4" d="M128.3,179.1c0,0,21.4,12.9,23.1,12.4c1.7-0.6,16.9-5.6,20.2-10.1c0,0,9.6-10.7,14.1-4.5
	c4.5,6.2-4.5,10.1-4.5,10.1l-3.9,0.6c0,0-13.5,9-15.2,9c0,0,2.2,3.9,6.7,3.4c4.5-0.6,9-0.6,9-0.6s9,4.5-3.9,11.2
	c0,0-5.1,2.2-10.7-2.8c-5.6-5.1-10.7-5.1-10.7-5.1l-22.5,9c0,0-9,9-13.5-2.2c-4.5-11.2,10.7-6.7,10.7-6.7l14.1-6.2l-14.1-7.3
	c0,0-14.6-5.1-9.6-11.8C122.7,170.6,128.3,179.1,128.3,179.1z"/>
<ellipse class="st2" cx="153.6" cy="167.8" rx="12.4" ry="5.6"/>
<path class="st0" d="M247,134.6c0,0-8.4,1.7-5.1,6.2c0,0,5.6,5.6,7.9-0.6C252.1,134.1,247,134.6,247,134.6z"/>
<path class="st0" d="M186.2,44.6c0,0-12.4-7.3-15.7,9.6c0,0-1.7,9,4.5,10.7c0,0,3.9,10.1,11.8,6.2c0,0,9,1.1,12.4-9
	c0,0,2.2-7.3,0.6-11.2C199.7,50.8,198.6,41.8,186.2,44.6z"/>
<path class="st0" d="M32.7,105.9c0,0,12.4-4.5,13.5,4.5c0,0,6.2,9-5.1,15.2c0,0-6.7,10.7-14.6-1.1C26.5,124.5,13.6,111,32.7,105.9z"
	/>
<path class="st0" d="M95.7,252.7c0,0,0-6.7-9.6-4.5s0.6,9.6,0.6,9.6s7.9,5.6,6.7-1.7L95.7,252.7z"/>
<path class="st0" d="M47.3,211.7c0,0-10.1-5.6-16.9,1.7s-3.4,18-3.4,18s-9.6,12.4,3.4,19.7c12.9,7.3,12.4,1.7,12.4,1.7
	s8.4,7.3,16.9,3.4c8.4-3.9,6.2-9.6,6.2-9.6s12.9-9.6,0.6-20.2c0,0-3-3.1-4.5-6.2C61.4,219,63.6,212.8,47.3,211.7z"/>
</svg>
