<?xml version="1.0" encoding="utf-8"?>
<!-- Generator: Adobe Illustrator 23.0.4, SVG Export Plug-In . SVG Version: 6.00 Build 0)  -->
<svg version="1.1" id="Layer_1" xmlns="http://www.w3.org/2000/svg" xmlns:xlink="http://www.w3.org/1999/xlink" x="0px" y="0px"
	 viewBox="0 0 288 288" style="enable-background:new 0 0 288 288;" xml:space="preserve">
<style type="text/css">
	.st0{fill:#BA939A;}
	.st1{fill:#ECB6BA;}
	.st2{fill:#B0AFB9;}
	.st3{fill:#F4F3F4;}
	.st4{fill:#F4EAC8;}
	.st5{fill:#B7AC99;}
	.st6{fill:#695D71;}
	.st7{fill:#DFC1CB;}
</style>
<path class="st0" d="M54,244.6c0,0,3.4,5.1,6.7,5.6l-2.2,5.1l17.4,9.6c0,0,20.8-4.5,25.3-7.9c4.5-3.4,6.2-5.1,6.2-5.1s0-9,3.4-11.8
	c3.4-2.8-32.1-31.5-32.1-31.5L54,244.6z"/>
<path class="st0" d="M174.4,75.8c0,0,21.9-35.4,73.1-19.1s36,102.9,36,102.9s-24.2,65.2-14.6,81c0,0-9,13.5-27.6-19.7
	c0,0-12.9,15.2-14.6,14.6C225,235,174.4,75.8,174.4,75.8z"/>
<path class="st1" d="M79.3,92.7c0,0-3.4-9-14.1-16.9s2.2-19.7,2.2-19.7s11.8-38.2,43.3-39.4c31.5-1.1,48.9,14.1,48.9,14.1
	s18,25.3,14.6,45L189,91.6c0,0,61.9-7.3,69.2,32.1c0,0-1.1,23.1-18.6,21.4c0,0-29.8-14.6-30.9-11.8c0,0,10.1,18,7.3,37.1
	c0,0,33.2,36-0.6,95.6l-11.2,2.2l-30.4-7.3L162,246.2c0,0-57.9,11.8-82.7-26.4s-19.7-95.6-19.7-95.6s-11.2,1.7-18.6,5.6
	c-7.3,3.9-16.3-1.1-16.3-1.1s-22.5-11.8,9.6-33.7C34.3,94.9,50.1,84.8,79.3,92.7z"/>
<path class="st2" d="M58.5,255.2c0,0-19.7,5.6-1.7,9.6c18,3.9,19.1,0,19.1,0S83.8,258.1,58.5,255.2z"/>
<path class="st3" d="M173.8,260.9c0,0-10.7,9,18.6,11.8c0,0,24.7-2.8-1.7-13.5C190.7,259.2,173.8,255.8,173.8,260.9z"/>
<path class="st3" d="M24.7,128.7c0,0,6.2-4.5,8.4,0c0,0-1.7,5.1-4.5,3.9C25.9,131.5,24.7,128.7,24.7,128.7z"/>
<path class="st3" d="M228.4,138.8c0,0,11.8,1.1,11.2,6.2c0,0-3.9,3.4-5.6,2.8C232.3,147.2,228.4,138.8,228.4,138.8z"/>
<circle class="st4" cx="185.1" cy="223.7" r="19.7"/>
<circle class="st1" cx="184.4" cy="223.5" r="13.9"/>
<path class="st4" d="M119.2,123.1c0,0,28.7,1.7,39.9-24.2c0,0,21.9,47.8-27,63.6s-57.9-20.8-57.9-20.8L119.2,123.1z"/>
<path class="st4" d="M91.7,173.1c4.9,2.2,20.3,8.3,39.2,3.4c13.3-3.4,22-10.7,26.1-14.7c2.7-3,5.8-6.9,8.4-11.8
	c6.4-12,7-23.5,6.8-29.8c6.8,25.2-0.1,51.5-18,68.1c-18.2,16.8-40.6,17-46.1,16.9c-18-4.7-30.6-13.2-30.9-21.9
	c0-0.8-0.2-6.5,3.8-9.5C85.2,170.6,91.1,172.9,91.7,173.1z"/>
<path class="st5" d="M82.1,208.6c0,0,37.7,34.9,78.2-7.3c0,0-4.5,19.1-2.2,21.9c0,0-29.2,34.3-78.7-3.4L82.1,208.6z"/>
<path class="st5" d="M141.2,247.4c0,0,15.2-3.4,17.4-9.6c0,0-0.6,5.1,3.4,8.4C162,246.2,142.9,248.5,141.2,247.4z"/>
<path class="st6" d="M83.2,89.3c0,0,2.2-9.6-3.4-16.3c0,0,24.7,11.8,52.3-4.5c0,0,16.9-1.1,20.2,6.2c3.4,7.3-3.9,22.5-3.9,22.5
	L83.2,89.3z"/>
<path class="st7" d="M107.4,88.2c0,0-14.6-7.9-24.2,1.1s-23.6,34.9-23.6,34.9s-63,59.1-53.4,96.2s39.4,30.9,39.4,30.9
	s31.5,10.1,46.1-78.2c0,0,30.9-58.5,36.6-59.6c0,0,20.2-7.3,20.2-16.3s-16.9-12.9-16.9-12.9S114.7,84.8,107.4,88.2z"/>
</svg>
