<?xml version="1.0" encoding="utf-8"?>
<!-- Generator: Adobe Illustrator 23.0.4, SVG Export Plug-In . SVG Version: 6.00 Build 0)  -->
<svg version="1.1" id="Layer_1" xmlns="http://www.w3.org/2000/svg" xmlns:xlink="http://www.w3.org/1999/xlink" x="0px" y="0px"
	 viewBox="0 0 288 288" style="enable-background:new 0 0 288 288;" xml:space="preserve">
<style type="text/css">
	.st0{fill:#8AA0A7;}
	.st1{fill:#AEC7D0;}
	.st2{fill:#AD839C;}
	.st3{fill:#D1B0C3;}
	.st4{fill:#A7A19B;}
	.st5{fill:#D8D3CD;}
</style>
<path class="st0" d="M215.6,90.1c1.5,0.8,3.1,1.7,4.6,2.5c2.8,1.5,5.6,3.1,8.5,4.6c1.9,1.5,3.8,3.1,5.7,5c3.2,3,5.9,6,8.1,8.8
	c0,0,7.9,2.4,8.7,5.9l3.6,6.3c0,0-1.2,7.1,0.8,11.1c2,4-2,7.1-2,9.5c0,2.4-5.9,4-5.9,4s-13.8,4-14.6,1.2c0,0-10.3,0.4-7.5-6.3
	c0,0-7.1-2.8-2-13.8c0,0-7.1-9.5-16.2-11.5l2.8-26.9L215.6,90.1z"/>
<path class="st0" d="M113.6,162.1c0,0-13.4,7.5-21.8,4s-1.2,11.9-1.2,11.9l25.7,30.1c0,0,11.1,9.1,29.7-2.8S113.6,162.1,113.6,162.1
	z"/>
<path class="st1" d="M216,64c0,0,5.9,15-4.7,35.2c-0.6,2.9-0.4,5.2-0.2,6.8c0.4,2.4,1,3,1,5.1c0,0.8,0,3.7-1.6,5.9
	c-1.9,2.6-5.9,3.6-9.9,2.8c-4.7-1.1-7.8-2-9.9-2.8c-0.6-0.2-1.7-0.7-3.2-0.4c-1.5,0.3-2.6,1.3-3.2,2c-1.1,1.8-1.6,3.3-2,4.4
	c-0.5,1.5-0.5,2.5-1.4,3.5c-1.1,1.3-2.5,1.6-2.5,1.6s2.8,22.5,4.7,26.9c0,0,17.4,41.5-4,71.2c-21.4,29.7-17,34.8-17,34.8
	s11.5,13.4,2,17.8c-9.5,4.4-32,1.6-32,1.6s-11.5,0-11.1-10.3c0.4-10.3,17.4-36,17.4-36s9.5-20.6,9.1-25.7c0,0-15-11.9-28.1-3.2
	c0,0-8.7,28.1-14.6,27.3c0,0-13.8,8.7-28.5-14.2c0,0,0.8-9.5,3.2-10.7c0,0-8.7-6.7,0.8-17.4c9.5-10.7,31.6-32.8,31.6-32.8
	s6.3-12.3,3.2-17.4c0,0-13.8,2.4-16.6,5.1c-2.8,2.8-8.3,0-8.3,0s-8.3-4.7-3.6-14.6c0,0-15.4,5.1-21-1.6c0,0-12.3,2-19.4-6.3
	c0,0-13.1-1.2-15.4-11.9C28.5,100,38,91.3,38,91.3s3.2-14.2,15.8-13.1c0,0,6.7-13.8,21.8-11.1c0,0,2.8-0.4,6.7-3.2
	c0,0,11.1-12.7,23.3,0.8c0,0,10.7,4.4,11.1,10.7c0.4,6.3,4.7,7.9,4.7,7.9s4.7,2,5.1,3.2l2.4-0.4c0,0-4-4.7,3.2-17.4
	c7.1-12.7,17.4-27.3,17.4-27.3l10.3-9.9L216,64z"/>
<path class="st2" d="M184.8,117c-12,3.7-16,4.5-16.2,4c-0.1-0.2,0.2-0.5,0.4-0.5c0.5,0.1,0.1,4-0.8,10c0,0,11.5-1.6,13.1-9.1
	C182.4,119.9,183.6,118.4,184.8,117z"/>
<path class="st3" d="M177.6,118.6c0,0,0.4,17-17.4,11.5c-17.8-5.5-12.7-30.1-12.7-30.1S163,122.9,177.6,118.6z"/>
<path class="st4" d="M179.6,18.5c0,0,8.3-10.3,14.2-4s8.3,11.1,8.3,11.1s11.1-6.7,12.7,0.4c0,0,15.8,30.8-10.3,55l-1.6-6.3l-4.4,4.7
	l-5.1-8.3L179.6,18.5z"/>
<path class="st5" d="M149.6,41.5c0,0,8.7-32.4,22.1-28.1s22.1,30.8,22.1,30.8s8.3,24.5-5.5,32.8c0,0-11.5-43.1-28.9-39.2
	C159.5,37.9,155.5,37.5,149.6,41.5z"/>
</svg>
