<?xml version="1.0" encoding="utf-8"?>
<!-- Generator: Adobe Illustrator 23.0.4, SVG Export Plug-In . SVG Version: 6.00 Build 0)  -->
<svg version="1.1" id="Layer_1" xmlns="http://www.w3.org/2000/svg" xmlns:xlink="http://www.w3.org/1999/xlink" x="0px" y="0px"
	 viewBox="0 0 288 288" style="enable-background:new 0 0 288 288;" xml:space="preserve">
<style type="text/css">
	.st0{fill:#A4A2A3;}
	.st1{fill:#B2AEB2;}
	.st2{fill:#ACB4CC;}
	.st3{fill:#E69FA5;}
	.st4{fill:#ECDF9C;}
	.st5{fill:#4D4B61;}
	.st6{fill:#343436;}
	.st7{fill:#916878;}
	.st8{fill:#B6A3B4;}
	.st9{fill:#F1F1F8;}
</style>
<polygon class="st0" points="108.7,28.1 108.2,24.4 112.4,21.7 113.8,19.3 124,14.7 118.9,32.3 "/>
<path class="st1" d="M162.3,28.7l-5.6-17.1c0,0-4.2-7.4-31.9,2.3l-6,1.9c0,0-3.7,6,0.9,15.7l40.7-2.3L162.3,28.7z"/>
<path class="st2" d="M111,67.5l2.3-1.4c0,0-19.9-6.5-14.3-14.3c0,0-15.7-4.2-1.4-20.4c0,0,8.8-5.6,20.8-1.9c0,0,2.3-15.7,28.2-8.8
	c0,0,16.7,4.6,18.5,14.8s5.1,21.3,5.1,21.3s9.3,8.3,12,9.3c0,0,25-6,36.5,14.8c0,0,19.4,12,19.9,14.8c0,0,16.7,5.1,16.2,12.5
	s-1.9,11.6-1.9,11.6s0.5,15.7-11.1,18c0,0-20.8,13.9-32.4,14.3l-3.2,3.2c0,0,2.3,7.9-9.3,8.3l8.3,17.6c0,0,3.7,6.9,3.2,13
	s8.3,13,8.3,13s11.1,9.7,6.9,27.3l6.5,8.8c0,0,0,10.6,5.1,14.3l2.8,4.2c0,0,3.2,6,6,6.9c0,0,1.9,11.6-7.4,7.4c0,0-7.4,4.6-11.1,1.4
	c0,0-6.5,3.7-8.8-0.5c0,0-5.6,5.1-10.6,0l-3.2-1.9c0,0-4.2,6.5-9.7,4.2c-5.6-2.3-3.2-11.6-3.2-11.6l4.2-1.9c0,0,6.5-5.1,5.6-16.2
	c0,0-7.4-7.9-14.3-10.2s-9.7-9.3-9.7-9.3l-0.9-17.1c0,0-1.9-3.7-6-4.2S148,189.1,148,189.1l-26.4-10.6l-0.5,7.9
	c0,0-9.3,21.3-27.8,22.2c0,0,0,9.3,3.7,13s-7.4,15.3-7.4,15.3s-9.7,6.9,0.9,17.6l0.9,1.9c0,0,0.5,7.9-5.6,10.2c0,0-6.9,5.6-6.9,7.4
	c0,0-6.9,3.7-15.3-0.5c0,0-8.3,2.3-9.7-0.5c0,0-6,2.8-8.3-0.5c0,0-6.9,1.9-7.9-1.4c0,0-9.3-1.4-4.6-7.9l8.8-1.9
	c0,0,17.1-13,15.3-21.7S53.7,227,53.7,227s-3.2-7.4,1.9-14.8l0.5-5.6l-0.5-5.6l5.6-14.3l12-16.7l10.6-8.3l13-6.9
	c0,0,16.2-17.1,9.7-29.1l-6.5-6c0,0-12.5-1.4-19.9,5.6c0,0-3.7,8.8-0.9,13.4l7.4,6.9c0,0,3.2,5.1-0.5,8.8l-3.7,11.1
	c0,0-7.9,6.9-12.5,4.6c0,0-11.6,4.6-13.9,1.4c0,0-11.6,1.4-12.5-1.9c0,0-9.7-4.6-8.3-8.8l2.8-8.3c0,0-8.8-15.3-6.9-23.6
	s5.1-14.8,5.1-14.8l-0.5-11.1c0,0,6.9-5.6,9.3-4.6c0,0,6.5-8.8,17.6-12.5s19.9-9.7,19.9-9.7S85.1,65.6,111,67.5z"/>
<path class="st3" d="M194.3,120.7l5.1-3.2c0,0,11.1-15.7,16.7-17.6s9.3-2.3,9.3-2.3S198,91,196.6,93.4l16.2,5.6l-2.8,2.8
	c0,0-20.8-7.4-22.2-4.6s19,6.9,19,6.9S194.7,118.3,194.3,120.7z"/>
<path class="st3" d="M229.9,96.1c0,0-10.2-8.8-7.4-8.8s12.5,9.7,12.5,9.7L229.9,96.1z"/>
<path class="st3" d="M193.3,129c0,0,6.9-8.3,9.3-9.3s3.2-4.6,3.2-4.6s13-15.7,31.5-13.9c0,0-24.1,8.8-25,13.9S193.3,129,193.3,129z"
	/>
<path class="st3" d="M199.8,133.6c0,0,10.6-8.8,11.6-10.6s19-12.5,19-12.5s11.6-3.7,13-1.9l-20.8,12
	C222.5,120.7,202.1,135.9,199.8,133.6z"/>
<path class="st3" d="M59.7,131.8l1.4-1.9l-4.6-21.3l-2.3-1.4C54.1,107.2,53.2,128.5,59.7,131.8z"/>
<path class="st3" d="M50,136.8c0,0-5.1-15.3-1.9-25l-1.4-3.7c0,0-9.7,12,0,31L50,136.8z"/>
<path class="st3" d="M38.8,148.4l1.9-8.3c0,0-4.6-10.6,0-26.4l-1.9-0.5C38.8,113.2,30.5,129,38.8,148.4z"/>
<path class="st3" d="M44.9,98.4l0.5,2.8c0,0,10.2-11.1,16.7-11.6s13.4-9.3,13.4-9.3S54.6,85,44.9,98.4z"/>
<path class="st3" d="M56,99.8c0,0,7.4-9.3,14.3-10.2s13.9-6.5,13.9-6.5s-2.8,7.9-12,9.7S56,99.8,56,99.8z"/>
<path class="st3" d="M71.7,103.5c0,0,14.3-14.8,20.8-12C92.5,91.5,74.9,105.4,71.7,103.5z"/>
<path class="st4" d="M105.8,129.9c0,0-5.6,3.7-0.9,10.6C104.9,140.5,106.7,135.5,105.8,129.9z"/>
<path class="st5" d="M96.7,154.9c0,0,17.6,10.2,24.5,31.5l5.6-1.4l6,1.9c0,0,13.4-0.9,15.3,2.3c0,0-12.5-14.8,13-34.2l0.5-3.7
	l-2.8-3.7l-11.6-4.2l-43.9,2.3C103.1,145.6,97.6,154.4,96.7,154.9z"/>
<path class="st6" d="M103.1,145.6l3.2-19.9l47.6,1.9c0,0,6.5,1.4,10.2-1.4l6,1.4c0,0-4.6,2.8-6.9,6.5s-5.1,7.9-5.1,7.9
	s-2.3,2.3,0.5,5.6C158.7,147.5,112.9,149.8,103.1,145.6z"/>
<path class="st4" d="M159,141.9c0,0-2.8-4.6,0.9-7.9s5.1-1.9,5.1-1.9L159,141.9z"/>
<path class="st4" d="M109.2,125.7l-0.5,20.4c2.2,1.5,5.2,3.3,9.3,4.6c4.9,1.6,8.9,1.8,11.6,1.9c2.2,0.1,6,0,10.6-0.9
	c2.1-0.4,3.8-1,5.1-1.4c2.3-0.6,4.6-1.2,6.9-1.9l1.9-20.8C154,127.6,131.4,111.9,109.2,125.7z"/>
<path class="st3" d="M124.4,133.1l4.2,0.5l-0.5-2.3c0,0,5.6,0.5,5.1-3.7c-0.5-4.2-8.8-3.2-8.8-3.2S124.9,133.6,124.4,133.1z"/>
<path class="st7" d="M104.9,57.2l-3.1-4.4c0,0,13.7-3.1,17.4-1.9C119.2,51,105.5,53.4,104.9,57.2z"/>
<path class="st8" d="M104.9,57c0,0,3.9-7.2,21-5.3s30.9,5.3,30.9,5.3s-9.2,4.6-20.4,2S104.9,57,104.9,57z"/>
<path class="st9" d="M117.3,50.8c0,1.9,4.4,6.8,4.4,6.8l1.2-6.2L117.3,50.8z"/>
<polygon class="st9" points="129,57.1 129,52.1 122.1,57.1 "/>
<polygon class="st9" points="101.8,52.8 104.9,57 106.4,51.7 "/>
</svg>
