<?xml version="1.0" encoding="utf-8"?>
<!-- Generator: Adobe Illustrator 23.0.4, SVG Export Plug-In . SVG Version: 6.00 Build 0)  -->
<svg version="1.1" id="Layer_1" xmlns="http://www.w3.org/2000/svg" xmlns:xlink="http://www.w3.org/1999/xlink" x="0px" y="0px"
	 viewBox="0 0 288 288" style="enable-background:new 0 0 288 288;" xml:space="preserve">
<style type="text/css">
	.st0{fill:#A88063;}
	.st1{fill:#816167;}
	.st2{fill:#B07C8B;}
	.st3{fill:#E5B479;}
	.st4{fill:#ECEAE9;}
	.st5{fill:#DA7A66;}
	.st6{fill:#E3B8B9;}
</style>
<path class="st0" d="M43.3,148.8c0,0-19.7,11.5-5.8,47.4c0,0,26.4,41.7,17.7,61.8c0,0-4.3,14.9,2.9,3.4c7.2-11.5,2.9-26.4,2.9-26.4
	s-9.1-23-17.7-40.7s-0.5-30.7-0.5-30.7L43.3,148.8z"/>
<path class="st0" d="M97.9,201c0,0-21.1,25.4-19.2,32.1l13.9-5.8l7.7,15.8l9.6-14.4c0,0,20.6,25.9,20.6,21.6s4.3-15.3,4.3-15.3
	s24.9,9.1,27.3,8.1c2.4-1-30.7-43.6-30.7-43.6L97.9,201z"/>
<path class="st1" d="M37.5,124.4c0,0,5.8,20.6,5.8,23.5s3.8-2.9,3.8-2.9S47.6,124.4,37.5,124.4z"/>
<path class="st2" d="M47.9,145.1c0,0-6.7,0-4.8,13.4C43.1,158.5,48.9,161.8,47.9,145.1z"/>
<path class="st3" d="M110.4,70.2c0,0-7.2-40.7-3.8-39.8c3.4,1,18.7,23.5,18.7,23.5s27.3-44.1,32.6-42.2c5.3,1.9,1.9,48.4,1.9,48.4
	s24-1.4,24.9,0c1,1.4-18.2,27.8-27.8,31.6c-9.6,3.8-47-11.5-47-11.5L110.4,70.2z"/>
<path class="st4" d="M266.6,121.9c0,0-7.7,0.5-7.7,20.6s-22.5,27.3-24,35.5s-1.9,19.7-1.9,19.7s0.5,23-14.9,31.2
	c0,0-5.8,4.8-5.8,8.6c0,3.8-18.7-30.2-18.7-30.2l-5.8-35.5l12.9-23.5l20.6-15.8l22.5-9.1C244.1,123.4,264.7,119.1,266.6,121.9z"/>
<path class="st5" d="M38.9,113.8c0,0,9.6-31.6,58.5-35c0,0,6.2-14.4,12.9-8.6c6.7,5.8,6.2,8.1,6.2,8.1s55.6-1.9,80,68.5
	c0,0,44.6-37.9,72.4-26.8c0,0-1,2.4-8.1,2.9c0,0-48.9,2.4-63.3,42.2c-14.4,39.8,15.3,70,15.3,70s8.1,12.5-1.4,6.2
	c0,0-24.9-19.2-26.8-54.6c0,0-78.1,59-140.4-18.2l7.7-15.8l-4.3-27.3C47.6,125.3,36.1,118.1,38.9,113.8z"/>
<path class="st6" d="M36.7,125.3c0,0-10.5-3.4-4.8-8.6c5.8-5.3,6.2-2.9,6.2-2.9s2.4,2.9,6.7,3.8c0,0,13.4,11,8.6,40.3
	c0,0-3.4,18.7-15.8,6.2c0,0-1-7.2,1.9-7.7l1.9-1c0,0,0,8.1,3.8,1c3.8-7.2,1.4-17.7,1.4-17.7S44.8,122.4,36.7,125.3z"/>
<path class="st3" d="M67.2,141.6c0,0,18.2,2.9,19.7,29.2s3.8,42.7,3.8,42.7s9.1,48.4,46,59l8.6,2.9c0,0-1.9,4.8-13.9,0
	c0,0-41.7-15.3-46.5-59.4s-2.9-44.6-2.9-44.6s-3.4-15.8-14.9-21.6S67.2,141.6,67.2,141.6z"/>
<path class="st4" d="M101.2,162.2c0,0-0.5-7.7,3.8-11c4.3-3.4,14.9-13.4,14.9-13.4s1.9-1.9,10.1-1.4s48.4-1,48.4-1
	s-41.7,22-33.6,54.2C144.9,189.5,151.1,196.7,101.2,162.2z"/>
</svg>
