<?xml version="1.0" encoding="utf-8"?>
<!-- Generator: Adobe Illustrator 23.0.4, SVG Export Plug-In . SVG Version: 6.00 Build 0)  -->
<svg version="1.1" id="Layer_1" xmlns="http://www.w3.org/2000/svg" xmlns:xlink="http://www.w3.org/1999/xlink" x="0px" y="0px"
	 viewBox="0 0 288 288" style="enable-background:new 0 0 288 288;" xml:space="preserve">
<style type="text/css">
	.st0{fill:#EFEBEA;}
	.st1{fill:#B2AEB8;}
	.st2{fill:#92534A;}
	.st3{fill:#C5A770;}
	.st4{fill:#0A2339;}
	.st5{fill:#A39167;}
	.st6{fill:#DB6F4C;}
	.st7{fill:#F4CE83;}
	.st8{fill:#E07852;}
	.st9{fill:#3D4A55;}
	.st10{fill:#E0BEAA;}
	.st11{fill:#A9828E;}
</style>
<path class="st0" d="M53.6,136.1c0,0-10.7,4.6-11.2,7.6l11.7-0.5l-3.6,9.7l15.3-3.1L53.6,136.1z"/>
<path class="st1" d="M252.4,119.8l4.1-5.1l0.5,4.1l5.1-6.1l1,5.6c0,0,9.7-12.8,9.7-10.2c0,2-2.5,12.2-2.5,12.2l10.7-7.1l-5.6,14.7
	l10.2,9.2l-15.3,0.5L252.4,119.8z"/>
<path class="st2" d="M139,92.8c0,0-35.1-11.7-37.1-10.2s25.9,29,25.9,29L139,92.8z"/>
<path class="st2" d="M118.2,116.7c0,0-28.5-12.2-29-8.1c-0.5,4.1,19.8,20.8,19.8,20.8L118.2,116.7z"/>
<path class="st2" d="M122.2,153.3l-37.6-18.8l-1,11.7c0,0,45.2,22.4,47.8,36.1L122.2,153.3z"/>
<path class="st2" d="M116.1,170.1c0,0-32-8.1-30.5-5.1c1.5,3.1,20.3,22.9,20.3,22.9L116.1,170.1z"/>
<path class="st2" d="M213.8,109.1l6.6-1.5l3.1,6.6l0.5-6.1l5.1,0.5l4.6,8.1v-6.1l5.6-0.5l5.1,5.1h5.6l2.5,4.6c0,0,15.8-3.6,20.3,1.5
	c4.6,5.1,1.5,12.2,1.5,12.2s-10.2,15.8-25.4,8.1l-5.1,1.5l-2.5,4.1l-8.1-1.5v-3.1l-3.6,4.1l-6.1-3.6l1-3.6l-3.1,4.6l-2.5-3.1l-4.1,2
	l-5.1-5.1L213.8,109.1z"/>
<path class="st3" d="M184.3,103c0,0,22.9-8.1,31.5,11.7c8.6,19.8-18.3,29.5-18.3,29.5l-17.3-32L184.3,103z"/>
<path class="st2" d="M207.7,223c0,0-12.2,6.1-4.1,18.3c0,0,1.5,3.6,10.7,5.1c0,0,18.8,13.2,24.9,11.2c6.1-2,20.8-6.6,20.8-6.6
	l-2.5-11.2c0,0-6.1-5.6-12.2-8.1c-6.1-2.5-14.2-9.7-14.2-9.7L207.7,223z"/>
<path class="st4" d="M206.6,217.4l3.1,8.6c0,0,17.8,9.7,23.4-3.1l-7.1-19.8L206.6,217.4z"/>
<path class="st3" d="M214.8,165.6c0,0,25.4,7.1,13.2,37.1s-50.3,1-50.3,1L214.8,165.6z"/>
<path class="st5" d="M99.9,216.9c0,0-21.9,8.6-45.2-11.2l-10.2-5.1l-3.6,1c0,0,14.7,36.1,49.3,38.1l28,4.6c0,0,41.7,2,58.5-29
	L137,204.7L99.9,216.9z"/>
<path class="st6" d="M122.2,145.2c0,0-8.1,18.8-6.1,24.9c2,6.1,47.3,17.3,47.3,17.3l34.6,5.1l13.7-42.2c0,0-4.6-27.5-24.9-38.1
	l-32.5,4.6L122.2,145.2z"/>
<path class="st7" d="M15,171.7c0,0,3.1-11.7-1.5-14.7c-4.6-3.1-8.1-3.6-8.1-3.6s-4.6-6.6,0-14.7c4.6-8.1,1-16.8,1-16.8l3.1,1.5
	l-1.5-8.1c0,0,6.6,8.1,6.6,11.7c0,3.6,5.6,8.6,5.6,8.6s-0.5-3.6,3.1-5.6c3.6-2,4.6-6.6,4.6-6.6l0.5,10.2l2.5-1l-0.5,9.7l9.7,11.2
	l-5.6,19.8l-12.2,8.1l-6.6-4.6L15,171.7z"/>
<path class="st8" d="M40.9,201.6l-7.6-14.7c0,0-5.6,0.5-7.1,2c-1.5,1.5-11.2-4.6-11.2-4.6s-5.1-5.6,0-12.7l5.6,4.6l-2-5.6l5.1,2.5
	c0,0-5.1-7.6-4.1-10.2c1-2.5-1,2.5-1,2.5s7.6,11.2,10.2,8.6l-1.5-4.1l4.1,1.5c0,0-11.2-8.1-8.1-21.9c0,0,1.5,14.7,4.6,12.2
	c0,0-2.5-11.2,1.5-13.2l2.5,4.1c0,0,1-8.1-1.5-8.6s-3.6,1.5-3.6,1.5s2.5-12.7,4.1-13.2c0,0-2.5,9.7,4.6,13.7
	c7.1,4.1,7.6,7.6,7.6,7.6s-2,10.2-4.6,10.2s6.6,6.6,6.6,6.6s4.1,8.1-5.1,9.7c-9.2,1.5,12.2,22.9,12.2,22.9l2.5,2.5l2,5.1l-11.2-7.6
	l-0.5,6.6L40.9,201.6z"/>
<path class="st7" d="M130.4,53.7c0,0,7.1-2.5,7.6-6.1c0.5-3.6-1-4.1-1-4.1s-9.7-1.5-8.1-7.1c1.5-5.6,12.2-8.1,12.2-8.1
	s5.1-2.5,1.5-5.6c-3.6-3.1-4.6-5.1-4.6-5.1h4.6c0,0,0.5-5.6-2-8.1c0,0,12.2,3.1,14.2,10.2l4.1-4.1c0,0,0.5,9.7,2,11.2
	c1.5,1.5-5.1,4.6-5.1,4.6s-4.6,6.1,0.5,7.1l2-4.6l1,11.2l1.5-2l2.5,9.7c0,0,10.7,0,9.7-8.6c-1-8.6-1-8.6-1-8.6s4.1-3.1,10.2-1.5
	c6.1,1.5,2-11.2,2-11.2s-1-5.6,4.1-7.6s6.6-12.7,6.6-12.7s6.6,10.7,5.6,13.2l3.1-4.6c0,0-3.1,8.1,1,14.2s-8.6,5.6-7.1,8.6
	c1.5,3.1,8.6,11.2,8.6,11.2s-0.5,6.6-6.1,9.2c-5.6,2.5-2,6.6-2,6.6l-2.5,6.1L146.6,72l-19.8-6.1L130.4,53.7z"/>
<path class="st7" d="M133.4,167.1c0,0-29-4.1-37.6,20.8s12.7,35.6,12.7,35.6s20.3,12.7,39.1-8.1c0,0,26.4,9.2,45.2-7.6
	s20.8-32.5,20.8-32.5s1.5-19.8-2-24.9c0,0-6.6,1.5-6.1-3.1s0.5-4.6,0.5-4.6s-15.3,4.6-11.2,9.7c0,0,8.1,5.6,3.1,7.6
	s-5.6,4.6-5.6,4.6s-2,4.6,3.6,7.1s1,5.1,1,5.1s-9.7,1.5-9.2,7.1c0.5,5.6-6.1,3.6-6.1,3.6s2-6.6,0-9.7l-6.6,3.1c0,0,4.1-6.6-4.6-8.1
	c0,0,2-4.1,4.1-7.1s0-5.6,0-5.6s-3.1-5.1-6.1-5.1s3.1-9.2,3.1-9.2s-17.3,1.5-15.8,7.1c0,0,3.1,3.6-3.1,5.1c-6.1,1.5-4.1,5.1-4.1,5.1
	s-1,5.1,2.5,7.6c3.6,2.5-8.6,4.1-8.6,4.1S137,166.1,133.4,167.1z"/>
<path class="st7" d="M116.6,114.7c0,0,6.1-15.3,22.4-11.7s16.8,23.9,16.8,23.9s-2,32.5-33.6,18.3L116.6,114.7z"/>
<path class="st6" d="M130.4,53.7l5.6-1l-2.5,5.6c0,0,7.6-6.6,10.2-6.6c0,0-8.1,5.1-5.1,7.6l6.6-4.1l-2,3.6c0,0,7.6-4.1,11.2-4.1
	l-2,3.6c0,0,6.6-6.1,16.8-5.1c0,0-8.6,4.6-6.6,8.6l9.2-3.6l-1.5,4.1l12.7-7.1l-5.1,8.6l6.1-5.1l0.5,4.6l4.6-8.1v5.1
	c0,0,1.5-6.1,6.6-6.1c0,0-5.1,8.6-3.6,12.7l5.6-4.1c0,0-1,3.6,1.5,11.7l8.6-2.5l-5.1,9.2l1,3.1c0,0-4.6-1-6.1,5.6
	c-1.5,6.6-13.2,13.2-13.2,13.2s-14.7,8.1-24.4,5.6c-9.7-2.5-23.4-13.7-23.4-13.7s-6.6-6.6-4.6-9.2c0,0-16.8-7.6-12.7-18.3
	C123.3,56.7,130.4,53.7,130.4,53.7z"/>
<path class="st6" d="M78,122.8l5.1-5.6l6.1,1.5l2-3.1l8.1,2l2.5-2.5l4.1,2.5l2-5.1l6.1,1l2.5-4.6l8.6,4.6l-2,6.1l3.6,2.5l5.6-1
	l2,6.6l-5.1,4.1l4.1,2.5c0,0-1.5,8.1-5.1,9.2l-3.1-3.1l-3.6,2l0.5,2.5l-6.6,4.1l-3.1-6.6l-3.1,5.1l-3.1-1l-5.1,6.1l-4.6-5.1
	l-13.7,5.6l-4.1-5.1c0,0-21.4,6.6-24.9-8.1c-3.6-14.7,13.2-18.8,13.2-18.8S77,119.8,78,122.8z"/>
<path class="st9" d="M183.4,103l4.1,7.1c0,0-14.2,18.8-34.1,6.6l2-6.6l3.6-1.5C159,108.6,173.2,110.6,183.4,103z"/>
<path class="st6" d="M94.3,232.2c0,0-3.6-0.5-12.7,12.2c-9.2,12.7-9.2,18.3-9.2,18.3l7.6,7.1l22.9,0.5c0,0,16.8-1.5,17.8-12.7
	c1-11.2-0.5-12.7-0.5-12.7s4.1-6.6-2.5-10.2C111.1,231.1,94.3,232.2,94.3,232.2z"/>
<path class="st9" d="M99.9,216.9c0,0-7.1,17.3-7.1,20.3c0,0,3.6,11.2,24.4,3.1l4.1-13.2C121.2,227.1,114.1,229.1,99.9,216.9z"/>
<path class="st1" d="M239.2,257.6c0,0-7.6-9.2,0.5-14.2c8.1-5.1,14.7,17.8,14.7,17.8S240.2,255.5,239.2,257.6z"/>
<path class="st1" d="M256.5,251.5c0,0-1.5-10.7,1-11.7c2.5-1,15.8,14.2,15.8,14.2L256.5,251.5z"/>
<path class="st10" d="M148.7,86.2c0,0-5.1,3.6-7.1,6.1c-2,2.5-10.2,2.5-10.2,2.5s-3.6,5.1,1,11.2l4.1-2.5l6.1,2
	c0,0-4.1,11.7,4.6,12.2c8.6,0.5,12.2-7.1,12.2-7.1s5.6-5.1,11.2-7.1s4.6-5.1,4.6-5.1s0.5-2-8.6-4.1s-12.7-6.1-12.7-6.1
	S154.8,87.8,148.7,86.2z"/>
<path class="st11" d="M142.6,105.6c0,0,10.7,1.5,13.2-1.5c0,0-2.5,10.2-8.1,8.6S142.6,105.6,142.6,105.6z"/>
<path class="st0" d="M80,269.8c0-1,8.6-10.7,2.5-14.7c-6.1-4.1-13.2,20.8-13.2,20.8L80,269.8z"/>
<path class="st0" d="M107.5,259.6c0,0-11.2-1.5-4.1,20.8C103.4,280.5,121.7,266.7,107.5,259.6z"/>
<path class="st0" d="M71.9,123.4c0,0-17.3-8.6-19.3-6.1L64.8,130C64.8,130,71.4,127.4,71.9,123.4z"/>
<path class="st0" d="M60.2,127.9c0,0-18.3-1.5-18.3,0s14.2,8.1,14.2,8.1S61.2,130,60.2,127.9z"/>
<path class="st0" d="M79.5,143.2c0,0-2-10.2,5.1-8.6c7.1,1.5,7.6,18.8,7.6,18.8S83.1,141.7,79.5,143.2z"/>
</svg>
