<?xml version="1.0" encoding="utf-8"?>
<!-- Generator: Adobe Illustrator 23.0.4, SVG Export Plug-In . SVG Version: 6.00 Build 0)  -->
<svg version="1.1" id="Layer_1" xmlns="http://www.w3.org/2000/svg" xmlns:xlink="http://www.w3.org/1999/xlink" x="0px" y="0px"
	 viewBox="0 0 288 288" style="enable-background:new 0 0 288 288;" xml:space="preserve">
<style type="text/css">
	.st0{fill:#5F595A;}
	.st1{fill:#89898B;}
	.st2{fill:#94949A;}
	.st3{fill:#DCE1E5;}
	.st4{fill:#DAD9DB;}
	.st5{fill:#305A72;}
	.st6{fill:#894C46;}
	.st7{fill:#75BEDF;}
	.st8{fill:#CD8F89;}
</style>
<path class="st0" d="M51.7,114.4c0,0,29.1,0.3,27.8,26.8l-22,35.5c0,0-11.8,1.6-29.7-6.4l0.3-2.2c8.9,6.2,20.5,6.1,28.7,0
	c7-5.2,10.5-14.1,9.3-23c4.3-7.2,4.2-16-0.2-22.4C61,115.6,53,114.5,51.7,114.4z"/>
<path class="st1" d="M239.2,112.8l12.8-3.5l7.3,17.6c0,0-25.2,3.8-20.1,17.2s25.2,1,25.2,1l7,17.6l-6.7,3.2c0,0-29.1,18.2-39.6-10.2
	L220,145C220,145,207.6,120.7,239.2,112.8z"/>
<path class="st1" d="M51.7,114.4l-15.3-2.6l-5.1,17.6c0,0,23.6,1.9,18.5,16.6s-24.9,2.2-24.9,2.2l-5.7,18.5l8.6,3.5
	c0,0,30.7,10.2,32.9-10.7c2.2-20.9,0-1.1,0-1.1l8.6-11.2C69.3,147.3,78.2,119.8,51.7,114.4z"/>
<path class="st0" d="M239.2,112.8c0,0-29.7,6.4-19.2,32.3l12.1,21.4c0,0,10.2,11.5,32.6-0.6c0,0-24.6,14.1-32.3,8.3
	c-7.7-5.7-22-34.5-22-34.5S205.7,116.9,239.2,112.8z"/>
<path class="st2" d="M218.3,207l3.8,1.4c0,0,1,4.8,2.4,3.4l5.7-8.6c0,0-1.4-4.3-3.4-3.4L218.3,207z"/>
<path class="st2" d="M62.6,215.6c0,0-0.5-3.8,2.9-2.9c0,0-1-3.4,3.4-2.9l3.8-2.9l9.6,4.8c0,0-3.4,6.7-5.3,3.8l-1.4,1.9l-2.4,1.9
	l0.5,2.9l-3.4-0.5L62.6,215.6z"/>
<path class="st3" d="M114.8,139.9c0,0-23.5-19.6-7.2-47.4S150.2,68,150.2,68s28.7-0.5,36.9,26.8s-6.2,41.7-6.2,41.7l7.2,1
	c0,0,31.6-5.7,41.7,20.6c10.1,26.4-5.3,44.1-5.3,44.1s-20.6,20.6-41.2,9.6s-24.4-24.9-24.4-24.9s-7.7-24.9,10.1-37.9
	c0,0-29.2,15.3-49.4-3.4c0,0,25.4,21.1,8.1,49.8c0,0-24.9,31.6-52.7,12.9s-14.4-48.9-14.4-48.9s11-25.9,40.7-21.6L114.8,139.9z"/>
<path class="st2" d="M142.6,70.9c0,0,6.7,7.2,17.2,3.4c0,0,4.8-6.2,1.9-6.2v-3.4c0,0,3.8,1,1-3.8c0,0,11,0.5,12-4.8
	c0,0-24.4,7.2-40.2-5.3c0,0,0,5.7,8.6,7.2v2.4l2.4,1l-0.5,1.9C145,63.2,139.2,67.1,142.6,70.9z"/>
<path class="st4" d="M134.4,50.8c0,0,1.9-7.2,7.2-7.7c5.3-0.5,24,2.4,24,2.4l6.2,3.4c0,0,2.9,2.4,2.9,7.2
	C174.7,56.1,151.7,67.6,134.4,50.8z"/>
<path class="st4" d="M230.3,203.2c0,0,9.6-3.8,7.7,5.7c-1.9,9.6-8.1,10.1-8.1,10.1s-8.6,0-5.3-7.2
	C227.9,204.6,230.3,203.2,230.3,203.2z"/>
<path class="st4" d="M62.6,215.6c0,0-7.7-5.3-8.6,1.4s4.8,12.5,4.8,12.5s11.5,7.2,12.9,1s-1.4-8.6-1.4-8.6L62.6,215.6z"/>
<path class="st4" d="M106.2,168.7c0,0-11,5.3-6.2,13.9c4.8,8.6,10.1,7.2,10.1,7.2s13.4,0,9.6-12S106.2,168.7,106.2,168.7z"/>
<path class="st4" d="M114.3,127.4c0,0-13.9-2.4-12.9,13.4c0,0,6.7,15.3,20.1,2.9C121.5,143.7,128.2,132.2,114.3,127.4z"/>
<path class="st4" d="M173.2,173c0,0-9.6,3.8-8.1,10.5s7.7,9.1,7.7,9.1s11.5,0.5,11-9.6C183.3,173,173.2,173,173.2,173z"/>
<path class="st4" d="M176.1,134.2c0,0-11.5,7.7-2.4,17.7c9.1,10.1,17.2-1.4,17.2-1.4S197.7,131.3,176.1,134.2z"/>
<path class="st2" d="M56.8,226.2l1-2.4l-1.9-2.9c0,0,0.5-3.8,2.4-2.9c1.9,1,1.9,1,1.9,1h2.4l3.4,4.8l-2.4,0.5l2.9,3.4l-1.9,1.4
	l-3.4-2.9l-2.4,3.4L56.8,226.2z"/>
<polygon class="st2" points="105.2,180.2 101.8,176.3 106.6,173.9 108.5,176.8 111.9,174.4 114.8,178.2 111.9,180.2 114.3,183 
	111.4,185.9 108.1,183.5 105.2,186.4 102.8,181.6 "/>
<polygon class="st2" points="108.9,136.1 107.9,132.6 112.1,131.3 113.7,135.8 118.1,135.4 119.1,140.5 116.2,140.5 116.2,144.1 
	111.4,145.3 110.1,142.1 105.4,142.8 104.1,138 "/>
<path class="st2" d="M177.5,142.8l3.2,0.6c0,0,1.9-1,1.6-4.2c0,0,4.2-1.9,4.8,0.6c0.6,2.6-0.6,5.1-0.6,5.1l1.9,0.6l-1.3,3.2h-2.6
	l-2.2,3.5c0,0-4.2,0-4.2-1.9c0-1.9,1.3-2.9,1.3-2.9l-3.5-1.3L177.5,142.8z"/>
<path class="st2" d="M231.5,210.2l0.3-4.8l4.2,1.3l-0.3,3.2l2.2-1c0,0-1.6,7.7-6.1,8.6l-0.3-2.9l-3.8,0.6l-0.3-2.9L231.5,210.2z"/>
<polygon class="st2" points="171.8,181.4 170.8,176.6 174.4,177 175.6,181.4 178.5,180.8 178.8,184.6 176.3,184.3 176.6,188.1 
	173.1,188.1 172.1,184.9 167.6,185.6 167.6,182.4 "/>
<path class="st2" d="M138.9,43.4c0,0,10.5-5.4,13.7-4.8c0,0,2.9,4.2,8.3,1c0,0,12.1,4.5,12.1,8.9l-3.8,1.3c0,0-5.1-4.8-8.3-4.2
	l-1.6,6.7c0,0-8.7,0.6-8.3-1.6c0.3-1.6,1-7.3,1-7.3l-10.9,2.9L138.9,43.4z"/>
<path class="st0" d="M113.3,252.7l12.5,0.6l-2.2,21.1c0,0,4.5-8.6,4.2-18.5c0,0,2.2-11.5,2.9-24.3c0.6-12.8,2.2-28.7,2.2-28.7
	s-4.2-8-5.1-7.3l-0.6,20.1l-1,22.4l-11.2-1l0.6-14.1l-1.9,6.1C113.7,229,111.7,249.2,113.3,252.7z"/>
<path class="st0" d="M159,224.9c2.7,8.5,5.3,17,8,25.6l12.1-2.6l0.3,4.8l3.8,16.3c0,0,5.4-9.9,3.2-23.6c-2.2-13.7-8.6-35.5-8.6-35.5
	s-3.2-20.8-10.5-21.1c0.2,7.8,0.4,15.5,0.6,23.3c2.2,6.5,4.5,13,6.7,19.5c-3.1-0.3-6.2-0.6-9.3-1C163.3,228.7,161.1,226.8,159,224.9
	z"/>
<path class="st0" d="M61.6,64.5l0.3-6.1c0,0,14.7,17.9,19.5,17.6c4.8-0.3,5.7-2.2,5.7-2.2s4.8-3.2-0.3-10.5s-9.3-11.2-9.3-11.2
	l3.5-1.3c0,0,19.2,15.7,14.4,25.9c-4.8,10.2-15,5.7-15,5.7c-2.4-0.6-6.1-1.8-9.9-4.8C64.6,73,62.4,67,61.6,64.5z"/>
<path class="st0" d="M217.5,57.5l5.7,1c0,0-24.3,16-14.7,22.7c9.6,6.7,24-9.6,24-9.6l2.2,2.6c0,0,0,0,0,0c0,0-12.1,13.1-30.3,15.1
	c-2.5,0.3-4.7,0.3-6.1-1.1c-2.6-2.4-1.2-7.5-1-8.3C197.4,79.9,195.8,75.2,217.5,57.5z"/>
<path class="st1" d="M167.3,188.8c0,0-13.4-2.2-13.1,8.3s0.3,14.1,0.3,14.1s9.3,38,10.5,40.9l2.2,1l-0.3-2.6l-5.4-22l-3.8-16l1-8
	l9.9-1.6L167.3,188.8z"/>
<path class="st1" d="M115.6,223l-1-6.7l1.9-8.6l11.2,1.3v-13.4c0,0-2.2-4.5-12.5-1.6c0,0-7.7,7-5.7,17.2c0,0-8.6,55.9,2.2,61.3
	l1.6-19.8l0.3-23.6L115.6,223z"/>
<path class="st1" d="M61.6,64.5L46.9,76.7c0,0,19.8,29.7,41.5,25.6s27.8-21.1,27.8-21.1s9.6-15.3-19.8-42.5L81.1,50.8
	c5.4,4.4,8.6,8.6,10.5,11.5c1.2,1.9,1.8,3.1,2.2,4.5c0.4,1.4,2.3,7.6-1.6,12.1c-3.8,4.4-10.1,3.6-10.5,3.5c-3.1-2-6.6-4.5-10.2-7.7
	C67.4,71.2,64.2,67.7,61.6,64.5z"/>
<path class="st1" d="M217.5,57.5l-13.1-14.7c0,0-44.7,28.1-17.9,54.6s61.3-8,61.3-8l-13.1-15.3c0,0-22,19.5-31.6,13.4
	c-9.6-6.1,2.2-19.5,2.2-19.5L217.5,57.5z"/>
<polygon class="st5" points="61.6,64.5 49.1,51.7 48.5,45.7 61.9,58.5 "/>
<polygon class="st5" points="234.7,74.1 232.5,71.5 251.3,58.1 263.8,73.1 261.6,79.5 249.1,64.8 "/>
<polygon class="st6" points="68.3,35.5 61.3,33.9 77.6,52.1 81.1,50.8 "/>
<polygon class="st6" points="217.5,57.5 232.2,44.7 220.3,30.3 225.8,29.4 239.2,44.1 223.2,58.5 "/>
<path class="st6" d="M167.3,253l5.4,17.6c0,0-6.4-9.3-7.7-18.5L167.3,253z"/>
<polygon class="st7" points="31.2,129.4 15,125.5 20.1,107.3 36.4,111.8 "/>
<polygon class="st7" points="116.5,207.6 127.7,208.9 126.1,238 114.9,237 113.7,229 115.6,223 114.6,216.2 "/>
<polygon class="st7" points="158.7,204.4 168.6,202.8 170.2,211.1 174.7,231.6 164.8,234.1 161.6,228.4 157.7,211.1 "/>
<polygon class="st7" points="252,109.2 265.4,104.4 272.4,121.1 259.3,126.8 "/>
<polygon class="st7" points="234.7,74.1 249.1,63.6 261.6,79.5 247.8,89.4 "/>
<polygon class="st7" points="61.6,64.5 49.1,51.7 48.5,45.7 33.2,57.5 34.1,63.2 46.9,76.7 "/>
<polygon class="st8" points="81.1,50.8 68.3,35.5 61.3,33.9 76.9,21.7 82.7,24.3 96.4,38.6 "/>
<polygon class="st8" points="204.4,42.8 220.3,30.3 232.2,44.7 217.5,57.5 "/>
<polygon class="st8" points="264.4,145 277.8,138.6 284.6,156.2 271.5,162.6 "/>
<path class="st8" d="M167,250.4l12.1-2.6l0.3,4.8l3.8,16.3l-10.5,1.6c-0.5-1.7-1-3.4-1.6-5.1c-0.8-2.6-1.7-5.2-2.6-7.7
	C168.1,255.3,167.5,252.9,167,250.4z"/>
<polygon class="st8" points="113.3,252.7 125.8,253.3 123.6,274.4 111.7,272.5 "/>
<polygon class="st8" points="24.9,148.2 11.4,144.1 5.7,160.7 19.1,166.7 "/>
</svg>
