<?xml version="1.0" encoding="utf-8"?>
<!-- Generator: Adobe Illustrator 23.0.4, SVG Export Plug-In . SVG Version: 6.00 Build 0)  -->
<svg version="1.1" id="Layer_1" xmlns="http://www.w3.org/2000/svg" xmlns:xlink="http://www.w3.org/1999/xlink" x="0px" y="0px"
	 viewBox="0 0 288 288" style="enable-background:new 0 0 288 288;" xml:space="preserve">
<style type="text/css">
	.st0{fill:#646162;}
	.st1{fill:#447896;}
	.st2{fill:#8B504A;}
	.st3{fill:#B3B4B3;}
	.st4{fill:#A4BFC8;}
	.st5{fill:#84BBCE;}
	.st6{fill:#B48580;}
	.st7{fill:#B48681;}
	.st8{fill:#9F696C;}
	.st9{fill:#508AAE;}
</style>
<path class="st0" d="M42,167.5l-6,8c0,0,36.7,1.1,31.3,13.2c0,0,12.1,3.3,8.5-9.3S42,167.5,42,167.5z"/>
<path class="st0" d="M69.2,208.9l-8,9.3c0,0,24.1,4.7,34-11.2l-1.1-2.7C94.1,204.3,89.5,212.2,69.2,208.9z"/>
<path class="st0" d="M253.7,103.1l-6.6-6.3c-19.4,1.1-33.5,10.6-35.2,21.6c-0.3,2.2-0.4,6.2,2.3,11.3c0.7,0.7,2,2,4.1,2.7
	c3.3,1.2,6.2,0.3,7.1,0C225.5,132.4,202.4,114.9,253.7,103.1z"/>
<path class="st0" d="M199.7,147.8c3.4,1.9,7.4,3.7,12.1,4.9c20.8,5.7,39.2-2.7,46.1-6.3l5.8,3.8c-5.1,3.1-13.4,7.2-24.3,8.5
	c-4.7,0.6-12.9,1.5-22.8-1.7C208.5,154.6,202.9,150.5,199.7,147.8z"/>
<path class="st0" d="M121.8,99.5c0,0-26.3,3.8-15.1-13.2s37-11.5,37-11.5c5.4,0.2,9.9,3,10.9,6.4c1.2,4.6-3.4,11.8-12.2,12.7
	c-1.3-0.5-2.6-0.9-3.8-1.4c0.5-0.5,0.9-1.1,1.4-1.6l-0.8-4.1c0,0-14.5-6.6-20,6.6l2.7,1.9V99.5z"/>
<polygon class="st1" points="69.2,208.9 53.5,209.2 43.4,218.8 61.2,218.3 "/>
<polygon class="st1" points="247.1,96.8 267.7,90.5 274,96 253.7,103.1 "/>
<polygon class="st2" points="23.4,164 42,167.5 36,175.5 15.1,173 "/>
<polygon class="st2" points="257.8,146.4 277.8,139.6 282.8,143.7 263.6,150.3 "/>
<path class="st3" d="M42,167.5l-13.7-21.4c0,0,51.8,0,62.8,25.8s3,32.4,3,32.4s-2.5,7.7-25,4.7c-22.5-3,0,0,0,0l-12.6-19.7l10.7-0.5
	c0,0,11.5,2.2,8.5-9.3S42,167.5,42,167.5"/>
<path class="st3" d="M247.1,96.8c-49.1,10.7-31.8,32.9-31.8,32.9s-0.8-3.6,0,0c0.8,3.6,10.1,2.7,10.1,2.7l27.4-7.4l4.9,21.4
	c0,0-52.1,27.4-68-14.3s54.8-57.3,54.8-57.3L247.1,96.8"/>
<path class="st3" d="M121.8,99.5c0,0-2.2,3.3,1.6,5.2l0.8,1.9c0,0-3.3,4.1,0,4.7c0,0,17.8-6.3,19.7-4.7v-1.9c0,0,5.5-5.5-2.5-7.4
	c0,0,3-4.7-1.6-6.3c-4.7-1.6,0,0,0,0l-0.8-4.1c0,0-17.3-6-20,6.6c-2.7,12.6,0,0,0,0l2.7,1.9V99.5"/>
<circle class="st4" cx="145.7" cy="162.7" r="56.4"/>
<path class="st3" d="M103.7,95.6c0,0-7.7-10.7,20.6-21.7c0,0,1.8-0.2,4.5-0.4c2.6-0.2,6-0.4,10-0.1c4,0.3,7.7,0.7,11.5,2.8
	c1.7,1,4.4,2.5,4.7,5.1c0.1,1.1-0.2,2-0.5,2.6c-1.2-1.5-3.2-3.8-6.3-5.8c-9.9-6.3-21.2-3.2-23.3-2.6c-5.8,1.6-10,4.6-12.1,6.2
	c-2.6,1.9-3.8,3.2-4.1,3.6C105.4,89,104.2,93.1,103.7,95.6z"/>
<path class="st0" d="M113.3,189.8c0,0,8,3.3,3,9.9l-2.7-11.2"/>
<circle class="st3" cx="177.8" cy="177.1" r="13.7"/>
<circle class="st3" cx="104" cy="197.6" r="13.3"/>
<path class="st0" d="M173.9,174.1c0,0-2.2-6.6,1.6-6.3c3.8,0.3,4.7,4.9,4.7,4.9s6.9-1.1,6.9,1.9c0,3-4.4,3.3-4.4,3.3s1.6,6-1.4,6.9
	c-3,0.8-4.9-4.9-4.9-4.9s-6.3,2.5-7.1-1.4S173.9,174.1,173.9,174.1z"/>
<path class="st0" d="M98.5,195.2c0,0-1.6-5.2,1.4-6c3-0.8,4.1,4.1,4.1,4.1s6.6-1.1,6.3,0.8c-0.3,1.9-4.1,3.8-4.1,3.8
	s2.7,6.3-0.8,7.1s-5.5-4.1-5.5-4.1s-5.5,2.5-5.8-0.3C93.8,198,98.5,195.2,98.5,195.2z"/>
<polygon class="st5" points="56.5,189.2 39,188.4 53.5,209.2 69.2,208.9 "/>
<path class="st5" d="M247.1,96.8c-1-7.2-2-14.4-3-21.7c6.8-2.5,13.5-4.9,20.3-7.4l3.3,22.8L247.1,96.8z"/>
<polygon class="st6" points="273.2,118.5 277.8,139.6 257.8,146.4 252.9,125 "/>
<path class="st7" d="M23.1,163.9L8.8,143.3L28,146c4.8,7.3,9.5,14.5,14.3,21.8C35.9,166.5,29.5,165.2,23.1,163.9z"/>
<path class="st8" d="M8.8,143.3l-7.1,9.4L15.1,173c2.7-3,5.3-6,8-9C18.3,157.1,13.6,150.2,8.8,143.3z"/>
<polygon class="st8" points="273.2,118.5 279.5,123.7 282.8,143.7 277.8,139.6 "/>
<polygon class="st9" points="264.4,67.7 271.3,74.9 274,96 267.7,90.5 "/>
<polygon class="st9" points="39,188.4 28.3,198 43.4,218.8 53.5,209.2 "/>
</svg>
