<?xml version="1.0" encoding="utf-8"?>
<!-- Generator: Adobe Illustrator 23.0.4, SVG Export Plug-In . SVG Version: 6.00 Build 0)  -->
<svg version="1.1" id="Layer_1" xmlns="http://www.w3.org/2000/svg" xmlns:xlink="http://www.w3.org/1999/xlink" x="0px" y="0px"
	 viewBox="0 0 288 288" style="enable-background:new 0 0 288 288;" xml:space="preserve">
<style type="text/css">
	.st0{fill:#A6ACB7;}
	.st1{fill:#86715C;}
	.st2{fill:#CEB191;}
	.st3{fill:#E7DBCA;}
	.st4{fill:#E8E9E7;}
</style>
<path class="st0" d="M85.6,250.7c0,0-13.5,9.3-5.6,12.1s20.5-5.6,20.5-5.6L85.6,250.7z"/>
<path class="st0" d="M120.1,66.7c0,0-29-23.8-33.6-24.8c-4.7-0.9-18.7-3.3-18.7-3.3s-8.9-2.8-6.1-13.1s8.9-7.9,8.9-7.9
	s7.9-0.5,8.9-4.7s0.9-4.2,0.9-4.2s5.6-8.9,22.9,0.5c0,0-9.8,25.2,31.8,51.4l47.2,39.7c0,0,9.8,5.6,19.1,2.3c0,0,8.9,1.9,12.1,11.7
	c0,0-4.2,6.5-10.7,6.5c-6.5,0-6.1,12.6-6.1,12.6s-6.1,9.8-15.4,2.3c0,0-3.3-7.9-5.1-15.4c-1.9-7.5-21-24.8-21-24.8L120.1,66.7z"/>
<path class="st1" d="M115,91.4l5.6-12.6c0,0-6.5-10.3-0.5-12.1c0,0,9.8-1.9,12.1-3.7c2.3-1.9,4.7-3.3,4.7-3.3s3.7-1.9,9.8,5.1
	c6.1,7,7,8.9,7,8.9s5.6-2.8-6.1,14.9C136,106.4,115,91.4,115,91.4z"/>
<path class="st1" d="M96.3,211.9c0,0-25.7,18.2-8.9,40.6c0,0,7.5,6.5,17.3,4.2c9.8-2.3,9.8-2.3,9.8-2.3s3.3-7.5,11.2-5.6
	s7-4.2,7-4.2L96.3,211.9z"/>
<path class="st1" d="M197.2,198.9c0,0,36.9,10.7,39.2,7.5c0,0,7.9-11.7,9.3-9.3s2.8,9.8,2.8,9.8s8.4-4.7,8.9,0c0,0-5.1,26.2-43,36.9
	L197.2,198.9z"/>
<path class="st2" d="M121.5,178.3c0,0,35,43.9,44.8,45.8c0,0-0.9,23.8,10.7,32.2c11.7,8.4,19.1,16.8,19.1,16.8l24.3,1.9
	c0,0,7-16.8-4.7-44.4c-11.7-27.6-30.4-47.6-37.8-50.9l17.7-9.3c0,0,10.7-2.3,12.6-6.5c1.9-4.2,4.7-4.7,4.7-4.7s14-0.9,15.4-3.7
	c0,0,16.8,0,11.7-7.9s-11.7-11.7-11.7-11.7s-13.5-7-21.9,0.9c-8.4,7.9-51.4,23.8-51.4,23.8s-7.5,0.5-9.3-1.9S117.3,169,121.5,178.3z
	"/>
<path class="st3" d="M95.4,187.2c0,0-7,35.5,16.8,51.8s39.7,16.8,39.7,16.8l21.9-1.4c0,0-8.4-11.7-7.5-30.4c0,0-35-31.8-44.8-45.8
	L95.4,187.2z"/>
<path class="st0" d="M51.5,113.4c0,0-6.5-37.8-0.9-37.4s30.4,11.7,30.4,11.7l1.9,3.3L51.5,113.4z"/>
<path class="st0" d="M144,120.4c0,0,9.3,3.3,8.4,8.4c-0.9,5.1-2.3,18.2-2.3,18.2l-14-13.5L144,120.4z"/>
<path class="st4" d="M196.3,273.1c0,0,10.7-15.9,24.3,1.9C220.6,275,207,286.7,196.3,273.1z"/>
<path class="st4" d="M194.9,156.8c0,0-7.5,8.9-1.9,11.7s7,1.4,7,1.4S208.9,160.1,194.9,156.8z"/>
<path class="st4" d="M51.5,113.4c0,0-13.1,18.7-9.3,37.4l-11.7,42.5l3.7,13.1c0,0,10.3,5.6,13.5,5.6c3.3,0,14-1.4,14-1.4
	s5.1-2.8,6.5-8.4s27.1-14.9,27.1-14.9s12.1,0,15.9,1.4c3.7,1.4,10.3-10.3,10.3-10.3s11.2-11.2,21.5-12.6c10.3-1.4,8.9-18.2,8.9-18.2
	s-11.2-10.7-11.2-14.5s3.3-12.6,3.3-12.6s28.5-30.8,24.8-35.5c-3.7-4.7-49,7.9-49,7.9s-27.6-10.3-38.8-5.1
	C69.7,92.8,51.5,113.4,51.5,113.4z"/>
</svg>
