<?xml version="1.0" encoding="utf-8"?>
<!-- Generator: Adobe Illustrator 23.0.4, SVG Export Plug-In . SVG Version: 6.00 Build 0)  -->
<svg version="1.1" id="Layer_1" xmlns="http://www.w3.org/2000/svg" xmlns:xlink="http://www.w3.org/1999/xlink" x="0px" y="0px"
	 viewBox="0 0 288 288" style="enable-background:new 0 0 288 288;" xml:space="preserve">
<style type="text/css">
	.st0{fill:#BCB2A0;}
	.st1{fill:#F3EAD2;}
	.st2{fill:#B48D62;}
	.st3{fill:#615D5C;}
	.st4{fill:#745B48;}
	.st5{fill:#9A7582;}
	.st6{fill:#E0C3CB;}
	.st7{fill:#F4F3ED;}
	.st8{fill:#F6DDBA;}
</style>
<path class="st0" d="M163.5,193.3c0,0,5.3,18.5,52.4,29.1l9.7,5.3l-10.1,4.8c0,0-44-8.8-55-28.2S163.5,193.3,163.5,193.3z"/>
<path class="st0" d="M171.8,150.6c0,0,68.2-19.4,79.2-63.4c0,0-11.9-10.6-18.5-5.7c0,0-14.5,53.3-58.5,55.5c-44,2.2,0,0,0,0
	S169.2,147.1,171.8,150.6"/>
<path class="st1" d="M130.5,54.2c0,0-2.6-49.3-0.4-50.2l9.2,51.9c0,0,26-7.5,28.6-5.7c0,0,12.3-44,14.1-43.6c0,0,1.3,10.6-7.9,55
	l24.2,3.1L211,90.3c0,0,1.8,1.8,0.9,3.1c0,0,48-14.1,50.6-12.8c0,0-48.4,19.8-51.1,18.9c0,0,0,10.1-4.8,16.3c0,0,41.8,3.5,42.7,6.2
	c0,0-41.8,1.8-45.8-0.9c0,0-16.7,17.2-29.5,15.8c0,0-3.5,8.8-2.2,13.6c0,0,5.3,20.7-1.8,30.4c-7,9.7-6.6,12.3-6.6,12.3
	s-5.7,18.5-4.8,22.5c0,0,5.7-1.3-0.9,24.7l-18.5-2.2c0,0,5.7-22.9,8.8-23.3c0,0,3.1-13.6,1.3-17.2c0,0-17.6-2.2-18.5-6.6
	c0,0-9.2,5.3-11.4,12.3c0,0,5.3,4-11,19.4l-16.3-11.9c0,0,15.4-14.5,16.7-13.2c0,0,13.6-17.2,15-16.3c0,0-3.5-14.1,4.8-22.5
	l7.9-13.6c0,0-24.2-0.4-51.1,29.5c0,0,7.5,14.1-3.1,16.7c0,0-7,2.2-8.4,0c0,0-12.3,5.7-15.4-0.9c0,0-9.7-2.2-6.2-10.6
	c0,0,16.7-21.1,43.1-31.7c0,0,37.9-13.6,40.5-12.8l-3.1-3.5c0,0-28.6-13.6-29.1-24.2c0,0-34.8-11.4-35.2-13.6l32.1,8.4
	c0,0-1.8-14.5,0.4-15.8c0,0-33.9-26.9-33.5-28.6S102.7,81,102.7,81S112,58.6,130.5,54.2z"/>
<path class="st2" d="M108.4,222.8c0,0-1.3-12.8-16.3-11.9s0,0,0,0S75,222.8,72.3,223.2c0,0-10.6,7.5-4.4,14.1c0,0,2.6,7,10.1,7
	c0,0,7.5,4.8,11.9-0.4C94.4,238.6,108.4,222.8,108.4,222.8"/>
<path class="st2" d="M157.7,240.4c0,0-11.4-8.8-18.5-2.2c-7,6.6,0,0,0,0s-6.6,24.7-10.1,28.2c-3.5,3.5-2.2,15,5.7,15
	c0,0,8.4,6.6,12.8,2.2c0,0,7,1.3,8.8-8.4C156.4,275.2,154.7,242.2,157.7,240.4"/>
<path class="st3" d="M131.8,52.4c-0.1-1.3-0.4-3.1-0.9-5.3c0,0-0.8-3.5-1.8-6.2c-1.6-4.2-12.7-8.8-27.7-11c-0.6,5-0.9,10.6-0.8,16.8
	c0.3,11.4,2.2,21.3,4.3,29c3.7-4,8.1-8.4,13.2-12.8C122.8,58.9,127.5,55.4,131.8,52.4z"/>
<path class="st3" d="M177.1,52c2.9-4.8,7.2-6.7,13.1-9.2c8-3.5,15.2-4.3,19.9-4.8c2.9-0.3,5.3-0.4,7-0.4c0.9,3.1,1.9,7.8,2.2,13.6
	c0,0,0.5,10.6-8.4,39.2c-1.1-3.5-5.3-14.9-17.2-22.5c-7.8-4.9-15.4-5.9-19.4-6.2C174.5,59.4,174.9,55.6,177.1,52z"/>
<path class="st4" d="M215.9,222.3c0,0,6.2,4.4-0.4,10.1c0,0,34.3,2.2,44-12.3c9.7-14.5,0.4-28.2-4.8-30.8c0,0-14.5-12.8-30.4,7.9
	c0,0-7,13.6,7.5,22.9C231.7,220.1,222,223.2,215.9,222.3z"/>
<path class="st4" d="M111.5,66.1c0,0,17.2-11.4,18.9-11.9s-9.7-14.1-18.5-8.4S111.5,66.1,111.5,66.1z"/>
<path class="st4" d="M181.5,62.1c2.2-2.3,7.4-7,15.4-8.2c2.5-0.4,4.8-0.3,6.7-0.1c1.4,2.4,3,5.8,4,10.1c1.7,7.7,0.5,14.1-0.4,17.6
	c-2.5-3.1-5.8-6.6-10.1-10.1C191.3,66.8,185.8,63.9,181.5,62.1z"/>
<path class="st1" d="M251.1,87.2c0,0,13.2-16.3-8.4-28.2s-24.2,9.7-22.9,11.4c1.3,1.8,4.4,7,6.2,6.2c0,0,3.5,5.3,6.6,4.8
	s7.5,0,7.5,0S245.3,88.1,251.1,87.2z"/>
<path class="st5" d="M129.6,117.6c0,0,11.9,24.7,25.5,22.9s8.8-17.2,8.8-17.2S132.7,116.3,129.6,117.6z"/>
<path class="st6" d="M150.3,120.7c0,0-15.4,11-4.8,17.2c1.6,1.2,4.8,3.2,9.2,3.5c9.1,0.7,15.1-6.2,15.8-7c0,0,5.3-7.9,0.9-11
	L150.3,120.7z"/>
<polygon class="st7" points="125.2,116 128.5,119.7 130.8,116.5 "/>
<path class="st7" d="M167.9,122.4c0,0,0.9,6.2,3.1,5.3s3.5-5.7,3.5-5.7L167.9,122.4z"/>
<path class="st8" d="M139.3,59.9c-0.6,2.6-1,6.8,0.4,11.4c0.6,1.9,1.4,4.3,3.6,6.5c3.6,3.4,8.1,3.6,9.6,3.6c1.8,0.1,4.7,0.2,7-1.3
	c1.6-1,4.1-3.6,4.4-16.7c0.1-5-0.1-11.7-1.3-19.8c0-0.8-0.2-5.2-3.9-8.3c-4.7-4.1-10.7-2.3-11.1-2.2c-3.3,0.7-5,2.1-5.9,3.1
	c-2.3,2.7-2,5.8-2.5,15.8C139.5,55.4,139.4,58.1,139.3,59.9z"/>
</svg>
