<?xml version="1.0" encoding="utf-8"?>
<!-- Generator: Adobe Illustrator 23.0.4, SVG Export Plug-In . SVG Version: 6.00 Build 0)  -->
<svg version="1.1" id="Layer_1" xmlns="http://www.w3.org/2000/svg" xmlns:xlink="http://www.w3.org/1999/xlink" x="0px" y="0px"
	 viewBox="0 0 288 288" style="enable-background:new 0 0 288 288;" xml:space="preserve">
<style type="text/css">
	.st0{fill:#778955;}
	.st1{fill:#AFC67B;}
</style>
<path class="st0" d="M25.1,128.8c0,0-4.8,33.9,2.4,42.1s22.8,18.9,22.8,18.9S23.6,172.4,25.1,128.8z"/>
<path class="st0" d="M194.5,210.1c0,0,13.6,9.7,17.9,14c4.4,4.4,5.8,6.8,5.8,6.8s8.2,4.4,10.2,6.8c1.9,2.4,6.3,4.8,6.3,4.8
	s4.4,3.4,3.9,4.8l20.8,8.7c0,0,12.6,16.9-36.3,22.3c0,0-12.1,3.4-24.2-1.5c-12.1-4.8-12.1-4.8-12.1-4.8s-32.9-8.7-34.9-14.5
	C151.9,257.6,196.9,258.6,194.5,210.1z"/>
<path class="st1" d="M25.1,128.8c0,0,4.4-39.2,16.5-53.7S58,29.5,58,29.5S75.9-1,85.6,7.3c0,0,6.8,9.7,6.3,16S108.3,61,108.3,61
	s37.8,54.7,83.3,64.9c0,0,1.9,5.3-2.9,12.1c0,0-22.8,32-17.9,38.7c4.8,6.8,16,18.4,16,18.4s8.2,8.7,7.7,15c0,0,9.7,46.5-42.6,47.4
	l-49.4-14l-21.3-16c0,0-30.5-25.7-28.6-34.4l-2.4-3.4C50.3,189.8,22.2,172.4,25.1,128.8z"/>
</svg>
