<?xml version="1.0" encoding="utf-8"?>
<!-- Generator: Adobe Illustrator 23.0.4, SVG Export Plug-In . SVG Version: 6.00 Build 0)  -->
<svg version="1.1" id="Layer_1" xmlns="http://www.w3.org/2000/svg" xmlns:xlink="http://www.w3.org/1999/xlink" x="0px" y="0px"
	 viewBox="0 0 288 288" style="enable-background:new 0 0 288 288;" xml:space="preserve">
<style type="text/css">
	.st0{fill:#A78890;}
	.st1{fill:#C4A4AD;}
	.st2{fill:#E7C6CD;}
</style>
<path class="st0" d="M207.4,162.5c0,0,10.1,4.5,28.1-9.6s36-32.1,36-32.1s18.6-20.8-5.1-23.1c-23.6-2.2-39.4-0.6-39.4-0.6
	s-56.2,5.1-97.3,24.7l-14.6,1.7c0,0-72.6,33.7-101.8,12.9S71.9,34.2,71.9,34.2S121.9-6.3,123,5S107.9,37,107.9,37
	S72.4,74.2,46.5,74.7c0,0-55.7,48.4-23.6,59.1s87.2-15.7,87.2-15.7l47.2-12.9c0,0,83.2-25.9,111.9-11.8c0,0,33.7,2.8,3.9,38.2
	c0,0-42.2,34.3-47.2,35.4c-5.1,1.1-13.5,14.6-13.5,14.6L207.4,162.5z"/>
<path class="st1" d="M132.6,191.7c0,0-1.1,68.1,25.3,67.5c0,0,12.9-2.2,3.4-25.9c0,0-11.8-25.3-10.7-29.2
	C151.7,200.2,132.6,191.7,132.6,191.7z"/>
<path class="st1" d="M97.2,51.7c0,0-20.8-3.9-24.2,2.2s7.3,25.9,7.3,25.9L97.2,51.7z"/>
<path class="st2" d="M119.7,124.8c0,0-17.4,11.8-18.6,15.2c-1.1,3.4,1.7,2.2,1.7,2.2s-1.1,3.4,2.8,3.4l2.8,2.8l2.2-2.8
	c0,0,24.2-11.8,27-7.9c0,0,1.1,2.8,0.6,7.9c-0.6,5.1-1.1,19.1-1.1,19.1s-9,18.6-2.8,32.1c6.2,13.5,21.9,11.2,21.9,11.2l3.9-1.1
	c0,0,13.5,5.1,23.6-0.6c10.1-5.6,11.8-5.6,11.8-5.6l9.6,1.1c0,0,7.3,10.7,11.2,54c3.9,43.3,28.7,23.6,28.7,23.6s11.2-8.4-13.5-54
	c0,0-10.1-32.1-15.7-33.7c0,0,0-28.7-18.6-39.9c-18.6-11.2-25.9-26.4-25.9-26.4l20.8-0.6l3.9,3.4l2.2-3.9l5.1-1.7l-2.8-5.1l2.2-3.4
	c0,0-30.4-5.1-37.7-2.2c0,0-10.1-2.8-7.9-6.7c2.2-3.9,0,0,0,0s31.5-23.1,7.9-46.7c0,0,0.6-20.2-5.6-25.3s-24.2,7.3-24.2,7.3
	s-22.5-1.1-38.2,11.2S80.3,79.8,80.3,79.8s-16.9,30.4,24.7,36.6C105,116.4,110.7,124.2,119.7,124.8z"/>
</svg>
