<?xml version="1.0" encoding="utf-8"?>
<!-- Generator: Adobe Illustrator 23.0.4, SVG Export Plug-In . SVG Version: 6.00 Build 0)  -->
<svg version="1.1" id="Layer_1" xmlns="http://www.w3.org/2000/svg" xmlns:xlink="http://www.w3.org/1999/xlink" x="0px" y="0px"
	 viewBox="0 0 288 288" style="enable-background:new 0 0 288 288;" xml:space="preserve">
<style type="text/css">
	.st0{fill:#7A6A69;}
	.st1{fill:#A68763;}
	.st2{fill:#EC8F73;}
	.st3{fill:#F9CB86;}
	.st4{fill:none;stroke:#7A6A69;stroke-miterlimit:10;}
	.st5{fill:#F0CC92;}
	.st6{fill:#AB9586;}
	.st7{fill:#C9B1A1;}
</style>
<path class="st0" d="M127.9,183.2l7.6-5.1c0,0,1.4,5.3,2.5,5.9l-10.4,3.9l-0.3,9.3l-3.1,5.3l-4.8,0.6l1.1-2.5l1.7-0.6v-4.5
	c0,0-2.2,7.6-4.2,8.4c-2,0.8-3.9-0.6-3.9-0.6s6.2-6.2,4.5-10.4c0,0-4.5,4.5-4.5,6.5s-6.2,0.6-6.2,0.6l4.2-3.7l7-9.6l0.6-2l-3.1,0.3
	c0,0-1.1-1.4,0.6-2.2c1.7-0.8,5.1-2.2,5.1-2.2L127.9,183.2z"/>
<path class="st0" d="M159.2,188.7c0,0-3,6.2-5.6,7.5c0,0,0.7,3.7,4.1,0.7c3.4-3,3.8-4.9,3.8-4.9s1.1,1.3,0.2,3.6
	c-0.9,2.2-2.2,3.2-2.2,3.2s1.3,0.4,3.9-0.6c0,0,3.8,0.9,4.1-2.1c0.4-3-0.4-7.1-0.4-7.1L159.2,188.7z"/>
<path class="st1" d="M140.8,175.3c0,0,1.7,7.3,12.7,11.5c0,0-16,1.7-18-5.1c-2-6.7,1.1-9.6,1.1-9.6L140.8,175.3z"/>
<path class="st2" d="M152.2,157.4c0,0-6.6-5.1-0.9-8.4c0,0,3.4-0.8,1.7-4.9c-1.7-4.1,3.7-4.1,3.7-4.1s-2.4-1.1-3.7,0.2l0.6-1.7
	c0,0-3.9,0-4.7,3.2l-0.2-2.1c0,0-2.4,3-1.3,7.3l-4.1-4.9c0,0-0.2,5.2,2.4,6.6l-2.6-1.3c0,0,2.2,6.9,3,7.1c0.7,0.2-3.4-1.5-3.4-1.5
	l-6.6,14.8l-2.6-0.9l0.4,1.1l1.5,2.4l-4.5-0.8l1.5,1.9c0,0-10.7-3.6-11.6-2.4l3.4,2.1l-4.9,1.1c0,0,1.1,5.2,5.4,3.7
	s10.1-1.7,10.1-1.7s6.9,0.6,7.9,1.3s4.1,0.8,4.1,0.8l2.2,1.3c0,0-0.6-3.4-1.1-3.7c-0.6-0.4,6.9,0,6.9,0l-7.5-12.9L152.2,157.4z"/>
<path class="st3" d="M217.3,133c0,0-0.9-3.9,0.4-4.1s2.6-0.6,2.6-0.6s-0.4-4.3,2.4-4.3c2.8,0,3.2-2.8,3.2-2.8l3.9,2.8l15.4-12.6
	l2.6,0.7V109c0,0,3.2-3,1.9-5.8c-1.3-2.8,6-4.1,6-4.1l12.7-3.2l2.2,6.2l-22.9,30.2l-23.4,13.1c0,0-3.9-4.7-4.3-5.6
	S217.3,133,217.3,133z"/>
<path class="st1" d="M184.1,163.2l0.6-3.7c0,0,3.4-0.6,5.3-0.6c2,0,28.1-13.2,28.1-13.2l2-2.5c0,0,3.9,0,4.8,0.6s3.1-5.1,3.1-5.1
	s0.3-2,3.1-1.1c0,0,1.4-6.5,7.6-3.7c0,0,1.7-0.3,1.4-1.4s0.6-3.1,0.6-3.1l5.1-0.6c0,0,1.4-1.4,1.7-4.5s4.5-4.8,4.5-4.8
	s0.8-4.8,1.7-4.8s0.3-4.8,2.5-5.3c2.2-0.6,6.8-5.9,9-5.6c2.2,0.3,5.1-1.1,5.1-1.1s2-6.2,3.9-6.8s8.2-5.1,8.4-6.8s-0.3,1.7-0.3,1.7
	s0.6,3.7-0.3,5.1s2.5-2.2,2.5-2.2s-2.5,7.3-4.5,8.7c-2,1.4,1.7,0.8,1.7,0.8s-27,13.5-29.2,31.8c0,0-22.2,5.6-30.4,16
	c-8.2,10.4-19.4,13.2-19.4,13.2c-0.9,0.6-2,1.4-3.1,2.5c-2,2.2-3,4.5-3.5,5.9c-1.2,0.1-3.6,0-6-1.3C185.4,169,184.3,164,184.1,163.2
	z"/>
<path class="st2" d="M208.3,141.5c0,0,2.6,0.6,3-1.5s1.3,1.5,1.3,1.5s2.1-0.4,0.6-2.2c-1.5-1.9-1.5-3.4-1.5-3.4l1.1-2.2
	c0,0,1.1,2.1,3.4,1.5c2.2-0.6,0.6,1.3,0.6,1.3l0.6-3.4l6-3.8l-0.9,6.4l1.7-0.8l-0.4,2.6l3.2-1.7l-4.3,8.6c0,0-5.8,7.5-6.4,7.9
	s-7.7,2.1-7.7,2.1l-4.7-8.4L208.3,141.5z"/>
<path class="st2" d="M223.9,123.9c0,0,2.4-1.3,2.1-2.6s2.6,2.1,2.6,2.1l1.3,0.8l-1.1,1.9c0,0,2.4-1.7,2.4-3.6c0-1.9,2.2-2.6,2.2-2.6
	s0-3.4-0.2-4.3c-0.2-0.9,2.8,0.7,2.6,2.2c0,0-0.4-4.1,3.2-5.8c3.6-1.7,4.7-3.9,4.7-3.9s0.4,3.9-0.2,4.7l2.4-1.9l-2.4,4.3l-0.4,3.6
	c0,0,7.3-2.6,6.9-4.9c0,0-0.3,2.9-2.9,4.8c-0.6,0.4-1.2,0.7-2,1l3.2-0.4c0,0-7.9,4.7-6.9,6.7c0,0,3.2,0.6,4.3-0.9c0,0,0.9,1.7,0,3.2
	c-0.9,1.5-6.4,6-6.4,6l-4.7-1.3l0.6-1.5l-3.4,1.1c0,0,3.6-6,2.2-7.7s-6.4,7.3-6.4,7.3l-1.3-6.6l-1.7,0.2l0.4-1.7L223.9,123.9z"/>
<path class="st2" d="M249.7,103.2c0,0-0.6-4.5,6-4.9c6.6-0.4,5.1-5.6,5.1-5.6s1.9,1.1,0.9,3.6c0,0,3.6,0.2,2.6-3.6
	c-0.9-3.8,3-4.5,3-4.5s5.2-2.1,3.9-3.7c0,0,2.4,0,2.1,2.2c0,0,0.2-5.1,5.4-4.9c0,0,3,0.4,3.6-3.6c0,0,1.3,2.2,0.4,3.9l1.1-0.4
	c0,0-1.1,3.6-3.9,4.5c-2.8,0.9-0.8,2.4-0.8,2.4l1.5-1.1l-1.1,2.6l1.1,0.9l-8.8,11.1c0,0-9.7-0.2-13.7,3.9c0,0-2.1-5.4,4.1-8.4
	l-8.6,5.2l-1.1-1.3L249.7,103.2z"/>
<path class="st1" d="M228,179.3c0,0,1.4,5.3,0,8.4c-1.4,3.1-3.4-2.8-3.4-2.8L228,179.3z"/>
<path class="st4" d="M134.3,178.7"/>
<path class="st3" d="M140,159.1l-6-2.4c0,0-1.7-1.7,0.6-3.2s-1.3-4.7-1.3-4.7s-3.7,0.6-3.4,1.5s-50.4-19.5-50.4-19.5l-12.4-4.7
	l-3.9-10.3c0,0,9.9,0.8,11.2-2.8s6.6-1.3,6.6-1.3l12.2-10.9l5.2-6l6.4,4.1c0,0-0.6,3.6,3.4,3.6s1.1,6.9,1.1,6.9s-5.1,6.2-0.2,7.1
	s6.4-3.7,6.4-3.7s0.8-9.6,3.6-9.4c0,0,2.2-2.6,4.9-1.1l-0.9,3.6l1.9-0.4c0,0,0.4,5.8,4.7,4.9c4.3-0.9,8.2,4.3,8.2,4.3l-0.8,12.2
	l7.3,0.6c0,0,0.9,0.4,1.9,2.8c0.9,2.4,2.2,2.1,2.2,2.1s0.9,4.5-2.1,6.9c-3,2.4,4.9,4.7,4.9,4.7l-4.5,15.4L140,159.1z"/>
<path class="st3" d="M35.4,136.8l-1.3,3.2l1.7-0.2l-0.2,2.1c0,0,3.6-3,5.6,0.4c0,0,5.1-3.6,6.7-2.4l12.6,8.8l14.8,7.7l3.9,5.6
	c0,0,2.2,1.7,11.8-0.6s12.6,2.2,12.6,2.2l9.6,5.6c0,0,7.7,1.1,9.2,3.8c1.5,2.6,14.2-0.8,14.2-0.8l7.4-4.7l-28.5-12.9l-31.9-17.1
	l-36-20.4L35.4,136.8z"/>
<path class="st2" d="M113.2,169.2c0,0-4.1-4.1-8.2-1.3c-4.1,2.8-6.4,1.7-6.4,1.7s-1.5,2.4-0.2,2.8c0,0-3.2,0-3.2-0.9
	s-1.7-1.9-0.9-2.4s-3.4-1.7-5.4,0.8c-2.1,2.4,1.1-3.2,1.1-3.2l-1.7-0.2c0,0,0.6-2.1,2.8-2.1c2.2,0-3.4-0.4-3.4-0.4s1.7-3.3,8.6-3.4
	c0.2,0,0.5,0,0.8,0c7.5,0.2-0.8-2.8,0.6-2.6s3.7-0.2,3.7-0.2l-8.8-5.6l9.7,0.6l10.5-2.8l4.9,8.2l-1.3,5.6c0,0-6.9-1.1-0.4,2.6
	l-2.8,0.7V169.2z"/>
<path class="st2" d="M127.7,152.9c0,0-0.9-3.9,2.2-2.6c0,0-0.6-3.9,3.2-3v-5.6l6.2,7.3l-4.3-15.2l3,2.8l0.2-3.7l2.6,3.7v-3.9
	c0,0,3,4.7,3.8,3.2c0.8-1.5-0.2-8.4-0.2-8.4s-3-0.6-4.1,0s-1.7-5.2-1.7-5.2s1.9-2.1,3.2-3.4c1.3-1.3,0-3.7,0-3.7s-2.2-2.8-2.2-5.6
	s-6.7-3-6.7-3l-3.2,3.9c0,0,7.9,5.1,3.9,6c-3.9,0.9-3.6,0-3.6,0s6.6,4.1,3.9,4.5c-2.6,0.4-3.4-0.2-3.4-0.2l0.2,1.7l-5.1-0.8
	c0,0,6.2,4.3,5.4,8.8l-2.6-1.3l-10.5-0.6l-0.8-1.5l3-0.4l-3-3l3.2-1.9l-3.2-1.7c0,0,8.8-0.4,9-2.2l-8.4-1.3l-1.9-1.5h2.4l-3.2-3
	c0,0-0.9,2.1-0.2,3.2c0,0-2.4,0.4-2.4,1.5c0,0-3.6-1.9-3.6-0.9c0,0.9,2.1,3,2.1,3l-2.1,1.7l2.1,3.6l-5.1-4.5l0.2,3l-4.3-2.6
	l-0.6,2.2c0,0-4.1-4.1-6.4-4.3c-2.2-0.2,5.2-0.9,5.2-0.9l-6.9-3l4.1-0.4c0,0-3.4-4.3-6.4-4.7c-3-0.4,8.1-1.7,9.7,0.9l-1.1-3.9l3,1.9
	L99.4,98l4.9,2.6c0,0,0.9-3.2,1.3-4.5c0.4-1.3-6.6-5.4-6-7.1c0.6-1.7-3.6,1.1-3.6,1.1l-5.1-0.9l-2.6,2.6c0,0-4.3-1.3-4.1,3l-3.4-0.6
	l-1.1-4.5c0,0-3.9,1.1-3.6,3c0,0-2.1-6-0.8-6.7c0,0-6.6,3.4-4.3,9.4c0,0-0.4,7.3,6.2,8.6c0,0,0.9,4.3,4.7,4.3l1.3,1.9l-2.2-0.8
	l-0.2,3.7l0.6,2.1l-3.4,2.4l7.1-1.5c0,0,1.3,3.6-2.4,4.7s3-0.2,3-0.2s-11.1,6.7-3.9,7.3l-2.2,2.8l22.9,10.7L127.7,152.9z"/>
<path class="st2" d="M66.7,112.8l-2.2-0.4c0,0-0.6-2.1-2.8-1.1c0,0-0.4-1.1-0.8-3.7c-0.4-2.6-3.9-3.7-3.9-3.7l0.6,3.2l-1.7-0.6
	c0,0,1.7,0.8,0.4,2.2c-1.3,1.5-0.6,4.3-0.6,4.3s4.9,2.2,3.4,6s10.7,8.1,10.7,8.1l5.4-4.9c0,0-10.1-1.5-9.7-4.7c0,0,4.3,1.9,4.5,0.8
	C69.9,118.2,66.2,114.3,66.7,112.8z"/>
<path class="st2" d="M44.8,112.2c0,0-2.6-1.5-6-0.4c-3.4,1.1-3.6-2.2-3.6-2.2s0.2-5.1-6-3.7s-2.4-4.5-2.4-4.5s-3.6,1.3-3,3.6
	c0.6,2.2-1.1,1.7-1.1,1.7s3,2.2,2.2,6.9c0,0,2.2,1.9,4.7,0.9s1.9,5.8,1.9,5.8s-3.6-4.1-5.1-2.2c-1.5,1.9-5.1,4.7-5.6,4.5
	c-0.6-0.2-3.9,0.2-5.2-3.9s-6.9-1.7-6.9-1.7l3.7,2.1c0,0-4.7,0.2-5.8-1.5s-3,1.5-3,1.5s2.6,1.9,3,4.3c0.4,2.4,6.6,1.1,6.6,1.1
	s3.9,0.2,5.1,7.5c1.1,7.3,8.6,2.6,8.6,2.6s1.1-1.9,2.1-0.9s-1.7,1.5,1.7,2.8c3.4,1.3,6.2-0.6,6.2-0.6l10.9-0.6c0,0-2.6-3.9-5.4-2.2
	c0,0,5.9-2.6,8.7-1.1c0.4,0.2,0.8,0.5,1,0.9c2.1,3.2,0.8-4.3-2.6-6.9C49.3,125.9,48.2,113,44.8,112.2z"/>
<path class="st2" d="M48,139.8l13.5,1.5l-4.9,1.9c0,0,7.3,3,9.6,0.7l2.8-0.7l-3-1.5h5.2l-4.9-7.9l16.9,12.7l0.2,1.5l-3.2,0.4l3,1.3
	l-6,1.1c0,0,14.8,5.2,12.9,5.2c-1.1,0-9.7,0.2-9.7,0.2l4.3,2.1l-6.9,0.6l1.5,3l-2.2,0.2c0,0-2.4-0.9-2.8-3.7
	c-0.4-2.8-5.6-2.6-5.6-2.6s-3.2-0.2-3.7,0.9c-0.6,1.1-1.3-0.9-1.3-0.9s-2.6,1.5-2.4,2.6c0,0-1.9-3,0.6-4.1l-3-0.4
	c0,0,1.5-4.3,3.7-3.4c0,0-6.6,3.4-10.1-1.3c-3.6-4.7-2.4-7.1-2.4-7.1S49.3,140,48,139.8z"/>
<path class="st5" d="M146.6,160.6c1.1-0.7,3-1.8,5.6-2.6c10.9-3.7,26.9-1.4,34.3,7.3c1.4,1.6,3.1,4.3,6.7,5.8
	c3.2,1.3,6.2,1.2,8.2,0.9c1.7-1.3,3.2-2.3,4.3-3c1.5-0.9,2.4-1.4,3.4-1.1c0.7,0.2,1,0.7,1.5,1.1c2,1.4,4.8,0.2,6,0.2
	c2.2-0.1,5.4,3.5,9.7,18.4c-1.7,2.8-3.4,5.5-5.1,8.2c0,0-10.9,0.2-17.8-7.9s-15.2-7.1-15.2-7.1s-3.4,10.1-21.6,9s-22.9-9.4-22.9-9.4
	s-3-3.9-3.2-5.2s-0.9-4.8-0.9-4.8s-4.7-3.2-4.5-5.2l-5.4-0.2l-2.6-3l-1.9-0.2c0,0,1.9,3.2,1.5,4.3c0,0-4.5-2.8-6.2-2.6
	s-5.4-2.8-5.4-2.8s-0.2-3.6-1.1-5.4s-1.5-2.2-1.5-2.2s0,4.1-4.5,3.9l0.4,2.4c0,0-6.9-2.1-6.2-6.8l-2.1-1.1l-0.8-0.9l-5.6-0.8
	c0,0-3.6-7.9-5.2-7.3l0.4,2.8c0,0-11.2,2.1-13.7-6.2c0,0-9.6-2-11.5-5.4c-0.1-0.2-0.2-0.4-0.3-0.6c-1.1-3.8-0.2,3.6-0.2,3.6
	s-6.9-0.8-8.2-8.1c0,0-6,3.2-6.9-3.2S44,112.2,44,112.2l3,2.4l-3.4-5.6c0,0,5.8,3.4,6.2,5.4l3.4-3.2c0,0,1.7,7.9,12.9,12.9
	s38.4,14.8,38.4,14.8s4.7-0.9,10.9,5.2c6.2,6.2,18.6,12.4,18.6,12.4L146.6,160.6z"/>
<path class="st6" d="M217.9,192.3c0,0,8.4,8.4,18.6,11.6C246.5,207.1,218.4,191.5,217.9,192.3z"/>
<path class="st7" d="M224.6,184.9l23.1,23.5c0,0,0.2,1.5-2.2,0.4c-2.4-1.1-10.3-5.8-10.3-5.8s-14.6-10.9-16.9-10.7s0-1.9,0-1.9
	L224.6,184.9z"/>
<path class="st3" d="M189.4,148.4c0,0-0.6,1.5-2.8,0c0,0-1.9,2.1-3.2,0.2c0,0-0.4,3,2.1,2.6c0,0,0,3.4,3.6,3c0,0,2.4,9.7,6,6.9
	l4.7,0.2l12,5.6l12,11.6l8.1-3.4l1.3-6.4c0,0-4.9,3.2-4.9-2.4c0-1.1-2.1-2.8,0.9-4.9c3-2.1,0.7-5.8,0.7-5.8s-2.2-0.9-2.8-0.8
	s-0.6-3.2-0.6-3.2l-0.9-0.6l-11.6,3.9l-11.8-9.6l-11.2-0.8L189.4,148.4z"/>
<path class="st2" d="M189.4,148.4l0.2-1.5c0,0-1.9-1.9-2.6-1.7s-1.1-1.5-1.1-1.5s-1.9-0.9-3.9,0.4c-2.1,1.3-4.9-1.3-4.9-1.3
	l-2.2-3.4V134c0,0-1.1-3.2-4.5-1.3c-3.4,1.9-3.9-5.4-3.9-5.4s1.1-0.7,2.2-2.8c1.1-2.1-0.4-4.1-0.4-4.1l2.1,0.4c0,0,0-3.6-3.6-3.6
	c-3.6,0,1.1-6,1.1-6s0.9-1.9-0.8-2.1c0,0,4.9,0.4,4.5,3l1.3-2.6c0,0,0,3.7,3.4,2.2c3.4-1.5,3.4,3.4,3.4,3.4s1.7,1.1,1.7,3.6
	c0,2.4,1.3,2.8,1.3,2.8s1.9-0.2,2.1-1.9l2.8,0.2l0.9-1.7c0,0,2.1,0.2,2.8,2.2c0.7,2.1,2.8-0.6,2.8-0.6s1.7,0.2,1.9,1.9
	c0.2,1.7,0.9,3.2,0.9,3.2s2.4,1.1,3.2,0.8c0.8-0.4,1.5-0.9,1.5-0.9s0,1.3,0.8,2.1c0.8,0.7,1.9,1.7,1.9,1.7s0.2,3.2-2.1,2.1
	s-2.6,1.9-2.6,1.9s-0.2,3.2,3.6,3.6c3.8,0.4,2.6,1.7,2.6,1.7s1.5,3.8,2.6,3.9s-0.6,3.6-0.6,3.6s-1.3,0.2-1.3,1.3s1.5,2.6,2.4,2.4
	s1.3,3.7,1.3,3.7l4.1-0.8l0.2-1.9c0,0-3.6-1.3-3-2.8s2.8-3.6,2.8-3.6l1.3,0.4l-0.2-1.9v-1.9l3.6,4.1l-0.8,4.3c0,0,2.1,1.9,2.6,0.6
	s1.3-1.1,1.3-1.1s2.8,3.4,3.4,3.2s-0.8,4.7-0.8,4.7l-3.6-2.6c0,0,4.1,7.7,3.9,8.8l-5.4-3.6l0.6,2.6l-1.7-0.6l1.5,2.8l-4.5-1.9
	c0,0,3.2,3,3.4,5.8c0.2,2.8,2.1,3,2.1,3s1.3,1.3,1.7,3.8c0.4,2.4,1.5,1.1,1.5,1.1l0.6-3.2l0.9-0.4l-0.4-2.2l1.3,2.6
	c0,0,0,6.6,1.7,3.7c1.7-2.8,4.5-8.2,4.7-6.9s0.2,2.6-0.4,3.6s1.1,2.2,1.1,2.2s1.9,3.2-3.4,3.8c0,0-2.2-0.8-2.4,0.8s-3.4,5.6-3.4,5.6
	s-1.9-4.8-6.2-5.5s-1.5-4.7-2.2-6c-0.8-1.3-5.4-3.9-5.4-3.9s-3.9-1.3-7.5,1.9c0,0-4.5-0.9-1.7-5.1c2.8-4.1-1.9-4.9-1.9-4.9
	s1.9-0.8,2.6-0.4s-2.2-4.5-2.2-4.5l6,3.9v-1.7l5.1,4.7l0.6-4.3l-2.1-5.1c0,0-3.4-6.4-6-5.4s0.4,3,0.4,3l-3.2-0.7l1.7,3.6
	c0,0-10.1-5.6-10.3-7.5S190.3,149,189.4,148.4z"/>
</svg>
