<?xml version="1.0" encoding="utf-8"?>
<!-- Generator: Adobe Illustrator 23.0.4, SVG Export Plug-In . SVG Version: 6.00 Build 0)  -->
<svg version="1.1" id="Layer_1" xmlns="http://www.w3.org/2000/svg" xmlns:xlink="http://www.w3.org/1999/xlink" x="0px" y="0px"
	 viewBox="0 0 288 288" style="enable-background:new 0 0 288 288;" xml:space="preserve">
<style type="text/css">
	.st0{fill:#E8E8E8;}
	.st1{fill:#7B667A;}
	.st2{fill:#C1A8C4;}
	.st3{fill:#FAFBFC;}
	.st4{fill:#5A7071;}
	.st5{fill:#3F595F;}
	.st6{fill:#DDD7DD;}
	.st7{fill:#CFB1BB;}
	.st8{fill:#699092;}
	.st9{fill:#446F7A;}
</style>
<path class="st0" d="M19.6,157.7c0,0,0.4,8.7,4.3,9.7l2.9-6.5L19.6,157.7z"/>
<path class="st1" d="M53.2,111.5c0,0-19.9,6.5-27.1,6.9s-15.5,9.4-15.5,9.4s-11.6,17.7,5.1,27.8c16.6,10.1,19.5,1.1,19.5,1.1
	s10.8-12.6,17-13s15.2-8.3,15.2-8.3l2.2-4.3l-2.9-13.7L53.2,111.5z"/>
<path class="st1" d="M84.1,88.6c0,0-7.6-9.7-6.5-18.4c0,0,0-0.5-3.8-1.1C70,68.5,52.1,45.8,52.1,45.8S50,46.3,50,57.2
	c0,0-16.8-3.8-14.1,0.5c2.7,4.3,11.9,15.2,11.9,15.2l30.3,26.5L84.1,88.6z"/>
<path class="st1" d="M64,115.7c0,0-8.1,9.2,0.5,14.6s7.6,8.1,7.6,8.1s4.9,12.5,13,12.5s1.6-11.9,1.6-11.9l-5.4-15.7L64,115.7z"/>
<path class="st2" d="M99.2,170.4c0,0-1.6,1.6-4.9,2.7c-3.2,1.1-4.9,4.3-4.9,4.3s-8.1-4.9-11.4-1.1c-3.2,3.8-9.2,15.2-9.2,15.2
	s-5.4,11.9,1.6,22.7c0,0-0.5,8.1,2.2,9.7l21.1,5.4l2.7,1.6c0,0,30.3-5.4,26-16.8c-4.3-11.4-13-20.6-13-20.6L99.2,170.4z"/>
<path class="st1" d="M156.1,83.2c0,0,10.8-3.8,20.6-15.2c0,0,8.1-3.8,4.9,4.3s-9.2,16.2-8.1,21.1c1.1,4.9,7.6,7,10.3,6.5
	c2.7-0.5,21.1-6,21.7-8.7c0.5-2.7,4.3,1.1,4.3,1.1l-1.1,4.9l-7,34.7c0,0-14.1,7.6-3.8,16.2c10.3,8.7,37.9-21.7,37.9-21.7l-19,26
	c0,0-8.1,6.5-7,9.7c1.1,3.2,21.1-4.3,21.1-4.3s34.7-11.4,35.2-67.2c0,0,3.2-11.4,10.3,4.9c7,16.2,8.1,31.4,8.1,31.4
	s5.4,67.7-61.7,92.6c0,0-66.6,16.2-83.4-1.6s-13-109.4-13-109.4s0-13.5,1.6-13.5S156.1,83.2,156.1,83.2z"/>
<path class="st3" d="M78.7,219.6c0,0-26,8.1-21.1,15.7s36.3-6,36.3-6S89.5,220.2,78.7,219.6z"/>
<path class="st4" d="M64.6,69.1c0,0-23.3-20-16.2,8.1s24.4,28.2,24.4,28.2l2.2-3.8C74.9,101.6,51,71.8,64.6,69.1z"/>
<path class="st5" d="M61.3,67.5c0,0-11.9,10.3,13.5,34.1l4.3-7C79.2,94.5,70.5,69.1,61.3,67.5z"/>
<path class="st6" d="M83.5,143.3c0,0,1.1,15.7,13,20c0,0,5.4,7,3.2,13s-1.1,12.5-1.1,12.5s2.2,27.6,40.6,29.2
	c38.5,1.6,36.8-11.9,36.8-11.9l2.2-37.9c0,0-2.2-1.6-6-4.9s-3.8-13.5-3.8-13.5s3.8-7.6,3.8-11.4s-6.5-7-6.5-7l-20.6-6.5l-13,6
	L83.5,143.3z"/>
<path class="st0" d="M193.6,105.7c0,0-1.4-9,0.7-9.7c0,0,19.9-4.3,26.7,5.1L193.6,105.7z"/>
<path class="st2" d="M72.7,103.9c0,0,10.1-19.5,14.4-20.2c0,0-6.9-19.1-4-19.1s13.7,11.9,16.2,11.2c0,0,7.2-6.1,10.1-5.1
	c0,0,7.2-22,10.5-20.9c3.2,1.1,4,10.5,4,10.5s16.6-16.6,17-17.7c0,0,1.1,2.5,1.4,9.4c0,0,23.5-6.1,24.2-3.2c0,0-11.2,11.2-3.6,19.9
	c0,0-2.2,5.1-3.6,5.4l-19.1,27.4l7.2,4.7c0,0,5.8-13.4,19.9-9.7c14.1,3.6,15.9,7.6,15.9,7.6s9.7,0,10.5,1.8c0,0,15.2-16.6,36.8,1.1
	s18.8,30,18.8,30s-2.5,20.6-18.4,21.1s-16.6-12.8-16.6-12.8s-10.8-13.4-14.1-14.8c-3.2-1.4-5.8-5.1-5.8-5.1s-6.5,0.4-6.9,1.8
	c0,0-6.5,14.8-17.3,14.4s-18.4-7.2-18.4-7.2s-7.9-9.4-6.1-14.4l-0.4-9l-6.5,2.9l9.7,6.1l-11.2,4.3c0,0-14.4,51.3-37.5,22.4l-4.3,3.6
	c0,0-17.3-7.6-18.4-18.1c0,0-7.6-8.7-5.1-12.3l-31.8-13.7c0,0,0.4-3.2,11.9-2.5S72.7,103.9,72.7,103.9z"/>
<path class="st0" d="M22.5,138.6c0,0-5.8-5.4-5.4,1.1c0.4,6.5,0.7,9.7,2.2,9.7C20.7,149.4,24.3,144.4,22.5,138.6z"/>
<path class="st0" d="M7.7,139.7c0,0-9,9.7-5.4,16.6l8.3-7.2C10.6,149.1,12,139.7,7.7,139.7z"/>
<path class="st2" d="M195.8,169.6c0,0-19.9-8.7-24.9,6.5s0,27.8,0,27.8s-1.4,14.4,0.7,20.9l-5.8,12.6c0,0,10.1,10.8,27.4,11.2
	s20.9-0.4,20.9-0.4s17.7-7.6,14.8-14.4c0,0-5.8-9-5.8-15.5c0-6.5-4-11.9-4-11.9S214.2,177.2,195.8,169.6z"/>
<path class="st3" d="M212.8,248c0,0-3.2-15.5-18.4-14.1s-11.9,15.2-11.9,15.2s24.9,15.2,27.8,7.9C213.1,249.8,212.8,248,212.8,248z"
	/>
<path class="st3" d="M225.4,122c0,0-6.9,1.4-3.6,6.9c3.2,5.4,8.7,9,8.7,9S234.8,121.3,225.4,122z"/>
<path class="st3" d="M243.1,131.4c0,0-5.8,5.1-0.4,10.5s5.4,5.4,5.4,5.4S252.9,131,243.1,131.4z"/>
<path class="st3" d="M230.1,153.4l10.8-1.4c0,0-5.1,12.3-7.9,12.3S230.1,153.4,230.1,153.4z"/>
<path class="st7" d="M99.8,146.5c0,0,27.8-17.7,28.2-21.7C127.9,124.9,121.8,165.7,99.8,146.5z"/>
<path class="st3" d="M124.7,136.1c0,0-5.1-10.8-4-11.9c1.1-1.1,6.9,5.1,6.9,5.1S127.6,136.1,124.7,136.1z"/>
<path class="st3" d="M124.1,138.9l-2.9-1.8l1.1,4.3l-2.9-0.7v5.4c0,0-2.5-3.2-3.2-1.8c-0.7,1.4-0.4,4.3-0.4,4.3s-3.6-4-4-2.5
	c-0.4,1.4,1.1,5.8,1.1,5.8S125.2,147.6,124.1,138.9z"/>
<path class="st8" d="M129.4,103.2c10.5-16.4,14.6-25.7,12.3-27.8c-0.5-0.5-1.4-0.6-2.5-0.4c-0.8-0.9-2-2-3.6-2.9
	c-3.7-2.1-7.4-2-9-1.8c0,0,12.3-15.5,24.9-9c12.6,6.5,4.7,21.8,4.7,21.8c-0.9,2.7-2.6,6.9-6.3,10.9
	C142.1,102.2,132,103.1,129.4,103.2z"/>
<path class="st9" d="M129.4,103.2c0,0-7.6-7.6-18.1-5.8c0,0,9.7-38.6,28.5-28.9S129.4,103.2,129.4,103.2z"/>
</svg>
