<?xml version="1.0" encoding="utf-8"?>
<!-- Generator: Adobe Illustrator 23.0.4, SVG Export Plug-In . SVG Version: 6.00 Build 0)  -->
<svg version="1.1" id="Layer_1" xmlns="http://www.w3.org/2000/svg" xmlns:xlink="http://www.w3.org/1999/xlink" x="0px" y="0px"
	 viewBox="0 0 288 288" style="enable-background:new 0 0 288 288;" xml:space="preserve">
<style type="text/css">
	.st0{fill:#8C7591;}
	.st1{fill:#C2C4CC;}
	.st2{fill:#705A76;}
	.st3{fill:#C0A7C9;}
	.st4{fill:#779D9C;}
	.st5{fill:#FFFFFF;}
	.st6{fill:#856F8C;}
</style>
<path class="st0" d="M51.8,173.6c0,0,1.6-14-17.3-25.3l-9.2-6.5c0,0-3.8-57.7-5.9-62c0,0,9.2-34,9.7-42.6S34,6.5,34,6.5l5.9-3.2
	c0,0,2.7,41.5,5.4,40.4c2.7-1.1,7.5-17.8,7.5-17.8s4.3,1.6,2.7,8.6c0,0-4.9,43.7,24.8,65.8c0,0-7.5,34.5-3.2,40.4
	C77.1,140.8,58.8,176.3,51.8,173.6z"/>
<path class="st0" d="M50.7,221.1c0,0-11.9,22.6-9.2,29.1c2.7,6.5,14,6.5,14,6.5l10.8-5.9l-9.2-28L50.7,221.1z"/>
<path class="st0" d="M93.8,258.3c0,0,24.8,2.7,36.1-22.6c11.3-25.3-8.6-9.7-8.6-9.7L93.8,258.3z"/>
<path class="st0" d="M195.3,120.3c0,0,42.6,16.7,23.2,68.5c0,0,8.1,0,8.1-3.8c0,0,10.2,7.5,15.6,7.5c5.4,0,18.3-2.7,18.3-2.7
	s12.9-3.8-13.5-44.2c0,0-1.1-10.2-5.4-11.9s-13.5-7-13.5-7s-6.5-17.3,1.6-22.6c8.1-5.4-16.7-4.9-16.7-4.9l22.1-39.4
	c0,0-0.5-6.5-15.6,4.3l-16.7,12.9c0,0-11.3,35.6-10.8,37.2S195.3,120.3,195.3,120.3z"/>
<path class="st1" d="M41,242.1l-6.5,4.3l3.2,2.7c0,0-9.2,11.3-5.9,11.3S48,255,48,255s-2.2-8.1-5.9-8.1
	C42.1,247,43.1,242.7,41,242.1z"/>
<path class="st1" d="M262.1,181.7c0,0,9.2,5.9,7.5,10.8c-1.6,4.9-12.4-1.1-12.4-1.1S258.9,180.7,262.1,181.7z"/>
<path class="st1" d="M242.7,186.6c0,0-9.2-1.1-5.4,11.3l9.2-7.5C246.5,190.4,243.3,185.5,242.7,186.6z"/>
<path class="st2" d="M49.6,224.3c0,0-3.2,6.5-0.5,5.4c2.7-1.1,4.3-4.3,4.3-4.3L49.6,224.3z"/>
<path class="st2" d="M49.1,241.6c0,0-6.5,4.9-1.6,5.4C52.3,247.5,51.2,242.7,49.1,241.6z"/>
<path class="st2" d="M233.5,145.6c0,0-8.6-3.2-2.7,12.9l3.2,3.2l2.2-5.4L233.5,145.6z"/>
<path class="st3" d="M49.1,201.1c0,0-2.2-14-3.8-16.7c-1.6-2.7,31.8-43.7,31.8-43.7l23.2-25.3l1.6-46.9c0,0,4.9-5.9,5.4-3.8
	c0.5,2.2,8.1,28.6,8.1,28.6l21-63.1c0,0,5.4-3.8,5.4-0.5c0,0-6.5,43.1-0.5,48.5l19.4-18.9c0,0,3.2,1.6,2.7,3.2
	c-0.5,1.6-3.2,16.2-3.2,16.2s46.4-49.1,46.9-50.7s9.2-2.7,9.2-2.7s0.5,2.7-1.6,5.9c-2.2,3.2-14,20.5-14,20.5s-10.2,21,5.4,12.4
	c0,0,11.9-5.4,12.9-3.2c1.1,2.2,0,6.5,0,6.5L206,82c0,0-9.7,24.3-9.7,27.5c0,3.2,0,10.8,0,10.8s23.7,4.3,27,29.1s-3.8,39.4-3.8,39.4
	L208.7,206c0,0,3.8,8.1,0,10.2c0,0,18.3,36.1,13.5,50.7c-4.9,14.6-21,10.8-21,10.8l-11.9-4.3l-2.2-5.9c0,0-17.3-30.7-22.6-32.9
	c0,0-24.3-0.5-29.1-4.3l-2.2,2.2l0.5-11.9c0,0-19.9,15.6-21.6,28c0,0-29.7,13.5-30.7,19.9L69,265.8l-3.8-7.5l-9.2-10.8l-0.5-19.9
	c0,0-7-7-5.9-8.6c0,0-18.3,7-19.9,5.4s-1.6-1.6-1.6-1.6L49.1,201.1z"/>
<path class="st4" d="M128.3,174.2l1.6-30.7c0,0,29.7-56.1,55.5-56.6c0,0,10.2,27.5,4.3,51.2c0,0-43.7,26.4-45.8,37.2l1.1-7.5
	l-3.8,2.2l2.7-9.7l-5.9,6.5l-1.1-5.9C137,160.7,127.3,169.9,128.3,174.2z"/>
<path class="st5" d="M133.7,220.5c0,0,1.6,14-0.5,16.7c-2.2,2.7-8.1-7.5-8.1-7.5S129.9,219.5,133.7,220.5z"/>
<path class="st5" d="M189.8,266.4c0,0-7.5,7-4.9,11.3l9.2-3.2C194.1,274.5,190.9,265.3,189.8,266.4z"/>
<path class="st5" d="M200,274.5c0,0,9.2-11.9,14-1.6c0,0-1.6,11.3-4.9,10.8C206,283.1,200,274.5,200,274.5z"/>
<path class="st5" d="M222.7,261c0,0,6.5,5.9,5.9,7.5s-8.1,1.6-8.1,1.6S220.5,259.9,222.7,261z"/>
<path class="st6" d="M81.4,168.8l-9.7,4.9c0,0,4.9,8.1,8.6,7.5l2.7-4.3L81.4,168.8z"/>
<polygon class="st6" points="93.8,154.8 99.8,149.4 104.1,150.5 108.4,167.2 105.7,172.6 92.7,160.2 "/>
<polygon class="st6" points="184.9,163.4 179,167.2 179.5,181.2 189.2,187.1 193,184.4 191.4,170.4 "/>
<polygon class="st6" points="206.5,138.1 203.8,142.4 209.2,165 215.1,168.8 217.8,165 217.3,155.9 209.7,139.1 "/>
<polygon class="st6" points="204.9,180.1 207,191.4 210.3,192.5 211.4,182.3 207.6,181.7 "/>
<polygon class="st6" points="195.7,231.3 196.8,241.6 208.1,253.4 210.8,248.6 209.7,235.1 202.7,228.6 "/>
<polygon class="st6" points="190.9,251.3 187.6,255 188.7,257.2 199.5,267.4 202.2,264.8 198.4,256.1 "/>
</svg>
