<?xml version="1.0" encoding="utf-8"?>
<!-- Generator: Adobe Illustrator 23.0.4, SVG Export Plug-In . SVG Version: 6.00 Build 0)  -->
<svg version="1.1" id="Layer_1" xmlns="http://www.w3.org/2000/svg" xmlns:xlink="http://www.w3.org/1999/xlink" x="0px" y="0px"
	 viewBox="0 0 288 288" style="enable-background:new 0 0 288 288;" xml:space="preserve">
<style type="text/css">
	.st0{fill:#E5E5EB;}
	.st1{fill:#F7F7F7;}
	.st2{fill:#67556B;}
	.st3{fill:#B599BC;}
	.st4{fill:#438883;}
</style>
<path class="st0" d="M197.2,269.2c-2.1,6.5-1.2,9.4,0.2,10.8c0,0,18.5,0,18.5,0l0,0l1.9-0.9c0.4-0.3,1.1-1,1.3-2
	c0,0,0.2-1.1-0.7-2.4C216.4,271.8,198,269.3,197.2,269.2z"/>
<path class="st1" d="M78.1,267.5c0,0-6.5,8.6-5,11.6c1.5,3,8.5,0,8.5,0s-3.4,4.5-2.1,6.3c0.4,0.6,1.2,0.7,1.6,0.7
	c4.3,0.5,16.2-6,18.2-7.1c2.8-3.6,2.3-8.5-0.7-11c-2.4-2-6-2.3-9-0.6C89.6,267.5,85.6,257.9,78.1,267.5z"/>
<path class="st0" d="M16.9,252.1c0,0-5.8,8.5-3.4,9.9l7.2-2.8l0.5,5.2c1.3-0.2,2.6-0.5,4.1-0.9c3.3-0.9,6-2.2,8.1-3.4
	c1.6-3,1.7-6.2,0.2-8.3c-1.3-1.7-3.3-2.2-4.7-2.4C23.4,248.2,18.7,250.9,16.9,252.1z"/>
<path class="st2" d="M189.8,136.8l52.4-42.5c0,0,13.7-5.2-6.1,25.5c-19.8,30.7-13.7,26.9-13.7,26.9l35.4-10.4c0,0,9.9,0.5-8,17
	c-18,16.5-14.2,24.6-14.2,24.6s13.7,0.5,12.3,5.2c-2,1.2-5.1,3.3-7.7,7.1c-4.3,6.3-4.3,12.8-4.2,15.2c-16-7.4-32.1-14.8-48.1-22.2
	L167.1,168l18.9-31.2H189.8z"/>
<path class="st2" d="M43.7,160.9c-5.5-16.7-11-33.4-16.5-50c0,0,2.4-2.8,10.9,5.2l-4.7-11.3c0,0,5.2-2.4,7.6-0.5l4.3-54.8
	c0,0,7.6,4.3,8,11.8c0,0,24.6-18.4,37.8-43.5c0,0,4.7-14.2,8-12.8c3.3,1.4,9,0,4.3,18.9l3.3,4.7l9.5-2.8c0,0,4.3,3.8-3.3,14.2
	c5.9,12.7,11.8,25.4,17.6,38c-10.3,19.5-20.6,38.9-30.9,58.4C80.9,144.5,62.3,152.7,43.7,160.9z"/>
<path class="st2" d="M25.3,242.2l-7.6,6.1c0,0-2.4,2.4-0.9,3.8c0,0,4.7-4.3,6.1,1.4l0.9,2.4c0,0,3.3-9.5,8.5-2.4
	c0,0,3.3,5.2,0.9,6.6l8.5-1.9l-6.1-7.1L25.3,242.2z"/>
<path class="st3" d="M99.5,136.4c0,0-35-10.9-61.4,29.3c0,0-27.4,8-29.3,12.8s17.5,6.1,17.5,6.1s-9.5,14.6-3.8,23.6
	c0,0,5.2,20.3,7.6,21.3c0,0-1.9,8.5-4.3,9.9c-2.4,1.4,6.1,11.3,9.9,11.8c0,0,0.5-3.8,10.4,0c9.9,3.8,9,5.7,9,5.7s16.1,2.4,31.7-10.4
	l15.1-5.2c0,0-6.1,13.7-16.5,14.6s-8,12.8-8,12.8l3.3-3.3c0,0,6.6,0,7.6,3.3c0,0,4.7-3.3,8,1.4s1.4,9.9,1.4,9.9s11.8,1.9,23.2-5.2
	s37.3-19.4,61.9-10.9c0,0,16.1,9.5,32.1,9.5c0,0,5.7,3.3,2.8,5.7c0,0,29.8-2.4,34.5-27.9c4.7-25.5-15.1-44.9-15.1-44.9l-8.5-7.1
	l3.8-10.9c0,0,4.3-4.3-13.2-1.4l6.1-12.3c0,0,0.5-5.2-19.8,1.4c0,0-1.9-8,9.5-20.3c0,0,8.5-11.8-38.3,9l-7.1,1.4
	c0,0,21.7-19.4,30.2-57.2c0,0,6.1-2.8,8.5-8c2.4-5.2-3.3-13.7,1.9-23.2s13.7-17.5,13.7-17.5s7.1-5.7-9-8c0,0-4.3-13.7-8.5-12.8
	l10.9-13.7c0,0,2.4-12.3-24.6,7.1S169,48.9,169,48.9V38.6c0,0-4.3-11.8-50.1,52.4l-5.7-3.3c0,0-4.7,0-2.4,14.6l-5.7-5.2
	C105.2,97.1,101.9,88.6,99.5,136.4z"/>
<path class="st2" d="M39,186c0,0-6.1,19.4,1.9,19.4s18-20.8,18-20.8L39,186z"/>
<ellipse class="st2" cx="163.1" cy="204.4" rx="9.7" ry="12.3"/>
<polygon class="st2" points="147.3,219.1 143.5,225.7 146.3,229.9 152.4,223.8 "/>
<path class="st2" d="M208.2,212.4l-3.3,5.2l4.3,10.9l6.6,2.8c0,0,4.3-4.3,7.1,3.3c0,0,5.7,6.1,6.1-3.3s-2.8-14.6-2.8-14.6
	s-5.2-0.9-7.1-3.8C217.2,210.1,208.2,212.4,208.2,212.4z"/>
<path class="st4" d="M108.5,178.9c0,0-5.2-38.7,17.5-69.9s61.4-54.3,61.4-54.3s21.3-18,15.6,23.6c0,0-20.8,70.4-43,86
	s-39.2,23.2-39.2,23.2s11.8-23.2,9.5-28.4C127.9,153.8,108.5,178.9,108.5,178.9z"/>
<path class="st1" d="M35.6,250.7c0,0,9.6,14.1,15.8,14.1s3.8-8.3,3.8-8.3c-0.4-0.6-1-1.3-1.9-2.1c-0.7-0.7-2.3-1.9-6.1-3.4
	c-4.3-1.6-7-2.6-9.8-1.5C36.6,249.9,36,250.4,35.6,250.7z"/>
</svg>
