<?xml version="1.0" encoding="utf-8"?>
<!-- Generator: Adobe Illustrator 23.0.4, SVG Export Plug-In . SVG Version: 6.00 Build 0)  -->
<svg version="1.1" id="Layer_1" xmlns="http://www.w3.org/2000/svg" xmlns:xlink="http://www.w3.org/1999/xlink" x="0px" y="0px"
	 viewBox="0 0 288 288" style="enable-background:new 0 0 288 288;" xml:space="preserve">
<style type="text/css">
	.st0{fill:#A2947F;}
	.st1{fill:#EFE1A8;}
	.st2{fill:#F9F6E9;}
	.st3{fill:#DCA85F;}
	.st4{fill:#9B9790;}
	.st5{fill:#C7B890;}
</style>
<path class="st0" d="M178.9,125c0,0-2.5-18.8-7.1-15.7c0,0,6.6-41.6-16.2-44.7c-0.2,14.6-4.3,23.8-8.1,29.4
	c-5.5,8.2-12.6,12.7-15.7,24.4c-1.2,4.6-0.4,4.7-1.5,11.2c-2.5,14-7.9,20.6-10.2,27.4c-2.6,7.7-2.6,19.8,9.1,38.6
	c14.6-13.9,29.1-27.7,43.7-41.6L178.9,125z"/>
<path class="st0" d="M191.6,192.5c0,0,4.6,12.7,7.6,12.2c3-0.5-7.6,29.9-7.6,29.9s-13.7-0.5-14.7,1.5c-1,2-13.7-7.6-13.7-7.6
	l-2-18.8c0,0,6.1-11.2-1-23.9l7.6-7.1L191.6,192.5z"/>
<path class="st1" d="M155.6,64.6c0,0-23.9-61.4-74.6-18.3c0,0-41.6,8.6-44.2,41.1c0,0-38.6,23.9-18.8,60.4
	c19.8,36.5,52.3,41.1,52.3,41.1c3.5,4.2,17.9,20.3,40.1,21.3c6.3,0.3,11.8-0.7,16.2-2c-1.5,8.7-0.9,10.8,0,11.2
	c1.8,0.7,4.9-6.4,8.5-5.8c3.4,0.5,3.2,7.2,6.7,8.9c2.8,1.3,8.2-0.5,19.3-12.7c0.8-2.2,1.5-5.2,2-8.9c0.6-4.9,0.3-10.9-3-15l7.6-7.1
	c0,0,7.1,55.3-3,67.5l16.8,9.1c0,0-0.5-5.1-1.5-8.1s7.6-55.3,7.6-55.3l9.6-22.8l-25.4-31c0,0-24.4,39.6-26.9,41.6l-15.7,15.7
	c0,0-12.2-48.2,11.7-73.1C164.7,97.6,155.6,64.6,155.6,64.6z"/>
<path class="st0" d="M174.8,56.4c0,0-10.7-5.1-12.2-3c0,0,13.2,17.3,13.2,22.3C175.9,75.7,193.6,72.7,174.8,56.4z"/>
<path class="st1" d="M180.9,66.6c0,0-18.8-11.5,15.7-34.5c1.5-1,22.8-8.6,27.4-7.6c0,0-5.6,4.6-8.1,5.1c-2.5,0.5-2.5,0.5-2.5,0.5
	s26.9-0.5,31.5,1.5c4.6,2,21.3-5.6,21.3-5.6s-12.7,18.8-27.9,18.8c0,0,34.5,15.2,36,35.5c0,0-24.9-28.4-49.2-24.4
	c0,0,22.8,16.2,19.3,27.4l-5.1-6.1c0,0,7.1,25.9-1,30.5c0,0-6.6-33.5-30.5-36.5C184,68.1,180.9,66.6,180.9,66.6z"/>
<path class="st1" d="M221.5,166.6c0,0-13.2,46.7-14.7,48.2s-2,27.4-2,27.4s10.2,7.1,4.1,10.7c0,0-3,4.1-10.7,2c0,0-8.1,0.5-8.1-3.6
	c0-4.1,1-36,1-36l8.1-36C199.2,179.3,220,165.6,221.5,166.6z"/>
<path class="st2" d="M126.6,203.1c0,0-46.2-34.5-73.1-30.5C26.6,176.7,17,183.9,17,183.9s-29.9,39.6,28.9,49.2
	c0,0,14.2,24.4,35.5,21.3c0,0,13.7,14.7,40.1,8.6c26.4-6.1,46.7,0.5,46.7,0.5l2-16.8l-19.3-8.6c0,0,22.8-9.6,27.4-14.7
	c4.6-5.1,22.8-5.6,22.8-5.6s18.8,0,21.8,2.5c3,2.5,6.6-9.6,6.6-9.6s-24.9-18.8-66.5-2.5S126.6,203.1,126.6,203.1z"/>
<path class="st2" d="M187.5,65.6c0,0-1-24.9,2.5-24.4c3.6,0.5,17.8,29.9,17.8,29.9s34.5,67.5,13.7,95.4l-3.6,3c0,0-0.5,5.6-5.6,6.1
	c0,0-6.6,10.7-9.1,10.7l1-6.1c0,0-11.7,13.7-16.8,11.7l2-9.6c0,0-11.2-12.2-9.6-20.3l-1.5,8.1l-0.7-3.7l-0.3-1.9c0,0-12.2-13.7-1-35
	s6.1-24.9,6.1-24.9s-4.1-5.1-13.7-6.1c-9.6-1-10.2-4.1-10.2-4.1s-6.1-2-6.1-5.6s5.6-6.1,5.6-6.1l11.2-3.6
	C169.3,79.3,171.8,68.1,187.5,65.6z"/>
<path class="st3" d="M229.7,210.8c0,0,25.4,6.1,22.8,33c0,0-15.2-21.8-29.4-23.4l-5.1-5.6l5.6,2.5l-7.1-6.1l10.7,2l-3.6-4.1
	L229.7,210.8z"/>
<path class="st3" d="M170.3,246.8c0,0,23.9,12.7,26.9,30.5c0,0-22.8-16.8-28.9-13.7l-20.3-6.6h7.6l-13.7-7.1l12.2,1.5l-1-4.1
	l9.1,0.5l-1.5-4.1L170.3,246.8z"/>
<ellipse class="st4" cx="154.5" cy="86.4" rx="2" ry="2.5"/>
<path class="st5" d="M189.1,66.1l1.5-18.8c0,0,6.6,12.2,4.1,20.3L189.1,66.1z"/>
</svg>
