<?xml version="1.0" encoding="utf-8"?>
<!-- Generator: Adobe Illustrator 23.0.4, SVG Export Plug-In . SVG Version: 6.00 Build 0)  -->
<svg version="1.1" id="Layer_1" xmlns="http://www.w3.org/2000/svg" xmlns:xlink="http://www.w3.org/1999/xlink" x="0px" y="0px"
	 viewBox="0 0 288 288" style="enable-background:new 0 0 288 288;" xml:space="preserve">
<style type="text/css">
	.st0{fill:#A19982;}
	.st1{fill:#5E8B99;}
	.st2{fill:#E2D9BA;}
	.st3{fill:#83C3D3;}
</style>
<path class="st0" d="M62.7,216.3c0,0-10.2,7.3-1.1,17.6c9.1,10.2,0,0,0,0s8.4-0.7,8.4-3.7s0,0,0,0L62.7,216.3z"/>
<path class="st1" d="M70,230.2c0,0-2.9,3.7-18.7,4C35.6,234.6,61.9,250,61.9,250s11.7,2.9,15.7,2.2c4-0.7,13.5-5.9,13.5-5.9
	L70,230.2z"/>
<path class="st1" d="M245.6,237.2l2.2,2.9c0,0-2.9,4.4-4.8,4.8c-1.8,0.4-6.6-4-6.6-4L245.6,237.2z"/>
<path d="M106.2,208.7c3,1.8,7.9,4.3,14.3,5.1c18.5,2.3,24.3-12.9,43.9-15.7c0,0,50.5,14.3,50.5,14.3l0,0c1.3-0.2,3.3-0.7,5.3-2
	c5.6-3.8,6.3-11.3,6.1-14.4c-0.6-8.9-11.3-17.6-26.7-19.8c-1.1-0.2-6-0.4-12.1,1.5c-8,2.5-13.1,7.3-15.4,9.9c-2,0.5-4.9,0.9-8,0
	c-2.6-0.7-4-2-6.6-3.7c-2.2-1.5-5.5-3.4-9.9-5.1c-2.1-0.9-12.2-5.1-23.7-0.7c-9.3,3.5-14,10.4-15.5,12.8c0,0-7.3,13.2-6.6,15.7
	L106.2,208.7z"/>
<path class="st2" d="M218.9,212.7c0,0,20.9-16.8,3.7-37.7c0,0-7-15.4-5.5-28.5c1.5-13.2-4.4-48.7-4.4-48.7s-17.2-72.1-69.1-83.4
	c0,0-65.5-27.4-101,29.6c0,0-30.7,54.5-17.2,101s34.8,62.9,34.8,62.9s-0.4-44.6,22-46.5c0,0,2.6,1.8-0.4,12.1
	c-2.9,10.2,20.1,32.9,20.1,32.9s11.3-41.7,46.5-26c4.8,4,9.2,6.5,12.4,8c5.1,2.5,7,2.6,7.7,2.6c4.1-0.1,6-2.6,11.9-6.5
	c5.1-3.4,9.3-5.6,14.4-7c2.1-0.6,8.5-1,15.4,2.2c9.9,4.6,13.5,13.7,14.3,15.7c0,1.8-0.2,4.1-0.7,6.6
	C222.5,206.9,220.5,210.4,218.9,212.7z"/>
<path class="st3" d="M101.8,206.5c0,0-20.5-20.9-20.1-32.9c0,0,1-2.1,1.6-4.7c0.3-1.2,0.9-6-1.2-7.4c-2.4-1.6-7.4,1.6-10.2,4.4
	c0,0-1.3,1.3-5.9,8.8c0,0-8.8,23.4-5.9,34.4c2.9,11,9.9,21.2,9.9,21.2s8.4,13.5,21.2,16.1c12.8,2.6,0,0,0,0s-17.9,5.9-22.3,7
	c-4.4,1.1-1.8,4.8-1.8,4.8s13.9,14.3,36.2,5.5c0,0-12.1,9.1-2.2,10.2c0,0,24.1,4,34-8.8c0,0-11.7,18.7,2.6,15.7
	c14.3-2.9,19.8-8,19.8-8s10.2-7.3,11.3-15.4c0,0,19.8,26.7,34.8,20.1c0,0,11.7-1.1,0.7-11.3c0,0,32.6,7.7,28.9-2.9
	c0,0,0.4-2.9-8.4-7.3c0,0,31.5-2.2,20.5-9.1l-8.8-5.9c0,0,34-5.1,20.5-59.3c0,0-16.1-30-25.2-19c0,0,16.5,37-12.8,50.1
	c-3.7-2.2-9-5.1-15.7-7.7c-15.8-6.1-29-6.6-38.8-7c-17.8-0.6-31.6,2.3-38.4,4c-8.1,2-14.8,4.5-19.8,6.6
	C104.7,207.9,103.3,207.2,101.8,206.5z"/>
</svg>
