<?xml version="1.0" encoding="utf-8"?>
<!-- Generator: Adobe Illustrator 23.0.4, SVG Export Plug-In . SVG Version: 6.00 Build 0)  -->
<svg version="1.1" id="Layer_1" xmlns="http://www.w3.org/2000/svg" xmlns:xlink="http://www.w3.org/1999/xlink" x="0px" y="0px"
	 viewBox="0 0 288 288" style="enable-background:new 0 0 288 288;" xml:space="preserve">
<style type="text/css">
	.st0{fill:#507789;}
	.st1{fill:#7A726C;}
	.st2{fill:#EBE2C6;}
	.st3{fill:#A2D0DD;}
	.st4{fill:#491630;}
	.st5{fill:#ECE3C7;}
</style>
<path class="st0" d="M59.5,205.9c0,0-31.4-9.5-29.9-32.9s0.5-33.9,0.5-33.9s-1.5-16.4-12-15.4c-10.5,1,2,11.5,2,11.5s4,13.5,1,19.4
	s-15.9,55.8,43.3,57.8l8.5,4.5c0,0-13-2.5-20.9,11s-21.9,11.5-21.9,11.5s-7.5-5.5-7.5-9.5s-10-2-5,6s10,9.5,10,9.5s10.5,5.5,29.9-10
	S79,221.8,79,221.8s-23.4,11-14.9,28.4c0,0,2,0,4.5-5c2.5-5,13-12.5,13-12.5l4.5-8.5C85.9,224.3,66,204.9,59.5,205.9z"/>
<path class="st1" d="M200.5,224.8l14-21.4l26.4-34.4l2-39.4c0,0-5.5-30.9-8.5-33.4c0,0,5.5-7.5,2.5-8.5c-3-1-7-1-7-1
	s-13.5,31.4-19.4,32.4c-6,1-12,16.9-12,16.9l5,54.3L200.5,224.8z"/>
<path class="st0" d="M205.5,195.9c0,0,28.9-13.5,30.4-30.4s0-37.9,14-42.4c14-4.5,12,1,12,1s-15.9,10.5-13,28.4
	c3,17.9-5.5,32.9-5.5,32.9s-7,18.4-40.4,23.9l10,2c0,0,15.9,6.5,25.4,12.5c9.5,6,24.4,4,24.4,4s8-4,8.5-9c0.5-5,5-5.5,5-2
	c0,0,2.5,21.9-20.4,22.9c-22.9,1-45.8-22.4-53.3-17.4c0,0,11,8.5,12,13.5c1,5,17.9,10,17.9,10s-7.5,9-19.9-1
	c-12.5-10-11.5-13.5-16.9-14c-5.5-0.5-1-19.9-1-19.9L205.5,195.9z"/>
<path class="st1" d="M170.2,51.3c0,0,6.5-23.4,10-21.9c3.5,1.5,8.5,26.9,8.5,26.9L170.2,51.3z"/>
<path class="st2" d="M76,166.9c0,0,3.5-9.5,7-9.5c0,0-0.5-55.8,17.9-71.3c0,0-6.5-11-4-11s9.5,4,9.5,4s18.9-19.9,25.4-18.4
	c0,0-4.5-27.9,1-25.4s16.9,16.4,16.9,16.4s46.3-11.5,80.2,35.9c0,0-12.5,31.4-18.9,34.4c-6.5,3-23.4,45.3-23.4,45.3l-50.3,25.9
	l-49.3-6.5l-13-13L76,166.9z"/>
<path class="st3" d="M64.5,212.4c0,0-15.4-14.4-11-29.4s6-25.4,6-25.4s-1-16.4-6.5-22.9c-5.5-6.5,4.5-5.5,4.5-5.5s12,1,15.9,26.4
	s12.5,21.9,12.5,21.9S87.4,164,99.4,164s15.4,15.4,15.4,15.4s3.5,8,10.5,5.5c7-2.5,10.5-4.5,11-8c0.5-3.5,0.5-19.9,18.4-16.9
	s15.4,16.9,15.4,16.9s9.5-7,9-17.4c-0.5-10.5,2-36.4,16.4-41.4c14.4-5,15.9-3,15.9-3s3,4-3.5,7.5c-6.5,3.5-6,19.4-6,19.4l3.5,17.4
	c0,0,9.5,22.4,2,35.4c0,0-19.9,20.9-7.5,40.9s-1,22.4-1,22.4s-8.5,1-32.4-10.5c-23.9-11.5-49.3-5-49.3-5s-25.9,8-33.4,12
	s-12.5-2-12.5-2s-2-7,7.5-18.4S64.5,212.4,64.5,212.4z"/>
<path class="st4" d="M112.4,193.9c0,0,3.5-6,19.9-1c16.4,5,22.9,17.4,22.9,17.4s2,23.9-22.9,23.4c-24.9-0.5-33.4-14-33.4-14
	S93.9,204.9,112.4,193.9z"/>
<path class="st5" d="M98.3,210.6c0,0,14.4,3.5,15.9,1c0,0-1-17.9,2.5-20.4C116.7,191.2,97.8,195.6,98.3,210.6z"/>
<path class="st5" d="M120.8,211.9c0,0,3.5-14.4,11.5-18.9c0,0,19.9,1,22.9,17.4C155.2,210.4,134.3,218.8,120.8,211.9z"/>
<path class="st5" d="M98.9,219.8c0,0,9.5,3,13,0.5c0,0,4,12,6,13C117.8,233.3,98.4,227.8,98.9,219.8z"/>
<path class="st5" d="M120.8,220.7c0,0,26.4,3.5,33.4-1.5c0,0-2.5,15.4-21.9,15.4C132.3,234.7,121.8,227.7,120.8,220.7z"/>
</svg>
