<?xml version="1.0" encoding="utf-8"?>
<!-- Generator: Adobe Illustrator 23.0.4, SVG Export Plug-In . SVG Version: 6.00 Build 0)  -->
<svg version="1.1" id="Layer_1" xmlns="http://www.w3.org/2000/svg" xmlns:xlink="http://www.w3.org/1999/xlink" x="0px" y="0px"
	 viewBox="0 0 288 288" style="enable-background:new 0 0 288 288;" xml:space="preserve">
<style type="text/css">
	.st0{fill:#70515C;}
	.st1{fill:#161413;}
	.st2{fill:#8A6A53;}
	.st3{fill:#B37E59;}
	.st4{fill:#C48AA2;}
	.st5{fill:#E09865;}
	.st6{fill:#E8B957;}
</style>
<path class="st0" d="M74.8,171c0,0,78,35.4,96.5,27.1c0,0,74.2-1.5,80-10.7c0.1-0.1,0.1-0.3,0.1-0.4c1.4-12.1-162-49.9-175.6-20.4
	C74.8,168.5,74.8,170.3,74.8,171z"/>
<path class="st1" d="M73.8,151.1c12.6-5.4,51.7-20.4,98.9-7.8c31.2,8.4,52.1,25.2,62.5,34.9c-12.5,6.2-33.7,14.4-60.6,14.5
	C119.9,193.1,82.9,159.8,73.8,151.1z"/>
<path class="st2" d="M220.7,187c0,0-17.4,21.3-25.7,24.2c-8.2,2.9-43.1-11.1-43.1-11.1s-22.3,1-44.1-15c0,0-18.9,26.2-21.8,26.2
	l-4.8,15.5c0,0,6.8,7.8,5.8,10.7c-1,2.9-14.5-11.1-14.5-11.1s3.4-15.5,2.9-19.4c0,0,18.9-19.9,20.8-29.1c1.9-9.2,13.6-8.7,13.6-8.7
	l48.5-2.9l34.4,2.4l23.3,14.1l22.8-1.9c0,0,7.8-1,10.2-5.3c2.4-4.4,19.9,21.8,19.9,21.8l11.1,5.8l3.9,30.1L273,243.7l2.9-11.6
	l-6.8-20.8c0,0-23.8-21.3-23.8-24.7s-8.7,1.9-8.7,1.9l-7.3-3.4L220.7,187z"/>
<path class="st3" d="M75.7,150.1c0,0,2.9,7.8,13.1,11.1s69.3,4.8,69.3,4.8s12.1-3.4,16-1.5c3.9,1.9,41.7,17.9,41.7,17.9
	s15-1.5,16.5-6.3c1.5-4.8,6.3,4.4,6.3,4.4s8.7,25.2,20.8,30.1c12.1,4.8-15,41.7-15,41.7l-18.9,2.9c0,0,5.8-8.7,9.2-8.2
	s12.6-29.6,12.6-29.6s-20.4-27.1-18.9-30.1c1.5-2.9-11.6,0-11.6,0l-52.8-15.5c0,0-3.9-2.9-1.5-3.9c2.4-1-4.4,2.4-4.4,2.4l-57.7,5.3
	l-28.6,14.1l-14.1,30.5l7.3,13.6c0,0-12.6-1-16.5-15l5.8-23.8l14.1-15c0,0,19.4-3.4,20.8-10.2c0,0-5.8-4.4-14.5,1L75.7,150.1z"/>
<path class="st4" d="M43.7,138.5c0,0-9.7-31,27.6-43.1c37.3-12.1,64-61.6,64-61.6s24.2-26.7,54.8-17.4S228.9,43,228.9,43
	s13.6,22.8,16.5,70.8c2.4,5.7,5,11.6,7.9,17.7c4.2,8.8,8.6,17,12.9,24.5c3,11.1,0.2,21.7-6.8,26.7c-6,4.2-15.2,4.1-18.3,1.6
	c-2-1.6-2.6-3.6-2.6-3.6s-52.8-49-160-27.1L43.7,138.5z"/>
<path class="st5" d="M75.7,150.1c0,0,0-16.5-10.2-17.9c-10.2-1.5-33,10.7-33,10.7s-44.1,49.9-25.2,91.6s17.4,24.7,17.4,24.7
	s6.8-48.5,22.8-60.6c0,0,5.3,16.5,6.8,14.5c1.5-1.9,9.2-26.7,9.2-26.7l9.2-6.3C72.8,180.2,80.1,168.1,75.7,150.1z"/>
<path class="st5" d="M171.2,163.7c0,0,20.8-22.8,31.5-16c10.7,6.8,13.1,28.6,13.1,28.6s6.3,37.8-26.2,67.4s-39.3,33.9-39.3,33.9
	l2.9-15c0,0-12.1-40.7-1.5-62.5C162.5,178.2,171.2,163.7,171.2,163.7z"/>
<path class="st5" d="M89.8,148.2c-1.1,1.7-2.7,4.7-2.7,8.4c0,6.5,4.5,11.3,8,14.3c17,14.5,31.5,12.6,31.5,12.6s8.5-0.5,16.7-2.9
	c4.1-1.2,13.3-6,14.8-14.5c0.9-5.1-1.3-9.5-2.4-11.6c-2.5-4.9-6.2-7.6-9.2-9.7c-7.3-5.2-15-7-20.4-7.8c-3.2-0.9-11.9-2.7-21.8,1
	C96.7,140.9,92,145.7,89.8,148.2z"/>
<path class="st6" d="M136.3,35.7c0,0,7.3,13.1,23.3,1S147.9,27,147.9,27S137.3,29.9,136.3,35.7z"/>
<path class="st6" d="M222.6,54.2c0,0-15.5-2.4-8.2,7.3c7.3,9.7,13.1,2.4,13.1,2.4S227,55.6,222.6,54.2z"/>
<path class="st6" d="M108.2,68.7c1.5,1.5,13.6,1.5,6.8,7.8c-6.8,6.3-16.5,3.9-16.5,3.9L108.2,68.7z"/>
<path class="st6" d="M68.5,116.2c0,0-23.3,3.9-8.2,13.6S99,113.3,68.5,116.2z"/>
<path class="st6" d="M128.6,90.5c-1.7-0.1-27.6,1-24.2,12.6c3.4,11.6,49.4,4.4,49.4,4.4S177.5,94.4,128.6,90.5z"/>
<path class="st6" d="M195.9,61.9c0,0-29.1-10.2-15.5,6.8c13.6,17,31,7.3,31,7.3S219.2,66.3,195.9,61.9z"/>
<path class="st6" d="M240.5,89.1c0,0-7.3,0.5-4.4,6.8c2.9,6.3,7.3,3.4,7.3,3.4L240.5,89.1z"/>
<path class="st6" d="M202.2,103.6c0,0-16.5-3.4-5.8,8.2S218.7,108.5,202.2,103.6z"/>
<path class="st6" d="M180.4,123c0,0-18.9-3.4-15.5,9.2s31,8.7,31,8.7S210,129.8,180.4,123z"/>
<path class="st6" d="M243,124.9c0,0-14.5-8.2-15,1.9s11.6,11.6,11.6,11.6s18.4,5.3,16.5,1.5C254.1,136.1,253.6,125.9,243,124.9z"/>
<path class="st6" d="M260.4,158.9c0,0-15.5-1.5-8.7,9.2c0,0,13.1,4.4,13.6,7.3s2.9-11.6,2.9-11.6L260.4,158.9z"/>
</svg>
