<?xml version="1.0" encoding="utf-8"?>
<!-- Generator: Adobe Illustrator 23.0.4, SVG Export Plug-In . SVG Version: 6.00 Build 0)  -->
<svg version="1.1" id="Layer_1" xmlns="http://www.w3.org/2000/svg" xmlns:xlink="http://www.w3.org/1999/xlink" x="0px" y="0px"
	 viewBox="0 0 288 288" style="enable-background:new 0 0 288 288;" xml:space="preserve">
<style type="text/css">
	.st0{fill:#FBF7EB;}
	.st1{fill:#988A88;}
	.st2{fill:#EDDCBC;}
	.st3{fill:#BC6258;}
	.st4{fill:#302C2B;}
</style>
<polygon class="st0" points="257.2,216.3 255,219 259.8,220.2 "/>
<polygon class="st0" points="265.1,221.9 263.4,222.8 266.8,223.8 "/>
<polygon class="st0" points="268.7,224.8 267.8,226.2 271.9,227.2 "/>
<polygon class="st0" points="160.2,260.4 160.2,262.1 163.5,260.4 "/>
<polygon class="st0" points="171,260.4 173.6,263.3 174.6,260.4 "/>
<polygon class="st0" points="179.7,256.8 182.3,258.5 183.8,256.1 "/>
<polygon class="st0" points="78.1,256.1 79,257.8 81.4,256.1 "/>
<polygon class="st0" points="87.2,256.4 88.2,258.1 90.8,256.2 "/>
<polygon class="st0" points="95.6,256.1 96.6,257.3 98.3,255.1 "/>
<path class="st1" d="M195.6,32.4c0,0-7.2-2.9-9.1-6.7s-25-12-21.2,6.3s11.1,16.9,11.1,16.9l-1-4.8C175.3,44,186.4,34.8,195.6,32.4z"
	/>
<path class="st1" d="M217.7,38.7c9.9-10.2,20.8-15.3,27.7-12c0.8,0.4,4.2,2,5.3,5.3c0,0,0.9,2.7-3.1,13.5l0,0l-12,9.6
	C235.5,55,236.5,38.7,217.7,38.7z"/>
<path class="st1" d="M103.6,188.4c0,0,6.7,9.6,5.8,13.5c0,0,9.1,9.6,10.1,21.2c0,0,12,7.2,17.8,19.3l13.5,1l-2.9-15.9l-14.4-14.9
	l-4.8-19.7c0,0,12.5-14.4,13-20.2C142.1,166.7,102.6,177.3,103.6,188.4z"/>
<path class="st2" d="M176.3,48.8c0,0-5.3,18.8-6.7,18.3s3.4,5.8,3.4,5.8c-16.5,1-20.2,1.6-20.2,1.9c0,0.5,8,0.9,12.5,1
	c3.6,0.1,9.1,0,9.1,0l0,0l2.4,1.4c-20.7,7.8-25.1,9.8-25,10.1c0.1,0.4,7.3-1.7,13.7-3.6c5.5-1.6,10-3,13.2-4.1
	c0.6,1.4,1.3,2.9,1.9,4.3c-15.3,11-18.5,13.7-18.3,14c0.3,0.4,7.7-4.2,9.1-5.1c0,0,2.5-1.5,10.1-6.5l0,0l2.9,2.4l-3.9,6.7
	c0,0-36.1,28.4-43.8,28.4c-7.7,0-37.1,1.9-37.1,1.9s-29.9,11.6-27.9,41.9c0,0-6.7,21.7-28.4,18.8c-21.7-2.9-23.1-23.1-23.1-23.1
	s0.5-13,3.4-12.5c0,0,13.5,14.9,24.6,0.5c11.1-14.4-2.9-27.9-2.9-27.9s-17.3-12-30.8,5.8C1,147,6.8,170.6,6.8,170.6
	s8.2,27.9,38,28.9c0,0,12.5,0,20.2-6.3c0,0-5.8,13-9.6,14.4s2.9,10.1,2.9,10.1l2.9,20.7c0,0,9.1,10.1,9.6,14.9c0,0,6.7,4.3,17.3,2.9
	c0,0,13.5,1.9,13.5-6.7c0-8.7-5.3-7.7-5.3-7.7l-7.2-1c0,0-12-4.8-11.6-32.7l26-19.7l6.3-7.2c0,0,23.1-5.3,36.1-1.9
	c0,0-5.8,21.7-7.7,23.6s7.2,23.6,7.2,23.6l5.3,27.9c0,0,7.2,9.6,14.9,4.8c0,0,12,3.4,14-2.4c0,0,8.7-0.5,5.8-8.2
	c-2.9-7.7-15.4-8.7-15.4-8.7s-7.7-10.1-10.6-35.2c0,0,16.9-23.6,16.9-27.9c0,0,14.4-4.3,14.9-6.7c0,0,24.6,22.1,27.4,29.9
	c0,0,8.7,2.9,15.4,2.4c6.7-0.5,23.1,10.6,23.1,10.6s1.4,8.2,7.2,8.7l5.3,3.9c0,0,7.7,6.3,9.6,1.4c1.9-4.8,1.9-10.1,1.9-10.1
	l-4.8-6.3l-5.3-7.7c0,0-10.6-6.3-36.6-16.9c0,0-14.4-45.3-11.1-52c3.4-6.7,8.7-30.8,8.7-30.8L235,96c2.3,0.9,4.4,1.5,6.3,1.9
	c1.6,0.4,1.9,0.4,1.9,0.2c0.1-0.3-1-1.4-7.2-5.1l1-3.9c5.4,1.5,9.7,2.5,12.8,3.1c1.2,0.3,2.1,0.4,2.2,0.2c0.2-0.6-6.8-3.9-13-6.7
	v-5.8c1.4-0.3,3.5-0.6,6-0.7c2.6-0.1,4,0,4.1-0.2c0-0.3-1.6-1-9.6-2.9V55h-3.9c0,0-0.5-18.3-17.8-16.4l1.4-6.7
	c0,0-17.3-1.4-23.6,0.5c-6.3,1.9-19.7,8.7-20.2,11.6C174.8,46.8,176.3,48.8,176.3,48.8z"/>
<circle class="st3" cx="192.7" cy="55" r="4.8"/>
<path class="st4" d="M187.9,78.1l6.7,1.4c0,0-0.5,3.4-3.4,3.9c-2.9,0.5-4.3-1.9-4.3-1.9S184.5,76.2,187.9,78.1z"/>
<path class="st4" d="M211,45.4c0,0,3.9-26.5,28.9-25c25,1.4,13,23.1,13,23.1S242.3,57,235.5,55c0,0,21.7-15.4,12-25.5
	C237.9,19.4,211,45.4,211,45.4z"/>
<path class="st4" d="M176.3,48.8c0,0-13-9.1-10.1-21.7c2.9-12.5,16.4,1.9,16.4,1.9l7.2,14.4c0,0,0.9-20.3-10.7-26.4
	c-0.8-0.4-7.7-4.1-12.9-1.1c-6.6,3.8-7.4,16.2-2.4,24.1C167.6,46.2,174.1,48.2,176.3,48.8z"/>
<polygon class="st0" points="205.2,91.1 206.6,94 208.6,90.7 "/>
<polygon class="st0" points="187.9,87.8 186.9,91.1 184.5,88.7 "/>
</svg>
