<?xml version="1.0" encoding="utf-8"?>
<!-- Generator: Adobe Illustrator 23.0.4, SVG Export Plug-In . SVG Version: 6.00 Build 0)  -->
<svg version="1.1" id="Layer_1" xmlns="http://www.w3.org/2000/svg" xmlns:xlink="http://www.w3.org/1999/xlink" x="0px" y="0px"
	 viewBox="0 0 288 288" style="enable-background:new 0 0 288 288;" xml:space="preserve">
<style type="text/css">
	.st0{fill:#BCC1D2;}
	.st1{fill:#8D7174;}
	.st2{fill:#D5BBBF;}
	.st3{fill:#FFFFFF;}
	.st4{fill:#342926;}
	.st5{fill:#815839;}
	.st6{fill:#BFB292;}
	.st7{fill:#B59267;}
	.st8{fill:#F6EBBA;}
	.st9{fill:#9B7E7F;}
	.st10{fill:#F2E2EC;}
</style>
<path class="st0" d="M38.5,248c0,0-10.7,7.9-8.4,14.5l13.1-5.6C43.2,256.9,46,246.6,38.5,248z"/>
<path class="st0" d="M51.1,257.8c0,0-3.7,7.5,0.9,8.9l8.9-5.6c0,0,7-8.9-3.3-9.8C57.7,251.3,51.1,252.2,51.1,257.8z"/>
<path class="st1" d="M88,230.7l-0.5,3.7l-14,9.8c0,0-11.7,0.5-14-2.3c0,0-15,4.2-17.3,2.3c0,0-3.7,0.9-3.7,3.7c0,0,7.5-0.5,4.7,8.9
	l-2.8,0.9c0,0,0,2.3,2.3,1.9c0,0,5.6-3.3,8.4-1.9c0,0,5.8-7.6,9-6.2c0.6,0.3,1,1,1.3,1.5c1.1,1.9,0.8,3.9,0.7,4.8
	c-0.1,0.7-0.4,1.8-1,3.1c0.8-0.4,1.9-0.8,3.1-1c3.3-0.7,6,0,7.5,0.6l18.2-7c0,0,9.3-4.7,12.1,0.9l8.4,1.4l4.7-4.7
	c0,0-4.2-6.1-8.4-6.1c0,0-9.8-6.1-7-10.3c0.3-0.4,0.4-0.8,0.3-1.2C99.7,231.7,93.7,231,88,230.7z"/>
<path class="st2" d="M121.2,234.9l1.9,7.5c0,0-11.2,13.1-21,12.1l-24.3-0.5c0,0-2.8,0.5-1.9,4.2c0,0,5.6,0.5,3.3,9.8l-3.3,0.9
	c0,0,2.8,1.4,4.2,1.4s3.7-3.7,7.9-2.8l4.2,1.4c0,0,7-5.1,9.8,0s-1.9,8.4-1.9,8.4s-5.6,5.1,13.6-1.9c0,0,5.1,0.9,11.7-9.3
	c6.5-10.3,21.5-1.9,21.5-1.9s8.9,0.5,10.3-2.3c0,0,6.1-9.3-3.7-11.2c0,0-17.8,1.4-18.2-7.5c-0.5-8.9,0-11.7,0-11.7L121.2,234.9z"/>
<path class="st3" d="M76.7,257.4c0,0-15.8,6.3-10.7,16.5c3.5-1.6,6.9-3.2,10.4-4.9c0.6,0,1.7-0.1,2.8-0.9c2.3-1.6,2.1-4.6,2.1-5
	C81,260.7,79.2,258.5,76.7,257.4z"/>
<path class="st3" d="M96.9,265.8c0,0-13.1,3.7-9.3,18.2c2.2-3.2,4.2-4.2,5.8-4.5c0.6-0.1,4.7-1,6.6-1.8c0.2-0.1,0.5-0.2,0.8-0.4
	c1-0.7,1.4-1.5,1.6-1.9c0.6-1.2,1-3,0.5-4.7C102.2,268.1,99.9,266.2,96.9,265.8z"/>
<path class="st3" d="M158.1,253.1c0,0,7,5.1,6.1,10.7c-2.4-0.4-4.8-0.8-7.2-1.2C157.3,259.4,157.7,256.2,158.1,253.1z"/>
<path class="st4" d="M52.1,57.9c0,0-7.9,0,2.3,4.2s20.1,49.5,20.1,49.5s43.9-3.7,43.5-20.1S92.7,46.6,92.7,46.6L52.1,57.9z"/>
<path class="st5" d="M185.7,162.5c0,0,4.7-7,18.2-7.5c0,0,15.9-17.3,22-16.8c6.1,0.5,25.2-0.5,43,20.1c0,0,4.2,2.8-9.3,6.1
	l10.3,10.3c0,0-33.2,19.6-71.5,14L185.7,162.5z"/>
<path class="st6" d="M39,200.4c0,0,46.6,57,122.3,27.6l-32-17.8l-31-63.5c-11.9,12.9-23.2,20.2-31.6,24.6
	C55,177.3,41.8,181.4,39,192.1C38.2,195.4,38.5,198.4,39,200.4z"/>
<path class="st7" d="M90.4,53.6c0,0,20.6,17.3,18.7,26.2c-1.9,8.9-30.8,28-30.8,28s-3.3,9.3-2.3,13.1c0.9,3.7-4.7,6.1,22,25.7
	c0,0,15.9,53.3,27.1,55.6l15.4,8.9c0,0,33.6,14.5,36-4.7s10.7-37.8,10.7-37.8l-5.6-17.8l2.3,0.5l-6.1-10.7l7.5,0.5
	c0,0-34.6-35-52.3-32.2c0,0-12.1-13.1-12.6-29.4c-0.5-16.4-5.6-23.8-5.6-23.8L90.4,53.6z"/>
<path class="st6" d="M34.8,57.5c0,0,9-30.4,14.4-32.3l-0.6,8.5c0,0,7.8-15.7,13.8-15.2c0,0-3.6,10.4,0,13.3c0,0-21.6,17.6-24,26.1
	L34.8,57.5z"/>
<path class="st7" d="M44.6,58.6h-7c0,0,17.8-39.3,56.1-52.7l-8.9,18.2c0,0,15.9-5.7,20.6-5.7l-7,9.1l5.1-1c0,0-7.5,9.1-9.8,9.6
	l7,1.4C100.7,37.6,71.2,40,44.6,58.6z"/>
<path class="st8" d="M36.4,101.4c0.5,3.1,0.8,7.7-0.4,13c-1.7,7.9-5.4,11.6-9.2,17.8c-0.5,0.8-9,15-9.7,32c-0.2,5.3,0.2,14.2,4.6,25
	c0.8-5.3,1.6-10.6,2.3-15.9c0,0,0.5,19.2,4.2,22.4c0,0,7.9,4.7,10.7,4.7l0.5-4.2l2.3,3.7c0,0,4.2,3.3,5.6,1.4c0,0-3.3-9.8-1.4-11.2
	c0,0,5.1,12.1,6.5,13.1l2.3,0.5l-1.4-8.4c0,0-0.9,3.7,5.6,7.9c6.5,4.2,16.4-0.5,16.4-0.5s-1.9-7.5-2.8-10.7c0,0,6.1,8.9,9.3,8.9
	l1.9-3.3l1.9,2.8c0,0,3.3-13.6,1.4-19.2l4.2,7c0,0,5.6-16.4,2.3-24.3l-1.4-5.6l5.6-11.7c0,0-23.4-15.9-22-25.7
	c0,0,5.1-33.6,11.7-36.9c0,0-21-18.7-33.2-22c0,0-5.1-3.3-2.3-4.2l-4.7,0.9c0,0,15,29-0.9,43c-1.7,0.1-3.5,0.1-5.5,0
	C39.4,101.7,37.8,101.6,36.4,101.4z"/>
<path class="st8" d="M114.2,35.9l-7,5.8c0,0,17.3,5.3,16.8,8.3h-3.7c0,0,10.3,6.8,10.3,9.2c0,0-52.3-11.7-78.5-0.5l-4.7,1l-2.8-1.5
	C44.6,58.3,70.3,36.9,114.2,35.9z"/>
<path class="st8" d="M128.7,210.2c0,0,36,25.7,60.3,23.8l8.9,4.2c0,0,5.1-0.5,5.6-4.2l-2.3-7c0,0,1.9-6.5,1.4-9.8
	c0,0,0.5-15-4.2-28.5c-4.7-13.6-16.8-37.8-16.8-37.8l-5.1-2.8l8.4,16.4l-5.1-1.9l3.7,9.8l-3.3-0.5l0.5,6.1c0,0-7.5,2.3-8.4-1.9
	c0,0,1.9,8.4,0,9.3l-4.2-0.9l0.5,4.2c0,0-9.3-8.4-10.3-7l1.4,7.9l-15.4-10.7c0,0,12.1,20.6,11.2,22.9l-4.2-1.9l2.3,5.6l-4.7,0.9
	l0.9,2.8L138,206l2.3,5.1l-15.4-8.9L128.7,210.2z"/>
<path class="st2" d="M49,59.7c0,0-2.4-4.2-13.2-2.8s-21,2.3-23.5,14L26,74.7c0,0,9.8,9.3,7.8,14l-6.4,10.7c0,0,2.9,2.8,10.7,3.7
	c7.8,0.9,0,0,0,0s17.6,5.1,17.6-21s0,0,0,0S53.9,66.3,49,59.7"/>
<path class="st9" d="M16.1,72c3.2,0.9,6.3,1.9,9.5,2.8c1.2,0.8,3,2.2,4.4,4.4c3.1,4.6,2.8,9.4,2.6,11c-0.4,1.4-1,2.9-1.8,4.6
	c-0.8,1.7-1.6,3.3-2.5,4.6c0,0,18.6-4.2,24.5-13.3c0,0-20-16.1-22.4-15.1C28,72,15.7,69.9,16.1,72z"/>
<path class="st10" d="M33.6,98.3c0,0-0.7-16.1,11.9-18.2l7.7,5.6c-1.5,1.9-3.5,4.2-6.3,6.3C41.9,95.8,36.8,97.5,33.6,98.3z"/>
</svg>
