<?xml version="1.0" encoding="utf-8"?>
<!-- Generator: Adobe Illustrator 23.0.4, SVG Export Plug-In . SVG Version: 6.00 Build 0)  -->
<svg version="1.1" id="Layer_1" xmlns="http://www.w3.org/2000/svg" xmlns:xlink="http://www.w3.org/1999/xlink" x="0px" y="0px"
	 viewBox="0 0 288 288" style="enable-background:new 0 0 288 288;" xml:space="preserve">
<style type="text/css">
	.st0{fill:#F1D488;}
	.st1{fill:#343130;}
	.st2{fill:#826444;}
	.st3{fill:#B29867;}
	.st4{fill:#DB8671;}
	.st5{fill:#7E5C62;}
	.st6{fill:#C398A6;}
</style>
<path class="st0" d="M194.8,137l-7.1-13.4c0,0,64.1-77,82.8-79.7c0,0,16.9,49,11.1,60.5l-60.1,39.6l-13.4,8.9L194.8,137z"/>
<path class="st1" d="M45,60c1-5.6,2.9-13,6.7-21.1c4.8-10.1,10.8-17.4,15.3-22c1.1,1.6,2.4,4.1,3.1,7.5c0.2,0.9,0.3,2,0.4,6.1
	c0.1,2.2,0.1,5.1,0,8.7C62,46.1,53.5,53,45,60z"/>
<polygon class="st2" points="189,201.1 199.7,196.7 194.8,189.1 204.6,185.1 217.5,200.7 196.5,210.5 205,222.5 191.2,226.1 "/>
<path class="st3" d="M94.6,259.9c0,0,1.3,12.5,5.8,12.5c0,0,2.2,1.8,4.5,2.2l1.3-3.1c0,0,4-4.9,1.3-17.8
	C104.8,240.8,94.6,259.9,94.6,259.9z"/>
<path class="st3" d="M172.5,257.7c0,0,2.7,14.7,8.9,15.6c0,0,2.2,2.2,5.8,2.7c3.6,0.4,0.4-5.3,0.4-5.3l2.2,1.3
	c0,0,2.7-18.3-2.7-20.9C181.9,248.3,172.5,257.7,172.5,257.7z"/>
<polygon class="st3" points="200.1,194.9 181.4,175.3 203.7,158.4 194.8,137 199.2,142.4 201.9,137 203.7,143.3 213,132.6 
	212.1,145.9 217.9,139.3 215.2,146.4 221.5,144.2 215.7,151.3 221.9,166.4 201.9,180.2 208.1,189.6 203.7,187.8 206.8,196.7 
	201.4,191.3 201.9,194.9 "/>
<path class="st0" d="M46.1,91.6c0,0-4.5-28.9,0-33.4s21.4-20.5,24.5-19.1c0,0-0.4,39.6-4,41.8c0,0,29.8-5.8,49,4.9
	c0,0,24.5-22.7,63.2-28.5c0,0-5.8,26.7-14.7,33.4c0,0-26.7,9.8-29.8,9.8c0,0,19.1,40.5,18.7,44.5s29.8,45.9,29.8,45.9
	s20.9,27.6,4.9,57.9c0,0-8,12.9-31.2,5.8s-32.9-6.2-32.9-6.2s-7.6-1.3-23.6,9.3c-16,10.7-32.9-13.4-32.5-27.6
	c0.4-14.2-6.2-33.8-6.2-33.8s-43.6-4.9-46.7-7.6l-4,0.9l0.4-4.5l-3.6-0.9l2.7-4.9l-2.2-3.6l4.5-3.1l-0.4-4.9l5.8,1.8
	c0,0,27.2-10.7,31.6-9.8c0,0-24.9-11.1-21.8-31.2S46.1,91.6,46.1,91.6z"/>
<path class="st2" d="M158.7,156.4c0,0,0,11.1,8.5,12.5L158.7,156.4z"/>
<path class="st2" d="M179.3,186.2c0,0-3.6,6.7,7.1,10.7L179.3,186.2z"/>
<path class="st1" d="M178.7,57.3c0,0-9.8,30.7-14.7,33.4c0,0,41.4-15.1,51.6-37.4C215.7,53.3,197,53.3,178.7,57.3z"/>
<ellipse class="st4" cx="109.5" cy="125.9" rx="11.4" ry="14.2"/>
<path class="st4" d="M28.3,124.3c0,0,14.2,11.1,8,25.8C36.3,150.2,24.7,144.4,28.3,124.3z"/>
<path class="st5" d="M53.9,124.4l2.2-1.8c0,0,13.8,1.8,19.1-3.1c0,0,4,9.8,3.6,16.4s-12,10.2-12,10.2S57.4,134.2,53.9,124.4z"/>
<path class="st6" d="M66.8,146.2c0,0,3.6-12,12-10.2C78.8,136,79.2,161.3,66.8,146.2z"/>
<path class="st6" d="M291.2,183.1"/>
</svg>
