<?xml version="1.0" encoding="utf-8"?>
<!-- Generator: Adobe Illustrator 23.0.4, SVG Export Plug-In . SVG Version: 6.00 Build 0)  -->
<svg version="1.1" id="Layer_1" xmlns="http://www.w3.org/2000/svg" xmlns:xlink="http://www.w3.org/1999/xlink" x="0px" y="0px"
	 viewBox="0 0 288 288" style="enable-background:new 0 0 288 288;" xml:space="preserve">
<style type="text/css">
	.st0{fill:#C3C0C8;}
	.st1{fill:#F2F0F0;}
	.st2{fill:#676269;}
	.st3{fill:#B1AAB5;}
	.st4{fill:#6E6361;}
	.st5{fill:#928584;}
	.st6{fill:#C5C1CA;}
	.st7{fill:#3C3B3B;}
	.st8{fill:#E2E0E0;}
</style>
<path class="st0" d="M72.6,257.5c0,0,1,7.4,17.2,7.8c0,0,6.9-2.5,6.4-5.9C96.2,259.5,83.4,250.2,72.6,257.5z"/>
<path class="st1" d="M72.6,257.5c0,0,4.9-10.3,17.2-5.9l6.4,7.8C96.2,259.5,85.4,250.7,72.6,257.5z"/>
<path class="st0" d="M121.7,268.3c0,0,6.4-5.9,9.3,9.8c0,0,3.4-9.3,0.5-14.7L121.7,268.3z"/>
<path class="st2" d="M121.7,268.3c0,0-9.8-2,3.4,14.7c0,0,3.9,2.9,5.9-4.9C131,278.1,130,263.4,121.7,268.3z"/>
<path class="st2" d="M222.2,230.1c0,0,1.5,11.3,10.3,8.8s-0.5-14.7-0.5-14.7L222.2,230.1z"/>
<polygon class="st2" points="58.2,78.6 53.8,81 57.7,86.4 "/>
<polygon class="st2" points="87.8,90.8 92.3,91.8 92.3,98.2 "/>
<path class="st2" d="M72.2,129.1l-0.5,5.4c0,0,4.9,2.5,6.4-0.5c1.5-2.9-3.9-4.4-3.9-4.4L72.2,129.1z"/>
<path class="st3" d="M101.6,147.2c0,0-44.6-11.8-44.6-56.4s13.2-45.6,13.2-45.6s1.5,1,2,4.4c0.5,3.4,4.9,17.2,4.9,17.2h6.9l-3.4,8.8
	c0,0,13.2,26,17.2,27c0,0,5.4-4.4,5.4-2.5s-0.5,8.3-0.5,8.3s3.4,6.4,11.3,6.9C121.7,115.8,101.6,147.2,101.6,147.2z"/>
<path class="st4" d="M36.4,107c0,0,7.4-4.4,7.4-9.8c0-5.4-1.5-9.8-1.5-9.8S32,82.5,30,78.6c-2-3.9-8.3,4.4-8.3,4.4s-7.8,7.4-9.8,7.4
	s1,7.8,1,7.8s1.5,8.8,9.3,10.8c0,0,2.5,8.8,5.9,14.7s26,41.2,26,41.2s4.4,4.9,8.8,4.4l0.5,2.5c0,0,14.7,2.9,17.6,7.4v2.5
	c0,0,7.8,2.9,8.8,6.9c0,0,6.4,19.1,27.5,14.7c21.1-4.4,2-35.3,2-35.3l-14.7-1c0,0-6.9,1.5-8.8,3.4c-2,2-11.3-3.4-11.3-3.4l-1,2.5
	l-16.7-7.4C66.8,161.9,37.4,118.3,36.4,107z"/>
<path class="st5" d="M101.6,147.2c0,0,3.9-46.1,36.3-49.5s44.6-1.5,44.6-1.5s21.6,18.6,23.5,34.3c0,0,12.3-4.4,17.6,4.4
	c0,0,6.4,2.5,10.3,2l2.9,2.5c0,0,11.8,2,14.2-2c0,0,4.4-30.9-2.5-55.4l0.5-2.5l-10.8-2.9l8.3-30.4l2-2c0,0,6.4,4.9,10.3,4.4
	s5.4,10.3,5.4,10.3s4.4,3.9-4.4,17.6c0,0,6.9,6.9,6.9,32.8s-7.8,34.3-7.8,34.3l-3.4,1c0,0,2.5,3.4-16.2,4.4c0,0-4.9,5.9-7.4,5.9
	c-2.5,0-6.9,13.7-13.7,13.7v4.9c0,0,21.1,5.4,21.1,29.4s-17.2,27-17.2,27s-9.3,2.5-19.6-5.4c0,0-10.3,16.7-24.5,18.1
	c-14.2,1.5-34.3-8.8-34.3-8.8s-2.9,22.1-6.4,25.5c-3.4,3.4-13.7,7.8-13.7,7.8s-11.3,11.3-23,0s-11.3-25-11.3-25s6.9-27,15.2-29.4
	s15.7-4.4,15.7-4.4l-2.9-5.4C117.3,203.1,98.1,158,101.6,147.2z"/>
<path class="st0" d="M21.7,83c0,0-0.5-13.2,9.8-16.2l-2,4.4c0,0,4.4,6.4,2,9.8C31.5,81,26.1,87.4,21.7,83z"/>
<path class="st0" d="M12.8,98.2c0,0-7.8-4.9-6.9-15.2l11.8,8.8C17.7,91.8,18.2,100.7,12.8,98.2z"/>
<path class="st0" d="M38.3,89.4c0,0,5.9-2.5,7.4-5.9c0,0,5.4-2.5,3.4,5.4c-2,7.8-5.4,8.3-5.4,8.3S35.9,100.2,38.3,89.4z"/>
<path class="st6" d="M155,30.1l-4.9,6.4l10.8,2C160.9,38.4,156.5,30.1,155,30.1z"/>
<polygon class="st6" points="196.7,50.6 200.6,52.6 198.6,55.6 "/>
<path class="st6" d="M163.8,77.1c0,0-8.3,2-7.8,4.4c0.5,2.5,11.8,7.8,11.8,7.8L163.8,77.1z"/>
<path class="st1" d="M159.4,96.2c0,0,9.3-43.6-2.5-61.8s-12.3-21.1-12.3-21.1s1.5-8.8,28.9,4.9l6.4-2v8.3c0,0,20.1,16.7,23.5,52
	c0,0,5.4,1,4.9,3.9C208,83.5,203,85,203,85s0,25-9.8,32.8C193.2,117.8,167.8,116.8,159.4,96.2z"/>
<path class="st1" d="M248.6,44.3c0,0-5.9-6.9-9.3-3.4s-3.4,12.3-3.4,12.3s2.5,6.4,6.9,6.9c0,0-11.3,4.9-7.4,12.7
	c3.9,7.8,8.8,0,8.8,0s-0.5-8.3,2-10.3c2.5-2-1-3.9-1-3.9S249.1,49.2,248.6,44.3z"/>
<path class="st1" d="M260.9,50.6c0,0-9.3-2.5-2.9,15.2l6.4-6.9C264.3,59,263.8,53.6,260.9,50.6z"/>
<path class="st1" d="M99.1,243.8c0,0,2.5-8.3,12.7-3.4s4.9,14.7,4.9,14.7S114.8,234.5,99.1,243.8z"/>
<path class="st1" d="M185.4,198.7c0,0-2-7.8,11.8-4.9c0,0,9.3,5.9,8.3,12.7C205.5,206.5,197.2,186.9,185.4,198.7z"/>
<path class="st0" d="M99.1,243.8c0,0,6.9,12.3,9.8,12.7s7.8-1.5,7.8-1.5S116.3,235,99.1,243.8z"/>
<path class="st0" d="M185.4,198.7c0,0,5.9,11.3,11.8,11.3c5.9,0,8.3-3.4,8.3-3.4S197.7,186.4,185.4,198.7z"/>
<path class="st0" d="M222.7,200.7c0,0-12.3-19.1-1-20.6c11.3-1.5,10.8,18.1,10.8,18.1S222.7,202.1,222.7,200.7z"/>
<path class="st7" d="M147.2,191.8c0,0-25.5-16.2-16.2-46.1c0,0,14.7-19.6,32.8-0.5s7.4,38.7,7.4,38.7S147.2,187.4,147.2,191.8z"/>
<path class="st8" d="M130.1,145.8c0,0,9.3-0.5,9.8,1.5c0.5,2,0.5,3.9,0.5,3.9l-11.3,1.5L130.1,145.8z"/>
<path class="st8" d="M145.2,143.3l1,4.9l13.7-6.4c0,0-7.4-4.9-9.3-2.9C148.6,140.8,145.2,143.3,145.2,143.3z"/>
<path class="st8" d="M127.7,155.6c0,0,14.7-2.5,14.7-0.5s0,2,0,2l-13.2,7.8l-1-7.4L127.7,155.6z"/>
<path class="st8" d="M132.5,174.7c0,0,11.8-8.3,15.2-6.9l-1-4.4c0,0-17.6,2.5-16.7,3.9L132.5,174.7z"/>
<path class="st8" d="M138.3,183.4l12.7-6.9l-0.5-3.4c0,0-17.2,2.9-16.7,4.9L138.3,183.4z"/>
<path class="st8" d="M143.7,188.9l10.8-5.4l-1-3.9c0,0-14.7,3.9-13.2,7.4L143.7,188.9z"/>
<path class="st8" d="M164.7,145.3c0,0-6.9-3.4-15.2,7.8l1.5,3.9l17.2-5.9L164.7,145.3z"/>
<path class="st8" d="M173,160.5c0,0-17.2,3.4-18.1,4.9l-2.5-4.4c0,0,15.2-8.3,17.2-7.8C169.6,153.1,172.5,157,173,160.5z"/>
<path class="st8" d="M173.3,172.2c0,0-13.6-2.2-16.2,0.1l-1.8-3c0,0,15.6-7,18-4.9C173.3,164.4,175.5,167.4,173.3,172.2z"/>
<path class="st8" d="M173,180.6h-13.7l-0.5-4.4c0,0,14.7-4.9,15.2-2C174,174.2,173.5,179.1,173,180.6z"/>
</svg>
