<?xml version="1.0" encoding="utf-8"?>
<!-- Generator: Adobe Illustrator 23.0.4, SVG Export Plug-In . SVG Version: 6.00 Build 0)  -->
<svg version="1.1" id="Layer_1" xmlns="http://www.w3.org/2000/svg" xmlns:xlink="http://www.w3.org/1999/xlink" x="0px" y="0px"
	 viewBox="0 0 288 288" style="enable-background:new 0 0 288 288;" xml:space="preserve">
<style type="text/css">
	.st0{fill:#854C50;}
	.st1{fill:#66A9B1;}
	.st2{fill:#51737A;}
	.st3{fill:#A3D0DA;}
	.st4{fill:#EEC8CC;}
	.st5{fill:#D96D78;}
</style>
<polygon class="st0" points="158.3,213.5 226.6,130.8 229.6,153.1 175.6,247.1 "/>
<polygon class="st1" points="89,223.9 63.3,211 68.2,166.9 94.4,157 79.6,200.6 92.5,210 "/>
<polygon class="st2" points="215.2,120.9 236,10 242.4,17.9 232.5,140.7 227.6,144.7 226.6,130.8 "/>
<polygon class="st2" points="183,257 188.5,265.9 231.6,282.8 273.6,192.2 274.1,167.9 248.9,187.7 225.6,270.9 "/>
<polygon class="st2" points="89,223.9 92.5,210 79.6,200.6 158.3,213.5 175.6,247.1 138,234.7 105.8,216.4 97.4,228.3 "/>
<polygon class="st2" points="43.5,178.2 82.6,136.6 89.5,158.9 "/>
<polygon class="st1" points="215.2,120.9 206.3,112 195.9,114 229.1,7.6 236,10 "/>
<polygon class="st1" points="248.9,187.7 199.9,164 233.5,152.1 274.1,167.9 "/>
<polygon class="st1" points="158.3,213.5 142,130.3 170.2,165 "/>
<polygon class="st1" points="43.5,178.2 72.2,129.2 82.6,136.6 "/>
<polygon class="st3" points="43.5,178.2 13.3,167.8 26.1,116.3 72.2,129.2 "/>
<polygon class="st3" points="142,130.3 137.5,128.3 119.7,148.6 94.4,157 79.6,200.6 158.3,213.5 "/>
<polygon class="st3" points="199.9,164 183,257 225.6,270.9 248.9,187.7 "/>
<polygon class="st4" points="142,130.3 137.5,128.3 150.9,115.5 153.3,117.4 195.9,114 "/>
<polygon class="st4" points="72.2,129.2 26.1,116.3 67.2,52 104.8,29.2 140.5,34.2 123.2,64.9 "/>
<polygon class="st0" points="82.6,136.6 139.5,81.7 168.2,69.3 160.3,105.5 119.7,149.5 89.5,158.9 "/>
<polygon class="st5" points="82.6,136.6 72.2,129.2 123.2,64.9 140.5,34.2 168.2,69.3 139.5,81.7 "/>
<polygon class="st5" points="142,130.3 195.9,114 206.3,112 226.6,130.8 158.3,213.5 170.2,165 "/>
</svg>
