<?xml version="1.0" encoding="utf-8"?>
<!-- Generator: Adobe Illustrator 23.0.4, SVG Export Plug-In . SVG Version: 6.00 Build 0)  -->
<svg version="1.1" id="Layer_1" xmlns="http://www.w3.org/2000/svg" xmlns:xlink="http://www.w3.org/1999/xlink" x="0px" y="0px"
	 viewBox="0 0 288 288" style="enable-background:new 0 0 288 288;" xml:space="preserve">
<style type="text/css">
	.st0{fill:#474748;}
	.st1{fill:#BBAEAA;}
	.st2{fill:#C3A379;}
	.st3{fill:#F4D9A8;}
	.st4{fill:#F8EFE0;}
</style>
<path class="st0" d="M166.4,45.2c0,0-14.6-27.1-11.2-33.1c0,0,6-3.9,6.9-0.4c0.9,3.4,8.2,24.5,8.2,24.5s9.4-33.5,13.3-32.6
	c3.9,0.9,7.3,4.3,7.3,4.3s-12,26.6-12.9,28.3c-0.9,1.7,26.2-15.5,29.2-9.4s-6,9-6,9l-26.6,9L166.4,45.2z"/>
<path class="st1" d="M125.6,251.4c0,0-22.3,12.5-21.5,18.9c0,0,20.6-3,26.6,7.3c0,0,2.1,2.1,3.9,0.4c0,0,13.7-7.7,28.8-0.9
	c0,0,9.9,5.6-3-20.2C147.5,231.2,125.6,251.4,125.6,251.4z"/>
<path class="st2" d="M89.9,201.1c0,0-21.5,0-33.5-3.9c-12-3.9,29.2,50.2,55.8,50.2S89.9,201.1,89.9,201.1z"/>
<path class="st2" d="M122.1,50l-1.7-2.1c0,0-8.6,0.4-12.5,2.1l-5.2-2.6c0,0-3.4,5.6-2.6,7.7c0,0-45.5,35.2-22.8,68.7
	s52.4-10.3,52.4-10.3L122.1,50z"/>
<path class="st3" d="M92.4,157.9c0,0-21.1,59.5,19.8,76.9s45.4,8.9,45.4,8.9s30-7.7,36-6.5c6.1,1.2,43.7-30.4,43.7-30.4
	s10.1-25.1-3.6-49.8c0,0,23.9-16.6,8.9-49.4c0,0-20.2-35.2-23.9-36.4l-1.2-9.7c0,0,0-0.8-8.1,2.8l-4.9-3.2c0,0-15.8-22.7-49.4-22.3
	s-52.6,19.8-52.6,19.8S78.6,82.9,98,102.4S92.4,157.9,92.4,157.9z"/>
<path class="st4" d="M135.5,91.2c0,0-8.2-0.4-14.2,5.6c-6,6-14.2,2.1-14.2,2.1s-4.7,3.4-5.6,7.3S78.8,120,78.8,120
	s-26.2,14.6-9,31.4s70.9,30.5,91.9,3.9c0,0,6-6,4.3-20.2s8.6-23.2,8.6-23.2s8.2-7.3-8.2-9S138,92,135.5,91.2z"/>
<path class="st4" d="M216.2,260.8c0,0-31.4-4.7,3.4-50.7c0,0,4.3,2.6,7.7,8.6l17.2-10.7c0,0,4.3-5.2,5.6,12.5h12.5
	c0,0,0,6.4-9.4,17.2S223.9,265.1,216.2,260.8z"/>
</svg>
