<?xml version="1.0" encoding="utf-8"?>
<!-- Generator: Adobe Illustrator 23.0.4, SVG Export Plug-In . SVG Version: 6.00 Build 0)  -->
<svg version="1.1" id="Layer_1" xmlns="http://www.w3.org/2000/svg" xmlns:xlink="http://www.w3.org/1999/xlink" x="0px" y="0px"
	 viewBox="0 0 288 288" style="enable-background:new 0 0 288 288;" xml:space="preserve">
<style type="text/css">
	.st0{fill:#353231;}
	.st1{fill:#F3D585;}
	.st2{fill:#C0A56B;}
	.st3{fill:#CCB074;}
	.st4{fill:#684A32;}
	.st5{fill:#BE965F;}
	.st6{fill:#5E442F;}
	.st7{fill:#F9EFDB;}
	.st8{fill:#ECD2AC;}
	.st9{fill:#6F5943;}
	.st10{fill:#D8AC68;}
	.st11{fill:#F5D88A;}
</style>
<path class="st0" d="M42.2,199.6c0,0-25.8,27.2-4.3,41.6s51.1-10,51.1-10s12.4-16.2,3.3-31.1c-9.1-14.8,36.3-53,36.3-53
	s16.7-6.2,22-4.3l-1.4,5.3c0,0-15.3-1.4-18.6,2.9c-3.3,4.3-31.1,44.4-31.1,44.4s9.1,32-18.6,47.8S36,247.9,36,247.9
	s-17.2-11.9-9.1-30.6s14.3-23.9,14.3-23.9L42.2,199.6z"/>
<path class="st1" d="M235.7,141.3c0,0,42,20.1,50.2,41.6c0,0-52.6-21-55.4-18.2l-11.9-1.4c0,0,14.3,33.4,11.9,35.8l-36.3-33
	l20.1-17.7L235.7,141.3z"/>
<path class="st2" d="M150.7,142.7c0,0,33.9-1.9,48.3,2.4l-18.6-27.7c0,0,47.8,16.7,55.4,23.9l-4.3,0.5l6.2,4.8l-8.6-1l10.5,5.7
	l-14.3-3.3l16.7,9.6H229l8.1,5.3l-10-1.4l3.3,3.3c0,0-12.4-3.8-11.9-1.4s4.8,15.8,4.8,15.8l-5.7-1.9l0.5,3.3l-5.3-8.6l1,9.6
	l-4.3-5.3l1,4.3c0,0-44.4-34.4-61.2-32.5l-3.8-1.9l4.8-1l-3.8-1.4L150.7,142.7z"/>
<path class="st3" d="M28.8,31.4c0,0,1.9,21.5-1.4,22.5c-3.3,1-6.7-2.9-6.7-2.9s-13.4-1.4-7.6,8.6s7.6,3.8,7.6,3.8s0-6.2-4.3-5.3
	c0,0,4.5,2.4,3.1,4.4c-1.4,2-3.1,0-3.1,0s-8.4-9.9-0.2-9.1s13.6,12.9,13.6,12.9s1.4,6,10.5,12.8C40.3,79.2,42.1,46.5,28.8,31.4z"/>
<path class="st3" d="M117.2,73c0,0,11.3-2.3,18.9-12.8s15.2-4.5,15.4-2.3c0.2,2.3-1.8,6.5-1.8,6.5s-4.1,4.7-5.3,1.8
	c-1.2-2.9,3.1-4.8,3.1-4.8s-7.2,0.8-4.2,5.1c3,4.3,7-0.5,7-0.5s4.1-5.7,2.3-9.2c-1.8-3.5-5-3.8-5-3.8s-6.7-1.1-9.8,0.6
	c0,0-5.7-16.5,12.5-24.1c0,0-39.3,18.8-38.8,30.8C112.1,72.4,117.2,73,117.2,73z"/>
<path class="st4" d="M40.3,79.2c0,0,1-27.7-11.5-47.8s-8.1-14.8-8.1-14.8s30.1,25.3,32,47.8L40.3,79.2z"/>
<path class="st4" d="M99.5,62.5c0,0-6.2-28.2,61.2-38.2c0,0-69.8,30.6-43.5,48.7h-9.1L99.5,62.5z"/>
<path class="st5" d="M40.3,79.2c0,0-5.7,17.7-0.5,27.7s3.3,11,3.3,11s-17.7-1.4-22,1c-4.3,2.4-4.3,20.5-4.3,20.5s17.7,6.7,20.5,6.7
	l63.1,2.9c0,0-11.5,18.2-1.9,29.6c0,0-11,22.9-33,22.5s-29.1-16.2-29.1-16.2s5.7,22.9,27.2,30.6c0,0,1.9,24.4-3.8,31.5l2.9,8.6
	l10.5,1l7.6-15.3l1.9-22c0,0-1-4.8-4.3-5.3c0,0,4.3-15.3,29.6-18.2c0,0,14.8,4.3,16.7,2.9s1.9-1.4,1.9-1.4s-8.1-33.4-12.9-40.1
	c-4.8-6.7,9.1-12.4,9.1-12.4l-1.4-6.2h6.7l4.3-22l-14.3-2.9c0,0,3.8-38.7-18.6-51.1s-46.8,1.9-46.8,1.9S39.3,76.8,40.3,79.2z"/>
<path class="st6" d="M22.6,118.4c-15.4,1.8-20.2,4.5-20.5,7.2c0,0,14.8,13.9,14.8,13.9l0,0l5.3,1.9l-3.3-3.3l6.7-1.4l-8.6-4.3
	l10-5.7C25.5,123.8,24.1,121.1,22.6,118.4z"/>
<path class="st6" d="M132.5,116.5c12.2,3,19.5,10.4,18.6,14.8c-0.8,4.5-10.7,8.9-23.9,6.7c0.8-1.1,1.6-2.2,2.4-3.3l-6.7-2.9l7.6-1.4
	l-8.6-5.7l3.3-1.4l-1.9-3.8c2.1,1.5,4.8,1.7,6.7,0.5C131.8,118.7,132.4,117,132.5,116.5z"/>
<path class="st6" d="M59.9,246.9c0,0-12.9,14.8-6.7,18.6c0,0,5.3,4.3,11.5,2.9c0,0,4.8,3.3,11.5-8.6c6.7-11.9,4.8-18.6,4.8-18.6
	s-13.9,8.1-14.3,10C66.1,253.1,59.9,246.9,59.9,246.9z"/>
<path class="st7" d="M37.4,146.1c0,0,11.9-35.8,35.4-28.7s27.7,31.5,27.7,31.5S90,169,98.6,178.6c0,0-9.6,23.4-33,22.5
	c-23.4-1-29.1-16.2-29.1-16.2S27.9,170,37.4,146.1z"/>
<path class="st8" d="M124.9,198.6c0,0,8.6,14.3,13.9,1.9s-0.5-32.5-0.5-32.5s-6.2-24.8-12.9-21.5c0,0-10-5.7-14.8,2.4
	c0,0-7.6,0.5-3.3,10.5c0,0,12.4,14.8,13.4,20.5C121.5,185.7,124.9,198.6,124.9,198.6z"/>
<path class="st9" d="M105.3,156.1c0,0-1.4-9.6,3.3-8.6c0,0,3.8-8.6,14.3-2.9c0,0,1.9-2.4,5.7,2.4l-3.3-0.5c0,0-11.9-4.3-14.8,2.4
	C110.5,149,104.8,152.3,105.3,156.1z"/>
<path class="st10" d="M126.3,185.3c0,0-1.4-11.5,7.2-6.7c8.6,4.8,2.4,14.8,2.4,14.8S128.2,193.9,126.3,185.3z"/>
<path class="st11" d="M100,80.6c0,0,11-1.9,10,15.8c0,0-5.3,12.4-13.4,1.4S100,80.6,100,80.6z"/>
<path class="st11" d="M43.6,85.9c0,0,7.2,1.9,5.3,11c-1.9,9.1-5.3,11-5.3,11s-8.1-1.9-6.2-12.4C39.3,84.9,43.6,85.9,43.6,85.9z"/>
</svg>
