<?xml version="1.0" encoding="utf-8"?>
<!-- Generator: Adobe Illustrator 23.0.4, SVG Export Plug-In . SVG Version: 6.00 Build 0)  -->
<svg version="1.1" id="Layer_1" xmlns="http://www.w3.org/2000/svg" xmlns:xlink="http://www.w3.org/1999/xlink" x="0px" y="0px"
	 viewBox="0 0 288 288" style="enable-background:new 0 0 288 288;" xml:space="preserve">
<style type="text/css">
	.st0{fill:#FDE465;}
	.st1{fill:#93898E;}
	.st2{fill:#945A5D;}
	.st3{fill:#384361;}
	.st4{fill:#E07361;}
	.st5{fill:#FBF5E4;}
	.st6{fill:#C7746C;}
	.st7{fill:#445D81;}
</style>
<path class="st0" d="M133.6,122.6l-0.5-3.9c0,0-6.3,0.5-8.2-1.9c-1.9-2.4-3.9,2.9-3.9,2.9s-3.9,3.4-5.3,1.9s-3.4,1.9-3.4,1.9
	l7.7,4.3l-3.9,7.2l-7.7-9.6c0,0-3.4-1.4-3.4-4.3s-6.7-1.9-6.7-1.9l-3.9,3.9h-2.9l-2.4,2.9l3.9,5.8l-3.4-2.4l-3.9-4.8l-3.4-0.5
	l-2.9,3.9l4.8,8.2l-9.6,6.3l-12.1-13l3.9-12.1c0,0-2.9-1.9-3.4-3.9c-0.5-1.9-9.6-1-9.6-1s-4.3,5.8-6.7,4.3c-2.4-1.4-0.5,3.4-0.5,3.4
	s7.2,8.7,7.2,12.1l-5.3,0.5l-3.9-1l-1.9,0.5l-0.5-2.4l-4.8,2.9c0,0,1,4.8-1.9,2.9s-4.3-4.3-4.3-4.3s-3.4,6.3-7.7,3.9
	c-4.3-2.4-1.4,4.8-1.4,4.8s4.3,2.4,2.4,5.3s-4.3,4.3-4.3,4.3l4.8,7.7l-6.3-2.4l-3.9-3.9c0,0-5.3,1-3.4,5.8c1.9,4.8,3.9,7.7,3.9,7.7
	l-3.4,1.9c0,0-7.7,2.4,1.4,9.2l5.8-2.4l-1.4-6.7l2.4-5.8l13.5-4.3l4.8,2.9c0,0,4.3-0.5,4.8,5.8c0,0,1.9,0.5,5.3-1
	c3.4-1.4,3.4-1.4,3.4-1.4v-4.8l4.8-12.5l23.1,15.4l-15.4,10.6c0,0,1.9,2.4,1.4,4.8c-0.5,2.4,1.9,2.9,1.9,2.9s5.8-1.9,7.2,3.4
	l4.8-6.3l8.7-27l18.8-10.1l33.3-8.2l6.3-9.2L133.6,122.6z"/>
<path class="st0" d="M152.4,48.4c0,0-3.9-8.7-1-9.6c0,0,6.7-2.9,5.8-6.7c-1-3.9-3.4-2.9-3.4-2.9s4.3-5.8,7.2-2.4c0,0-1,3.4,2.4,2.4
	c3.4-1,1.9-2.9,1.9-2.9s-0.5-5.8-3.9-2.9l-1.9-2.4c0,0,1.4-3.9-0.5-5.3l5.3-5.8c0,0,1,2.4,2.9,0.5c1.9-1.9,0-4.8,0-4.8
	S178,1.2,178.5,6c0,0-0.5,3.9,2.9,4.3c3.4,0.5,5.3,0,5.3,0s2.4-2.4-1-3.4l2.9-1l3.4-1.4l7.2,3.4c0,0,1.4,3.4,2.4,1s-1-3.9-1-3.9
	l3.4-2.4l2.9,0.5L204,5.5c0,0,5.8,2.9,1.9,4.8s-1,5.8-1,5.8s-5.8,2.4-5.8,4.3c0,0-2.9-9.6-4.8-5.3c0,0,1.4,5.3-1.4,5.3v1.9
	c0,0,4.3-1.4,3.4,1.4c-1,2.9-3.4,2.9-3.4,2.9l6.3,5.8l9.2-1.4l3.9-1l2.9,3.9l-5.8,15.4l-26,8.7L152.4,48.4z"/>
<path class="st0" d="M137,73.5l-7.2-6.7c0,0-7.2,0-8.7-7.2l2.4-3.4l-4.3-4.3c0,0-3.4,0.5-5.8-2.4c-2.4-2.9-2.9-1.4-2.9-1.4l-6.3,2.4
	c0,0-3.9,0.9-1.9,2.9c0.5,0.5,2.9,2.4,2.9,2.4l1.4-2.4c0,0,5.3,1.4,3.9,5.8l-0.5,4.8h-4.8c0,0-3.9-1.9-1.9-3.9
	c1.9-1.9-4.8-1.4-4.8-1.4s-2.9,4.8-4.3,1.9l-2.9,1.9c0,0,1,6.3-1.9,4.3c-2.9-1.9-2.9-1.9-2.9-1.9l2.4-2.4c0,0-3.4-4.8-7.7-1.9
	c0,0-0.5,4.8-5.3,4.3l-1.4,6.7l-7.2,4.3l-3.4-9.2c0,0-7.7-3.4-8.7-5.3s-5.3,1.4-5.3,1.4s-4.3,2.4-5.3,1c-1-1.4-3.9,5.8-3.9,5.8v4.8
	l-15.9,5.8L24.2,87l0.5,2.9c0,0,3.9-1.9,6.3,0.5c2.4,2.4,2.9-1.9,2.9-1.9s0.5-2.9,3.9-1.4c3.4,1.4,3.9-1.4,3.9-1.4l-1.9-2.9
	l-3.9-3.4L45.9,73l19.8,7.2l14-0.5l12.1-4.3L95.5,86l6.7,3.4l12.5,13l23.6-14.5L137,73.5z"/>
<path class="st0" d="M216.1,153c0,0,1.4-2.4,1-4.8c-0.5-2.4,2.4-1.4,2.4-1.4s1,2.4,4.3,0.5s3.4,2.9,3.4,2.9l-1.4,2.9l-5.3,2.4
	l-5.3,4.3L216.1,153z"/>
<polygon class="st0" points="86.9,195.9 87.8,192.1 80.6,189.2 80.1,192.1 85.4,199.8 "/>
<path class="st0" d="M83,231.6c0,0-3.9-3.4-1.4-5.8c2.4-2.4,0-4.3,0-4.3l-4.3,0.5l-2.9-5.3l2.9-4.8c0,0-1-5.3-2.4-3.9
	c0,0-6.3,3.4-8.2,0.5c-1.9-2.9-3.9,0.5-3.9,0.5l-2.9,1.9c0,0-1,2.4,3.4,1.9v8.2l-7.2-2.9c0,0-4.3-1.4-1.4-3.4
	c2.9-1.9-1.4-4.3-1.4-4.3s-7.7,2.9-8.7,0l-2.4,3.4l2.4,2.9l-4.8,4.3l-3.9,4.8c0,0-6.3,1.4-3.4,6.3l-0.5,2.4c0,0,4.3,1.4,7.7-3.9
	s4.8-6.7,4.8-6.7l3.4,0.5l7.2,4.3l5.3-5.3l11.6,10.1l-4.8,7.2c0,0-2.4,2.9-3.9,0.5c-1.4-2.4-1,4.8-1,4.8l3.9,1.4l14-6.3L83,231.6z"
	/>
<path class="st0" d="M157.7,239.8c0,0,1.9-2.4,0.5-5.8c-1.4-3.4,1.4-2.9,1.4-2.9s-5.8-4.8-7.2-0.5S151,235,151,235l-9.6-6.3
	c0,0-3.4-4.8,2.4-6.3c0,0,1.4-6.3-0.5-6.3s-3.9,0-3.9,0s-3.4-4.8-3.9-1.4s-0.5,3.4-0.5,3.4s-5.3,1-2.9,4.3c2.4,3.4,3.9,5.8,3.9,5.8
	l-0.5,4.8l3.4,2.4l7.7,3.4l5.8,8.7l8.2,1L157.7,239.8z"/>
<path class="st0" d="M117.7,218.1l-2.9-5.3l1.9-3.4c0,0,3.4-3.4-1.4-3.9c-4.8-0.5-6.7,9.2-6.7,9.2l10.1,5.3L117.7,218.1z"/>
<path class="st0" d="M199.2,189.7c0,0-5.3-0.5-1.4,5.8c3.9,6.3,1,5.3,1,5.3s8.2,1,6.3-2.9l8.7-6.3l1-8.2l-1-4.8
	C213.7,178.6,199.2,186.8,199.2,189.7z"/>
<polygon class="st1" points="148.1,26.2 164.5,44.1 152.4,48.4 "/>
<path class="st1" d="M126.4,186.8c0,0,0,22.2-6.3,29.9c0,0-1.4,5.3,1.4,6.7s7.7,8.2,7.7,8.2s5.3,10.1,4.8,16.4c0,0,5.8,5.3,5.3,6.7
	c-0.5,1.4,11.6-2.4,11.6-2.4l-12.1-33.3c0,0,1-7.7,3.9-8.2c2.9-0.5,5.3-3.4,5.3-3.4s3.4-13.5,6.7-15.4
	C158.2,190.1,129.3,183.4,126.4,186.8z"/>
<polygon class="st2" points="148.1,26.2 148.1,39.7 152.4,48.4 "/>
<path class="st3" d="M139.4,254.7l-0.5,6.3c0,0,11.6,3.9,13.5,2.4c0,0,0.5-9.2-1.4-11.1L139.4,254.7z"/>
<path class="st4" d="M205,197.9c0,0,1-3.9-1.9-2.9c-2.9,1,5.3-2.4,5.3-2.4l-1.9-4.3l3.4-3.9l-10.6,5.3l-0.5-7.7l12.1-16.4l2.9-2.4
	c0,0,0.5-3.9-2.4-4.3l1.9-4.8l2.9-1l-1,6.7l5.3-4.3c0,0-1.9,7.2,2.9,7.2c0,0,1.9,0,0.5,2.4c-1.4,2.4-2.9,8.7-2.9,8.7l9.2,16.4
	l-1.4,1.9c0,0,0,7.2,4.8,2.9c4.8-4.3-6.7,20.2-6.7,20.2h-3.4c0,0-1.4-10.1-2.4-7.2c-1,2.9-1,2.9-1,2.9s-2.4-4.8-5.3,0.5
	c0,0-4.8,1.9-4.8-1.9c0-3.9-2.4-5.8-2.4-5.8S208.8,196.4,205,197.9z"/>
<path class="st4" d="M152.9,51.3c0,0-1.9-8.2,0.5-9.2l3.9,5.3l1-8.2l1.9,1.4l2.4-5.3c0,0,1.9,9.6,4.8,9.2l2.4-5.8l3.9,8.2l6.3-4.3
	c0,0,2.9-1.9,1.9-4.3c0,0,7.7,3.9,7.2,9.6l1.9-3.4l5.3,3.4l-1.4-6.3l1.9,1c0,0-1.4-6.3-3.4-6.3l6.7,5.8l-1.9-4.8l4.3,2.9
	c0,0-6.3-9.6-11.6-9.2l8.2,1.4l4.3-4.3c0,0,4.3,1,4.8,2.9c0,0,2.4,4.3,4.8,1.4l1.9,1.4c0,0-2.4,3.9,3.4,4.3c0,0,4.3,2.4,1,6.7
	c0,0-5.8,3.9-2.4,6.3c3.4,2.4,4.8-1,4.8-1l3.9,2.9c0,0,0.5,4.3,2.9,4.8c2.4,0.5-1.4,5.3-1.4,5.3s-4.8,2.4-1.9,6.7s-1,4.3-1,4.3
	s-2.4,7.2-1,7.7c1.4,0.5-3.4,1-3.4,1l-2.4,0.5c0,0,2.9-9.2-1.4-8.7c-4.3,0.5-2.9,5.8-2.9,5.8s-2.9,4.8-4.8,3.4c-1.9-1.4-3.4-1-3.4-1
	v-4.3c0,0-5.3,3.9-1,8.2c0,0,1.4,1.9,0.5,4.3c-1,2.4-3.9,6.3-3.9,6.3l-3.9-1.4l-1.9-1.9l-4.8,3.4l-32.3,0.5c0,0-8.7-0.5-4.3,3.4
	l-1,4.3c0,0-4.3-1.9-6.3,4.3l-2.4,0.5l-3.9-3.9c0,0,1.4-5.8-8.2-4.3c0,0-2.9,1-2.4,2.4c0,0-4.8-2.4-4.8,1c0,3.4-6.3,8.2-6.3,8.2
	s-3.4-2.4-4.8-1.4c0,0-2.9,0.5-4.3-2.9c-1.4-3.4-4.3-2.9-4.3-2.9s-5.3,1.4-6.7-1c-1.4-2.4-3.4-3.4-3.4-3.4l-0.5-2.4l2.9-1.4v-4.3
	l2.9,3.4l1.9-3.4l-2.9-2.4l-0.5-2.4l1.9-0.5l-1.9-1.4l2.9-3.9l1.4,2.9c0,0,1.9-9.6,4.3-7.7v4.3l2.4-1.4c0,0-1.4,1.8-2.4,3.9
	c-1,2-1.4,4.3,0.5,5.3L109,87l1.9,2.4l1-5.8l1.9,1.4l3.9-6.3l0.5,3.9l7.2,1L152.9,51.3z"/>
<path class="st4" d="M110.5,59l-5.3,4.8v2.4l2.4-0.5l-1.9,4.8l2.9-2.4l0.5,4.3c0,0,7.2-9.2,11.6-9.2l-8.2-0.5
	C112.4,62.9,115.3,53.2,110.5,59z"/>
<path class="st4" d="M95.5,86c0,0-1-6.7,1.4-9.2l-3.4,1c0,0,4.3-7.7,6.3-7.7c0,0-7.7,2.4-8.2,5.3c0,0-0.5-7.2,1.9-7.7
	c0,0-11.1,1.9-12.5,7.7L79.6,73l-3.4,3.4l1.4-7.7l-5.3,3.9c0,0-6.7-3.4-7.7-2.9l-1-2.9c0,0-7.7,5.8-11.1,1.9l1.4-2.9
	c0,0-14.9,9.2-15.4,6.7l-5.3,2.4L31.4,72L29,70.6l-1,3.9l-1.9-4.3c0,0-4.8,1-3.4,3.4c1.4,2.4,1.4,3.9,1.4,3.9s-2.9,3.9-3.9,1.9v3.4
	c0,0,3.9,1,3.9,4.3c0,0,3.9-0.5,3.9-5.8c0,0,8.7,4.3,11.6,1.4l-1-3.9c0,0,1.9-2.4,2.4-0.5c0,0,6.3-7.7,10.6-0.5s-2.4,5.3-2.4,5.3
	l2.9,5.3c0,0,6.3-1.9,10.1,2.4l7.7-1.4c0,0,3.4-9.6,6.7-7.2c3.4,2.4,3.4,2.4,3.4,2.4l3.9-2.4l0.5-3.4c0,0,4.3-2.4,4.3,5.3l2.4,2.4
	L95.5,86z"/>
<path class="st4" d="M123,216.2c0,0-4.8-3.4-6.3,0h-3.9l-2.4-5.8l-14.9-14c0,0-3.9-1-4.8,1.4c-1,2.4-3.9-1.9-3.9-1.9l-3.9,5.8
	l2.4,4.3c0,0,4.3-2.4,5.3,1c1,3.4,12.1,14.9,12.1,14.9s5.3,0,5.8,5.3c0,0,5.3,0.5,5.3-2.4l3.9,3.4c0,0-1.9,4.3-2.9,2.9l-0.5,3.4
	c0,0,5.8,2.4,4.3,5.8c-1.4,3.4-2.4,1.4-2.4,1.4l1,1.9c0,0,5.8,0.5,6.7,2.9l2.4-1.4c0,0,5.3-4.8,10.1-0.5l-8.7-21.7L123,216.2z"/>
<path class="st5" d="M166.4,49.4l-2.4-1.9l-4.8,4.8l-4.8-4.3l-1.9,0.5c0,0-9.6-24.1-11.6-23.6c-1.9,0.5,5.3,27.5,5.3,27.5
	s-6.7,7.7-9.2,6.3l-0.5,8.2l-14.5,14.9c0,0-1.9,7.7,1.4,10.1c3.4,2.4,5.3,3.4,5.3,3.4h2.4c0,0,8.2,5.8,10.1,2.9s8.2-8.2,8.2-8.2
	l4.8-0.5c0,0,5.8,21.2,0,32.8L109.5,139c0,0-16.9,18.3-18.3,17.4c-1.4-1,1.4,16.4,1.4,16.4s4.8,20.2,2.9,23.6
	c0,0-5.8,17.4-11.1,17.8c0,0-1.4,2.4,0.5,5.3c1.9,2.9,2.4,9.6,2.4,9.6l-2.9,11.1l1.4,11.6c0,0,1.4,3.4-1,4.8c0,0,5.8,3.9,4.3,12.5
	l12.5-2.4c0,0-1-7.2,1.4-7.7c0,0-5.8-10.1-5.3-18.3c0.5-8.2,2.4-15.9,2.4-15.9s10.1-11.6,12.5-16.9c2.4-5.3,3.9-9.2,3.9-9.2
	s6.3-11.6,9.6-12.1c0,0,26,7.7,28.4,5.3c0,0,12.1,16.4,12.1,23.1c0,6.7,1.4,9.2,1.4,9.2s3.9,5.8,4.8,11.6c1,5.8,1.4,25.6,1.4,25.6
	l2.4,3.9c0,0,1.9,6.7,1.4,11.6c-0.5,4.8,14.5-4.3,14.5-4.3s-2.9-9.2-1.9-12.5c1-3.4-1.9-5.3-1.9-5.3s-6.7-14.9-5.3-30.4l-2.4-6.7
	l-2.4-28.4l3.9-2.4c0,0,44.8-0.5,49.2,6.3c0,0,1,17.8-14.9,25.6c0,0,0,4.3-3.9,4.8s1.4,12.5,1.4,12.5s9.2-13.5,14-13
	c0,0,17.4-29.9,22.2-30.4l-6.7-13.5c0,0-28.9-4.8-36.6-17.8c0,0-7.2-21.7-9.2-24.6c0,0-0.5-32.8-8.2-39.1l-7.7-33.3
	c0,0-1.9-35.7-7.2-36.2L166.4,49.4z"/>
<path class="st6" d="M131.2,95.2c0,0,5.3-4.8,11.6-4.3l-3.4,3.4L131.2,95.2z"/>
<path class="st6" d="M168.3,54.2l6.7-19.3c0,0,2.9,23.1,1.4,26.5C176.5,61.4,172.7,53.7,168.3,54.2z"/>
<path class="st4" d="M155.8,112c0,0-4.3,10.1-6.3,5.8c-1.9-4.3-1.9-4.3-1.9-4.3s-8.2,1.4-9.6,0s-2.4,4.8-2.4,4.8s5.3,0.5,2.4,2.9
	c-2.9,2.4-4.3,1.4-4.3,1.4l4.8,4.3l-5.8-1l-1.9,7.2l-2.9-3.9l-3.4,3.9c0,0,1.4-11.1-9.2-9.2c0,0,1,5.3,2.4,5.3c1.4,0-1.4,0-1.4,0
	s-2.4,2.4-3.4,0.5c-1-1.9-1.9-3.9-1.9-3.9l-2.4-0.5l1.9,3.9l-1.4,2.4l1,3.9l-3.4-1.9l0.5,5.3l-3.4-8.7l-1.9,1l-2.9-4.3
	c0,0-4.3,1-6.7-1.4c-2.4-2.4-2.9,0.5-2.9,0.5s4.8,1.9,0.5,3.4l-4.3,1l-1,5.8l-2.9-5.3l-2.4,5.3l-3.9,0.5c0,0-0.5-3.9-5.8-4.3V128
	c0,0,3.9,1.9,3.4-2.9c-0.5-4.8-2.4-6.7-2.4-6.7l-3.9-1l-3.4,8.2l-2.9-5.3l-1.9,3.9l0.5-5.8L56,127c0,0-5.3-0.5-2.9-3.9l-2.4,7.2
	l1,2.4h-3.4c0,0,12.1,4.8,7.2,6.3s-7.7-2.4-7.7-2.4l1,3.4l-4.3-1.4l2.4,7.2l-4.3-2.4l2.4,3.9l-3.9-1.9l1,5.8c0,0-3.9-0.5-3.9-4.3
	l-1.4,1.9c0,0-5.8-9.2-1.4-13c0,0-7.2,5.8-2.9,11.6l-2.4-2.4c0,0-7.2,10.1-2.4,13l-6.3-5.3l-2.9,2.4c0,0-1.9,8.2-3.9,7.2l-2.9,4.3
	c0,0,9.2,1,4.3,8.2l2.9,1.9l3.9-1c0,0-1.4-4.8,1-5.3c0,0-1-4.8-2.4-3.4c-1.4,1.4-1.4,1.4-1.4,1.4l-2.4-1.9c0,0,5.3-6.7,8.7-5.8
	c0,0,3.9,2.4,5.3,1.4c1.4-1,2.9-3.9,2.9-3.9l3.9,1l1-2.9l4.8,5.3l0.5-4.3l2.4,2.9l2.9-1.9l1,2.4l1.9,0.5l-1-3.4l3.9-2.9l2.9,0.5
	l1.4-5.3c0,0,7.7,1,7.2,8.2c0,0,3.9,1,3.9,3.4l-1.4,3.4c0,0-5.8,0.5-5.3-1.4l-1.9,4.8l1.9,2.9l9.6-6.3l-0.5,4.3l4.3-1.9l-5.8,8.7
	l3.9,1.4l-1,4.8L82,180l0.5-2.4l-2.9-1.4l4.8-4.3l2.9,3.4c0,0,3.4,1,5.3-2.4c0,0-4.8-10.6-2.4-14.5c2.4-3.9,19.3-19.3,19.3-19.3
	s9.2,2.4,9.2,5.8c0,0,2.9-0.5,5.3-1l-1-1.9l3.9-1.4c0,0-1-5.8,2.4-4.8l1.9,2.4l2.9-0.5l4.8,2.4c0,0,2.4-1.4,2.9-5.8
	c0,0,11.6-8.2,12.5-12.1C155.3,118.3,155.8,112,155.8,112z"/>
<path class="st4" d="M173.6,247c0,0,0-2.4-0.5-4.3c-0.5-1.9-6.3-2.4-6.3-2.4s1.4,6.7-9.2-0.5l-1.9,4.3l-0.5-3.4l-4.8,3.4
	c0,0,3.9-11.1,1.9-13.5c0,0-4.3,4.8-8.7,0.5l-2.4-2.4l-2.4,6.7c0,0-2.9-7.2-1.9-12.5l-2.4,2.9c0,0,1.4,3.4-0.5,5.3
	c0,0,1,8.2,4.3,7.2c3.4-1,5.3,1,5.3,1s1.9,5.8-1.4,4.8l1,3.9c0,0,14,1,12.5,7.2s-1.4,6.3-1.4,6.3l7.7,6.7c0,0,3.4-5.8,8.2-1.4
	l4.3-5.3L173.6,247z"/>
<path class="st4" d="M88.8,241.7l4.3-1l-1.9-2.9l1.9-1.9c0,0-5.8-4.3-7.7-2.4l-2.4-1.9l-6.3,6.3l0.5-4.8l-3.9,2.4l6.3-8.2l-5.8,2.9
	l1.4-6.3l-3.4,3.4l-1.9-3.4l-2.4-1.4l3.4-3.4c0,0-6.3-3.4-8.7-1.9l-3.4,2.4l-2.9-1.4l-3.4,2.9l0.5,4.8c0,0-1.9-4.8-13.5-4.8l0.5-1.9
	c0,0-4.3-1.4-4.8,1.4s2.4,3.4,2.4,3.4l-1.9,1.9c0,0,2.2,0,3.3,2c0.4,0.7,0.6,1.6,0.6,2.8l2.9-3.4l5.3-2.9c0,0,1,0,1.4,3.9l5.8,0.5
	l2.4-2.4l2.4,0.5c0,0-0.5,2.9,7.7,6.3c0,0-1.9,6.7-0.5,7.7l4.3,3.9l-5.3,2.9L70,248c0,0,3.9-2.9,8.2,0.5c0,0,2.9,5.8,5.3,4.8
	c2.4-1,5.3,1.9,5.3,1.9s-1-6.3,3.4-2.4l-1-3.9l3.4,0.5L88.8,241.7z"/>
<path class="st7" d="M89.3,269.2c0,0-2.4,5.3,3.4,5.8s13.5,0,13.5,0l-3.4-11.1C102.8,263.9,94.6,264.9,89.3,269.2z"/>
<path class="st7" d="M178.9,274.5c0,0,11.6-6.3,14-1.9c2.4,4.3,4.3,9.6,4.3,9.6s-14.5,2.9-19.3-1L178.9,274.5z"/>
<path class="st7" d="M213.2,223.4c0,0-6.7-3.9-6.7-1s-2.4,8.2-2.4,8.2l1.9,8.7c0,0,6.3-1.4,8.7-3.4
	C214.6,235.9,210.8,224.9,213.2,223.4z"/>
</svg>
