<?xml version="1.0" encoding="utf-8"?>
<!-- Generator: Adobe Illustrator 23.0.4, SVG Export Plug-In . SVG Version: 6.00 Build 0)  -->
<svg version="1.1" id="Layer_1" xmlns="http://www.w3.org/2000/svg" xmlns:xlink="http://www.w3.org/1999/xlink" x="0px" y="0px"
	 viewBox="0 0 288 288" style="enable-background:new 0 0 288 288;" xml:space="preserve">
<style type="text/css">
	.st0{fill:#C9BAA9;}
	.st1{fill:#82708A;}
	.st2{fill:#D5C0AA;}
	.st3{fill:#8E6F79;}
	.st4{fill:#DAC3C9;}
	.st5{fill:#FFFFFF;}
	.st6{fill:#9E89AB;}
</style>
<path class="st0" d="M191,216.9c0,0-14.5,6.7-15.6,8.9c0,0-3.3-7.2,1.1-7.8l-17.3,6.1l2.2-6.7l-6.1-2.8l17.8-11.1L191,216.9z"/>
<path class="st1" d="M179.3,201.8l-6.1,1.7c0,0,0.6,3.9,6.1,5.6c5.6,1.7,11.7,7.8,11.7,7.8s6.7,1.7,15.6-12.3L179.3,201.8z"/>
<path class="st2" d="M123.2,228.5c0,0-16.4,8.9-16,13.3l8.4-0.9c0,0-8,13.3-4,15.1c0,0,12.9-11.1,14.6-10.2c0,0-5.3,8.4-2.2,9.3
	l13.8-8.4C137.9,246.7,152.5,223.1,123.2,228.5"/>
<path class="st2" d="M257.7,219.6c0,0-12.9,10.7-11.5,15.1c0,0,7.1-2.7,7.1-0.9c0,0-3.1,12,1.8,12.4c0,0,7.5-15.5,11.5-13.8
	c0,0-3.6,9.3-1.3,10.7c2.2,1.3-2.2-1.3-2.2-1.3s16.9-5.3,18.6-13.8C283.5,219.6,257.7,219.6,257.7,219.6"/>
<path class="st2" d="M186.3,186.8l38.6-9.8l5.8,21.3c0,0-19.5,21.3-54.2,5.3S186.3,186.8,186.3,186.8z"/>
<path class="st0" d="M56.2,118c0,0-24-20.9-28.9-19.1l24.9,22.6L56.2,118z"/>
<path class="st0" d="M24.3,168.1c0,0-4.4,0.4-4.9,2.7c0,0-12.9-1.3-16,2.2l11.1,6.2c0,0-10.2,6.7-9.3,10.7c0.9,4,10.7-1.8,10.7-1.8
	s7.1,3.6,15.1,0S42.5,173,24.3,168.1z"/>
<path class="st1" d="M65.1,104.6c0,0-10.2-20.4,11.1-45.7c0,0,26.2,0,24,28L65.1,104.6z"/>
<path class="st0" d="M70.4,99.3c0,0-3.6-20,6.7-29.7c0,0,8,9.8,5.8,20.9C80.6,101.5,70.4,99.3,70.4,99.3z"/>
<path class="st1" d="M65.5,158.3c0,0-28-0.9-41.3,9.8c0,0,21.7,8.9,6.7,20c0,0,39.1-4.9,65.2,3.1C122.4,199.2,65.5,158.3,65.5,158.3
	z"/>
<path class="st1" d="M248.4,133.5c0,0,19.1-64.4-36.4-94.1c0,0-3.1,21.7-31.5,7.1c0,0-30.6-30.2,1.8-38.2s67,49.3,67,49.3
	s22.6,56.4,4.9,87.9S248.4,133.5,248.4,133.5z"/>
<path class="st3" d="M52.2,153.4c0,0,34.2,27.5,35.1,32.1c1,4.6-1,9.2-1,9.2s5.8-22,14-21.6c8.2,0.5-29.8-31.7-29.8-31.7L52.2,153.4
	z"/>
<path class="st4" d="M96.6,172.1c0,0-27.1,24-3.6,38.1s18.2-29.9,18.2-29.9L96.6,172.1z"/>
<path class="st5" d="M44.7,149.9c0,0-5.3,30.2,7.1,30.6c0,0,6.2,3.6,8.9,1.8s17.8-30.6,17.8-30.6S66,142.8,44.7,149.9z"/>
<path class="st2" d="M40.2,141c0,0,2.2,12.4,12,12l18.6-3.6c0,0,5.3,0.9,10.2,7.1c4.9,6.2,26.6,26.6,26.6,26.6s9.8,19.1-14.6,26.2
	c0,0-10.2-2.7-9.3-16.4c0,0-8.9,22.2,11.1,22.2s30.2-16.4,30.2-16.4c1.2-0.8,3.1-1.7,5.4-2.2c6.6-1.2,11.7,2.7,12.8,3.5
	c1.5-6.1,3-12.1,4.4-18.2c0,0-3.1-25.7-13.3-25.3s83-4.4,83-4.4l0.4-6.7L125,145c-6.7-3.2-15.5-6.6-26.2-8.9
	c-15.1-3.2-28.2-2.8-37.3-1.8C54.5,136.6,47.4,138.8,40.2,141z"/>
<path class="st6" d="M56.2,118c0,0,27.1-54.2,83-19.1c0,0,42.6-36.1,49.3-11.8c6.7,24.2,1.3,44.2,1.3,44.2c3.1-2.2,6.9-4.6,11.5-6.7
	c10.2-4.6,19.5-5.6,25.8-5.8c5.3,2.1,13.8,6.3,21.3,14.6c15.3,17.1,14.5,38.2,14.2,43.1c0,0,4,15.1,20.4,21.3c0,0,6.2,8.4-1.3,30.2
	c0,0,1.8-6.7-13.3-2.2c-15.1,4.4-10.7-6.2-10.7-6.2l1.8-4.4c0,0-24.9-8.4-28.9-16.9c-4-8.4-5.3-14.2-5.3-14.2s-8.9-6.2-24,0
	c-15.1,6.2-16.4,3.6-16.4,3.6s-22.6,46.6-47,59c0,0,4-13.3-4.9-11.1c-8.9,2.2-9.8-7.1-9.8-7.1s19.5-43.9,24.4-46.6l-4.9-3.1
	c0,0-0.9-21.3-8.4-22.2c-7.5-0.9,61.3-8,77.7-6.2c0,0,14.2-9.3-83-1.3c0,0-30.2-14.2-64.4-9.8c0,0-19.1,9.3-24.4,1.8
	c0,0-4.9-15.1-0.4-16.4C44.2,123.3,56.2,118,56.2,118z"/>
<path class="st2" d="M147.7,110.9c0,0,26.6-30.6,33.7-12.9s-4.9,39.5-4.9,39.5s-7.1,5.8-23.5-3.1C153,134.4,154.3,111.3,147.7,110.9
	z"/>
</svg>
