<?xml version="1.0" encoding="utf-8"?>
<!-- Generator: Adobe Illustrator 23.0.4, SVG Export Plug-In . SVG Version: 6.00 Build 0)  -->
<svg version="1.1" id="Layer_1" xmlns="http://www.w3.org/2000/svg" xmlns:xlink="http://www.w3.org/1999/xlink" x="0px" y="0px"
	 viewBox="0 0 288 288" style="enable-background:new 0 0 288 288;" xml:space="preserve">
<style type="text/css">
	.st0{fill:#BEC2CD;}
	.st1{fill:#737886;}
	.st2{fill:#E0D0C2;}
	.st3{fill:#A8B1C1;}
	.st4{fill:#71747A;}
	.st5{fill:#F5F5F7;}
	.st6{fill:#6C6464;}
	.st7{fill:#A28C91;}
</style>
<path class="st0" d="M10.9,96.9l-7,2.3c0,0,4.7,4.2,7,1.9C13.2,98.8,10.9,96.9,10.9,96.9z"/>
<path class="st0" d="M10.9,91.7c0,0-7.5-6.6-5.2-7.5s9.8,0.9,9.8,0.9L10.9,91.7z"/>
<path class="st0" d="M18.9,89.4c0,0-3.3-12.2,0.9-11.2s8.9,12.2,8.9,12.2S20.7,93.1,18.9,89.4z"/>
<path class="st1" d="M87.3,220.2c0,0,19.7,27.2,48.3,15.5l47.8-1.9c0,0,36.1-15.5,49.2-42.2s29.5-29.5,29.5-29.5l15.5-2.3
	c0,0,12.7-0.9-8-12.7s-54.8,8.4-54.8,8.4s-16.9,13.6-17.3,17.8c-0.5,4.2-20.6,4.7-20.6,4.7s-17.8-4.7-17.8-8.9c0,0,5.2-8.9,3.7-10.8
	c-1.4-1.9-8.9-4.7-8.9-4.7l-4.7-2.3l7.5-12.7l-6.1-5.2l-10.3,4.2L87.3,220.2z"/>
<path class="st1" d="M17.5,82.8c0,0-10.3,9.4-6.6,18.3s15.9,22,15.9,22s6.6,2.3,10.3,2.3s9.8,5.2,9.8,5.2s5.2,15.5,14.1,15.5
	s7.5-14.5,7.5-14.5l-5.2-20.2L28.7,90.3L17.5,82.8z"/>
<path class="st1" d="M48.4,64c0,0-3.3-8-4.7-12.2c-1.4-4.2-4.2-7.5-4.2-7.5s11.2-3.3,16.4,2.3S64.3,61.6,69,63
	C73.7,64.4,48.4,64,48.4,64z"/>
<path class="st1" d="M58.2,175.6c0,0-28.6,23-25.8,33.7c2.8,10.8,7.5,18.7,7.5,18.7s-1.9,3.3-7,3.7c-5.2,0.5,8.9,11.7,8.9,11.7
	l7.5-0.5l24.4-5.6l2.8-1.9l-2.3-6.1c0,0,11.7-3.7,14.1-12.7C90.6,208,58.2,175.6,58.2,175.6z"/>
<path class="st2" d="M58.7,167.2c0,0-2.3,43.6,32.3,55.3c0,0,21.1,10.3,37-1.9c15.9-12.2,5.2-38.4,5.2-38.4s-4.7-19.7-8.9-23.9
	c-4.2-4.2-29.1-18.3-29.1-18.3l-29.5,8.4L58.7,167.2z"/>
<path class="st0" d="M32.9,231.9c0,0-10.8,9.4-9.8,12.2l8.9-0.9l-4.7,6.1l22-6.1c0,0-3.3-7-8-7l-2.8,0.9
	C38.5,237,38.1,232.4,32.9,231.9z"/>
<path class="st3" d="M58.7,167.2l-4.2-4.7c0,0,0.5-20.2,4.2-21.1c0,0-8.4-6.6-2.8-19.7c0,0-15.5,8-20.6-2.3s0.9-20.2,0.9-20.2
	s6.6-21.1,15-24.8v-1.9c0,0-18.3-6.6-15.9-8c2.3-1.4,45.9-0.9,45.9-0.9l2.8-7.5c0,0,18.3-20.6,21.6-14.5s-2.8,29.1-2.8,29.1
	s9.4,2.8,10.3,8c0,0,8.9-8.9,9.8-10.8s6.1,1.4,6.1,1.4l0.9,6.1c0,0,7,4.7,9.8,2.3c0,0,0.5,6.1-1.4,6.1s-3.3,1.4-3.3,1.4l-0.5,2.3
	l2.8,3.7l-3.3,2.8c0,0,10.8,0,11.7,3.7c0,0,8.4-8,8.9-10.3S174,77.2,174,77.2s13.6-5.6,15.9,0.5c2.3,6.1,3.7,6.6,3.7,6.6
	s0.9,6.6-0.5,10.8s-1.9,8-1.9,8s-2.3,6.6-8,7.5c-5.6,0.9-23.4,9.8-23.4,9.8s-5.6,13.1-12.2,18.7l13.1,33.7c0,0,31.9,18.7,22.5,60.9
	c0,0,9.4,23.4,0.9,28.6c0,0-15.9-3.3-17.8,0c-1.9,3.3-10.8-1.4-10.8-1.4l-3.3-1.9l2.3-6.6l-3.7-4.7l0.5-8.4c0,0-15.9,0-18.3-3.7
	c-2.3-3.7-6.1-21.6-6.1-21.6l-1.9-3.3c0,0,1.4-23.4,8-28.6c0,0-5.6-23-8.9-23.9c0,0-15,18.7-23.9,7s-26.7-14.1-26.7-14.1
	S57.8,163,58.7,167.2z"/>
<path class="st4" d="M90.1,82.8L84,76.3l4.2-13.6c0,0,14.5-20.6,15.9-17.3c1.4,3.3-5.6,35.2-5.6,35.2l-1.4-4.2l-2.8,6.6l-0.9-6.6
	C93.4,76.3,88.7,75.8,90.1,82.8z"/>
<path class="st4" d="M121.5,101.1c0,0-7-7.5-6.6-12.7c0.5-5.2,13.1-16.9,13.1-16.9s-13.1,18.7-2.8,26.2L121.5,101.1z"/>
<path class="st4" d="M58.7,167.2c0.5-1.8,3.1-10.3,11.2-14.2c0.7-0.3,3.9-1.8,8.4-1.9c7.1-0.1,12.3,3.5,18.7,8c2.9,2,7,5.2,11.2,9.8
	c-1.9,0.4-4.8,0.6-8-0.5c-4.6-1.6-5.6-4.7-11.7-9.3c-3.9-2.9-6-4.5-8.9-4.8c-8.4-0.9-15,8.1-15,8.1
	C62.8,164.1,60.7,165.6,58.7,167.2z"/>
<path class="st5" d="M155.7,261c0,0,7.5-11.7,9.8-7.5c2.3,4.2,2.3,15.5,2.3,15.5L155.7,261z"/>
<path class="st5" d="M173.5,259.1c0,0,6.1-10.3,9.4-4.7c3.3,5.6,2.8,14.5,2.8,14.5L173.5,259.1z"/>
<path class="st5" d="M170.7,83.3c0,0,0.9-10.3,3.7-10.3s4.7,8.4,4.7,8.4S173.1,88.5,170.7,83.3z"/>
<path class="st5" d="M187.1,77.2c0,0,9.8,0.5,10.8,2.8c0.9,2.3-8,7-8,7S183.9,81.4,187.1,77.2z"/>
<path class="st5" d="M190.4,94.5c0,0,9.4,0.5,9.4,3.3c0,2.8-8.4,5.2-8.4,5.2S185.7,102.5,190.4,94.5z"/>
<path class="st2" d="M38.1,112.8c0,0-15-23-12.7-25.3S52.1,96,52.1,96s7.5,10.3-0.9,14.5S38.1,112.8,38.1,112.8z"/>
<path class="st6" d="M57.8,123.1c0,0-5.6,13.6,4.7,15.5C62.5,138.6,55.4,133.5,57.8,123.1z"/>
<path class="st7" d="M57.8,123.1c0,0-1.9,11.7,4.7,15.5c0,0,21.1,10.3,30.9-25.8l-5.2-3.7C88.2,109.1,62.9,123.6,57.8,123.1z"/>
<path class="st5" d="M81.2,113.8c0,0,5.6,6.6,7.5,6.1c1.9-0.5-0.5-10.8-0.5-10.8L81.2,113.8z"/>
</svg>
