<?xml version="1.0" encoding="utf-8"?>
<!-- Generator: Adobe Illustrator 23.0.4, SVG Export Plug-In . SVG Version: 6.00 Build 0)  -->
<svg version="1.1" id="Layer_1" xmlns="http://www.w3.org/2000/svg" xmlns:xlink="http://www.w3.org/1999/xlink" x="0px" y="0px"
	 viewBox="0 0 288 288" style="enable-background:new 0 0 288 288;" xml:space="preserve">
<style type="text/css">
	.st0{fill:#AB9F9A;}
	.st1{fill:#6692A7;}
	.st2{fill:#E3D8BF;}
	.st3{fill:#92D1E7;}
	.st4{fill:#393939;}
</style>
<path class="st0" d="M139.6,56.6c0,0,28.9-24.8,30.4-23.7s-17,32.5-13.9,43.8c0,0,20.1-10.8,21.7-7.7c1.5,3.1-1.5,7.7-1.5,7.7
	s-13.4,12.9-12.9,15s7.7,3.6,7.7,3.6l-6.7,6.2l-20.1-1l-7.7-27.8L139.6,56.6z"/>
<path class="st1" d="M142.2,76.1l2-0.4L153,74c0,0,45.9-2.6,46.9,0c1,2.6-43.8,18-43.3,21.1c0.5,3.1,7.7,7.2,7.7,7.2l-1.5,10.8
	l-8.8,11.3l-14.4-15L132.9,90L142.2,76.1z"/>
<polygon class="st1" points="145.3,155.6 215.9,169 206.6,147.9 203,141.7 210.3,130.4 208.7,119.5 204.6,87.6 184.5,97.9 
	154,113.9 135.5,129.3 135,155.6 140.6,154.1 "/>
<path class="st1" d="M72.6,62.3c0,0-11.9-1-11.9,12.9l6.7,1L72.6,62.3z"/>
<path class="st0" d="M184.5,97.9c0,0,54.1-40.7,56.2-37.1s-34,49-34,49s70.6-4.6,71.7-0.5c1,4.1-71.7,32-71.7,32s6.8,7.3,13.6,15
	c9.9,11.1,14.3,14.6,13.2,16.5c-1,1.7-7,0.5-19.1-2.1c-1.9-0.4-5.2-1.1-9.3-2.6c-2.1-0.7-3.9-1.5-5.2-2.1c3.4,0,6.9,0,10.3,0
	l-17-7.7l15.5-3.1l-9.8-2.1l2.6-3.6l-6.7-0.5l2.1-5.2l-9.8,0.5l5.2-2.1l-5.2-1l23.2-10.8l-17,2.1l7.7-5.2l-10.3,2.6l4.1-4.1
	l-12.9,2.1l15-6.2l-17-1.5l18-12.9l-4.1-3.6l5.7-3.1l-3.1-2.1c2.4-2.9,4.8-5.8,7.2-8.8C197.2,92.4,190.8,95.1,184.5,97.9z"/>
<path class="st2" d="M97.3,131.4c0,0-6.7,15.5-5.7,17.5l3.6,2.1c0,0-3.1,11.9-1.5,15c1.5,3.1,1.5,3.1,1.5,3.1l-2.1,15
	c0,0,2.6,4.1,6.7,3.1c0,0,11.3,16,20.1,19.6l11.9-17l-8.8-19.1l-5.7-19.1l2.1-1l-5.2-22.7L97.3,131.4z"/>
<path class="st3" d="M58.6,103.6c0,0-17.5-9.3-27.3-11.3s-20.1-5.2-20.1-5.2s-3.1-10.3-1-15.5c2.1-5.2,7.7-18,10.8-18
	s11.9,7.7,11.9,7.7l27.8,13.9h2.1l9.8-16c0,0,40.7-28.4,65-22.2c0,0-3.6,5.2-6.2,5.2s-5.2,13.9-5.2,13.9s36.1-3.6,38.7,1.5
	c0,0-24.2,11.3-22.7,17.5c1.5,6.2,9.8,14.4,9.8,14.4s1,1.5-3.1,3.6s-4.6,7.2-4.6,7.2s49-2.6,57.8,7.7l-47.4,8.8c0,0-3.1,3.1,6.2,8.3
	s17,15,17,15s2.6,3.1-6.7,1.5c-9.3-1.5-34-9.3-34-9.3l-1.5,11.3l0.5,9.3l20.1,4.6l5.2,6.2l-1,3.6c0,0,45.9,13.9,41.3,54.7
	c-4.6,40.7-37.1,43.8-37.1,43.8s-48.5,1-52.1-35.6s19.6-40.7,19.6-40.7l-8.8-19.1l-5.7-19.1l2.1-1l-4.6-20.6
	C114.9,129.9,77.7,141.7,58.6,103.6z"/>
<path class="st4" d="M13.4,82.1c0,0,0-21.7,7.7-23.2c0,0,4.1,23.2,2.1,25.8C21.1,87.3,13.4,82.1,13.4,82.1z"/>
</svg>
