<?xml version="1.0" encoding="utf-8"?>
<!-- Generator: Adobe Illustrator 23.0.4, SVG Export Plug-In . SVG Version: 6.00 Build 0)  -->
<svg version="1.1" id="Layer_1" xmlns="http://www.w3.org/2000/svg" xmlns:xlink="http://www.w3.org/1999/xlink" x="0px" y="0px"
	 viewBox="0 0 288 288" style="enable-background:new 0 0 288 288;" xml:space="preserve">
<style type="text/css">
	.st0{fill:#E4E9F1;}
	.st1{fill:#EBF0F3;}
	.st2{fill:#ECE1CC;}
	.st3{fill:#777777;}
	.st4{fill:#DFCDDE;}
	.st5{fill:#F3F4F6;}
</style>
<path class="st0" d="M67.6,204.8c0,0-11.5,6.6-20.8,3.8c-9.3-2.7-17.5,6-17.5,6s-17.5,1.1-19.2,16.4c0,0-17.5,5.5-2.7,18.1
	c14.8,12.6,49.9-9.3,49.9-9.3l10.4-18.1V204.8z"/>
<path class="st0" d="M96.1,172.5c0,0,11-31.2,41.7-46s33.4-44.9,33.4-44.9s-4.4-20.8-31.2-8.2c0,0-13.2,19.7-23.6,6
	c0,0-3.8-7.1,0.5-12.6c0,0-11-9.9-0.5-24.7l7.1-6.6c0,0,3.3-14.8,21.9-17s33.4,18.6,33.4,18.6s7.1,13.2,6.6,15.3
	c0,0,15.9-33.4,41.1-35.1s38.9,7.7,38.9,7.7s23,14.2,13.2,39.5c0,0-1.6,19.2-17.5,15.9c0,0-0.5,16.4-18.1,11.5c0,0-5.5,0-11-13.7
	c-5.5-13.7-28-9.3-28-9.3s-22.5,8.2,9.9,51.5s18.6,78.4,18.6,78.4s-11,25.8-15.3,25.8c0,0,31.2,1.6,41.1-0.5
	c9.9-2.2,18.1,5.5,18.1,5.5s6,9.9,4.4,14.2c0,0,5.5,20.3-14.2,20.8c0,0-5.5,11.5-28,6s-43.3-19.7-43.3-19.7s-1.6-3.8-4.9-2.2
	c0,0-18.1,6-20.8,3.3c-2.7-2.7-21.4-69.1-21.4-69.1L96.1,172.5z"/>
<path class="st1" d="M66.5,225.6c0,0-3.8-36.7,25.2-51l13.7-5.5l6-21.4c0,0,2.2-5.5,5.5,3.3c3.3,8.8,7.1,15.9,7.1,15.9
	s31.2-0.5,44.9,24.1c13.7,24.7,10.4,40,10.4,40s-7.1,30.1-24.7,30.7c-17.5,0.5-56.4-24.7-56.4-24.7L66.5,225.6z"/>
<path class="st2" d="M68.1,252c0,0-20.3-12.1-6.6-26.9c13.7-14.8,35.1,1.6,35.1,1.6s15.9,1.6,28-2.7c12.1-4.4,26.9,3.3,26.9,3.3
	s24.1,16.4,3.3,34.5c-20.8,18.1-41.1-8.2-41.1-8.2L68.1,252z"/>
<ellipse class="st3" cx="102.6" cy="227.6" rx="7.7" ry="5.2"/>
<path class="st4" d="M82.3,250.3c0,0-4.9,19.7,17,20.8c21.9,1.1,29-15.3,29-15.3S102.6,234.4,82.3,250.3z"/>
<path class="st5" d="M81.4,250.3l-14.2-17c0,0-11.5,13.7,6.6,24.7c0,0,3.8,3.3,6.6,1.1C83,256.9,81.4,250.3,81.4,250.3"/>
<path class="st5" d="M133.9,261.8c0,0-6.6-7.7,0.5-17.5c7.1-9.9,5.5-9.3,5.5-9.3s6.6-4.9,6.6,17C146.5,252,147.6,266.7,133.9,261.8z
	"/>
</svg>
