<?xml version="1.0" encoding="utf-8"?>
<!-- Generator: Adobe Illustrator 23.0.4, SVG Export Plug-In . SVG Version: 6.00 Build 0)  -->
<svg version="1.1" id="Layer_1" xmlns="http://www.w3.org/2000/svg" xmlns:xlink="http://www.w3.org/1999/xlink" x="0px" y="0px"
	 viewBox="0 0 288 288" style="enable-background:new 0 0 288 288;" xml:space="preserve">
<style type="text/css">
	.st0{fill:#B69098;}
	.st1{fill:#CBCCD1;}
	.st2{fill:#D0A3AF;}
	.st3{fill:#F1E2E6;}
	.st4{fill:#F4F4F6;}
	.st5{fill:#E5E0DA;}
	.st6{fill:#97828F;}
	.st7{fill:#D0AFC4;}
</style>
<polygon class="st0" points="80.6,228.3 85.5,239.6 94.6,227.7 "/>
<path class="st1" d="M276.4,227.2c0,0,9.1,3.8,3.8,7.5c-5.4,3.8-8.1,3.2-8.1,3.2L276.4,227.2z"/>
<path class="st2" d="M42.4,190.1c0,0-52.7,12.4-21.5,49.5c0,0,51.7,17.2,44.1-10.2C57.5,201.9,42.4,190.1,42.4,190.1z"/>
<path class="st0" d="M220.5,134.4c1.8-7.8,2.6-17.6-0.1-28c-9.8-38.9-57.9-50.9-60.2-51.4c-5.4-2.8-10.8-5.5-16.1-8.3
	c4.9-3.6,9.9-7.2,14.8-10.8c8.5-1,22.8-1.5,39.3,3.4c7.3,2.2,42.5,12.2,58.4,47.2c25.8,57-5.9,101.2-5.9,101.2L220.5,134.4z"/>
<path class="st0" d="M258,212.1c0,0,19.9,9.7,18.8,18.3c-1.1,8.6-11.3,11.8-11.3,11.8s-11.8,3.8-19.9,1.6s-13.5,0-13.5,0
	S247.8,228.3,258,212.1z"/>
<path class="st0" d="M66.1,121.7c0,0-7-16.1-28-7s-1.1,30.7-1.1,30.7L66.1,121.7z"/>
<path class="st3" d="M159.2,34.9c0,0-50,4.3-47.3,24.2c0,0-4.3,5.4,11.8-2.2s36.6-1.6,36.6-1.6c2.9,0.8,5.7,1.6,8.6,2.4
	c-4-2.7-6.1-7.6-5.4-12.4c0.8-4.9,4.4-8.9,9.1-10.2C168.2,35,163.7,34.9,159.2,34.9z"/>
<path class="st2" d="M30.1,166.9c0,0,1.6-24.8,25.8-40.4s44.1-6.5,44.1-6.5l10.8,4.3c0,0,9.7-21.5,30.7-8.1c0,0,6.5,3.8,8.1,8.1
	c0,0,23.1-10.8,47.3-0.5s37.1,17.2,37.1,17.2s29.6,25.3,26.4,60.8c-3.2,35.5-32.3,44.7-32.3,44.7s-24.2,7-50.6-1.1
	c0,0-69.9,17.8-93.1,4.8c-23.1-12.9,23.7-35.5,23.7-35.5l10.2-21.5L30.1,166.9z"/>
<path class="st4" d="M89.2,239.6c0,0-15.6-0.5-16.7,8.1s17.2,0.5,17.2,0.5S95.7,244.4,89.2,239.6z"/>
<path class="st4" d="M58,234.7c0,0-19.4,4.3-9.1,8.6s15.6-0.5,15.6-0.5S67.7,236.9,58,234.7z"/>
<path class="st5" d="M63.4,155.1c0,0-55.4,7.5-37.7,34.4c0,0,2.4,1.3,5.7,2.1c4.6,1,7.4-0.9,11-1.5c5.9-1.1,8.1,1.8,19.1,4.8
	c0,0,6.6,1.8,15.9,3c7,0.8,18.2,1.1,32.8-3.5c0,0-10.8,37.7-47.9,24.8c-37.1-12.9-9.7-37.7-9.7-37.7l-8.6,5.4
	c0,0-16.7,32.3,17.2,40.4l23.7,2.7c0,0,21-17.8,32.3-17.8c0,0,22.1-22.1,2.2-33.4C99.5,167.5,92.5,165.8,63.4,155.1z"/>
<path class="st6" d="M46.7,188.4c-0.4,0.5-5.9,8-2.7,16.9c2.1,6,7.4,10.5,13.7,11.6c-1.4-1.1-4.4-3.9-5.7-8.6
	c-2.3-8.1,2.7-14.8,3.3-15.6C55.3,192.8,47.8,187.9,46.7,188.4z"/>
<path class="st7" d="M53.7,191.7c-0.3,0.5-5.9,9.8-1.1,19c3,5.6,8.2,7.9,9.7,8.5c3,1.2,7.7,2.6,13.7,2.7c1.8,0,4.8,0,8.3-0.8
	c7.9-1.9,13-6.8,15.6-9.4c6.3-6.3,9-13.3,10.2-17.2c-6,1.3-13.3,2.3-21.5,2.4C74.3,197,62.3,194.3,53.7,191.7z"/>
<path class="st4" d="M32.7,191.7c0,0,1.6,5.9,3.2,4.8s1.6-4.8,1.6-4.8H32.7z"/>
<path class="st4" d="M79.8,196.5c0.7,3.3,1.3,4.4,1.9,4.4c1.2,0,2.7-4.3,2.7-4.3l0,0C82.9,196.6,81.4,196.6,79.8,196.5z"/>
</svg>
