<?xml version="1.0" encoding="utf-8"?>
<!-- Generator: Adobe Illustrator 23.0.4, SVG Export Plug-In . SVG Version: 6.00 Build 0)  -->
<svg version="1.1" id="Layer_1" xmlns="http://www.w3.org/2000/svg" xmlns:xlink="http://www.w3.org/1999/xlink" x="0px" y="0px"
	 viewBox="0 0 288 288" style="enable-background:new 0 0 288 288;" xml:space="preserve">
<style type="text/css">
	.st0{fill:#7A8999;}
	.st1{fill:#7E8FA0;}
	.st2{fill:#372A36;}
	.st3{fill:#7C6666;}
	.st4{fill:#EEEFF8;}
	.st5{fill:#DCAAB7;}
	.st6{fill:#DFD5C4;}
	.st7{fill:#E6E4EB;}
	.st8{fill:#CFAEC4;}
</style>
<path class="st0" d="M244.1,80.4c0,0,4.8,2.9,7.2,2.4c2.4-0.5-1.4,4.3-1.4,4.3l-8.7,4.8L244.1,80.4z"/>
<path class="st0" d="M248.7,159.6c0,0,7.7,5.3,14,5.8c6.3,0.5-2.4,6.3-2.4,6.3l-14.5,3.4L248.7,159.6z"/>
<path class="st1" d="M160.9,115.6c0,0,6.8-7.7,12.6-6.8c0,0,5.3-6.8,5.3-8.7c0-2.4-8.2-31.9,5.3-33.8c0,0,2.9,0,2.9,4.8
	c0,4.8,10.6,16.9,10.6,16.9s6.3-3.9,9.2-1.9c0,0,9.7-6.3,9.2-8.2c0,0-3.4-23.7,1.9-24.1c0,0,2.9,0.5,3.9,4.3s6.3,9.7,6.3,9.7
	s8.2-10.6,11.6-8.2c3.4,2.4,8.2,34.3,6.8,43.4s-0.5,1.9-0.5,1.9l3.9,3.9c0,0,6.3-3.4,6.3,1s-2.9,8.2-2.9,8.2s6.8,15-7.7,30.4
	c0,0,12.6,28-4.3,41c0,0,1.4,45.4-22.7,48.3l-2.9,1c0,0-13,16.4-31.4,13.5l-8.2-6.3c0,0-15.9-103.3-15.9-105.2
	C159.9,138.8,160.9,115.6,160.9,115.6z"/>
<path class="st2" d="M197.6,228.6c0,0,15.4,3.9,26.5-16.4c0,0-1.4-15.4-7.7-20.8L197.6,228.6z"/>
<path class="st3" d="M184.5,184.7l12.6-0.5c0,0,12.6-2.9,19.3,7.2c0,0-4.8,25.1-24.1,41.5C192.2,232.9,201.9,207.8,184.5,184.7z"/>
<path class="st4" d="M191.3,184.2c0,0,0,8.2,1.4,6.8s4.3-6.8,4.3-6.8H191.3z"/>
<path class="st4" d="M203.3,183.8c0,0-1.9,9.7,0.5,9.7c2.4,0,5.3-1.4,6.8-7.2C210.6,186.2,206.2,182.4,203.3,183.8z"/>
<path class="st4" d="M222.1,200.1l-7.7,5.3c0,0,1,4.8,9.7,1L222.1,200.1z"/>
<path class="st5" d="M48.4,41.3c0,0-23.7-3.9-7.2-27.5s32.8-1.9,29.4,2.9c0,0,29.9-11.6,48.3,0.5c0,0,7.7-21.7,29.4-9.7
	s-0.5,37.7-3.4,30.9c0,0,7.7,35.7,4.8,43.9c-2.9,8.2,2.9,19.3,2.9,19.3s20.3,23.7,13,47.3c0,0,5.3,21.2,10.6,25.1
	c0,0,27,25.6,15.9,58.9c0,0-7.2,14.5-10.1,15.9c0,0,13.5,17.9,7.7,25.6c-5.8,7.7-21.2,2.9-21.2,2.9l-11.6-1l-12.1,2.4
	c0,0-11.1-7.2-7.7-14.5c3.4-7.2,4.8-13.5,4.8-13.5l-2.9-1.9l-60.3-7.2c0,0,1,8.2,3.4,10.6c2.4,2.4-34.8,13.5-34.8,13.5l-15.9-4.8
	l-8.7-9.7l8.2-6.8c0,0-20.3-11.1-19.3-32.8s15-35.2,17.4-40.1c2.4-4.8,4.3-10.6,4.3-10.6s-7.7-31.4,10.1-55
	C43.6,106,41.2,49,48.4,41.3z"/>
<path class="st6" d="M54.7,64c3.5-1,7.3-2.4,11.4-4.2c5.9-2.6,10.7-5.6,14.7-8.3c0,0,13-10.1,32.3,1.9c3.9,3.3,7.6,5.2,10.6,6.3
	c4.8,1.8,7.3,1.4,11.1,3.4c4.1,2.1,6.8,5.3,8.7,8.2c0.4,1.6,1.3,6.7-1.3,12.3c-3,6.3-8.5,8.9-9.8,9.4c0,0-14,19.8-35.2,18.8
	S60.5,95.8,60.5,95.8L55.6,92c-0.4-0.3-8.6-7-7.2-16.9C49.3,68.8,53.5,65,54.7,64z"/>
<path class="st6" d="M36.3,166.8c0,0-8.2,59.9,42.5,74.8s60.3,7.2,60.3,7.2s-13-17.9-9.7-33.8c3.4-15.9,9.7-26.1,9.7-26.1v-2.9
	l-6.8,4.3c0,0-10.6,1.9-12.6-0.5c-1.9-2.4-5.8-6.8-5.8-6.8l0.5-13c0,0-26.5,6.3-42-1c0,0-2.4,12.6-4.8,15.9
	c-2.4,3.4-11.1,2.4-11.1,2.4S35.8,174.5,36.3,166.8z"/>
<path class="st7" d="M22.8,251.3c0,0-18.3,10.6-12.1,13.5c6.3,2.9,19.3-1.9,19.3-1.9s-4.8,6.8-1,7.2s19.8-5.8,19.8-5.8
	s-0.5-17.4-15.9-6.3l-1.4,2.9C31.5,260.9,27.6,248.9,22.8,251.3z"/>
<path class="st7" d="M144.9,278.8c0,0-1-14.5,9.2-11.6c10.1,2.9,10.1,9.2,10.1,9.2s-3.4,9.7-6.8,8.7
	C154.1,284.1,144.9,278.8,144.9,278.8z"/>
<path class="st7" d="M168.6,277.3c0,0-1.4-12.1,10.1-10.1s11.1,7.2,11.1,7.2s-4.8,12.1-9.7,10.6S168.6,277.3,168.6,277.3z"/>
<path class="st7" d="M56.6,187.6c0,0,3.4,5.8,4.8,4.8c1.4-1,1-5.8,1-5.8L56.6,187.6z"/>
<path class="st7" d="M65.8,180.8c0,0-6.8,4.8-3.4,5.8c3.4,1,8.7,3.9,8.7,3.9S69.2,181.3,65.8,180.8z"/>
<path class="st7" d="M71.6,173.6c0,0,6.3,4.8,4.3,6.8c-1.9,1.9-5.8,1-5.8,1L71.6,173.6z"/>
<path class="st7" d="M115,176c0,0-6.8,6.3-5.3,8.2c1.4,1.9,7.2-0.5,7.2-0.5S119.4,175.5,115,176z"/>
<path class="st7" d="M122.7,187.1c0,0-4.8-2.4-5.8,0c-1,2.4,0.5,7.7,0.5,7.7S124.2,189,122.7,187.1z"/>
<path class="st7" d="M127.6,189c0,0-4.3,6.8-1.4,6.3c2.9-0.5,6.3-4.8,6.3-4.8S130,186.6,127.6,189z"/>
<path class="st8" d="M65.3,88.1c0,0,14,19.8,33.8,15c19.8-4.8,27-17.4,27-17.4l0.5-3.9c0,0-45.9-5.3-60.3,1L65.3,88.1z"/>
<path class="st7" d="M60.9,83.3c0,0,2.9,5.8,4.3,4.8c1.4-1,1-5.3,1-5.3L60.9,83.3z"/>
<path class="st7" d="M122.3,81c0,0,2.4,7.7,3.9,5.8c1.4-1.9,2.4-5.8,2.4-5.8H122.3z"/>
<polygon class="st0" points="237.1,85.7 240.5,85.2 239.1,89.1 "/>
<polygon class="st0" points="227.5,103.6 224.6,103.1 225.1,105 "/>
<path class="st0" d="M220.7,98.7c0,0,8.2,1.4,7.2-1c-1-2.4-3.4-4.3-3.4-4.3S220.2,96.3,220.7,98.7z"/>
<polygon class="st0" points="244.9,129.2 242.4,129.2 244.4,132.5 "/>
<path class="st0" d="M229.9,133.5l3.4,2.9c0,0,0.5,6.8-4.3,6.8c-4.8,0-4.8-2.4-4.8-2.4s1.4-2.9,0.5-5.8
	C223.6,132,229.9,133.5,229.9,133.5z"/>
<path class="st0" d="M214.9,134c0,0,4.3,3.4,1.4,3.9c-2.9,0.5-5.3-1.9-5.3-1.9L214.9,134z"/>
<polygon class="st0" points="217.3,182.7 223.1,176.9 228.4,176.9 231.3,180.8 229.9,185.1 231.3,187.6 228,190 "/>
<path class="st0" d="M231.3,196.3c0,0-4.3,4.3-1.9,5.8c2.4,1.4,2.4,1.4,2.4,1.4S234.2,197.2,231.3,196.3z"/>
</svg>
