<?xml version="1.0" encoding="utf-8"?>
<!-- Generator: Adobe Illustrator 23.0.4, SVG Export Plug-In . SVG Version: 6.00 Build 0)  -->
<svg version="1.1" id="Layer_1" xmlns="http://www.w3.org/2000/svg" xmlns:xlink="http://www.w3.org/1999/xlink" x="0px" y="0px"
	 viewBox="0 0 288 288" style="enable-background:new 0 0 288 288;" xml:space="preserve">
<style type="text/css">
	.st0{fill:#2E5769;}
	.st1{fill:#55889D;}
	.st2{fill:#E4DBD0;}
	.st3{fill:#A39282;}
	.st4{fill:#E1E2E6;}
</style>
<path class="st0" d="M71,217.4l31.5,18.4c0,0-11.2,7.1-31.1,2.6L71,217.4z"/>
<path class="st0" d="M172.6,241l33.4-16.5l4.9,18C210.9,242.5,195.1,250.4,172.6,241z"/>
<path class="st1" d="M27.1,144.2c0,0-10.9-6.7,5.6-25.9s39.4-32.2,39.4-32.2c2-1.3,4.4-2.7,7.2-3.9c4.2-1.9,8.1-2.9,11.2-3.6
	c0.2-1.8,0.8-4.3,2-7.1c1.7-3.8,4-6.4,5.5-7.9c0.3-4.3,1-10.5,2.6-17.6c1.8-7.8,2.7-11.7,5.2-13.1c4.8-2.6,14.1,3.1,23.2,13.1
	c0,0,22.5-8.2,37.9,2.6c0,0,22.9-13.5,28.9-9.8c6,3.8,3,32.2,3,32.2s83.6,46.1,79.9,77.2c0,0,1.1,18.4-29.6,7.1c0,0,8.2,33.4,6.8,39
	l-29.6,3.4c0,0,6.4-54.4-44.6-79.9c0,0,19.1-31.5-24-47.2l-18.7,18c0,0-15.7-9-17.6-18.4c0,0-46.5,11.6-13.9,47.6l3,2.2
	c0,0-58.9,19.1-51.7,78L44.8,190c0,0-5.6-16.5,6-46.5C50.8,143.5,32.8,150.6,27.1,144.2z"/>
<path class="st2" d="M120.5,68.5c0,0-30,7.5-25.5,26.6c4.5,19.1,12.4,22.9,12.4,22.9s-30.7,9-41.6,34.1s-9.4,38.6-9.4,38.6
	s0.8,5.6,2.2,7.5c0,0-21.4-17.6-36.7-6C6.5,203.9,7.3,211.7,7.3,211.7s-1.1,30,32.6,38.2c33.7,8.2,33.7-21.4,33.7-21.4
	s-1.1-9.4-2.6-11.2c-1.5-1.9,33.4,30.4,71.2,28.5s63.4-19.1,63.4-19.1s-1.5,30.7,32.2,29.2c33.7-1.5,36-35.2,36-35.2
	s-0.4-23.6-26.2-28.5c0,0-17.6,0-20.6,2.6c0.1-9-0.9-22.7-6.8-37.1c-4-9.8-8.7-16.5-10.1-18.4c-3-4.1-5.6-7.7-10.1-11.2
	c0,0-3.4-2.7-18.4-10.1l0,0c0,0,15.4-15,3-29.2c-12.4-14.2-27-18-27-18l-18.7,18C138.9,88.7,118.6,71.1,120.5,68.5z"/>
<path class="st3" d="M251.4,222.2c0,0-24.4-8.6-28.5,12c-4.1,20.6,19.5,14.2,19.5,14.2S269.8,238.7,251.4,222.2z"/>
<path class="st3" d="M24.1,213.2c0,0-16.5,13.1,4.1,27.4s26.6-5.6,26.6-5.6s-0.4-14.6-14.2-19.9C26.8,209.9,24.1,213.2,24.1,213.2z"
	/>
<path class="st4" d="M122,117.6c0,0,1.9-4.5,2.6-3c0.8,1.5,1.5,4.9,1.5,4.9L122,117.6z"/>
<path class="st4" d="M153.1,120.6c0,0-0.4-6.4,1.1-6s2.6,3.4,2.6,3.4L153.1,120.6z"/>
<path class="st4" d="M23,135.6l-3,2.6l3.4,1.5l-3.7,4.9l4.5-1.1l0.4,6.7l4.9-4.1c0,0-0.4,6.4,1.9,6.4s4.9-6.4,4.9-6.4s-4.5-3-6-1.9
	s-3-3-4.5-1.9c-1.5,1.1,1.1-3-0.7-3S25.3,136.4,23,135.6z"/>
<path class="st4" d="M37.6,145.7c0,0,1.5,4.1,3,4.1c1.5,0,3-4.9,3-4.9S40.3,143.5,37.6,145.7z"/>
<path class="st4" d="M258.5,156.6c0,0,1.5,6.7,2.6,6.7c1.1,0,3.4-4.9,3.4-4.9S264.5,155.1,258.5,156.6z"/>
<path class="st4" d="M269,158.1l6.4,4.1c0,0-0.4-5.6-2.2-6S269,158.1,269,158.1z"/>
<path class="st4" d="M276.1,156.6l3.7,1.9l-1.5-4.5l4.9-1.1l-2.2-3l-2.2-4.9c0,0-1.1,4.1,0,4.5c0,0-2.6,1.1-1.9,2.6
	C277.6,153.6,274.6,154,276.1,156.6z"/>
<path class="st4" d="M222.9,197.5c0,0,2.6-15,4.9-13.1c2.2,1.9,8.2,12.7,8.2,12.7S231.5,206.9,222.9,197.5z"/>
<path class="st4" d="M244.3,196.4c0,0,9-13.9,10.1-11.6c1.1,2.2,2.6,14.6,2.6,14.6S252.9,208.7,244.3,196.4z"/>
<path class="st4" d="M263,202.7c0,0,10.9-9.4,12.4-5.6c1.5,3.7-3.4,15-3.4,15S266.8,214,263,202.7z"/>
<path class="st4" d="M7.3,211.7c0,0-6.7-10.1-4.9-10.9c1.9-0.7,9.4,1.1,9.4,1.1S14,211,7.3,211.7z"/>
<path class="st4" d="M19.3,199c0,0-1.9-12.7-0.4-13.5c1.5-0.7,11.2,8.6,11.2,8.6S23.8,202,19.3,199z"/>
<path class="st4" d="M38.4,193c0,0,3.7-13.1,6.4-12c2.6,1.1,6.4,12,6.4,12S49.6,201.2,38.4,193z"/>
</svg>
