<?xml version="1.0" encoding="utf-8"?>
<!-- Generator: Adobe Illustrator 23.0.4, SVG Export Plug-In . SVG Version: 6.00 Build 0)  -->
<svg version="1.1" id="Layer_1" xmlns="http://www.w3.org/2000/svg" xmlns:xlink="http://www.w3.org/1999/xlink" x="0px" y="0px"
	 viewBox="0 0 288 288" style="enable-background:new 0 0 288 288;" xml:space="preserve">
<style type="text/css">
	.st0{fill:#A57D70;}
	.st1{fill:#EBEBEE;}
	.st2{fill:#ADB1B9;}
	.st3{fill:#98C2CE;}
	.st4{fill:#E4D8BE;}
	.st5{fill:#71A2B3;}
</style>
<path class="st0" d="M169.2,99c0,0,31.5,24,31.5,62.9S187,222,187,222l-17.2-24.6l-8.6-88.1L169.2,99"/>
<path class="st1" d="M152.5,112.2l-2.7-2.9l1.7-1.4l17.3-14.6c0,0,1.4,4.6-1.4,13.7s14.3,40,14.3,40s-2.7,17.7-5.4,35.5
	s13.6,39.5,13.6,39.5l-25.1-14.3c0,0-6.8-34.3-2-40C167.4,161.9,152.5,112.2,152.5,112.2z"/>
<path class="st2" d="M121.2,239.7c0,0,4.6,6.9,15.4,6.3c10.9-0.6-2.9-13.2-2.9-13.2L121.2,239.7z"/>
<path class="st3" d="M61.7,194.5c0,0-25.7,18.3-17.2,49.2c0,0-9.7,5.1-9.7,8l8,3.4c0,0-5.7,3.4-3.4,5.1l13.7-0.6
	c0,0-2.3,2.3-1.1,5.1c0,0,30.3-8,33.8-10.3c0,0,5.7-18.3,10.9-18.3L61.7,194.5z"/>
<path class="st4" d="M85.1,113.3c-3.7,3.6-32.3,32.5-27.5,70.4c0.8,6.2,3.4,26.2,19.4,41.8c5.2,5.1,10.5,8.3,14.3,10.3
	c2.3,1.1,5.6,2.4,9.7,3.4c0,0,9.8,2.1,20,0.6c20.6-2.9,45.8-39.5,45.8-39.5s-7.4-20.6-2.9-32.6c4.6-12-10.9-58.3-10.9-58.3
	S119.5,130.5,85.1,113.3z"/>
<path class="st5" d="M187,222c5.6-0.9,13.6-3,21.2-8.6c14.4-10.7,12.6-23.7,23.5-28.6c11.2-5.1,28.8,1.4,37.8,14.3
	c12.6,18.2,0.8,39.2,0,40.6c-4.6,8-11,12.1-13.3,13.6c-26.2,16.6-63.9-2.4-67.9-4.4L187,222z"/>
<path class="st3" d="M60.5,65.3c1.7-4.4,3.4-8.8,5.1-13.2c-0.5-3.4-0.9-8.9,1.1-14.9c4.5-13.2,17-19.3,22.9-21.7
	c5.7-2.3,15.9-5.5,28.5-4.7c26.4,1.6,42.5,19.5,46.4,23.6c42.3,43.5-18.9,81.8-18.9,81.8s14.9-7.4,23.5,4.6
	c8.6,12,15.4,33.8-12.6,52.6c0,0-12.6,14.3-37.2,1.7c0,0-6.9-2.3-8.6-0.6c-1.7,1.7,5.1-10.3,8-10.3c0,0,6.3-34.3,20.6-45.2
	c0,0-25.2,8-54.3-5.7c0,0-24,24.6-25.7,48.1c0,0-12,8.6-48.6-1.1c0,0,0.6-5.7,6.3-9.7c0,0,6.3,3.4-2.9-12.6c0,0,4.6-4.6,10.3-3.4
	c0,0,47.5-26.3,54.9-24.6C61.9,101,52.2,86.5,54.8,75C55.4,72.6,56.7,69,60.5,65.3z"/>
<path class="st3" d="M132.6,239.2c0,0-9.7-11.4,10.3-32s38.9,5.1,38.9,5.1s11.4,16,6.3,36.6c-5.1,20.6,2.9,26.3,2.9,26.3
	s-0.6,4.6-6.3,1.7c-5.7-2.9-10.3,0-10.3,0s-1.7,5.1-5.1,4.6c-3.4-0.6-8.6-9.2-13.7-8c-5.1,1.1-10.9,3.4-10.9,3.4s-1.1-3.4-1.1-5.7
	C143.5,268.9,137.8,239.2,132.6,239.2z"/>
</svg>
