<?xml version="1.0" encoding="utf-8"?>
<!-- Generator: Adobe Illustrator 23.0.4, SVG Export Plug-In . SVG Version: 6.00 Build 0)  -->
<svg version="1.1" id="Layer_1" xmlns="http://www.w3.org/2000/svg" xmlns:xlink="http://www.w3.org/1999/xlink" x="0px" y="0px"
	 viewBox="0 0 288 288" style="enable-background:new 0 0 288 288;" xml:space="preserve">
<style type="text/css">
	.st0{fill:#686774;}
	.st1{fill:#BBBDD7;}
	.st2{fill:#F8E9B3;}
	.st3{fill:#A89573;}
	.st4{fill:#D08A8C;}
</style>
<path class="st0" d="M69.6,120.7c0,0-32.9-90.7-25.9-93.4s67,35.1,67,35.1l12.4-1.6l51.3-3.2c0,0,77.2-44.3,85.3-36.2
	c8.1,8.1-42.1,95.6-42.1,95.6l36.2,51.3c5.5,9.1,10.1,16.4,13.2,21.3c6.8,10.9,8.4,13.3,11.7,19.2c3.3,5.9,8.1,15.1,8.1,15.1l0,0
	c0,0-3.2,6.5-13,5.4c-9.7-1.1-62.6-9.7-62.6-9.7l-44.8,15.7c0,0-12.4,36.7-24.8,32.9c-12.4-3.8-24.3-40.5-24.3-40.5l-44.8-4.9
	c0,0-64.3,10.8-68.6,5.9c-4.3-4.9,49.7-58.9,49.7-58.9L69.6,120.7z"/>
<path class="st1" d="M100.3,94.8c0,0,33.5-86.9,49.7-88.6s30.2,81,37.8,85.9s88,57.8,89.6,69.7l-3.8,5.4l-59.4,9.7
	c0,0,16.7,94,15.7,95.6s-15.1,0.5-15.1,0.5s-67.5-54-71.3-53.5c-3.8,0.5-13,4.3-13,4.3s-45.4,42.1-48.1,47c-2.7,4.9-13,2.7-13,2.7
	l-3.8-6.5l13.5-88.6c0,0-61-5.9-62.1-11.9c-1.1-5.9,18.9-21.6,18.9-21.6s47-38.3,61-41L100.3,94.8z"/>
<path class="st2" d="M65.8,152v-9.7l17.3-4.9l12.4-22.1L84.7,96.4c0,0-2.2-9.2,7.6-9.2l16.2,13l16.2-8.1l7.6-32.4l10.8-0.5l3.2,29.7
	l21.6,9.2l20-14l9.2,6.5L181.9,111l14,21.1l21.1,3.2l-2.2,14l-19.4,3.2l-15.1,25.9l9.2,16.2l-5.9,7.6l-17.8-11.3l-20,9.2l-2.2,25.4
	L130,226c0,0-8.1-24.3-4.9-27l-19.4-9.2l-17.3,14l-8.6-7.6l14-21.1l-8.6-21.6L65.8,152z"/>
<polygon class="st3" points="88.5,203.9 108.4,176.9 113.8,193.1 105.7,189.8 "/>
<path class="st3" d="M140.3,184.4c0,0,0,36.7,3.2,41l2.2-25.4L140.3,184.4z"/>
<path class="st3" d="M166.7,167.7l22.7,27l-9.2-16.2l3.8-5.4C184,173.1,166.2,164.5,166.7,167.7z"/>
<path class="st3" d="M175.9,146.6c0,0,37.8,1.1,38.9,2.7l-19.4,3.2L175.9,146.6z"/>
<polygon class="st3" points="169.4,114.2 194.8,93.2 181.9,111 184,114.2 "/>
<polygon class="st3" points="139.6,97.6 143.4,62 147.2,87.9 "/>
<polygon class="st3" points="99.8,114.2 84.7,96.4 95.5,115.3 "/>
<polygon class="st3" points="109,105.6 92.2,87.2 108.4,100.2 "/>
<polygon class="st3" points="69.6,152.6 93.9,148.3 85.2,153.7 "/>
<path class="st4" d="M96,129.9l18.9-24.8c0,0,29.2-3.2,32.4-1.6s23.2,20.5,23.2,20.5v34L147.8,179l-31.3,0.5c0,0-20-18.4-19.4-22.1
	S96,129.9,96,129.9z"/>
</svg>
