<?xml version="1.0" encoding="utf-8"?>
<!-- Generator: Adobe Illustrator 23.0.4, SVG Export Plug-In . SVG Version: 6.00 Build 0)  -->
<svg version="1.1" id="Layer_1" xmlns="http://www.w3.org/2000/svg" xmlns:xlink="http://www.w3.org/1999/xlink" x="0px" y="0px"
	 viewBox="0 0 288 288" style="enable-background:new 0 0 288 288;" xml:space="preserve">
<style type="text/css">
	.st0{fill:#373435;}
	.st1{fill:#4A4E58;}
	.st2{fill:#657E9A;}
	.st3{fill:#73A2BD;}
	.st4{fill:#DC8C7B;}
</style>
<polygon class="st0" points="109.8,114.2 84.7,131.7 86.7,175.3 130.8,187.6 200.6,181.4 221.6,169.1 220.6,115.3 219,105 
	183.7,110.1 169.8,85 145.7,94.2 139.6,108.1 "/>
<path class="st1" d="M101.1,100.7c0,0,7.2-17.5-16-22.4c0,0-11.2,9.7,6.4,23.6L101.1,100.7z"/>
<path class="st1" d="M95.5,69.9c0,0,13.5,5.2,15.3,9.4c0,0,7.2-22,9.9-22C120.6,57.3,99,56.3,95.5,69.9z"/>
<path class="st1" d="M221.4,135.8c0,0-11.6,12.9,16.2,32.3C237.6,168.1,250.4,149.5,221.4,135.8z"/>
<path class="st1" d="M244.7,113.2c0,0-6.7,12.3-9.7,12.3l-1.5,3.1c0,0,16.4,7.2,16.9,10.8C250.3,139.4,258.5,121.4,244.7,113.2z"/>
<path class="st1" d="M251.4,158.9c-0.7,0.6-2.5,2.5-3.1,5.6c-0.5,2.6,0.2,4.7,0.5,5.6c0,0,2.8,0.4,5.9,0.5c3.9,0.2,6.9,0.1,7.4-1
	C262.7,168.4,260.8,165.6,251.4,158.9z"/>
<path class="st1" d="M231.4,182.4c0,0,6.6,11.7,5.9,15.4c0,0,6.6-7.3,7.3-11.7C244.5,186.1,233.6,183.9,231.4,182.4z"/>
<path class="st1" d="M205.9,181.7c0,0,15.4,4,18.1,18.2l-6,6.5C218,206.3,209.5,180.8,205.9,181.7z"/>
<path class="st1" d="M167.8,220.4c0,0,6.3,12.2,1.3,16.4c0,0,20.3-3.6,20.3-8.5C189.3,228.3,169,224,167.8,220.4z"/>
<path class="st1" d="M105.1,190.9c0,0-3.6,15.5,8.4,19.4c0,0,10.8-7.7,13.2-11.6C126.7,198.6,109.9,187.7,105.1,190.9z"/>
<path class="st1" d="M100.3,184.5c0,0-13.4,24.7,11.8,42.6l-3.9,3c0,0-20.5-26.9-26.8-26.2C81.3,203.9,79.8,187.5,100.3,184.5z"/>
<path class="st1" d="M63.7,157.1c0,0,7.8,3.6,7.8,10.9c0,0,7.8-7.3,8.6-16.4C80.1,151.7,64.4,159.9,63.7,157.1z"/>
<path class="st1" d="M50,168.5c0,0,14.8,1.5,14.1,8.3c0,0-2.2,7.5-5.9,5.3C58.2,182,51.5,174.5,50,168.5z"/>
<path class="st1" d="M38.2,179.9c0,0-10.9,4.1,1.3,20.5l4.5-7.6C44,192.8,38.8,182.8,38.2,179.9z"/>
<path class="st1" d="M29.8,112.6c0,0-2.6,8.1,2.6,12.4c0,0,6.7-13,8.7-11.2c0,0,4.6-13.6,6.7-12.4C47.8,101.4,38.5,103.3,29.8,112.6
	z"/>
<path class="st1" d="M120.1,56.3c0,0,6.3,9.4,4,14.7c0,0,16.1-1.3,22.5,16.1C146.6,87.1,156.4,65,120.1,56.3z"/>
<path class="st1" d="M189.4,191.2c0,0-2.9,14.2-9.4,14.7c0,0,17.3,8.4,23.1,2.6C203.1,208.5,203.1,195.4,189.4,191.2z"/>
<path class="st2" d="M97,67.6c0,0,29.8,7.7,20.9,39.5l-18.5-2.4c0,0,5.4-20.6-11.9-21.8C87.4,82.9,85.1,77,97,67.6z"/>
<path class="st2" d="M98,118.3c0,0,0.5,4.1-1,5.1c0,0,11.3-2.1,12.3-5.6C110.3,114.2,98,118.3,98,118.3z"/>
<path class="st2" d="M56.5,68.1c0,0-25.6-2.1-27.7,25.6c0,0,12.8-11.8,25.1-9.2c0,0,3.1-7.2,6.2-7.2L56.5,68.1z"/>
<path class="st2" d="M14.9,131.7c0,0-20.5,24.6,4.1,47.7c0,0-0.5,20,15.9,27.7l3.6-9.2c0,0-9.7-11.3-1-17.9c0,0-19.5-39,24.1-67.2
	c-0.2-2.7-0.7-6.1-2.1-9.7c-0.5-1.3-1-2.5-1.5-3.6c-4.7-2.3-10.2-1.4-13.8,2.1c-3.2,3.1-4.4,7.9-3.1,12.3c0,0-7.7,2.1-8.7,9.2
	c0,0-4.1-7.7-2.6-10.3c0,0-12.3,11.3-9.7,20.5C18.4,132.7,16.7,132.2,14.9,131.7z"/>
<path class="st2" d="M112.9,191.7c0,0-3.6,11.8,3.6,15.4c0,0-8.2,10.3-13.3,10.3c0,0-16.9-13.8-7.7-29.2
	C95.5,188.1,107.3,184,112.9,191.7z"/>
<path class="st1" d="M102.6,226.5h5.8c0,0,12.2,15.6,30.1,18.3c0,0-19.9,9.8-30.8,3.9C107.8,248.7,107.1,231.8,102.6,226.5z"/>
<path class="st1" d="M140.6,244.5c0,0-10.8,11.8-5.6,15.9c5.1,4.2,13.3,0,13.3,0s10.8-7.6,11.3-11.1
	C159.6,249.3,140.6,245.9,140.6,244.5z"/>
<path class="st1" d="M188.3,246.5c0,0,17.9,12.7,21.5,5.5c0,0-3.6-8.9-7.8-11.6C202,240.4,190.1,250.4,188.3,246.5z"/>
<path class="st1" d="M149.8,186c0,0,7.7,23.9,11.5,23.9c0,0-12.3,19.4-32.3,9.1C129,219,145.1,189.3,149.8,186z"/>
<path class="st2" d="M111.9,231.7c0,0,43.6,40.5,91.3,9.7c0,0,33.3-29.7,0-63.1c0,0-8.2-7.2-19.5-4.1l-2.6,4.1c0,0,8.7,6.7,7.7,13.8
	c0,0,24.6,17.4-2.6,35.9s-35.9,5.6-35.9,5.6s-21,2.1-28.2-6.7C122.1,227.1,113.4,233.2,111.9,231.7z"/>
<path class="st2" d="M239.6,77.3c0,0,30.3,0,35.9,39c0,0-16.9-19.2-28.7-19.8C246.7,96.5,243.7,79.5,239.6,77.3z"/>
<path class="st2" d="M244.7,113.2c2.1,8.1,4,16.9,5.6,26.2c1,5.8,1.9,11.5,2.6,16.9c2.5-0.9,6.8-2.9,10.7-7
	c6.3-6.6,7.5-14.4,7.8-17.1C271.4,132.2,257.5,112.7,244.7,113.2z"/>
<path class="st2" d="M221.1,198.9c0,0,1,9.7-3.1,13.3c0,0,2.1-9.2-1-10.8L221.1,198.9z"/>
<path class="st2" d="M168.8,221.4c0,0,4.6,8.7,1,13.8c0,0-7.7,6.7-19.5-1.5C150.3,233.7,168.3,225.5,168.8,221.4z"/>
<path class="st2" d="M74.9,62.4c0,0-7.2-14.4-4.6-23.6s-9.2,0-9.2,0s-16.9,19-1,38.5c0,0,5.1-4.6,6.7-3.1L74.9,62.4z"/>
<path class="st2" d="M53.4,135.3c-2.6,1.2-5.9,3.4-8.2,7.2c-4.5,7.5-2.9,18.4,4.1,27.2c3.3-2.6,7.4-5.5,12.3-8.2
	c6.5-3.5,12.5-5.8,17.4-7.2c0-3.1-0.1-6.5-0.4-10c-0.8-8.7-2.7-16.2-4.7-22.3C67.1,126.4,60.2,130.8,53.4,135.3z"/>
<path class="st2" d="M84.2,121.4l6.7,9.7c1.4-1.3,2.9-2.6,4.4-3.9c4.7-4.4,9.1-8.7,13.1-13C100.2,116.6,92.2,119,84.2,121.4z"/>
<path class="st2" d="M49.8,152.2c0,0,22.6,6.2,24.1,13.3c0,0-7.2,11.3-12.3,11.8c0,0-5.1-7.7-9.7-5.6
	C51.9,171.7,46.2,166.5,49.8,152.2z"/>
<path class="st2" d="M126.7,70.7c0,0-10.9,6.4-11.5,18.5s-1.8,13.8-1.8,13.8s8.5,1.1,10.9-2.1c0,0,4.8-5.3,0.6-12.2
	C120.7,81.8,126.7,70.7,126.7,70.7z"/>
<path class="st2" d="M94.9,47.3c0,0,18.5-26.7,39-19s29.7,22.1,29.7,22.1s22.1-21,40.5-11.8s23.1,28.7,23.1,28.7s-21-8.2-21.5-5.6
	c0,0-16.9-17.9-46.7-4.1C159,57.6,141.1,33.5,94.9,47.3z"/>
<path class="st2" d="M133.9,217.8c0,0,8.2,9.2,21.5-7.2c0,0,6.2,9.2,13.3,10.8c5.4,16.7,0.9,22.6-0.5,24.1
	c-8.1,8.8-32.5,3.8-60.5-15.4c2.9-2.7,7.7-6.5,14.4-9.2C126.6,219.1,130.7,218.2,133.9,217.8z"/>
<path class="st3" d="M93.4,101.9c0,0-21-24.6,16.9-41.5c0,0,41-4.1,36.4,23.6l2.1,15.9c0,0,25.6,2.6,14.9-35.9
	c0,0-10.3-29.2-54.9-22.6s-42.6,42-42.6,42S67.8,103,76,106L93.4,101.9z"/>
<path class="st3" d="M154.9,58.3c0,0,12.8-12.3,30.8-7.2c17.9,5.1,20,8.7,20,8.7s16.9,0,21.5,5.6c0,0,20.5,7.2,19.5,29.7
	c0,0,42,7.2,36.4,49.7c0,0,0,12.8-16.4-17.9c-4.6-3.8-11.8-8.6-21.5-10.8c-2.3-0.5-4.6-0.9-6.7-1c-1.7-0.2-3.3,0.6-3.9,1.9
	c-0.8,1.7,0.2,4.4,2.9,5.3c-9.9,11.7-13.7,24.6-9,33.2c1.9,3.3,4.5,5.4,6.9,6.8c19.5,11.3,30.8,5.6,30.8,5.6
	c2.6,0.9,5.3,2.3,5.8,4.6c1.1,5-8.9,12.6-18.6,14.9c-10.8,2.6-23.2-1-30.8-8.2c-5.6-5.4-11.3-15.4-11.3-15.4l0,0
	c0,0-5.6-20.5,3.1-34.9c0,0,5.1-10.8,0-16.9c0,0-35.4,20.5-48.2-12.8l-2.1-20L154.9,58.3z"/>
<path class="st1" d="M196.5,80.4c0,0,3.1,12.3-4.1,16.9C192.4,97.3,175.5,88.6,196.5,80.4z"/>
<path class="st1" d="M213.4,79.9c0,0,4.1,13.8-1.5,17.9l15.9-3.1C227.8,94.8,224.7,80.4,213.4,79.9z"/>
<path class="st3" d="M118.5,58.9c0,0-13.3,3.6-12.3,14.4c0,0,13.3,11.8,10.8,16.4c0,0,5.6-19.5,9.7-17.9
	C126.7,71.7,131.4,63,118.5,58.9z"/>
<path class="st3" d="M233.4,128.6c0,0,35.9,8.2,15.4,41.5l-13.3-7.7c0,0,1.5-14.9-7.2-20.5C219.6,136.3,233.4,128.6,233.4,128.6z"/>
<path class="st2" d="M211.4,187.1c1.2,0,3.1,0.3,4.8,1.3c4.6,2.8,6.5,9.6,4.4,12c-1.9,2.2-6.4-0.3-7.7,1.5c-1.2,1.8,1.5,6,5.1,10.3
	c3.6-1,7.2-2.1,10.8-3.1l8.2-9.2c0,0,0.5-12.8-3.6-16.4c0,0-11.3-3.6-22.1-19.5c0,0-13.3,7.2-12.8,11.8
	C198.5,175.8,200.6,186,211.4,187.1z"/>
<path class="st3" d="M53.9,84.5c0,0-36.9-6.2-39,47.2c0,0,2.6,10.8,5.1,1.5c0,0,0.5-23.1,27.7-29.7l6.7-2.1c0,0,3.6,8.7,7.2,11.3
	c0,0-53.3,20.5-19.5,78.5c0,0-23.6,25.6,3.1,44.1c0,0-3.1-33.8,20-36.4c0,0,11.8-1,17.9,2.6c0,0,6.7-28.7,39-3.6
	c0,0-10.3,19.5-23.6,19c-13.3-0.5-2.1,0-2.1,0l10.3,17.4l15.4-7.2c0,0,14.9-7.7,19-24.6c0,0,3.1-10.8,6.7-10.8
	c0,0,4.6,33.3,38.5,36.4c1.8-0.9,4.3-2.3,6.5-4.7c5.2-5.4,6.1-11.9,6.3-14.3c-1.8,0.3-4,0.5-6.6,0.3c-4.5-0.4-8-1.7-10.3-2.8
	c0,0,15.9-15.4-1-28.2c0,0-14.4-17.4-33.3-8.7c-19,8.7-17.9,12.8-17.9,12.8s-20-19-41.5-10.3c0,0,19.5-25.1,2.6-41l-6.7-9.7
	l-14.4,6.7c0,0,24.6,30.3-12.3,52.8c0,0-26.2-26.7,8.7-51.8c0,0,32.3-13.3,38.5-12.8c0,0,37.4,12.8,41.5-6.2s0.5-26.2,0.5-26.2
	c-0.4-1.5-2.4-7.6-8.7-11.3c-4.5-2.7-8.9-2.7-10.8-2.6c-1.2,1-3,2.8-4.1,5.6c-2.5,6.6,1.6,12.6,2.1,13.3c0,0,5.6,21-25.6,11.8
	c0,0-16.4-0.5-23.6,5.1c0,0-12.3-17.9-7.2-31.8C68.8,74.2,54.9,72.7,53.9,84.5z"/>
<path class="st2" d="M247.2,114.8c-1.8,2.2-4.1,4.7-7.2,7.2c-1.8,1.4-3.5,2.6-5.1,3.6l-2.6-14.9c1.3-0.4,3.1-0.8,5.4-0.6
	C243,110.4,246.3,113.7,247.2,114.8z"/>
<path class="st2" d="M242.6,186l-5.1,8.2l-4.1,6.7l22.1-11.3l12.3,2.6c0,0,5.1-7.2,0.5-12.8C268.3,179.4,253.9,190.1,242.6,186z"/>
<path class="st4" d="M62.6,198.3c0,0-29.2,7.7-14.9,46.2s45.6,32.8,45.6,32.8s30.3-6.2,13.3-43.1s-26.2-33.8-26.2-33.8
	S68.8,194.7,62.6,198.3z"/>
<path class="st4" d="M267.8,192.2c0,0-19-14.4-39,16.9c0,0-20.5-1-17.9,23.6c0,0,2.1,12.8,9.2,14.4c0,0-1.5,33.8,34.4,14.9
	S276,204,276,204S272.9,193.7,267.8,192.2z"/>
</svg>
