<?xml version="1.0" encoding="utf-8"?>
<!-- Generator: Adobe Illustrator 23.0.4, SVG Export Plug-In . SVG Version: 6.00 Build 0)  -->
<svg version="1.1" id="Layer_1" xmlns="http://www.w3.org/2000/svg" xmlns:xlink="http://www.w3.org/1999/xlink" x="0px" y="0px"
	 viewBox="0 0 288 288" style="enable-background:new 0 0 288 288;" xml:space="preserve">
<style type="text/css">
	.st0{fill:#5B4744;}
	.st1{fill:#484A61;}
	.st2{fill:#615A56;}
	.st3{fill:#6B7797;}
	.st4{fill:#8E919D;}
	.st5{fill:#CEA175;}
	.st6{fill:#5A5F72;}
	.st7{fill:#827976;}
	.st8{fill:#C5C8D1;}
</style>
<path class="st0" d="M156.2,193.3c0,0,13.3,16.8,12.8,21.2s-13.3,22.2-13.3,22.2l0.5,3.5l12.8-2.5c0,0,7.4-19.7,13.8-21.7
	c6.4-2,4.4-6.4,3.9-7.9c-0.5-1.5-7.9-16.3-5.9-22.7C182.9,179,156.2,193.3,156.2,193.3z"/>
<path class="st0" d="M68.3,191.3c0,0-1.5,16.3-11.8,27.6c0,0-1.5,1.5,0,7.9c1.5,6.4,5.9,27.6,5.9,27.6l4.4,3.9l5.9-10.9l-3.5-17.8
	c0,0,10.9-14.3,22.7-16.3S68.3,191.3,68.3,191.3z"/>
<path class="st1" d="M156.2,240.2c0,0-3.9,4.9-2,7.4c0,0,10.4,1,13.3-1.5l1.5-8.4L156.2,240.2z"/>
<path class="st1" d="M66.9,258.5c0,0,0,8.4,5.9,4.9c5.9-3.5,6.4-13.3,6.4-13.3l-6.4-2.5L66.9,258.5z"/>
<path class="st2" d="M204.6,126.7c0,0-2.5-11.8,4.4-25.2s2-31.1,2-31.1s-8.4-29.1-43.4-20.7l-0.5-3.5c0,0,25.7-6.9,41.5,11.8
	s5.4,34.6,5.4,34.6s28.6-39.5,45.9-42.5l4.9,0.5c0,0-49.9,26.2-57.3,68.1c0,0,17.8-31.6,54.3-24.7c0,0,39,8.4-9.9,57.3l-2-2.5
	c0,0,40-31.1,13.3-49.9c0,0-38-14.3-54.3,29.1L204.6,126.7z"/>
<path class="st3" d="M250,148.9c0,0-9.4,0-10.9-4.4v3l-5.9-2.5l3.5,4.9l-3.9,1l4.4,1c0,0-14.3,16.3,0.5,24.7c0,0,3.5-8.9,6.4-11.4
	c3-2.5,6.9-6.9,6.9-6.9S257.4,152.8,250,148.9z"/>
<path class="st3" d="M167.1,46.2c0,0-3.5-6.4-19.3-5.4l3.9,3h-5.4l5.9,3c0,0-12.3,1.5-18.8-9.9c-6.4-11.4,1,3,1,3s-1.5,8.4,3.5,12.3
	c0,0,15.3,13.8,24.7,4.9C172,48.2,167.1,46.2,167.1,46.2z"/>
<path class="st3" d="M259.9,50.2c0,0-4.4-4.9,2.5-11.4c4.3-4,5.9-9.5,6.5-13.1c0.4-2.2,0.4-3.7,0.4-3.7l2,5.4l1.5-12.3
	c0,0,13.8,11.4,3.9,31.6l2.5,2.5C279.1,49.2,270.3,57.1,259.9,50.2z"/>
<path class="st4" d="M34.8,124.7c0,0-6.4,1-6.4,3.5c0,0-11.8-4.4-9.9-12.3s3.9-11.8,3.9-11.8s-1.5-3.5-7.9,2.5
	c-6.4,5.9-7.4,10.9-7.4,10.9S3,132.8,22.4,142.5c2,1,3.5,5.4,3.5,5.4L34.8,124.7z"/>
<path class="st5" d="M47.6,117.3c0,0-19.7,5.4-21.7,30.6l0.5,11.4l-4.9,14.8l15.3,11.8c0,0,10.9,2.5,15.3-6.4
	c4.4-8.9,12.3-6.4,12.3-6.4l51.8,42.9c0,0,2,10.4,3.5,14.3c1.5,3.9-3,24.7-3,24.7l3,3.9l10.9-2.5c0,0,5.4-2.5,3.9-9.4
	c-1.5-6.9-1-20.2-1-20.2s9.9-16.3,9.9-21.7c0-5.4,0.5-13.3,0.5-13.3s19.3,4.4,28.1-1c8.9-5.4,11.8-7.4,11.8-7.4s10.4-2,11.8,1.5
	c1.5,3.5,14.3,18.8,14.3,18.8s10.4,15.8,10.4,33.1l-1,8.4c0,0,12.8,3.9,15.3-1c0,0-1-7.4-4.4-16.8s-2.5-24.7-2.5-24.7s0-3.9-3-8.4
	c-3-4.4-9.4-30.6-9.4-30.6s3.9-32.6-13.3-42c-2.6-0.8-5.8-1.7-9.4-2.5c-3.9-0.9-5.5-1.1-8.8-1.9c-2.7-0.7-5.9-1.6-9.4-3
	c-2.6-1.6-6.6-4.1-11.4-7.4c-6.1-4.3-8.3-6.4-13.3-9.9c-6.4-4.4-12.2-7.4-14.3-8.4c-12.8-5.9-27.3-2.2-37.5,0.5
	C74.6,95.3,57.6,108.1,47.6,117.3z"/>
<path class="st6" d="M116.7,255c0,0-5.4,8.9-3.9,11.4c1.5,2.5,18.3,0,18.3,0l-0.5-9.9C130.5,256.5,116.7,258.5,116.7,255z"/>
<path class="st6" d="M219.4,245.2c0,0-6.9,6.9-0.5,9.9c6.4,3,16.3,1,16.3,1l-0.5-11.8C234.7,244.2,220.9,248.1,219.4,245.2z"/>
<path class="st7" d="M47.6,117.3c0,0,13.8-7.4,22.2,13.8s6.9,27.6,6.9,27.6s-20.2,13.3-20.2,15.8l5.4,3.9c0,0,6.4,13.8,9.9,17.3
	c3.5,3.5,10.9,16.8,10.9,16.8l1-3.9l10.9,9.9l-0.5-4.9l9.4,8.4l0.5-3.5l4.9,4.4v-5.4l3.5,4.4v-7.9l3.9,2c0,0-4.9-21.7,3.5-30.1
	s16.8-34.1,16.8-34.1s3.9-17.3-7.4-36s-20.7-28.1-20.7-28.1l-1,2v-5.9l-3,2l0.5-6.4l-9.4,5.9l-1-4.9c0,0-1.5,7.4-12.3,9.4
	C71.3,91.6,47.6,117.3,47.6,117.3z"/>
<path class="st8" d="M67.4,126.7c0,0,18.8-1,18.3-12.8c-0.5-11.8-2-8.4-2-8.4s3-4.4,6.9,3c3.9,7.4,4.4,16.8,4.4,16.8
	s-1,17.3-22.7,20.2c0,0-14.8,7.4-18.3-6.9S65.9,123.7,67.4,126.7z"/>
<path class="st8" d="M37.2,127.2c0,0,3.9-3,3-4.4C39.2,121.2,35.3,124.2,37.2,127.2z"/>
<path class="st8" d="M34.8,131.6c0,0-5.4,2.5-2,5.4C36.3,140,34.8,134.1,34.8,131.6z"/>
<path class="st8" d="M31.3,145.4c0,0-5.9,0-2,7.9c3.9,7.9,5.4-2.5,5.4-2.5S32.3,146.9,31.3,145.4z"/>
<path class="st7" d="M21.4,174.1c-0.1-1.5,4.9,4.9,9.9,3.5c4.9-1.5,6.9-1.5,6.9-1.5s8.4,3,3.5,6.9c-4.9,3.9-10.4,3.5-10.4,3.5
	S22.4,185.9,21.4,174.1z"/>
</svg>
