<?xml version="1.0" encoding="utf-8"?>
<!-- Generator: Adobe Illustrator 23.0.4, SVG Export Plug-In . SVG Version: 6.00 Build 0)  -->
<svg version="1.1" id="Layer_1" xmlns="http://www.w3.org/2000/svg" xmlns:xlink="http://www.w3.org/1999/xlink" x="0px" y="0px"
	 viewBox="0 0 288 288" style="enable-background:new 0 0 288 288;" xml:space="preserve">
<style type="text/css">
	.st0{fill:#507E95;}
	.st1{fill:#222425;}
	.st2{fill:#737883;}
	.st3{fill:#ACA69D;}
	.st4{fill:#D0CCC8;}
	.st5{fill:#65ABCF;}
	.st6{fill:#B36D82;}
</style>
<path class="st0" d="M175.2,155.6c0,0,3.8,4.8,3.4,10.1c-0.5,5.3,3.8,7.2,3.8,7.2s4.3,1.9,2.4,6.2c-1.9,4.3,2.9,7.7,2.9,7.7
	s3.8,5.3-1,14.4s-14.8,34-14.8,34s16.3-10.1,26.8-28.2c10.5-18.2,6.2-26.8,6.2-26.8s-7.2-22.5-5.7-27.8c1.4-5.3-9.6-12.4-9.6-12.4
	L175.2,155.6z"/>
<path class="st1" d="M102,130.8c0,0,12.4,20.6,25.4,24.4l15.3,2.4c0,0,19.6,4.3,32.6-1.9c12.9-6.2,24.9-21.1,24.9-21.1l-12.9-16.3
	l-46.9-2.4C140.3,115.9,101,122.6,102,130.8z"/>
<path class="st2" d="M111.6,162.8c0,0-13.9,17.2-26.8,19.6s-36.9,13.4-36.9,13.4S27.8,212.6,34,219.3s10.5-12,25.9-15.8l7.7-4.8
	l11.5-3.8c0,0,21.1-9.6,25.9-13.9c4.8-4.3-0.5,7.7-0.5,7.7s-27.8,27.8-11,37.8c0,0,3.4-1.4,4.3-7.7c1-6.2,7.7-19.2,7.7-19.2l33-46.4
	C138.4,153.3,113.5,157.1,111.6,162.8z"/>
<path class="st2" d="M145.6,160c0,0,0.5,12-7.2,18.2c-7.7,6.2-17.2,19.6-17.2,19.6s-22,35.4-11,42.6c11,7.2,8.1-22,8.1-22l9.1-10.1
	c0,0,9.6-19.2,11.5-18.7c1.9,0.5,9.1-12.9,9.1-12.9s5.3-10.1,3.4-17.2C149.4,152.3,145.6,160,145.6,160z"/>
<path class="st2" d="M161.4,158.1c0,0-17.7,28.7-13.4,37.8c0,0-18.2,25.4-5.7,30.6c0,0,1.4,1.4,2.4-5.3s3.4-12,3.4-12
	s6.2,26.3,16.3,23s-9.1-24.9-9.1-24.9l-0.5-6.2c0,0,24.9-30.6,20.6-46.4l-8.6,3.4c0,0,5.7,16.8-12,31.6c0,0,1.4-14.4,9.6-30.6
	L161.4,158.1z"/>
<path class="st2" d="M202.1,136c0,0,11.5,12.9,27.3,19.6c15.8,6.7,31.6,36.4,31.6,36.4s4.8,23.9-1.4,21.1
	c-6.2-2.9-2.4-23.9-12.4-33.5l-8.1-11.5c0,0-23.9-22.5-44-24.9l-2.4-4.8l7.7-3.8L202.1,136z"/>
<path class="st3" d="M189.1,145.6c0,0,1-10.1,3.4-7.2c0,0,14.8,21.5,26.3,24.9c11.5,3.4,28.2,42.1,28.2,42.1s7.2,20.6,1.9,25.4
	c-5.3,4.8-6.2-5.3-6.2-5.3s-7.7-39.3-16.3-45l-5.7-7.2c0,0-10.1-12-16.8-15.3S189.1,145.6,189.1,145.6z"/>
<path class="st3" d="M178.6,148.9c0,0,2.4-13.9,6.2-8.1c3.8,5.7,4.8,12,9.1,13.9c4.3,1.9,22,22,22,22s7.2,10.1,5.7,17.2
	c0,0,19.6,33.5,2.9,58.4c0,0-9.1,2.9-7.2-7.2c1.9-10.1,0-34.5,0-34.5s-15.8,35.9-26.8,33c0,0-4.3-3.4,0.5-8.1
	c0,0,25.4-26.3,23.5-37.8c0,0-4.3-12.9-9.6-17.7c0,0-30.6-25.4-39.3-26.3l6.2-9.1c0,0,4.8-2.9,4.8,2.4s6.2,11.5,6.2,11.5
	s24.4,16.8,25.4,18.2C208.3,176.7,190.1,154.7,178.6,148.9z"/>
<path class="st3" d="M136.9,171.9c0,0,7.2,27.8,20.1,34.9c12.9,7.2,11.5,12,11.5,12s-10.5,6.7-23.5-11c-12.9-17.7-12-33.5-12-33.5
	L136.9,171.9z"/>
<path class="st3" d="M107.3,138.4l4.8,5.7c0,0,2.9-3.8,3.8-1c1,2.9,0.5,5.7,0.5,5.7s-15.3,9.1-15.8,11c-0.5,1.9-6.7,5.7-6.7,5.7
	s-15.8,25.9-3.8,44.5c0,0,3.8,10.5-4.3,6.7c-8.1-3.8-9.6-21.1-9.6-21.1s3.4-27.3,9.1-29.7c0,0-23.5,14.8-18.2,54.6
	c0,0-0.5,13.4-5.7,5.7c-5.3-7.7-2.4-27.8-2.4-27.8s8.1-32.1,17.7-35.9L80,160c0,0,11.5-8.1,17.7-12
	C103.9,144.2,107.3,138.4,107.3,138.4z"/>
<path class="st4" d="M123.5,152.3l-3.4-5.7c0,0-8.1,12.4-14.8,12.4s-29.7,0-29.7,0s-46-6.2-59.8,9.6s-12,27.3-12,27.3
	s1,12.4,8.6,15.3c7.7,2.9,9.1-8.1,9.1-8.1s-2.4-22,15.8-30.2s39.7-6.7,39.7-6.7s37.3,0,42.1-7.7C124,150.9,123.5,152.3,123.5,152.3z
	"/>
<path class="st4" d="M152.7,155.2l3.4-6.2c0,0,2.9,1,3.8,5.7c1,4.8,7.2,13.4,7.2,13.4s11.5,18.2,35.4,11c0,0,33-19.2,57.9-7.2
	s19.6,24.9,19.6,24.9s-7.7,6.7-15.8-2.4c-8.1-9.1-28.7-13.9-28.7-13.9s-13.4,0.5-32.1,6.2s-33-8.6-33-8.6L152.7,155.2z"/>
<path class="st5" d="M128.3,140.8c0,0-11.5-5.3-13.4-9.6c-1.9-4.3-12.9-0.5-12.9-0.5s-9.1,9.1-18.7,3.4c-9.6-5.7-13.9-12-13.9-12
	s-2.4-12.9,9.1-16.3s13.9-13.4,13.9-13.4l41.7-44c0,0,6.7-10.1,17.7-8.6s15.3,5.7,15.3,5.7l46.9,34c0,0,5.7,6.7,6.2,10.5
	c0,0,36.9,14.8,36.4,26.3c-0.5,11.5-10.5,7.2-10.5,7.2s-20.1-3.4-26.8,2.4c-6.7,5.7-13.4,9.1-13.4,9.1s-9.6,2.4-17.7-2.4
	c-8.1-4.8-16.3-7.7-16.3-7.7s-13.4,0-20.6,7.2c-7.2,7.2-18.2,9.6-18.2,9.6s6.7,7.7,11.5,8.6s2.9,5.3,2.9,5.3s-4.8,2.9-4.8,7.2
	s-5.7,9.1-5.7,9.1s0.5,9.6-7.2,9.6c0,0,3.8,9.1-2.9,12.4c0,0-2.9,25.4,25.4,50.3c0,0-23.5,6.2-50.3-38.8c0,0,2.9-13.9,1.4-21.5
	c-1.4-7.7,3.4-10.1,3.4-10.1S125.9,154.7,128.3,140.8z"/>
<path class="st6" d="M163.3,42.7c0,0,27.3-1.9,39.3,12.9c12,14.8,11.5,23.9,11.5,23.9s8.6,35.9-25.9,29.7S151.3,79,151.3,79
	S145.1,51.8,163.3,42.7z"/>
<path class="st6" d="M95.8,67.6c2-3.2,5.2-7.3,10.1-11c11.4-8.5,24-8.4,28.2-8.1c0,0-13.9,26.3-13.4,31.6c0.5,5.3-6.7,17.7-6.7,17.7
	s-9.9,13.8-16.8,11.5c-1.5-0.5-2.3-1.7-3.8-3.8c-6.9-10-4.9-22.1-4.3-25.4c0.5-2.8,1.2-5,2.4-7.2C92.9,70.3,94.6,68.6,95.8,67.6z"/>
<ellipse class="st6" cx="132.2" cy="102.9" rx="10.5" ry="10.3"/>
</svg>
