<?xml version="1.0" encoding="utf-8"?>
<!-- Generator: Adobe Illustrator 23.0.4, SVG Export Plug-In . SVG Version: 6.00 Build 0)  -->
<svg version="1.1" id="Layer_1" xmlns="http://www.w3.org/2000/svg" xmlns:xlink="http://www.w3.org/1999/xlink" x="0px" y="0px"
	 viewBox="0 0 288 288" style="enable-background:new 0 0 288 288;" xml:space="preserve">
<style type="text/css">
	.st0{fill:#E4E8F3;}
	.st1{fill:#ECE9C3;}
	.st2{fill:#415B6A;}
	.st3{fill:#8FC6D9;}
</style>
<path class="st0" d="M87.5,75.8c0,0,14.5-8.9,14.1-17.4c0,0,21.1-1.4,24.9-11.7c11.4,3.3,18,3.4,21.9,2.8c3.5-0.5,7.2-0.4,10.6-1.3
	c1.9-0.5,3.7-1.2,5.7-0.4c1,0.4,1.7,1,4,3.5c2.2,2.5,3.7,4.5,4,4.9c1.7,2.1,5.1,4.3,12.9,4.6c0,0,2.3,23.9,15.5,25.8
	c-1.1,5.4-2,11.6-2.3,18.4c-0.6,11.7,0.4,21.8,1.9,29.9c-6.2,2.7-20.8,10-26.7,25.3c-0.9,2.2-1.5,4.4-1.9,6.6
	c-10.5-1.6-21-3.1-31.4-4.7c-9.1-3.3-20.3-5.7-32.8-4.7c-1.4,0.1-2.8,0.3-4.2,0.5c-11.2-25.3-18.4-31-23-30.5
	C79.8,127.5,79.2,127.7,87.5,75.8z"/>
<path class="st1" d="M244.7,18.1c0,0-9.4,24.4-3.3,26.3c0,0-32.4,32.8-18.3,56.8l-42.2,1.9L180,84.2C180,84.2,168.2,57.5,244.7,18.1
	"/>
<path class="st1" d="M20,74.4c0,0,20.6,16,15.5,22.1c0,0,42.7,16.9,39.9,38l35.7-20.6l-4.7-19.2C106.3,94.6,50.5,69.7,20,74.4"/>
<path class="st2" d="M118,4.9c0,0,20.6,45.5,20.2,50.7c5.5-0.2,14.7,0.3,24.9,4.7c5.6,2.4,10,5.4,13.1,8c5.9-8.3,15.4-19.5,29.6-30
	c14.8-11,29-16.9,38.9-20.2c-6.2,3.4-14,8.1-22.5,14.5c-1.8,1.4-7.7,5.8-15,12.7c-7.1,6.6-16.3,16-25.8,28.6
	c-0.5,3.4-0.9,6.9-1.4,10.3l-73.7,10.3c0,0-58.6-23-86.3-20.2c9.8-1.6,21.8-2.6,35.7-1.9c20,1.1,36.5,5.6,48.3,9.9
	c0.6-2.7,2.6-10,9.4-16c4.8-4.3,9.9-5.9,12.7-6.6C126,59.8,112.9,6.4,118,4.9z"/>
<path class="st3" d="M126.5,70.6c0,0,8.9,8,12.7,8.4c0,0,12.2-8.4,11.3-12.2c13.2,0.4,24.9,8.3,30,20.2c5.4,12.5,2.2,26.9-6.1,35.6
	c-6.2,6.4-13.6,8.1-17.8,9c-21.3,4.6-39.5-8.3-44.1-11.7c-1-1.3-9.5-13.1-5.2-28.2C111.5,76.7,124.9,71.2,126.5,70.6z"/>
<path class="st2" d="M128.3,256.4c0,0,2.3,23,12.2,23.9s9.9-3.8,9.9-3.8s8.9,2.8,14.1-0.9s-0.5-11.7-0.5-11.7l1.9-34.7
	C165.9,229.2,129.3,247.5,128.3,256.4z"/>
<path class="st3" d="M106.3,156.5c-10.5,17.2-21.2,22.9-29.1,24.9c-11.1,2.7-18.7-1.5-29.6,3.3c-9.5,4.2-15.1,12.5-18.3,18.8
	c-2.2,0.9-5.6,2.6-8,6.1c-5.8,8.4-2,21.6,5.2,27.5c4.1,3.4,6,1.7,14.5,4.8c14.8,5.6,15.7,13.4,23.5,13.6c12.8,0.3,20.5-21,26.7-18.8
	c1.9,0.7,3.6,3.5,3.8,12.2c6.3-18.9,14.1-24.9,20.5-26.7c8.6-2.4,15.8,2.6,24.6-1.9c6.2-3.1,9.4-9.1,11.3-13.6
	c9.5-1.1,19.1-2.2,28.6-3.3l-4.2-48.3l-3.8,3.8c0,0-16.4-5.2-31.4,3.3C140.5,162.1,121.8,149.5,106.3,156.5z"/>
<path class="st3" d="M212.8,203.9c0,0,24.4-32.4,71.3-6.1c0,0-8.4,22.1-43.6,21.1c0,0,33.8,46.9,18.8,57.2c0,0-69.4-29.1-49.7-58.2
	c0,0-53,5.2-81.2,38.5s-89.1,20.2-89.1,20.2s-40.8-8-25.8-43.6c0,0,1.9,20.6,42.2,20.2s85.4-32.4,85.4-32.4
	c35.1-7.4,52.2-10.3,57.7-10.3c1.2,0,5.3,0.1,9.4-2.3C210.5,206.7,212,204.9,212.8,203.9z"/>
<path class="st2" d="M106.3,156.5c0,0-1.4-10.3-6.6-8.4l-6.1,3.3l0.9,7l-8.9,1.4l-0.5,9.9l-18.8,0.5l2.8,4.7l-17.4,1.4l0.5,2.8
	l-16.4,3.3l0.5,8l-14.5,2.8l2.3,9.4l-9.9,0.9l0.5,19.2l-3.8,7.5c0,0,1.3,7.3,9,13.5c0,0,1.4,1.1,2.8,2.1c15.4,10.3,45,6.9,45,6.9
	c34.3-4.4,68-24.7,76.5-30c9.9-3.6,21.9-7,35.7-9.4c10.1-1.7,19.4-2.5,27.7-2.8c0.7-0.2,2.1-0.6,3.3-1.9c1-1.1,2.1-3.2,1.4-4.2
	c-0.7-1-2.7-0.2-5.6,0c-3.4,0.2-4.8-0.6-8.9-1.4c0,0-2.6-0.5-19.7-0.9l1.9,1.4c-8.9-0.6-17.8-1.3-26.7-1.9c2,1.3,4.1,2.5,6.1,3.8
	c-8,0.3-16,0.6-23.9,0.9c0.2,1.7,0.3,3.4,0.5,5.2c-8.8,3-17.5,5.9-26.3,8.9l2.8,3.8l-23.9,7.5l5.2,3.3c-11.4,0.5-22.8,0.9-34.3,1.4
	c0.5,2,0.9,4.1,1.4,6.1c-7-2.7-14.1-5.3-21.1-8l1.4,7.5l-16.4-15c0,0-5.6-25.8,21.6-36.1c0,0,46.4-11.3,47.9-16.9
	C94.1,173.8,108.6,163.1,106.3,156.5z"/>
</svg>
