<?xml version="1.0" encoding="utf-8"?>
<!-- Generator: Adobe Illustrator 23.0.6, SVG Export Plug-In . SVG Version: 6.00 Build 0)  -->
<svg version="1.1" id="Layer_2" xmlns="http://www.w3.org/2000/svg" xmlns:xlink="http://www.w3.org/1999/xlink" x="0px" y="0px"
	 viewBox="0 0 288 288" style="enable-background:new 0 0 288 288;" xml:space="preserve">
<style type="text/css">
	.st0{fill:#6790A0;}
	.st1{fill:#8BCDDE;}
	.st2{fill:#E8EFF6;}
	.st3{fill:#BFC3CD;}
	.st4{fill:#E8E3C6;}
	.st5{fill:#D4CCB0;}
	.st6{fill:#86687C;}
	.st7{fill:#CCABC3;}
	.st8{fill:#3E6275;}
</style>
<path class="st0" d="M171,153.8c0,0,3.2,23.3,5,26.9s1.8,11,1.8,11s-10.5,32.4-15.5,32.4c-5,0,4.6,6.4,4.6,6.4l-5.9,28.3
	c0,0,0,7.8,2.3,11c2.3,3.2-2.3,7.8-2.3,7.8s-3.7,3.7-8.7-0.5c0,0-5,10-14.2,3.7c-9.1-6.4-10-25.1-10-25.1l20.1-45.2
	c0,0,18.7-23.7,10-53.4L171,153.8z"/>
<path class="st1" d="M106,93.9c0.6,3.7,1.7,9.3,3.4,15.9c2.2,8.6,3.6,11.6,4.3,15.2c1.3,6.3,1.1,15.7-6.2,28.8
	c-1.9,3.2-4.4,7-7.9,10.9c-3.8,4.3-7.7,7.5-10.9,9.8c-1.6,1.4-4.7,3.6-8.4,5c-1.8,0.7-3.6,1.1-3.9,1.1c-2.3,0.5-4,0.7-4.3,0.7
	c-2.9,0.3-14.3,3.2-22.5,8.6c-13.4,8.9-18.2,24.7-19.3,28.7l-8.2,20.1c0,0-3.2,15.5,2.3,23.3c5.5,7.8,12.8,12.8,12.8,12.8
	s25.1,19.2,62.1,2.3s36.1-30.6,58.9-42c22.8-11.4,42.5-15.5,42.5-15.5s-4.6,29.7,19.2,41.5c23.7,11.9,29.2,21.9,29.2,21.9
	s7.8-35.6-15.5-59.4c0,0,19.2,3.7,27.9-9.1c8.7-12.8,13.7-15.1,13.7-15.1s-28.3-13.2-44.3-10.5c-16,2.7-23.3,15.5-23.3,15.5
	s-36.5-4.6-59.4,5.9c0,0,19.2-18.3,10-53.4l21.5-46.1c3.8-18,2.1-24.6-0.4-27.2c-0.4-0.4-2-1.9-3.7-4.3c-2.6-3.7-2.8-5.6-4-7.7
	c0,0-2.1-3.5-20.2-9.2l0,0l-13.2,14.6l-16-7.8c-2.4,2.1-5.2,4.9-7.9,8.4C109.7,83.8,107.3,89.7,106,93.9z"/>
<path class="st2" d="M87.1,129.5c0,0,3.5,4.9,0.7,7.7c0,0,15.8,1.8,21,19.6c0,0,17.5-2.8,27,9.5c0,0,17.5-13.7,31.2-6
	c0,0,12.6-13.7,23.8-13.7c0,0-0.7-17.9,11.6-20.7c0,0-3.5-13.3,2.5-19.6c0,0-4.6-3.2-3.5-7.7l-21.7-1.1c0,0,1.4,10.5-2.1,17.2
	c-3.5,6.7-17.9,17.9-24.5,18.9c-6.7,1.1-12.6,0.7-12.6,0.7s-18.2-2.2-24.2-9.3c-6-7.1-5.3-11.3-5.3-11.3c-0.4-0.1-0.9-0.2-1.6-0.3
	c-3.8-0.4-7,1.8-10.4,4.5C95.8,120.5,91.7,124.2,87.1,129.5z"/>
<path class="st3" d="M91,81.1c0,0,2.1-2.5,1.1-7.7c0,0,9.8-4.9,10.2-14c0,0,10.5-0.7,14.4-10.5c0,0,13.3,4.9,21.4-3.5
	c0,0,12.6,7,18.9,0.7c0,0,5.6,6.3,16.8,6c0,0-0.4,8.4,5.3,7.4l-6.3,8.1l-24.5-9.8l-25.6,7.7l-16.1,17.2l-3.2,2.1L91,81.1z"/>
<path class="st4" d="M105.7,92.7c0,0-35-15.4-52.5-16.5s-27-4.2-27-4.2s14.4,12.6,14.7,20.3c0,0,49.4-2.1,66.5,8.1L105.7,92.7z"/>
<path class="st4" d="M175.6,79.4c0,0,12.4-29,42.9-49c0,0,17.9-13.7,20-11.9c0,0-4.9,20.3-3.2,22.1c-9.2,6.3-19.1,13.6-29.2,22.1
	c-10.4,8.7-19.6,17.4-27.5,25.6C178.5,88.1,177.5,82.1,175.6,79.4z"/>
<path class="st5" d="M40.9,92.3c0,0,30.8,13,37.1,43.1c0,0,0,2.8,2.1,1.4c0,0,22.1-23.1,30.8-23.1l-3.5-13.3
	C107.5,100.4,92,88.1,40.9,92.3z"/>
<path class="st5" d="M179.6,97.6c0,0,32.6,0.7,39.2,6c0,0,0-0.4-0.4-2.5c0,0-12.6-34,16.8-60.6c0,0-58.8,38.2-56.7,47.6L179.6,97.6z
	"/>
<path class="st6" d="M137.2,114c0,0,7.4-4.6,8.1-7.7c0,0,5.6,3.2,9.5,3.9c0,0,1.1,10.5-0.4,10.9c0,0-8.8-4.2-11.6,3.2
	C142.8,124.2,137.9,118.2,137.2,114z"/>
<path class="st7" d="M142.8,124.2c0,0,1.8,3.5,7,2.8c5.3-0.7,4.6-6,4.6-6S144.6,116.5,142.8,124.2z"/>
<path class="st8" d="M26.2,72c0,0,49.7-2.5,77.4,10.9c0,0,12.6-23.1,24.2-24.9c0,0-14.4-50.4-10.5-56.7c0,0,13,23.5,20.3,53.2
	c0,0,23.8-0.7,33.3,10.9c0,0,42.7-45.5,69.3-49.7l-1.8,2.8c0,0-44.8,21-62.8,60.9c0,0-13.5-16.1-24.3-15l-13.1,12.8l-16-7.8
	c0,0-15.3,15.3-15.5,25.1c0,0-40.8-19.6-54.9-18.5S26.2,72,26.2,72z"/>
<path class="st8" d="M103.3,147c0,0-0.2,3-4.2,2.8c0,0-2-1.1-2,2.2c0,0-0.8,7.2-5.2,8.3c-4.4,1.1-3.3,4.6-3.3,4.6s0.6,7.7-7.1,7.2
	c0,0-3.8-2.7-5.3-1.4c-1.6,1.3-3,3.3-3,3.3s-4.4,4.6-8.2,2.5c-3.8-2-4.4,0-4.4,0s-3.1,7.9-7.4,6.5s-6.9-1.7-6.9-1.7
	s-3.6,10.7-9.4,10.9s-5.8,0.2-5.8,0.2s1.3,11-3.1,12.4c-4.4,1.4-6.6,3-6.6,3s1.4,5.7,2.2,7.4c0.8,1.7-1.4,5.2-1.4,5.2l-4.2,3.6
	c0,0,4.1,5.3,3.6,15.1c0,0,5.2,2.2,9,7.2s36.3,19.7,87.2-10.9s79.1-25.6,94.6-21.9c0,0-0.8-2.5-8.7-9c0,0-4.2,3.8-8.2,0.9
	c-3.9-2.8-3.9-2.8-3.9-2.8s-0.9-0.5-2.4,0.5c-2.3,3.4-6,5-8.8,4.2c-2.1-0.6-4.6-2.8-4.8-3.7c0-0.1-0.1-0.5-0.4-0.7
	c-0.2-0.1-0.5,0-0.6,0.1c-0.5,0.3-0.9,0.7-1.1,0.9c-0.8,0.8-1,1.4-1.9,2.1c-0.3,0.2-0.6,0.4-0.8,0.5c-3.5,1-5.8,0.5-7.2-0.2
	c0,0-3.8-2.2-3.8-2.2s-2.2,0.6-2,2.7c0.2,2-6.3,4.7-6.3,4.7s-6.1,0.6-8.2-0.6c-2-1.3-2-1.3-2-1.3s-3,9-8.7,9.3
	c-5.7,0.3-9.4-0.2-9.4-0.2s-1.6,1.3-1.6,2.8c0,1.6-3.9,5.3-3.9,5.3s-9,3.5-12.6-0.6c0,0-1.6,0-1.4,3.8c0.2,3.8-6,7.4-6,7.4
	s-7.9,1.7-9.9-0.9c0,0-1.3-0.5-1.6,0.8c-0.3,1.3-1.7,2.8-1.7,2.8s-2.8,3.6-7.7,3c-4.9-0.6-7.7-2.4-7.7-2.4s-2.7,6.9-6.8,6.9
	s-10.7-5.2-10.7-5.2s-5.3,6-9.9,2.8s-5.3-3.6-5.3-3.6s-0.5,3.3-1.4,2.4c-0.9-0.9-5.2-9.1-5.2-9.1s-1.4-7.1,0.8-13.2
	c2.2-6.1,14.3-29.7,20.6-31.5s42.6-14.6,42.6-14.6s11.1-11.7,14.2-21.8C107.5,153.8,104.2,147.3,103.3,147z"/>
</svg>
