<?xml version="1.0" encoding="utf-8"?>
<!-- Generator: Adobe Illustrator 23.0.4, SVG Export Plug-In . SVG Version: 6.00 Build 0)  -->
<svg version="1.1" id="Layer_1" xmlns="http://www.w3.org/2000/svg" xmlns:xlink="http://www.w3.org/1999/xlink" x="0px" y="0px"
	 viewBox="0 0 288 288" style="enable-background:new 0 0 288 288;" xml:space="preserve">
<style type="text/css">
	.st0{fill:#E3DCEB;}
	.st1{fill:#AFA6B5;}
	.st2{fill:#9D96A2;}
	.st3{fill:#B3ADAB;}
	.st4{fill:#FFFFFF;}
	.st5{fill:#7A7E9A;}
	.st6{fill:#BAB8D3;}
</style>
<path class="st0" d="M80.2,138.4c0,0-49.2-56.2-65.6-47.8c-16.4,8.4,0.9,33.3,0.9,33.3s22.5,24.4,23.9,31.9
	c1.4,7.5,8.4,19.2,8.4,19.2c2.3,2.9,6.1,6.9,11.5,10.5c2.9,2,14.7,9.8,29.3,8.7c9.3-0.7,20.2-5.2,20.2-5.2l0,0L98,161.4L80.2,138.4z
	"/>
<path class="st0" d="M129.9,167.5c0,0,8.9-42.7,84.4-84.8s62.3,8,62.3,8s-9.4,25.8-29.5,41.2l-4.2,25.3c0,0-7.5,24.8-36.1,31.9
	l-64.7-3.7l-8.9-1.9L129.9,167.5z"/>
<path class="st1" d="M99.4,192.3c0,0-40.3,4.2-27.7,19.2c0,0,6.1,7,8.4,8c0,0-10.3,6.1-2.3,10.8s10.3-7,10.3-7s17.3,6.6,23-5.2
	c5.6-11.7,5.2-15.9,5.2-15.9L99.4,192.3z"/>
<path class="st1" d="M144.4,185.7c0,0,46.4-9.4,68.9,8.4c0,0,4.7,11.2-8.9,19.7c0,0,17.3,11.2,8.4,16.9
	c-8.9,5.6-14.5-10.3-14.5-10.3s-10.8,17.3-33.7-5.6S144.4,185.7,144.4,185.7z"/>
<path class="st2" d="M116.3,202.2c0,0-3.7,37,32.8,40.3c0,0,5.6,1.4,10.8-8.9c5.2-10.3,4.2-20.6,4.2-20.6s-0.9-24.4-23.9-28.1
	L116.3,202.2z"/>
<path class="st3" d="M110.2,201.2l-3.7,0.5c0,0,2.8,2.3,5.6,1.9C114.9,203.1,110.2,201.2,110.2,201.2z"/>
<path class="st4" d="M99.2,191.4c0,0,3.5,7,6.1,6.6s3.3,2.6,3.3,2.6S97.8,205.4,99.2,191.4z"/>
<path class="st5" d="M99.2,180.4c0,0-6.8,19.9,15.7,22.3s24.8-13.4,24.8-13.4s6.1-19.5-16.9-25.1S99.2,180.4,99.2,180.4z"/>
<path class="st3" d="M133.1,187.2c0,0,3.3-1.9,3.3,1.9l2.3,0.9c0,0,2.6,13.8-9.4,12.7c0,0-5.4,0.7-5.6-0.9
	C123.8,201.7,135.7,196.3,133.1,187.2z"/>
<path class="st4" d="M133.6,188.3c0,0-0.2-5.4-1.4-4.2c-1.2,1.2-3.5,15-10.3,16.6c0,0-0.5,1.9,2.3,2.1
	C124.2,202.9,134.1,198.9,133.6,188.3z"/>
<path class="st4" d="M105.3,191.6c0,0-2.3-4.7-3-3s1.4,10.3,1.4,10.3L105.3,191.6z"/>
<path class="st6" d="M109.5,196.1c0,0-8.9-3.5-10.8-18.5c0,0-21.1-36.1-18.7-40.1c2.3-4,10.1,18.3,19,21.1c0,0,6.1-50.9,18.5-62.1
	c0,0,1.2,0.5,0.7,3.7c-0.5,3.3-8.2,50.6-5.6,53.9c0,0,18.5-28.6,20.2-26.5s-11,32.1-9.6,34.2c1.4,2.1-4.9,23.9-5.9,26
	C116.3,190,111.6,197,109.5,196.1z"/>
<path class="st4" d="M112.8,189c0,0,3.7-3.7,4.5-0.2c0.7,3.5-2.6,9.8-2.6,9.8L112.8,189z"/>
</svg>
