<?xml version="1.0" encoding="utf-8"?>
<!-- Generator: Adobe Illustrator 23.0.4, SVG Export Plug-In . SVG Version: 6.00 Build 0)  -->
<svg version="1.1" id="Layer_1" xmlns="http://www.w3.org/2000/svg" xmlns:xlink="http://www.w3.org/1999/xlink" x="0px" y="0px"
	 viewBox="0 0 288 288" style="enable-background:new 0 0 288 288;" xml:space="preserve">
<style type="text/css">
	.st0{fill:#3D544C;}
	.st1{fill:#5F4F41;}
	.st2{fill:#C37077;}
	.st3{fill:#C8878C;}
	.st4{fill:#4D7B80;}
	.st5{fill:#5B918D;}
	.st6{fill:#5F785A;}
	.st7{fill:#9A876B;}
	.st8{fill:#C1A779;}
	.st9{fill:#C4A3A7;}
	.st10{fill:#E8CCCD;}
	.st11{fill:#90B8B5;}
	.st12{fill:#839C7D;}
	.st13{fill:#A35F5E;}
	.st14{fill:#C4AEBC;}
	.st15{fill:#D3D4D3;}
	.st16{fill:#FFFFFF;}
</style>
<path class="st0" d="M94.5,122.6l3.5-4l10.5-5l3.5,1.5c0,0,1-4.5,4-4l5,1.5l42.5,3.5l4.5-2.5l4,3l4.5-1.5l6.5,3l-6,3.5l10-2l2,3.5
	l-9,5.5l-21,8.5l-37-6l-24.5-4.5L94.5,122.6z"/>
<path class="st1" d="M125.4,89.6c0,0-10,27.5,0,38.5l15,7.5l21.5-5.5c0,0,9.5-20-1.5-43C160.4,87.1,144.4,70.1,125.4,89.6z"/>
<path class="st2" d="M140.9,60.1c0,0-5-13.5-25.5-11.5s-33,12.5-33,12.5l43.5,8h15.5l22.5-0.5c0,0,18-9,40.5-3c0,0-27-29.5-54.5-9
	L140.9,60.1z"/>
<path class="st3" d="M125.4,65.6c0,0-52-17-78.5,11l-1,4.5l-3.5,2.5c0,0-3.5,16,1,16c0,0,27-19,29.5-18.5c0,0-20.5,18.5-16,22
	l2.5,1.5l2-2l-0.5,4l21,8.5l3.5-3v3.5l13,6.5c0,0,17.5-36.5,45-40c0,0,14.5-9.5,45.5,41l7-3l0.5-3.5l3.5,3.5l28-10.5l-0.5-4l3.5,1.5
	l3.5-4.5c0,0-4-9-8-10.5c0,0,14,6,14.5,8.5l2.5-7.5l-2.5-3l3,1c0,0-2.5-16-26-23c0,0-29-9.5-52.5-2L125.4,65.6z"/>
<path class="st4" d="M40,165.6c0,0-10.5,14-8.5,26.5c0,0-3.5,2.5,0,5.5c0,0,1.5,14.5,10,18l-3.5,8c0,0,12,6.5,25.5,4.5L61,182.6
	l11.5-23l-4.5-15l-18.5,0.5L40,165.6z"/>
<path class="st4" d="M243.4,164.1c0,0,30.5,28,2,54.5l-2.5,7c0,0-8,4.5-10.5,3c-2.5-1.5-6,0-6,0l-4.5-60.5l-2.5-21.5l22.5,9
	L243.4,164.1z"/>
<path class="st5" d="M70,161.1c0,0-23.5,20.5-15,46c0,0-6,5,2,9c0,0,10,19,16.5,22.5l1,8l17.5,4c0,0,12-2.5,13-4.5c1-2,7-9,6-17.5
	s-9.5-18-9.5-18l-17-59l-11-6.5L70,161.1z"/>
<path class="st5" d="M222.4,158.6c0,0,24,45.5-2,75.5c0,0,3,4.5-5,7.5l-9.5,15l-5,2c0,0-6,5.5-17.5,1.5c0,0-14,0.5-19-6.5l3.5-27
	l27-46l7.5-36l20.5,7.5L222.4,158.6z"/>
<path class="st6" d="M117.9,129.1c0,0-13.5-7-17.5-5.5l-1,4l-3-6.5l-8.5,0.5v2.5l-3.5-5l-12,2.5l4.5,5l-7-5l-10.5,1l7.5,7.5
	l-10.5-6.5l-9.5,1.5l3,4.5l-14-4l-5,4.5l2.5,1.5l-7,5.5l3,1.5l-12.5-1l-7,5.5l7,2.5l-13,7v9l4-1.2l4.5-1.3l-4,5.5l8.5,2.5l9-10.5
	l-3,8l11,3l7.5-16l-1.5,14l8-1l2-5.5l2,6l7-2l3-9.5l1,7l9.5-1l4.5-6.5v6.5h7l34-17V129.1z"/>
<path class="st6" d="M168.4,129.6c0,0,8.5-5,10-3.5l1.5,2.5l1-4.5l15-1.5l1,3.5l3-3.5l7,0.5l0.5,3l2.5-2.5l10.5,0.5l0.5,3.5l2.5-2
	l14,2l-3,4.5l9-2.5c0,0,13.5,3,12.5,5.5l-3.5,2c0,0,34,10.5,32,13l-6,5.5l-13.5-5l15.5,12l-9,3l-10.5-6.5l5,7l-10-1l-9.5-10l4,8
	l-7,1l-6-7l2,7h-6.5l-9-10l2.5,6.5l-10,1l-7-11.5l0.5,8l-9.5-2l-22.5-9.5l-13.5-6L168.4,129.6z"/>
<polygon class="st7" points="125.9,62.1 127.9,57.6 131.9,61.1 134.9,56.1 140.9,60.1 144.4,52.6 151.9,59.6 156.4,55.1 159.4,60.6 
	164.4,59.1 166.9,63.1 158.9,71.6 135.9,69.6 125.4,65.6 "/>
<path class="st8" d="M125.9,69.1l-2-9.5l6,7l2-5.5l5.5,5l3.5-6l4.5,6.5l6.5-7l3.5,6.5l4-5.5l3.5,4.5l4-2l-3.5,8c0,0-17,5.5-17,10
	l-3,1C143.4,82.1,138.4,71.6,125.9,69.1z"/>
<path class="st9" d="M102,50.6c0,0-3.5,8.5,0,7c3.5-1.5,8.5-7,8.5-7S112,48.1,102,50.6z"/>
<path class="st9" d="M125.9,49.6c0,0-9.5,1.5-6.5,3c3,1.5,9.5-1.5,9.5-1.5S129.4,48.6,125.9,49.6z"/>
<path class="st9" d="M108.5,57.1c0,0-2,3,0.5,2.5C111.5,59.1,108.5,57.1,108.5,57.1z"/>
<path class="st9" d="M172.9,53.1l-4.5,2.5c0,0,2,6,6,4.5c4-1.5,5-4.5,5-4.5S174.9,52.6,172.9,53.1z"/>
<polygon class="st9" points="184.9,62.1 187.9,60.1 193.4,62.6 "/>
<path class="st10" d="M71,63.6c0,0-4.5,3.5,2.5,5l0.5,3l12-5.5c0,0,2-3,0.5-4C85,61.1,71,63.6,71,63.6z"/>
<path class="st10" d="M68,74.1c0,0-16,6.5-11.5,9.5c4.5,3,12-4.5,12-4.5S75,72.6,68,74.1z"/>
<path class="st10" d="M111,69.6c0,0-5,7,0.5,5s6-4,6-4S113.5,68.6,111,69.6z"/>
<polygon class="st10" points="101.5,75.1 90,80.6 88,91.1 94,96.1 100.5,91.6 107,78.1 "/>
<path class="st10" d="M122.9,82.1c0,0,2.5,1,4.5,0c2-1,2,5.5,2,5.5s-9.5,4.5-10,6.5l-5-4.5c0,0,1.5-3,2-5.5
	C116.9,81.6,122.9,82.1,122.9,82.1z"/>
<path class="st10" d="M165.4,72.1c0,0-6,6.5,1.5,5c7.5-1.5,5.5-5,5.5-5H165.4z"/>
<path class="st10" d="M188.4,84.1l7,3.5C195.4,87.6,199.9,79.1,188.4,84.1z"/>
<path class="st10" d="M182.9,104.1l5.5-8l9-1c0,0,2.5,3,1,5c-1.5,2,1.5,4,1.5,4s-6,8-9,7S182.9,104.1,182.9,104.1z"/>
<path class="st10" d="M182.4,65.1c0,0-1,3,3,1.5C189.4,65.1,182.4,65.1,182.4,65.1z"/>
<path class="st10" d="M212.4,69.1c0,0-16,0.5-13,3c3,2.5,11,2.5,11,2.5l-1.5,2.5l5,3.5c0,0,13,0.5,8.5-4
	C217.9,72.1,212.4,69.1,212.4,69.1z"/>
<path class="st10" d="M228.4,85.1c0,0-6.5-2-5,1s7,2.5,7,2.5S232.4,84.6,228.4,85.1z"/>
<path class="st11" d="M108,141.6c0,0-29.5-7-31-2.5c-1.5,4.5,6.5,23,6.5,23S65,181.1,67,186.6c2,5.5,6.5,14.5,6.5,14.5s13,2,16.5,9
	c3.5,7,8.5,10.5,8.5,10.5l20,13c0,0,8,2.5,21.5,1.5c0,0,21.5,2.5,27.5-1.5c6-4,18-14,18-14l5.5-9.5c0,0,15-10.5,17-10.5
	s9-15.5,9-15.5s-14-22-16.5-21.5l7-23.5c0,0-21-4-34,1.5L108,141.6z"/>
<polygon class="st12" points="138.4,132.6 118.9,127.1 114.5,134.6 108,136.6 108,144.6 105.5,144.1 109,154.1 112.8,152.8 
	120.4,150.1 114.5,155.6 117.9,164.6 129.9,157.6 122.9,167.1 125.9,172.1 132.9,165.6 128.9,173.1 140.4,179.6 141.4,170.6 
	144.9,177.6 152.9,170.6 149.9,166.1 156.4,170.1 161.9,166.1 156.9,155.6 165.4,163.1 168.9,160.6 164.9,157.1 169.9,158.6 
	174.9,152.6 165.9,147.6 176.4,149.6 172.4,138.6 166.4,129.1 145.4,134.1 142.4,131.6 "/>
<path class="st13" d="M80.5,143.6c0,0,17,11,17,13.5c0,0-10,2.5-10.5,4L80.5,143.6z"/>
<path class="st13" d="M183.4,155.1c0,0,17.5-15,20-14.5l-7,18.5L183.4,155.1z"/>
<path class="st13" d="M106,200.1c0,0-6.5,17.5,16,24s50-7,50-7l2.5-18l11.5-2.5l-3,16c0,0-8,10-19,18c0,0-31.5,0.5-40,0.5
	s-24.5-16.5-24.5-16.5l-3-16.5L106,200.1z"/>
<path class="st14" d="M106,200.1c0,0,15.5,1.5,19,6c3.5,4.5,25,3,25,3s12-5,11.5-6.5s13-3.5,13-3.5s12.5,22-18.5,25.5
	c-31,3.5-42.5-4-42.5-4S100.5,214.1,106,200.1z"/>
<path class="st15" d="M41.5,220.6c0,0-5.5,5-3.5,6c2,1,6.5,0,6.5,0L41.5,220.6z"/>
<path class="st15" d="M55.5,223.6c0,0-6,0.5-4,3.5c2,3,2,3,2,3s5.5-0.5,4.5-3C57,224.6,55.5,223.6,55.5,223.6z"/>
<path class="st15" d="M244.4,221.6c0,0,4.5,5,4,6.5s-5.5-2.5-5.5-2.5L244.4,221.6z"/>
<path class="st15" d="M232.4,228.6c0,0-2-5.5-6,0l3.5,3.5L232.4,228.6z"/>
<path class="st16" d="M183.9,253.1c0,0-6.5,0.5-6,5.5c0.5,5,3,7.5,3,7.5l5-4C185.9,262.1,186.9,252.6,183.9,253.1z"/>
<path class="st16" d="M201.9,253.6c0,0-8.5,5-5,7c3.5,2,6,5,6,5S204.9,255.1,201.9,253.6z"/>
<path class="st16" d="M166.4,248.6c0,0-7.5,9-5.5,10c2,1,8-2,8-2S167.9,248.6,166.4,248.6z"/>
<path class="st16" d="M105,241.6l2.5,7.5l-6-2.5C101.5,246.6,103,240.1,105,241.6z"/>
<path class="st16" d="M80.5,247.6c0,0-4.5-6.5-5.5-4.5c-1,2-2,5.5-2,5.5L80.5,247.6z"/>
<path class="st16" d="M90,245.6c0,0-4,1.5-2,5c2,3.5,2,3.5,2,3.5l4-4.5C94,249.6,91.5,244.6,90,245.6z"/>
<path class="st16" d="M182.4,197.1c0,0,2,6.5,3.5,5.5c1.5-1,3-6,3-6L182.4,197.1z"/>
<path class="st16" d="M94,197.6c0,0,1.5,8,3.5,6.5c2-1.5,3-5.5,3-5.5L94,197.6z"/>
<path class="st15" d="M168.8,226.8c0,0-2-5,0.5-5.5s3,4,3,4L168.8,226.8z"/>
<path class="st15" d="M165.4,228.6c0,0-3-2-0.5-6l4.5,4.5L165.4,228.6z"/>
<path class="st15" d="M111.5,225.4c0,0,0.5-1.5,2-3s1.5,5.5,1.5,5.5L111.5,225.4z"/>
<path class="st15" d="M115.5,228.2c0,0-0.5-7.5,2.5-6s0,7.5,0,7.5L115.5,228.2z"/>
</svg>
