<?xml version="1.0" encoding="utf-8"?>
<!-- Generator: Adobe Illustrator 23.0.4, SVG Export Plug-In . SVG Version: 6.00 Build 0)  -->
<svg version="1.1" id="Layer_1" xmlns="http://www.w3.org/2000/svg" xmlns:xlink="http://www.w3.org/1999/xlink" x="0px" y="0px"
	 viewBox="0 0 288 288" style="enable-background:new 0 0 288 288;" xml:space="preserve">
<style type="text/css">
	.st0{fill:#678963;}
	.st1{fill:#5D5F5E;}
	.st2{fill:#ABAA69;}
	.st3{fill:#F1E99E;}
	.st4{fill:#E0B9BC;}
	.st5{fill:#3A3B3A;}
	.st6{fill:#D9DCDA;}
	.st7{fill:#B0CE94;}
	.st8{fill:#ABAE5C;}
</style>
<path class="st0" d="M74.8,130.6c0,0-15.8-6.7-22.5,0c0,0-29.1-4.8-29.6,24.4c0,0,16.7-10.5,21-5.3s4.3,16.2,4.3,16.2
	s-10,42,15.3,56.9s39.7,2.9,39.7,2.9l11-60.2C114,165.4,85.8,127.7,74.8,130.6z"/>
<path class="st1" d="M43.8,230.4c0,0,18.6,18.2,50.2,13.4l4.3,2.4l-0.5,2.9c0,0-24.8,7.6-57.3-14.3L43.8,230.4z"/>
<path class="st2" d="M43.8,230.4c0,0,7.2-13.9-15.3-24.8C6,194.6,8.9,185.5,8.9,185.5s-6.7,39.7,11.9,48.7
	C39.5,243.3,43.8,230.4,43.8,230.4z"/>
<path class="st1" d="M92.5,59.4c0,0-6.7-19.6,8.1-27.2s34.4,3.3,34.4,3.3s75,54,79.3,101.3l-8.1,1.9c0,0-12.4-52.1-56.9-79.8
	L92.5,59.4z"/>
<path class="st3" d="M100.2,151.1c0,0,10,11.5,6.7,22s-11.5,26.8-11.5,26.8s-16.7,36.8,2.4,49.2s29.6,13.4,29.6,13.4
	s44.4,7.2,61.6-27.2s-1.9-82.2-1.9-82.2s-20.5-27.2-23.9-41.6L100.2,151.1z"/>
<path class="st4" d="M77.7,99.5c0,0,2.4,3.8,0,11c-2.4,7.2-2.9,20.1-2.9,20.1s-1.9,20.1,27.2,21c28,0.9,49.7-18,53.5-21.5
	c1.9-1.7,3.3-3.2,4.3-4.3c1.6-2,3.7-5,5.3-9.1c5.4-14.3-1.6-27.7-2.9-30.1C153.5,70.4,136,67,133.6,66.5L77.7,99.5z"/>
<path class="st5" d="M87.7,100.9c2.3,4.9,2.1,8.3,1.4,10.5c-0.8,3-2.3,3.2-3.8,7.6c-1.4,3.9-1.5,7.2-1.4,8.6c0,1.9,0.1,3.9,1,6.2
	c0,0,0.3,0.8,2.4,4.8l0,0c2,0.4,5,1,8.6,1.4c6.6,0.9,12.6,1,15.3,1c7.7-0.2,23.1-3.7,33-16.7c1.6-2.1,9.9-14.3,8.1-27.8
	c-2-14.3-13.3-22.4-13.3-22.4L87.7,100.9z"/>
<path class="st6" d="M87.3,139.5c0,0-3.3-9.6,6.7-13.4c0,0,2.4,12.9,0.5,13.4C92.5,140,87.3,139.5,87.3,139.5z"/>
<path class="st6" d="M135,132.9c0,0-7.6-15.8-3.3-15.3c4.3,0.5,12.4,7.6,12.4,7.6L135,132.9z"/>
<path class="st7" d="M181.9,186.9c0,0-19.1-33.9,30.6-51.6s70.7-6.2,70.7-6.2l1,2.4c0,0-29.6,9.1-31.5,41.6s-17.7,48.7-17.7,48.7
	s-28.7,31.5-55.4,3.8C179.5,225.6,166.1,211.3,181.9,186.9z"/>
<path class="st7" d="M90.1,48.9c0,0-48.7-6.7-63.5,53c0,0,22.9-18.2,26.8-15.3c0,0,0,7.2,24.4,12.9s22,11.9,22,11.9
	s1.9-16.2,29.1-25.3s23.4-31.5,23.4-31.5s36.3,0,40.1,2.9c0,0-11.5-22.9-60.7-23.9c0,0-32.5,1.4-39.2,25.8
	C92.5,59.4,91.6,55.1,90.1,48.9z"/>
<path class="st8" d="M181.4,156.4l-5.7-1.9c0,0-1.4-6.2,2.4-5.7c3.8,0.5,6.2,3.8,6.2,3.8L181.4,156.4z"/>
<path class="st8" d="M163.7,175l1.4-4.3c0,0-0.5-3.8-4.3-1.9c-3.8,1.9-5.7,3.3-5.7,3.3S161.8,176,163.7,175z"/>
<path class="st8" d="M105.4,197l6.2-12.9c0,0,0.5-6.7-3.8-4.3c-4.3,2.4-6.2,11.5-6.2,11.5S100.2,197.5,105.4,197z"/>
<path class="st8" d="M102.5,240.9l3.3,6.2c0,0-2.9,1.4-4.3-1C100.2,243.8,102.5,240.9,102.5,240.9z"/>
<path class="st8" d="M147,242.9l-6.2,9.6c0,0,5.3,1,7.2-2.4s1.4-5.7,1.4-5.7L147,242.9z"/>
<path class="st8" d="M179.5,229.9c0,0-4.3,13.4-0.5,11.9c3.8-1.4,6.2-7.2,6.2-7.2S184.7,229.9,179.5,229.9z"/>
<path class="st8" d="M126,229c0,0,7.2-8.1,5.3-11s-4.3-3.8-4.3-3.8l-7.6,4.8C119.3,219,117.8,229,126,229z"/>
<path class="st8" d="M139.3,190.8l4.8-2.4c0,0,5.7-1.4,6.2,2.9s0.5,11.5,0.5,11.5s-6.2,8.6-8.1,3.8
	C140.8,201.8,139.3,190.8,139.3,190.8z"/>
</svg>
