<?xml version="1.0" encoding="utf-8"?>
<!-- Generator: Adobe Illustrator 23.0.4, SVG Export Plug-In . SVG Version: 6.00 Build 0)  -->
<svg version="1.1" id="Layer_1" xmlns="http://www.w3.org/2000/svg" xmlns:xlink="http://www.w3.org/1999/xlink" x="0px" y="0px"
	 viewBox="0 0 288 288" style="enable-background:new 0 0 288 288;" xml:space="preserve">
<style type="text/css">
	.st0{fill:#475975;}
	.st1{fill:#5F7291;}
	.st2{fill:#C3717E;}
	.st3{fill:#CF8892;}
	.st4{fill:#D7A584;}
	.st5{fill:#C39C84;}
	.st6{fill:#2B2B2B;}
	.st7{fill:#D89EA8;}
	.st8{fill:#F1E3E6;}
	.st9{fill:#F5E9EA;}
	.st10{fill:#F3E6E8;}
</style>
<path class="st0" d="M101.8,196.5c0,0-4.9,6.8-18.6,6.4c-13.7-0.5-12.2,8.8-12.2,8.8s2.4,8.8,19.1,5.9c16.6-2.9,20-10.8,20-10.8
	L101.8,196.5z"/>
<path class="st0" d="M140.4,234.2l-4.4,4.9c0,0-42.5,7.3-39.1,17.1c3.4,9.8,22.5,4.9,22.5,4.9s25.9-6.4,28.8-21s1.5-10.8,1.5-10.8
	L140.4,234.2z"/>
<path class="st0" d="M196.2,229.3c0,0,7.3,13.2,23.5,13.2s22,9.3,22,9.3s9.8,14.7-8.8,13.2c-18.6-1.5-36.2-13.7-36.2-13.7
	s-11.2-12.7-8.8-19.1S196.2,229.3,196.2,229.3z"/>
<path class="st1" d="M101.8,184.8c0,0-3.9,40.1,34.2,47.9c38.1,7.8,60.1-3.4,60.1-3.4s24.4-12.2,24.4-35.2c0,0,29.8,4.9,32.3-8.3
	c2.4-13.2-28.8-7.8-28.8-7.8s-9.8-37.2-16.6-39.6c-6.8-2.4-32.8-3.4-32.8-3.4L101.8,184.8z"/>
<path class="st2" d="M138.5,36.1c0,0-56.2-11.7-88,50.4h55.2l34.7-31.8L138.5,36.1z"/>
<path class="st3" d="M95.9,81.6c0,0-64-15.2-90,53.8c0,0-20,51.3,47.9,44.5l50.4-81.7L95.9,81.6z"/>
<path class="st3" d="M132.1,54.2c0,0,1.5-40.6,71.9-43s64.5,41.1,64.5,41.1l-117.8,21L132.1,54.2z"/>
<path class="st4" d="M95.9,100.2c0,0-5.9-19.1,9.3-30.8s26.9-15.2,26.9-15.2s12.7-4.4,22,1.5S166.3,66,166.3,66l-15.2,26.4
	L95.9,100.2z"/>
<path class="st5" d="M111.1,81.6c0,0,8.3-19.1,32.3-16.6C143.4,65,134.6,78.7,111.1,81.6z"/>
<path class="st6" d="M111.1,81.6c0,0,9.3-19.1,32.3-16.6c0,0,9.8-6.8,0.5-7.8c0,0-39.1,7.8-40.6,22
	C103.3,79.2,101.3,83.6,111.1,81.6z"/>
<path class="st7" d="M95.9,100.2c0,0-74.8,63.6-34.7,84.1S187.4,152,187.4,152s6.4-4.9,6.8-10.3c0,0,27.4,1.5,64-37.2
	s20-61.6,20-61.6s-10.8-15.2-46.4-10.3S161,66,161,66s-13.7,13.2-11.7,25.4C149.2,91.4,111.1,90.9,95.9,100.2z"/>
<path class="st8" d="M82.2,49.8c0,0-0.5,10.3,6.8,2.4S88.6,44.9,82.2,49.8z"/>
<path class="st8" d="M111.1,44.5c0,0-6.4,4.4,0,3.9c6.4-0.5,7.3-3.9,7.3-3.9S116.5,40.5,111.1,44.5z"/>
<path class="st8" d="M73.4,63.5c0,0-7.8,3.4-3.4,3.4C74.4,66.9,73.4,63.5,73.4,63.5z"/>
<path class="st8" d="M86.6,66c0,0-10.3,8.3-4.4,5.9C88.1,69.4,86.6,66,86.6,66z"/>
<path class="st9" d="M51.9,91.4c0,0-8.8,5.4-1,5.9s9.8-5.9,9.8-5.9S57.8,89.4,51.9,91.4z"/>
<path class="st9" d="M65.6,99.7c0,0-4.9,8.3-0.5,6.8C69.5,105.1,73.4,99.7,65.6,99.7z"/>
<path class="st9" d="M31.9,108.5c0,0-5.9,6.4-1.5,4.9S35.8,108.5,31.9,108.5z"/>
<path class="st9" d="M59.3,115.8c0,0-4.9-2-3.4,3.9C57.3,125.6,63.2,118.8,59.3,115.8z"/>
<path class="st9" d="M38.7,126.1c0,0-18.1,2-16.6,7.3c1.5,5.4,14.7,1,14.7,1l4.4-4.9L38.7,126.1z"/>
<path class="st9" d="M166.8,36.1c0,0-11.7-2-11.2,1.5c0.5,3.4,8.3,2.9,8.3,2.9L166.8,36.1z"/>
<path class="st9" d="M182,20c0,0-14.7,4.4-6.4,7.3s13.7-4.9,13.7-4.9S185.4,19,182,20z"/>
<path class="st9" d="M201,15.6l4.9,2.4c0,0,3.4-2,0-2.9C202.5,14.1,201,15.6,201,15.6z"/>
<path class="st9" d="M219.1,21c0,0-8.8,3.4-0.5,4.4c8.3,1,7.3-2,7.3-2S223,19.5,219.1,21z"/>
<path class="st9" d="M198.6,30.8c0,0-13.7,7.3-3.9,8.8c9.8,1.5,16.6-8.8,16.6-8.8S199.1,29.3,198.6,30.8z"/>
<path class="st10" d="M100.8,116.8c0,0-8.3-6.8-9.3,2.9C90.5,129.5,103.8,125.1,100.8,116.8z"/>
<path class="st10" d="M136,104.6c0,0-11.7,1-9.3,5.9c2.4,4.9,10.8-2.4,10.8-2.4S139.4,103.1,136,104.6z"/>
<path class="st10" d="M113.5,123.2c0,0-6.4,3.9-2,4.4s6.4-4.4,3.9-4.9C113,122.2,113.5,123.2,113.5,123.2z"/>
<path class="st10" d="M93.5,138.8c0,0-18.6-1.5-16.6,4.4c2,5.9,15.2,1.5,15.2,1.5S95.9,140.3,93.5,138.8z"/>
<path class="st10" d="M110.1,150.1c0,0-8.3,8.3,0.5,8.3s12.2-7.8,12.2-7.8S121.8,142.7,110.1,150.1z"/>
<path class="st10" d="M142.9,125.1c0,0-4.9,5.9,3.4,6.4c8.3,0.5,16.1-1,19.1-8.8C168.3,114.9,142.9,125.1,142.9,125.1z"/>
<path class="st10" d="M167.8,82.6c0,0-8.8,3.9-1.5,4.9S167.8,82.6,167.8,82.6z"/>
<path class="st10" d="M186.4,78.2c0,0-8.3,3.4-2,2.9S186.4,78.2,186.4,78.2z"/>
<path class="st10" d="M201,48.9l-2-1c0,0-8.8,0.5-8.8,6.4s1.5,4.4,1.5,4.4L201,48.9z"/>
<path class="st10" d="M238.2,38.1l-6.4,1c0,0-7.8,6.8-1.5,7.3s9.3-2.4,9.3-2.4L238.2,38.1z"/>
<path class="st10" d="M203,67.9l4.4-0.5l1-4.9l-1-3.4C207.4,59.1,200.6,60.1,203,67.9z"/>
<path class="st10" d="M179.5,82.1c0,0,7.8,2.4,9.3-3.4C190.3,72.8,179.5,82.1,179.5,82.1z"/>
<path class="st10" d="M204.5,83.6l5.4,2.4c0,0,12.7-9.8,5.9-10.8C208.9,74.3,204.5,83.6,204.5,83.6z"/>
<path class="st10" d="M234.8,74.3l2,2.4l4.9-0.5c0,0,11.2-7.8,4.9-10.3c-6.4-2.4-6.4,1-6.4,1L234.8,74.3z"/>
<path class="st10" d="M223.5,93.8l-4.9-1.5c0,0-18.6,5.9-14.2,14.7S223.5,93.8,223.5,93.8z"/>
</svg>
