<?xml version="1.0" encoding="utf-8"?>
<!-- Generator: Adobe Illustrator 23.0.4, SVG Export Plug-In . SVG Version: 6.00 Build 0)  -->
<svg version="1.1" id="Layer_1" xmlns="http://www.w3.org/2000/svg" xmlns:xlink="http://www.w3.org/1999/xlink" x="0px" y="0px"
	 viewBox="0 0 288 288" style="enable-background:new 0 0 288 288;" xml:space="preserve">
<style type="text/css">
	.st0{fill:#E9DFC5;}
	.st1{fill:#9A6450;}
	.st2{fill:#583429;}
	.st3{fill:#8B7062;}
	.st4{fill:#BF8163;}
	.st5{fill:#DCA183;}
	.st6{fill:#B98874;}
</style>
<path class="st0" d="M82.7,186.8c0,0-30.1-38.3-25.7-3.9s34,38.3,34,38.3s28.8,12.6,55.8-4.4s-0.4-33.1-0.4-33.1
	S43.9,143.7,57,182.9"/>
<path class="st1" d="M94.1,99.2l15.2,32.7l4.8-13.5c0,0,36.2-22.2,39.6-39.6c3.5-17.4,0,0,0,0S86.6,66.6,94.1,97.9"/>
<path class="st2" d="M18.7,43c0,0-3,38.8,9.6,48.8s6.5-10.9,6.5-10.9S30.9,49.1,18.7,43z"/>
<path class="st3" d="M51.8,60c0,0-19.6-17.4-33.1-17c0,0,18.3,31.8,16.1,37.9C32.6,87,51.8,60,51.8,60z"/>
<path class="st4" d="M57.9,63.5c0,0-12.6-32.7,16.6-30.9c0,0,15.2-13.1,34.9,7.8S84,73.5,84,73.5"/>
<path class="st3" d="M138.1,220.8c0,0-5.2,21.3-8.3,23.5s-5.2,6.1-5.2,6.1s-0.9,8.3,10.9,8.3s15.7-8.3,15.7-8.3l7.4-21.3l-8.3-14.4
	L138.1,220.8z"/>
<path class="st4" d="M155,157.6c0,0-29.6-3.5-28.8-27.4c0.9-24,13.9-22.2,13.9-22.2S145,87,161.6,87.5s36.2,79.3,36.2,79.3l-37-0.9
	L155,157.6z"/>
<path class="st5" d="M173.8,164.6c0,0,7-20.5-13.5-35.7s4.8-52.7,4.8-52.7s27.4-28.8,53.6,0c0,0,44-10,45.7,46.6
	c0,0,47.1,32.7-2.6,71.9c0,0-4.8,30.1-27.4,26.1c-22.7-3.9-21.8-16.1-21.8-16.1s-17-13.5-23.1-11.8c-6.1,1.7-16.1-30.1-16.1-30.1"/>
<path class="st6" d="M34.8,80.5c-2.3,1.8-6.5,5.6-9,12c-1.3,3.5-1.8,6.6-1.9,8.9c0,0-15.7,3-15.7,10.5c0,7.4,5.7,20.5,13.5,25.3
	c0,0,7.4,10.5,12.2,13.9c4.8,3.5,17.4,3.5,21.3,8.3c0,0-3,42.3,13.9,62.7c0,0,7.8,30.1-2.2,33.1c0,0-3,6.1,2.6,8.7
	c0,0,3.9,2.2,7,2.2c0,0,3.9-0.4,5.2,0.4c0,0,0.9,4.4,5.7,4.8c0,0,5.2,2.6,9.6,0.9c0,0,10.9,5.7,16.1-9.6
	c5.2-15.2,13.1-58.4,13.1-58.4l-35.3,17c0,0,4.4,12.6,2.6,19.2c0,0-5.2-17.4-4.8-20.9c0,0-28.8-14.4-31.8-36.6
	c-3-22.2,16.1-8.7,16.1-8.7l9.6,12.6l2.2,10.9l39.2-40.5c0,0-24.4-4.4-20-16.6c0,0,7.8-10.9,10-22.2l-3.9,0.4l1.3-4.4l-5.7,3
	l0.9-5.2l-3.9,2.6l10-10h-10l13.9-6.1l-22.7,0.4c0,0,20.9-26.6,59.7-20.5c0,0-39.6-17.4-73.6,3.9s0,0,0,0C65,82,49.9,81.2,34.8,80.5
	z"/>
<path class="st6" d="M179.9,168.5c0,0,11.3,0,7.8,49.7c0,0,3.9,10.9,6.1,12.6c0,0-2.6,39.6-20.5,41.8c-17.9,2.2-16.6-10-16.6-10
	s6.5-3,9.1-9.6s2.2-17.9,2.2-17.9s-18.7-8.3-21.3-18.3s-3.5-17.9-3.5-17.9s-16.1,9.6-17,5.2c-0.9-4.4-2.2-47.1-2.2-47.1
	s20.5,0,21.3-2.2S172,151.5,179.9,168.5z"/>
<path class="st5" d="M84.5,68.7c0,0-30.5-27-48.4,0.9c0,0-11.8,23.5,5.2,31.4c0,0,3-17.9,38.8-18.3l42.3-11.3
	c0,0,16.6-30.1-21.3-31.4C101,40,76.2,44.3,84.5,68.7z"/>
<polygon class="st6" points="84.9,197.7 91,221.2 126.3,204.2 124.1,157.2 87.5,171.1 "/>
</svg>
