<?xml version="1.0" encoding="utf-8"?>
<!-- Generator: Adobe Illustrator 23.0.4, SVG Export Plug-In . SVG Version: 6.00 Build 0)  -->
<svg version="1.1" id="Layer_1" xmlns="http://www.w3.org/2000/svg" xmlns:xlink="http://www.w3.org/1999/xlink" x="0px" y="0px"
	 viewBox="0 0 288 288" style="enable-background:new 0 0 288 288;" xml:space="preserve">
<style type="text/css">
	.st0{fill:#C991AD;}
	.st1{fill:#B38F68;}
	.st2{fill:#F7F8F8;}
</style>
<circle class="st0" cx="33.4" cy="161.2" r="9.8"/>
<circle class="st0" cx="51.2" cy="212.8" r="8.2"/>
<circle class="st0" cx="73.1" cy="242.1" r="8.2"/>
<circle class="st0" cx="96.7" cy="260" r="7.5"/>
<path class="st1" d="M23.3,102.2c0,0-2.3,25.6,19.5,38.6c0,0-27,32.1,6.5,53c0,0-10.7,22.3,17.2,34.9c0,0-1.4,22.8,25.6,27.4
	c0,0,4.2,18.6,29.3,16.7c0,0,7.4,12.1,27,7.4c0,0-6-8.4,0.9-12.6c7-4.2,11.6,3.3,11.6,3.3s7.4,6.5,16.3-0.5c0,0-4.6-8.8,1.9-10.7
	c6.5-1.9,8.8,1.9,8.8,1.9s12.6,1.4,12.6-1.9c0,0-2.3-8.8,1.9-9.8c4.2-0.9,7.4-0.5,7.4-0.5s5.1-5.6,0-15.3c0,0-7.9-1.9-9.3-7.9
	c0,0-16.7-6-20.9,7.4c0,0-12.1-9.8-23.7,1.9c0,0-11.2-7-18.1-3.3c0,0-4.6-7-12.6-7.9c0,0-1.9-15.3-12.6-16.7c0,0,5.1-16.3-5.1-20.5
	c0,0,13.9-16.3,1.4-34.4c0,0,32.1-8.8,35.8-51.6c3.7-42.8-27.4-54.8-27.4-54.8l0.5,5.6c0,0-0.9,6.5-7.4,5.1c0,0-25.6-3.7-30.7-10.2
	c-5.1-6.5,3.3-8.8,3.3-8.8S47,33.8,28.9,68.2c0,0,47.4,2.3,38.1,34.4C67,102.6,61.9,123.1,23.3,102.2z"/>
<path class="st2" d="M93.2,53.8c-6-1.3-10.6-2.8-13.7-3.8c-1.9-0.6-4.4-1.6-4.9-3.5c-0.3-1.3,0.5-2.6,0.8-3
	c3.3-4.8,36.3-36.5,40.4-40.4c0.9,8.3,1.5,17.2,1.9,26.5c0.4,9.7,0.4,18.9,0.2,27.5c-0.1,0.6-0.3,1.5-0.9,2c-1,0.7-2.4,0.2-5.3-0.7
	c-1.5-0.5-3.1-0.8-4.6-1.3C104.3,56.3,100.6,55.5,93.2,53.8z"/>
<path class="st2" d="M200.4,226.7c0,0-10.7-13,8.4-27c0,0,11.6-11.6,10.2-21.4c0,0,9.3,0.5,11.2,18.1c0,0,3.3,39.5-20.5,38.1
	C209.7,234.6,201.4,233.7,200.4,226.7z"/>
<ellipse transform="matrix(0.1913 -0.9815 0.9815 0.1913 -56.9692 112.0387)" class="st0" cx="39.5" cy="90.6" rx="22.5" ry="32.7"/>
<circle class="st0" cx="83.3" cy="181.2" r="9.8"/>
<circle class="st0" cx="88.9" cy="220.4" r="8.2"/>
<circle class="st0" cx="101.9" cy="246.7" r="8.2"/>
<circle class="st0" cx="120.6" cy="264.5" r="7.5"/>
<circle class="st0" cx="153.2" cy="273.7" r="8.1"/>
<circle class="st0" cx="182.4" cy="264.6" r="7.3"/>
<circle class="st0" cx="203.4" cy="254.1" r="6.5"/>
</svg>
