<?xml version="1.0" encoding="utf-8"?>
<!-- Generator: Adobe Illustrator 23.0.4, SVG Export Plug-In . SVG Version: 6.00 Build 0)  -->
<svg version="1.1" id="Layer_1" xmlns="http://www.w3.org/2000/svg" xmlns:xlink="http://www.w3.org/1999/xlink" x="0px" y="0px"
	 viewBox="0 0 288 288" style="enable-background:new 0 0 288 288;" xml:space="preserve">
<style type="text/css">
	.st0{fill:#6C6D6A;}
	.st1{fill:#DCD278;}
	.st2{fill:#678963;}
	.st3{fill:#F4EDAB;}
	.st4{fill:#B2CF94;}
	.st5{fill:#9CA14D;}
	.st6{fill:#DFBBBD;}
	.st7{fill:#030404;}
	.st8{fill:#825C70;}
</style>
<path class="st0" d="M181.8,71.1c0,0,31.1-29.2,47.9-9.6s6.7,24.4,6.7,24.4s0.5-18.7-23-13.4c-23.5,5.3-17.7,26.3-17.7,26.3
	L181.8,71.1z"/>
<path class="st1" d="M157.9,74.9c0,0,17.2-14.4,34.5,3.8s-1,36.9-1,36.9L157.9,74.9z"/>
<path class="st2" d="M100.9,118.9c0,0-34.9-62.7-94.8-36.4v2.9c0,0,21.1,18.2,24.9,45.9s14.4,32.1,14.4,32.1s9.6,7.2,20.6,3.4
	C77,163,110.5,140.5,100.9,118.9z"/>
<path class="st3" d="M100.9,121.8c0,0,18.7-44.5,57-46.9c38.3-2.4,43.1,48.8,43.1,48.8l-13.4,75.1c0,0-30.6,51.2-59.4,56L74.1,161
	C74.1,161,99.9,134.2,100.9,121.8z"/>
<path class="st4" d="M186.6,130.4c0,0,45.5-57.4,96.2-26.3c0,0-27.8,11-31.1,37.3c-3.4,26.3-23.5,47.4-23.5,47.4
	s-27.8,24.4-50.3,4.3S181.3,135.7,186.6,130.4z"/>
<path class="st5" d="M115.3,111.3c0,0-0.5-5.7-5.3,0s1,5.3,1,5.3S114.3,115.1,115.3,111.3z"/>
<path class="st5" d="M151.6,104.1c0,0-7.2,1-7.2,7.7s9.6-0.5,9.6-0.5S158.8,104.1,151.6,104.1z"/>
<path class="st5" d="M135.8,88.3c0,0,6.7-1.4,4.8,2.4c-1.9,3.8-6.2,1.4-6.2,1.4S132.5,89.2,135.8,88.3z"/>
<path class="st6" d="M74.1,161c0,0,43.1-1.4,56.5,34.9s3.8,50.3,3.8,50.3s-19.1,43.1-57,16.3c0,0-8.6-6.2-9.1-20.6
	c-0.5-14.4-10.1-28.7-10.1-28.7s-19.1-31.1-2.9-43.1S74.1,161,74.1,161z"/>
<path class="st7" d="M66.9,189.3c0,0,7.2-10.1,23.9,0c16.8,10.1,29.7,50.7,29.7,50.7s-15.8,23.5-32.5,9.6c0,0-2.9,0-3.8-10.5
	c-1-10.5-5.7-29.2-5.7-29.2S71.7,188.8,66.9,189.3z"/>
<path class="st8" d="M94.2,192.1c0,0-4.8,34,26.3,47.9C120.5,240,125.8,204.1,94.2,192.1z"/>
</svg>
