<?xml version="1.0" encoding="utf-8"?>
<!-- Generator: Adobe Illustrator 23.0.4, SVG Export Plug-In . SVG Version: 6.00 Build 0)  -->
<svg version="1.1" id="Layer_1" xmlns="http://www.w3.org/2000/svg" xmlns:xlink="http://www.w3.org/1999/xlink" x="0px" y="0px"
	 viewBox="0 0 288 288" style="enable-background:new 0 0 288 288;" xml:space="preserve">
<style type="text/css">
	.st0{fill:#73686E;}
	.st1{fill:#ADA8C1;}
	.st2{fill:#CCC7C2;}
	.st3{fill:#B89095;}
	.st4{fill:#F3F1F8;}
	.st5{fill:#DAD9C9;}
</style>
<path class="st0" d="M64.7,218.2l23.6,13l-9.1,4.8c0,0-15.4-6.3-14.9-8.2C64.7,225.9,64.7,218.2,64.7,218.2z"/>
<path class="st0" d="M118.1,236l26-2.9c0,0,0,7.7-9.1,9.1c-9.1,1.4-9.1,1.4-9.1,1.4L118.1,236z"/>
<path class="st0" d="M168.7,219.1l14.4-17.3c0,0,4.8,2.9,2.9,8.7c-1.9,5.8-5.3,9.6-5.3,9.6L168.7,219.1z"/>
<polygon class="st0" points="188.4,189.3 191.8,178.7 197.1,181.1 201,173.9 207.7,171.9 208.7,169.5 222.6,169.1 221.2,171.9 
	229.4,176.8 231.8,184 229.4,193.6 225,200.8 216.8,204.2 211.5,206.6 204.8,204.7 203.4,201.8 198.5,198.9 197.1,191.7 "/>
<path class="st0" d="M243.8,88.2c0,0,10.6,10.1,10.6,11.6c0,0-1.9-8.2-3.4-9.6C249.6,88.6,243.8,88.2,243.8,88.2z"/>
<path class="st0" d="M258.8,122.3c0,0-2.9,17.8-4.3,19.7c0,0,9.1,0,10.1-6.7s0.5-10.1,0.5-10.1S260.8,121.9,258.8,122.3z"/>
<path class="st0" d="M241.4,160.4l-13.5,6.7c0,0,1.4,4.3,6.7,1.9C240,166.6,241.4,160.4,241.4,160.4z"/>
<path class="st1" d="M64.7,218.2l-2.9-2.4c0,0,1-1.4-3.4-5.8c-4.3-4.3-11.6-14-11.6-14s-1-17.3-4.8-21.7c-3.9-4.3,0-17.3,0-17.3
	s-12-17.3-4.8-21.7s13.5-8.7,13.5-8.7s2.4-8.7,6.3-11.1c0,0-2.9-10.6,2.9-14.9s7.7-5.3,7.7-5.3l10.1,1.4c0,0,14.4-9.1,22.1-7.7
	c0,0,15.9-4.8,26.5-1c0,0,2.4-9.6,15.9-7.7c13.5,1.9,14.9,16.4,14.9,16.4s9.6,6.7,10.6,8.7l5.3-6.7c0,0-3.9-10.1,1.4-12.5
	s6.7-3.9,6.7-3.9s5.8-1.9,7.2,1.4c0,0,12-6.7,18.8-6.3c0,0,1.9-8.7,10.6-6.7c8.7,1.9,9.6,3.9,9.6,3.9l0.5,5.8
	c0,0,32.7,4.8,31.8,41.9c0,0-2.9,27-18.3,38c-15.4,11.1-18.8,8.7-18.8,8.7s-19.7,1.4-27.9-2.4c0,0-3.4,26.5-11.6,35.1
	c0,0-19.7,28.4-39,31.3c-19.3,2.9-26,2.9-26,2.9s-14.9,2.4-29.9-4.8S64.7,218.2,64.7,218.2z"/>
<ellipse transform="matrix(0.3095 -0.9509 0.9509 0.3095 21.1202 305.1325)" class="st2" cx="220.7" cy="138" rx="8.2" ry="16.1"/>
<ellipse transform="matrix(0.3095 -0.9509 0.9509 0.3095 21.4763 305.3152)" class="st1" cx="221" cy="137.9" rx="4.6" ry="9.9"/>
<path class="st2" d="M77.2,205.2c0,0,26.5,10.1,33.2,6.7c6.7-3.4,23.1-17.8,23.1-17.8s2.9-11.1,13.5-7.7c10.6,3.4-6.7,14-6.7,14
	l-14.4,12l20.2,1c0,0,13.5-6.7,13-1.4c-0.5,5.3-6.3,11.1-6.3,11.1s-2.4,0.5-6.7-1.9c-4.3-2.4-29.9,0-29.9,0l-13,9.1
	c0,0,1.9,2.9-0.5,4.3c-2.4,1.4-17.8-4.8-17.8-4.8s0.5-1.9,4.3-1.9s14.4-8.2,14.4-8.2l-22.1-5.3c0,0-13,0-15.4-4.8
	c-2.4-4.8,1.4-7.2,1.4-7.2S72.9,198.9,77.2,205.2z"/>
<path class="st2" d="M92.6,182.5c-8.2,0.8-13.3,7.4-12.6,13.1c0.5,3.8,3.7,7,7.8,8.6l11.1,1c0,0,1.4,3.9,6.7,3.4
	c5.3-0.5,7.7-2.4,7.7-2.4s2.4-3.4,2.4-4.8c0-1.2,9.6-6.9,8.6-12.7c-0.3-1.5-1.1-2.5-1.8-3.2C116,178.6,95.4,182,92.6,182.5z"/>
<ellipse class="st1" cx="101.5" cy="194.2" rx="13.5" ry="5.3"/>
<path class="st3" d="M53.1,173.9c0,0,10.6-13.5,15.9-14.4s25-6.3,25-6.3l23.1-8.2c0,0,31.3,0,35.1,6.3c3.9,6.3,3.9,11.1,3.9,11.1
	s0,4.3-19.3-1c-19.3-5.3-53,4.8-53,4.8s-24.6,9.6-26,17.3C58,183.5,48.8,184.5,53.1,173.9z"/>
<path class="st4" d="M69,159.4c0,0,1.4,4.8,8.7,2.4c7.2-2.4,7.2-2.4,7.2-2.4v-3.9L69,159.4z"/>
<path class="st4" d="M104.2,150.8c0,0-0.5,2.4,11.1,1.9s9.1-7.2,9.1-7.2S111.9,145,104.2,150.8z"/>
<path class="st4" d="M58,183.5c0,0-12-13-5.3-21.2c0,0,12.5,3.9,15.4,10.6C68.1,172.9,57,180.6,58,183.5z"/>
<path class="st4" d="M132.1,159.9c0,0,7.2-20.7,9.6-19.7c2.4,1,8.7,24.6,8.7,24.6L132.1,159.9z"/>
<path class="st5" d="M75.8,246.6c0,0-4.8-1.9-3.9,1.9c1,3.9,4.3,1.4,4.3,1.4S77.2,247.1,75.8,246.6z"/>
<path class="st5" d="M56.5,243.2c0,0-9.1-4.8-11.1,3.9c0,0-12.5,6.3-1.9,16.4c0,0,5.3,13,17.8,4.3c0,0,13-4.8,5.3-16.4
	C66.6,251.4,68.5,241.3,56.5,243.2z"/>
<path class="st5" d="M24.2,116.1c0,0-10.6-10.1-16.9,4.8c0,0-11.6,11.6,4.3,16.4c0,0,10.6,6.3,14-2.9c0,0,6.3-5.8,2.4-10.6
	C28.1,123.8,28.1,117.1,24.2,116.1z"/>
<path class="st5" d="M30.5,73.2c0,0-0.5-9.1,4.8-11.1c0,0,8.2-13,20.7-2.9c0,0,11.1-4.3,11.6,6.3C68.1,76.1,66.1,79,66.1,79
	s-0.5,11.1-4.8,9.1c0,0-4.8,14-17.8,4.8c0,0-13.5,0-14.9-6.3C27.1,80.5,30.5,73.2,30.5,73.2z"/>
<path class="st5" d="M73.8,74.2c0,0-3.9,5.8,2.4,7.2l1.4-2.9C77.7,78.5,81.5,72.8,73.8,74.2z"/>
<path class="st5" d="M126.8,42.4c0,0-13.5,6.7,2.4,20.7c0,0,4.3,10.6,15.4,4.8c0,0,8.7,2.4,10.1-4.3c0,0,7.7-1,6.7-6.7
	c0,0,7.7-7.7,1.4-15.4s-14-5.8-14-5.8S136.4,24.1,126.8,42.4z"/>
<path class="st5" d="M205.8,216.7c0,0-13-4.8-14.9,8.7s8.2,16.4,8.2,16.4s3.9,8.2,14.9,2.9c0,0,14.4-2.9,7.2-16.4
	C221.2,228.3,221.7,209,205.8,216.7z"/>
<path class="st5" d="M258.7,162.3c0,0-1-12,7.7-11.6c8.7,0.5,10.1,6.3,10.1,6.3s12.5,1.4,6.3,13.5c0,0,0,9.1-5.3,8.2
	c0,0-8.7,8.2-14,0C263.5,178.7,248.6,173.9,258.7,162.3z"/>
</svg>
