<?xml version="1.0" encoding="utf-8"?>
<!-- Generator: Adobe Illustrator 23.0.6, SVG Export Plug-In . SVG Version: 6.00 Build 0)  -->
<svg version="1.1" id="Layer_2" xmlns="http://www.w3.org/2000/svg" xmlns:xlink="http://www.w3.org/1999/xlink" x="0px" y="0px"
	 viewBox="0 0 288 288" style="enable-background:new 0 0 288 288;" xml:space="preserve">
<style type="text/css">
	.st0{fill:#C8AD7E;}
	.st1{fill:#F2CE7E;}
	.st2{fill:#DDE4E7;}
	.st3{fill:#030A0D;}
</style>
<path class="st0" d="M165.4,122.8c0,0,13.9-16.7,15.2-16.7l-1.9,7.9c0,0,20.6-17.8,21.9-17.3l-12.4,32.1l-10.9,1.7L165.4,122.8z"/>
<path class="st0" d="M57.3,66.9c0,0,18.6-29.7,27.2-35.1s57-32.6,61.9-29.3c5,3.3-18.6,29.7-18.6,29.7l7-2.5
	c0,0-11.6,15.7-13.6,16.9c-2.1,1.2-36.3,31-36.3,31L57.3,66.9z"/>
<path class="st0" d="M152.7,194.4c0,0,13.6,22.7,11.6,29.3c-2.1,6.6-16.5,23.1-16.5,23.1s-10.3-0.4-11.6,6.2
	c-1.2,6.6,7.4,6.6,7.4,6.6s11.1,0.4,16.1-3.7c5-4.1,26-31,28.5-31c2.5,0-24.8-33.9-24.8-33.9l-11.6,1.2L152.7,194.4z"/>
<path class="st0" d="M58.5,169.9c0,0,2.9,38.5,7.6,50.4c4.8,11.9,0.5,39-4.8,44.7c-5.2,5.7-3.3,10-3.3,10s-0.5,5.2,10,2.4
	S79.9,264,79.9,264l4.3-72.7C84.2,191.3,65.2,152.8,58.5,169.9z"/>
<path class="st1" d="M77.1,194.6c0,0,10.9,37.6-4.3,74.2c0,0-9,7.1-2.9,13.3c6.2,6.2,16.2,0,16.2,0s6.2-5.2,8.6-17.6
	c2.4-12.4,10.9-59.9,16.2-60.4c0,0,11.9,1,24.7-5.7s25.2-7.1,28-2.9s13.8,21.9,13.8,21.9s4.3,8.5,12.4,11.2s18.6,12.2,18.6,12.2
	s-3.9,18.2-10.7,23.3c0,0-1.3,1.1-7.1,2.1c-5.8,0.9-4.3,9.2-4.3,9.2s0.6,2.4,2.8,3c0,0,1.5,3.9,7.7,2.3c0,0,6.9,1.7,15-7.3
	c0,0,22.7-28.1,16.1-36.6c0,0-18.2-14.3-13.5-42.6c0,0,20.4,8.4,22.1,6.6l-7.5-7.7c0,0,6.6,2.6,6.6,0.9l-8.8-8.4l10.5,2.3l-18-16.7
	l28-2.6l-25.9-11.3c0,0,44.5-21.2,44.5-23.8l-48.8,3.9l32.8-33.8l-14.1,5.3l5.4-8.1c0,0-52.5,26.1-54.4,28.7l-7.9-0.8l-39-2.4
	l-43.3,9.8l-25.3,29.6L77.1,194.6z"/>
<path class="st2" d="M112.7,102.7l13.3-5.8l-3.4,5.4c0,0,47.3-10.3,52.7-9.4l-29.6,20.6l14.3-2.3l-11.1,7.5c0,0,33.2,5.8,35.1,9
	c0,0-46,6.4-47.3,6.2l5.4,3.4l-8.8,2.8l12,13.7c0,0-11.6-1.9-15-3.6l21,30.2l-41.8-23.6l7.9,20.1l-5.8-4.7l10.1,28.1l-29.3-26.6
	l0.2,12.8c0,0-9.2-11.8-9.6-13.7l-6.8,40.9c0,0-10.3-16.3-14.3-47.8c0,0-25,31-26.8,30.6c0,0,4.7-24,16.1-41.1l-11.1,3.9
	c0,0,7.1-12.2,10.5-13.1l-5.1,0.8l6.4-6.9l-20.8,2.3l16.9-11.4l52.3-26.8L112.7,102.7z"/>
<path class="st1" d="M57.3,66.9c0,0,26-19.8,28.9-19.8l-6.6,13.2l7-1.2c0,0-4.1,6.2-5.8,6.6h6.6c0,0,9.9-12.8,31-19.4
	s68.5-16.1,72.7-13.6l-32.2,33.9l9.9,1.7c0,0-26.8,15.7-59.5,16.5l7.4,3.3c0,0-9.1,1.7-13.6,1.7l10.3,7.4l-6.2,2.1
	c0,0,11.6,8.3,12,9.5c0,0-13.2,0.8-16.5-0.4c0,0,6.2,6.2,7.4,9.1l-3.7,0.4c0,0,7.8,2.9,7.8,4.1c0,0-20.2-0.4-24.8-1.2l4.1,4.5
	l-7.8-1.7l5,12.8c0,0-12.8-2.9-14.5-4.5l1.7,5c0,0-8.7-4.5-9.1-5.8l3.7,15.7c0,0-10.7-7.8-10.7-10.3l-4.1,7.8c0,0-3.3-8.7-3.3-11.6
	c0,0-27.2-7.4-31-22.3c0,0-9.5-7-6.6-14.5c2.9-7.4,13.2-8.3,13.2-8.3S37.5,71.8,45,69.3C52.4,66.9,57.3,66.9,57.3,66.9z"/>
<path class="st3" d="M19.5,97c0,0-2.1-0.1-0.8,1.9c1.3,2,4.9,0.3,4.9,0.3S26.4,96.9,19.5,97z"/>
<path class="st3" d="M84,78.3c0,0,18.4-20.8,30.8-24.4s50.7-17.3,60.4-14.6c0,0-31.1,32.3-41.3,34.7c-10.1,2.4-45.2,7.9-45.2,7.9
	s11.8-7.3,11.8-9.8C100.5,72.1,86.6,75.3,84,78.3z"/>
</svg>
